<?xml version="1.0" encoding="utf-8"?>
<!-- Generator: Adobe Illustrator 17.0.0, SVG Export Plug-In . SVG Version: 6.00 Build 0)  -->
<!DOCTYPE svg PUBLIC "-//W3C//DTD SVG 1.1//EN" "http://www.w3.org/Graphics/SVG/1.1/DTD/svg11.dtd">
<svg version="1.1" xmlns="http://www.w3.org/2000/svg" xmlns:xlink="http://www.w3.org/1999/xlink" x="0px" y="0px"
	 width="36.025px" height="11.769px" viewBox="401.237 215.124 36.025 11.769"
	 enable-background="new 401.237 215.124 36.025 11.769" xml:space="preserve">
<g id="fondo" display="none">
</g>
<g id="Capa_1">
	<path fill="#EEDAEF" d="M435.294,223.799c-0.042-0.06-0.052-0.132-0.127-0.191c-0.642-0.519-1.897-0.738-3.154-0.812
		c-1.285-0.079-2.675-0.052-4.181-0.14c-2.128-0.258-4.535,0.277-6.669,0.561c2.559-0.132,5.146-0.399,7.645-0.388
		c1.243,0.01,2.467,0.088,3.589,0.306c1.091,0.218,2.155,0.616,2.583,1.138c-0.196,0.235-0.349,0.437-0.523,0.577
		c-0.212,0.151-0.388,0.222-0.61,0.198c-1.098-0.318-2.579-0.442-4.058-0.448c-0.014-0.226-0.042-0.669-0.056-0.892
		c-4.241,0.957-8.739-0.14-13.26,1.563c0.182,0.098,0.106,0.292,0.09,0.441l-0.033,0.005l0.033-0.005
		c-0.016,0.13,0.017,0.226,0.309,0.189c-0.292,0.037-0.325-0.059-0.309-0.189c4.56-0.797,8.82-1.255,13.055-1.112
		c-3.265,0.013-6.671,0.496-10.129,1.014c-1.736,0.262-3.499,0.54-5.33,0.78c-1.838,0.236-3.714,0.454-5.837,0.492
		c-0.358,0.008-1.098,0.01-1.501-0.013c-0.371-0.175-0.768-0.341-1.18-0.5c-0.49-0.173-0.907-0.321-1.274-0.451
		c-0.406-0.123-0.975-0.345-1.461-0.52c-0.546-0.237-1.294-0.563-1.668-0.859c0.507-0.337,0.63-1.269,1.034-1.777
		c0.198-0.261,0.426-0.42,0.768-0.41c0.187-0.004,0.401,0.032,0.658,0.119c0.257,0.083,0.532,0.154,0.886,0.313
		c0.049-0.219,0.146-0.659,0.195-0.878c-1.252-0.853-1.039-2.343-0.448-3.202c0.458-0.947,1.545-1.282,1.548-1.853
		c-0.098-0.279,0.217-0.269,0.738-0.294c0.611,0.01,1.22,0.02,1.862,0.03c1.447,0.011,3.131-0.034,4.723-0.441
		c2.334-0.493,4.729-1.057,7.271-0.94c3.495,0.229,7.292-0.51,11.11,0.32c0.689,0.102,1.646-0.007,2.591,0.01
		c0.468,0.006,0.921,0.031,1.328,0.133c0.395,0.092,0.702,0.221,0.892,0.444c0.546,0.455,0.427,0.922,0.215,1.42
		c-1.263-0.358-2.404-0.462-3.516-0.528c-1.117-0.072-2.182-0.06-3.242-0.062c-2.589-0.104-5.128-0.091-7.657-0.218
		c2.497,0.302,5.028,0.246,7.657,0.218c1.06,0.055,2.119,0.112,3.213,0.256c1.086,0.135,2.197,0.325,3.364,0.734
		c-0.198,0.425-0.375,0.876-0.352,1.337c0,0,0.16,0.038,0.36,0.085c0.199,0.069,0.438,0.151,0.597,0.206
		c0.432,0.797,0.193,1.475-0.163,2.033c-0.366,0.565-0.846,1.095-1.13,1.572C435.638,223.355,435.433,223.579,435.294,223.799z"/>
	<g id="Sol">
	</g>
</g>
<g id="Capa_4">
</g>
</svg>
