<?xml version="1.0" encoding="utf-8"?>
<!-- Generator: Adobe Illustrator 17.0.0, SVG Export Plug-In . SVG Version: 6.00 Build 0)  -->
<!DOCTYPE svg PUBLIC "-//W3C//DTD SVG 1.1//EN" "http://www.w3.org/Graphics/SVG/1.1/DTD/svg11.dtd">
<svg version="1.1" xmlns="http://www.w3.org/2000/svg" xmlns:xlink="http://www.w3.org/1999/xlink" x="0px" y="0px"
	 width="53.372px" height="53.372px" viewBox="-30.348 151.852 53.372 53.372"
	 enable-background="new -30.348 151.852 53.372 53.372" xml:space="preserve">
<g id="fondo" display="none">
</g>
<g id="Capa_1" display="none">
	<g id="Sol" display="inline">
	</g>
</g>
<g id="Capa_4">
	<g>
		<g>
			<defs>
				<circle id="SVGID_8_" cx="-3.302" cy="119.192" r="26.686"/>
			</defs>
			<clipPath id="SVGID_1_">
				<use xlink:href="#SVGID_8_"  overflow="visible"/>
			</clipPath>
			<g clip-path="url(#SVGID_1_)">
				<path fill="#000B37" d="M-48.895,180.028c5.088-5.717,10.121-11.484,15.17-17.235c5.606-6.385,11.203-12.777,16.788-19.18
					c0.27,0.247,0.693,0.324,1.019-0.016c5.173-5.396,10.622-10.78,15.322-16.606c0.149,0.016,0.302-0.02,0.434-0.099
					c0.189,0.076,0.409,0.086,0.634-0.013c2.842-1.256,5.721-2.45,8.53-3.776c1.919-0.905,3.593-2.065,4.346-4.125
					c1.492-4.083-1.047-8.132-4.343-10.433c-3.235-2.259-8.239-4.477-11.77-1.642c-1.727,1.387-2.209,3.711-2.721,5.761
					c-0.684,2.739-1.222,5.515-1.536,8.325c-2.577,2.701-4.832,5.811-7.141,8.744c-2.332,2.963-4.689,5.91-6.963,8.918
					c-0.061,0.081-0.354,0.33-0.456,0.448c-10.118,11.647-19.718,23.853-29.288,35.958c-1.106,1.398-3.919,3.923-2.483,5.971
					C-52.004,182.95-49.939,181.201-48.895,180.028z M-5.801,121.101c0.601-3.579,1.127-7.343,2.371-10.752
					c1.918-5.255,7.722-3.391,11.227-0.945c3.124,2.18,6.332,6.936,3.237,10.492c-1.381,1.587-3.79,2.288-5.654,3.116
					c-0.866,0.384-1.732,0.77-2.598,1.155c3.595-2.083,7.283-4.575,8.335-8.645c0.08-0.309-0.381-0.416-0.475-0.119
					c-1.573,4.945-6.972,7.21-10.963,9.929c-0.041-0.058-0.081-0.117-0.122-0.175c4.005-2.789,8.167-5.923,10.374-10.411
					c0.149-0.304-0.294-0.548-0.464-0.254c-2.524,4.376-6.29,7.236-10.263,10.198c-0.04-0.05-0.079-0.103-0.119-0.152
					c3.66-3.521,8.16-7.234,10.325-11.925c0.125-0.272-0.251-0.478-0.409-0.224c-2.801,4.51-6.585,7.973-10.259,11.737
					c0,0-0.001-0.001-0.001-0.001c3.284-4.052,6.294-8.44,9.264-12.727c0.187-0.27-0.273-0.611-0.474-0.345
					c-3.124,4.136-6.327,8.34-9.139,12.703c-0.07-0.071-0.138-0.145-0.21-0.214c3.083-4.214,5.848-8.727,8.685-13.113
					c0.202-0.312-0.304-0.582-0.507-0.278c-2.879,4.309-5.906,8.602-8.537,13.07c-0.1-0.088-0.197-0.18-0.3-0.265
					c1.528-1.931,2.866-4.03,4.152-6.13c1.466-2.394,2.65-5.023,4.413-7.215c0.239-0.297-0.195-0.714-0.436-0.414
					c-1.572,1.957-2.649,4.243-3.928,6.395c-1.438,2.42-3.058,4.704-4.609,7.048c-0.084-0.062-0.168-0.125-0.254-0.185
					c3.28-3.83,5.617-8.788,6.795-13.693c0.089-0.369-0.463-0.503-0.569-0.142c-1.47,5.039-3.697,9.272-6.681,13.538
					c-0.08-0.05-0.158-0.102-0.24-0.149c0.023-0.018,0.046-0.036,0.065-0.063c3.09-4.493,4.269-9.407,6.068-14.473
					c0.108-0.303-0.397-0.502-0.528-0.207c-0.987,2.237-1.421,4.672-2.232,6.975c-0.933,2.65-2.237,5.113-3.794,7.439
					c-0.019,0.029-0.027,0.056-0.034,0.084c-0.076-0.04-0.15-0.083-0.227-0.121c0.02-0.019,0.038-0.04,0.053-0.07
					c2.146-4.368,4.198-9.002,4.927-13.862c0.055-0.364-0.48-0.511-0.563-0.141c-1.083,4.865-2.98,9.167-4.776,13.777
					c-0.017,0.044-0.018,0.085-0.013,0.125c-0.08-0.035-0.157-0.076-0.238-0.109c0.053-0.033,0.1-0.082,0.125-0.156
					c1.439-4.23,2.868-8.658,3.804-13.033c0.051-0.24-0.323-0.413-0.419-0.164c-1.606,4.196-2.834,8.7-3.942,13.058
					c-0.012,0.046-0.013,0.088-0.007,0.126C-5.643,121.164-5.72,121.128-5.801,121.101z M-12.812,130.477
					c2.15-2.77,4.449-5.512,6.371-8.453c2.115,0.821,3.863,2.251,5.077,4.152c-5.36,4.913-10.261,10.512-15.173,15.881
					c-0.123-0.103-0.274-0.165-0.43-0.163c-0.425-0.405-0.887-0.774-1.332-1.157c-0.515-0.443-1.013-0.891-1.56-1.281
					C-17.468,136.499-15.145,133.482-12.812,130.477z M-50.498,179.834c-0.267-0.13-0.533-0.261-0.8-0.391
					c-0.865-0.1-1.028-0.368-0.492-0.805c0.259-0.666,1.095-1.363,1.55-1.913c1.076-1.301,2.147-2.607,3.209-3.919
					c4.087-5.051,8.185-10.092,12.26-15.152c4.687-5.82,9.456-11.585,13.954-17.554c0.483,0.587,1.033,1.099,1.589,1.626
					c0.389,0.368,0.769,0.758,1.171,1.119c-8.406,9.528-16.799,19.068-25.15,28.645c-2.132,2.445-4.257,4.895-6.397,7.333
					C-49.755,178.994-50.313,179.802-50.498,179.834z"/>
			</g>
		</g>
	</g>
	<g>
		<circle fill="#333366" cx="-3.662" cy="178.538" r="26.686"/>
		<g>
			<path fill="#EB1450" d="M-11.892,179.46l18.575-0.345c0,0-0.291,10.444-1.126,12.992s-2.854,3.505-9.687,2.446
				c-6.832-1.059-9.997,0.462-9.381-5.391C-12.895,183.31-11.892,179.46-11.892,179.46z"/>
			<polygon fill="#FFC6D7" points="-7.737,161.62 1.275,162.67 1.744,178.187 -8.429,178.538 			"/>
			<g>
				<path fill="#000B37" d="M1.219,161.87c-2.926-0.173-6.059-0.618-8.955-0.25c-0.273,0.035-0.402,0.29-0.39,0.537
					c-0.043,0.085-0.071,0.184-0.079,0.298c-0.177,2.74-0.359,5.48-0.531,8.22c-0.152,2.427-0.481,4.94-0.281,7.371
					c-1.147-0.019-2.294-0.036-3.44-0.042c-0.591-0.003-0.832,0.575-0.687,1c-0.411,1.532-0.421,3.217-0.581,4.779
					c-0.207,2.021-0.407,4.044-0.589,6.068c-0.155,1.719-0.066,3.99,1.627,4.424c0.076,0.115,0.197,0.207,0.375,0.235
					c3.333,0.514,6.754,0.605,10.116,0.836c2.186,0.151,5.014,0.753,6.919-0.688c1.595-1.207,1.815-3.299,1.919-5.15
					c0.183-3.244,0.298-6.5,0.402-9.748c0.01-0.315-0.147-0.529-0.36-0.643c0.006-0.262-0.175-0.559-0.473-0.603
					c-1.464-0.219-2.962-0.296-4.465-0.324c0.47-2.564,0.268-5.299,0.303-7.9c0.031-2.349,0.298-4.849,0.049-7.205
					c0.268-0.334,0.117-0.884-0.258-1.101C1.679,161.822,1.439,161.796,1.219,161.87z M5.582,179.693
					c-0.12,2.498-0.199,4.999-0.294,7.499c-0.087,2.281,0.361,6.141-2.491,6.875c-2.11,0.543-4.742-0.049-6.882-0.185
					c-2.283-0.145-4.584-0.356-6.877-0.387c-0.061-0.416-0.412-0.817-0.949-0.738c-1.593,0.234-0.487-6.498-0.412-7.388
					c0.161-1.896,0.539-3.966,0.431-5.908c3.032,0.073,6.066,0.094,9.098,0.139c2.771,0.041,5.621,0.236,8.392-0.008
					C5.592,179.624,5.584,179.656,5.582,179.693z M0.53,170.609c-0.009,2.479-0.251,5.088,0.16,7.54
					c0.002,0.01,0.008,0.017,0.01,0.026c-1.281-0.008-2.561,0.003-3.82-0.018c-1.596-0.028-3.192-0.063-4.788-0.092
					c0.507-2.377,0.5-4.907,0.663-7.323c0.178-2.634,0.344-5.268,0.516-7.902c2.366,0.409,4.9,0.385,7.301,0.479
					C0.301,165.694,0.539,168.248,0.53,170.609z"/>
				<path fill="#000B37" d="M-0.402,175.783c-0.347,0.086-0.636,0.349-0.942,0.526c-0.327,0.189-0.663,0.357-1.01,0.505
					c-0.349,0.148-0.129,0.764,0.234,0.631c0.383-0.14,0.759-0.294,1.116-0.491c0.326-0.181,0.731-0.379,0.928-0.707
					C0.056,176.024-0.135,175.717-0.402,175.783z"/>
				<path fill="#000B37" d="M-1.351,174.451l-0.889,0.401c-0.349,0.158-0.071,0.655,0.273,0.519c0.304-0.12,0.607-0.24,0.911-0.36
					c0.284-0.112,0.59-0.201,0.826-0.398c0.243-0.203,0.001-0.519-0.258-0.492C-0.787,174.153-1.078,174.328-1.351,174.451z"/>
				<path fill="#000B37" d="M-0.542,172.248c-0.244,0.079-0.453,0.244-0.669,0.382c-0.222,0.142-0.443,0.285-0.665,0.427
					c-0.315,0.202-0.054,0.72,0.275,0.522c0.225-0.136,0.45-0.271,0.675-0.407c0.214-0.129,0.471-0.243,0.646-0.423
					C-0.096,172.557-0.244,172.152-0.542,172.248z"/>
				<path fill="#000B37" d="M-1.19,170.983c-0.218,0.157-0.452,0.283-0.699,0.386c-0.299,0.126-0.112,0.648,0.2,0.54
					c0.302-0.105,0.595-0.233,0.862-0.41c0.256-0.17,0.56-0.363,0.608-0.684c0.028-0.186-0.173-0.297-0.328-0.274
					C-0.798,170.578-0.99,170.839-1.19,170.983z"/>
				<path fill="#000B37" d="M-1.462,169.341l-0.566,0.554c-0.273,0.268,0.122,0.703,0.402,0.44c0.192-0.181,0.384-0.362,0.576-0.542
					c0.171-0.161,0.457-0.342,0.503-0.583c0.039-0.204-0.097-0.373-0.312-0.341C-1.106,168.906-1.291,169.173-1.462,169.341z"/>
				<path fill="#000B37" d="M-0.777,167.396c-0.231,0.074-0.343,0.289-0.533,0.43c-0.181,0.134-0.388,0.214-0.608,0.258
					c-0.384,0.075-0.247,0.651,0.135,0.59c0.285-0.045,0.561-0.15,0.801-0.31c0.225-0.151,0.548-0.386,0.547-0.682
					C-0.436,167.515-0.595,167.338-0.777,167.396z"/>
				<path fill="#000B37" d="M-0.79,166.183c-0.166,0.093-0.283,0.245-0.448,0.337c-0.164,0.092-0.339,0.122-0.526,0.108
					c-0.375-0.03-0.388,0.527-0.026,0.577c0.536,0.074,1.28-0.184,1.385-0.777C-0.371,166.227-0.632,166.094-0.79,166.183z"/>
				<path fill="#000B37" d="M-1.386,165.175c-0.184,0.085-0.366,0.173-0.549,0.259c-0.291,0.137-0.113,0.656,0.2,0.54
					c0.189-0.07,0.378-0.14,0.567-0.21c0.195-0.072,0.4-0.119,0.514-0.305c0.086-0.141,0.033-0.374-0.148-0.415
					C-1.027,164.992-1.186,165.082-1.386,165.175z"/>
				<path fill="#000B37" d="M4.148,181.853c-0.342,2.106-0.849,4.174-1.568,6.184c-0.184,0.516-0.381,1.463-0.779,1.864
					c-0.594,0.598-1.928,0.838-2.734,0.83c-1.027-0.011-2.128-0.28-3.143-0.414c-2.346-0.312-5.13-0.187-5.91-2.928
					c-0.559-1.963-0.636-4.14-1.02-6.15c-0.07-0.367-0.6-0.231-0.557,0.127c0.196,1.643,0.445,3.28,0.702,4.915
					c0.157,1.004,0.231,2.148,0.891,2.978c1.379,1.734,4.627,1.59,6.562,1.849c2.105,0.281,4.673,1.174,5.966-1.042
					c1.382-2.37,1.942-5.506,2.376-8.177C5.014,181.39,4.228,181.359,4.148,181.853z"/>
			</g>
		</g>
	</g>
</g>
</svg>
