<?xml version="1.0" encoding="utf-8"?>
<!-- Generator: Adobe Illustrator 17.0.0, SVG Export Plug-In . SVG Version: 6.00 Build 0)  -->
<!DOCTYPE svg PUBLIC "-//W3C//DTD SVG 1.1//EN" "http://www.w3.org/Graphics/SVG/1.1/DTD/svg11.dtd">
<svg version="1.1" xmlns="http://www.w3.org/2000/svg" xmlns:xlink="http://www.w3.org/1999/xlink" x="0px" y="0px"
	 width="55.692px" height="55.692px" viewBox="35.386 -32.162 55.692 55.692" enable-background="new 35.386 -32.162 55.692 55.692"
	 xml:space="preserve">
<g id="fondo" display="none">
</g>
<g id="Capa_1" display="none">
	<g id="Capa_2" display="inline">
		<rect x="1.686" y="-28.143" fill="#333366" width="36" height="15"/>
	</g>
	<g display="inline">
		<g>
			<g>
				<g>
					<path opacity="0.1091" fill="#333366" enable-background="new    " d="M79.58,15.024c10.327,0.04,20.657,0.079,30.984,0.033
						c2.11-0.009-1.362-3.218-1.373-3.229c-1.456-1.458-2.96-2.864-4.512-4.219c-0.758-0.824-1.649-1.436-2.675-1.836
						c-1.414-0.282-3.193-0.046-4.617-0.053c-3.546-0.017-7.092-0.01-10.639-0.009c-5.086,0.001-10.165-0.053-15.25-0.173
						c-2.086-0.049,1.185,3.213,1.218,3.249c1.38,1.493,2.81,2.937,4.29,4.331C77.724,13.959,78.581,14.595,79.58,15.024z"/>
					<path opacity="0.1091" fill="#333366" enable-background="new    " d="M75.128,11.588c10.275-0.018,20.55-0.045,30.825-0.006
						c1.374,0.005,0.129-1.794-0.11-2.06c-0.798-0.887-2.183-2.634-3.512-2.651c-10.183-0.129-20.372-0.01-30.555-0.009
						c-1.332,0-0.255,1.715,0.012,2.035C72.506,9.757,73.852,11.591,75.128,11.588z"/>
					<path opacity="0.1091" fill="#333366" enable-background="new    " d="M75.183,5.385c10.239-0.41,20.487-0.263,30.735-0.263
						c0.506,0,1.79-1.595,1.099-1.595C96.756,3.528,86.495,3.402,76.24,3.748C75.671,3.768,74.406,5.416,75.183,5.385z"/>
					<path opacity="0.1091" fill="#333366" enable-background="new    " d="M79.323,10.396c10.279-0.039,20.559-0.071,30.838-0.02
						c1.469,0.007-0.033-1.937-0.24-2.159c-0.874-0.938-2.429-2.876-3.857-2.909C95.892,5.075,85.696,5.295,75.521,5.289
						c-1.426-0.001-0.111,1.856,0.134,2.139C76.428,8.324,77.966,10.401,79.323,10.396z"/>
					<path opacity="0.1091" fill="#333366" enable-background="new    " d="M79.216,5.168c10.25-0.361,20.506-0.233,30.762-0.233
						c1.34,0,1.38-2.224,0.002-2.224c-10.266,0-20.533-0.115-30.795,0.201C77.8,2.956,77.848,5.217,79.216,5.168z"/>
					<path opacity="0.1091" fill="#333366" enable-background="new    " d="M72.233,9.565c10.22-0.438,20.448-0.325,30.677-0.328
						c1.925,0,0.841-2.748-0.476-2.748C92.203,6.491,81.97,6.348,71.748,6.808c-0.508,0.023-1.239,0.513-1.133,1.117
						C70.703,8.423,71.673,9.589,72.233,9.565z"/>
					<path opacity="0.1091" fill="#333366" enable-background="new    " d="M76.106,15.074c10.316,0.045,20.632,0.024,30.949,0.04
						c1.986,0.003-1.029-2.92-1.076-2.969c-1.269-1.293-2.585-2.535-3.95-3.726c-0.666-0.74-1.461-1.267-2.385-1.582
						c-1.459-0.234-3.159-0.04-4.625-0.047c-3.546-0.016-7.092-0.01-10.638-0.009C79.302,6.782,74.228,6.738,69.15,6.637
						c-1.952-0.039,0.842,2.882,0.927,2.977c1.196,1.322,2.443,2.594,3.74,3.817C74.444,14.187,75.207,14.734,76.106,15.074z"/>
					<path opacity="0.1091" fill="#333366" enable-background="new    " d="M82.032,9.805c10.299,0.009,20.598-0.045,30.897,0.013
						c1.601,0.009-0.266-2.145-0.426-2.311c-0.84-0.861-1.728-1.671-2.664-2.429c-0.47-0.519-1.04-0.82-1.711-0.902
						c-5.1-0.212-10.245-0.031-15.348-0.031c-5.07,0-10.138-0.007-15.208-0.05c-1.558-0.013,0.105,2.071,0.306,2.297
						c0.787,0.875,1.624,1.7,2.51,2.475C80.829,9.393,81.377,9.706,82.032,9.805z"/>
					<path opacity="0.1091" fill="#333366" enable-background="new    " d="M73.838,7.449C84.061,6.961,94.296,7.14,104.53,7.14
						c1.227,0,1.491-2.135,0.117-2.135C94.4,5.005,84.15,4.843,73.911,5.27C72.618,5.324,72.476,7.515,73.838,7.449z"/>
					<path opacity="0.1091" fill="#333366" enable-background="new    " d="M77.473,7.347C87.71,6.982,97.951,7.073,108.194,7.07
						c1.985-0.001,0.736-2.808-0.574-2.808C97.377,4.264,87.134,4.145,76.898,4.538C74.907,4.615,76.175,7.393,77.473,7.347z"/>
					<path opacity="0.1091" fill="#333366" enable-background="new    " d="M81.53,12.602c10.317,0.049,20.634,0.026,30.951,0.042
						c1.944,0.003-0.963-2.808-1.005-2.851c-1.214-1.21-2.476-2.367-3.786-3.473c-0.642-0.697-1.407-1.179-2.295-1.446
						c-1.501-0.183-3.139-0.036-4.645-0.043c-3.545-0.016-7.091-0.01-10.636-0.01c-5.073,0-10.14-0.038-15.212-0.141
						c-1.907-0.039,0.77,2.765,0.854,2.856c1.142,1.237,2.333,2.424,3.575,3.561C79.934,11.809,80.667,12.31,81.53,12.602z"/>
					<path opacity="0.1091" fill="#333366" enable-background="new    " d="M72.513,11.445c10.353,0.406,20.716,0.255,31.076,0.261
						c1.222,0.001,0.338-1.591,0.064-1.91c-0.706-0.821-1.838-2.24-3.032-2.241c-10.273-0.012-20.549,0.127-30.816-0.21
						c-1.187-0.039-0.423,1.538-0.155,1.872C70.321,10.053,71.345,11.399,72.513,11.445z"/>
				</g>
			</g>
		</g>
	</g>
	<g display="inline">
		<line fill="none" x1="76.686" y1="-13.143" x2="107.686" y2="-13.143"/>
		<g>
			<g>
				<path opacity="0.1091" fill="#F0DEF1" enable-background="new    " d="M84.58-1.976c10.327,0.04,20.657,0.079,30.984,0.033
					c2.11-0.009-1.362-3.218-1.373-3.229c-1.456-1.458-2.96-2.864-4.512-4.219c-0.758-0.824-1.649-1.436-2.675-1.836
					c-1.414-0.282-3.193-0.046-4.617-0.053c-3.546-0.017-7.092-0.01-10.639-0.009c-5.086,0.001-10.165-0.053-15.25-0.173
					c-2.086-0.049,1.185,3.213,1.218,3.249c1.38,1.493,2.81,2.937,4.29,4.331C82.724-3.041,83.581-2.405,84.58-1.976z"/>
				<path opacity="0.1091" fill="#F0DEF1" enable-background="new    " d="M80.128-5.412c10.275-0.018,20.55-0.045,30.825-0.006
					c1.374,0.005,0.129-1.794-0.11-2.06c-0.798-0.887-2.183-2.634-3.512-2.651c-10.182-0.129-20.371-0.011-30.554-0.009
					c-1.332,0-0.255,1.715,0.012,2.035C77.506-7.243,78.852-5.409,80.128-5.412z"/>
				<path opacity="0.1091" fill="#F0DEF1" enable-background="new    " d="M80.183-11.615c10.24-0.41,20.487-0.263,30.735-0.263
					c0.506,0,1.79-1.595,1.099-1.595c-10.261,0-20.522-0.127-30.777,0.221C80.671-13.232,79.406-11.584,80.183-11.615z"/>
				<path opacity="0.1091" fill="#F0DEF1" enable-background="new    " d="M84.323-6.604c10.279-0.039,20.559-0.071,30.838-0.02
					c1.469,0.007-0.033-1.937-0.24-2.159c-0.874-0.938-2.429-2.876-3.857-2.909c-10.172-0.233-20.367-0.014-30.542-0.019
					c-1.426-0.001-0.111,1.856,0.134,2.139C81.428-8.676,82.966-6.599,84.323-6.604z"/>
				<path opacity="0.1091" fill="#F0DEF1" enable-background="new    " d="M84.216-11.832c10.25-0.36,20.506-0.233,30.762-0.233
					c1.34,0,1.38-2.224,0.002-2.224c-10.266,0-20.533-0.115-30.795,0.201C82.8-14.044,82.848-11.783,84.216-11.832z"/>
				<path opacity="0.1091" fill="#F0DEF1" enable-background="new    " d="M77.233-7.435C87.454-7.873,97.681-7.76,107.91-7.763
					c1.925-0.001,0.841-2.748-0.476-2.748c-10.232,0.002-20.464-0.142-30.686,0.318c-0.508,0.023-1.239,0.513-1.133,1.117
					C75.703-8.577,76.673-7.411,77.233-7.435z"/>
				<path opacity="0.1091" fill="#F0DEF1" enable-background="new    " d="M81.106-1.926c10.316,0.046,20.632,0.025,30.949,0.04
					c1.986,0.003-1.029-2.92-1.076-2.969c-1.269-1.293-2.585-2.535-3.95-3.726c-0.666-0.74-1.461-1.267-2.385-1.582
					c-1.459-0.234-3.159-0.04-4.625-0.047c-3.546-0.016-7.092-0.01-10.638-0.009c-5.079,0.001-10.153-0.043-15.231-0.144
					c-1.952-0.039,0.842,2.882,0.927,2.977c1.196,1.322,2.443,2.594,3.74,3.817C79.444-2.813,80.207-2.266,81.106-1.926z"/>
				<path opacity="0.1091" fill="#F0DEF1" enable-background="new    " d="M87.032-7.195c10.299,0.009,20.598-0.045,30.897,0.013
					c1.601,0.009-0.266-2.145-0.426-2.311c-0.841-0.861-1.728-1.671-2.664-2.429c-0.47-0.519-1.04-0.82-1.711-0.902
					c-5.1-0.212-10.245-0.031-15.348-0.031c-5.07,0-10.138-0.007-15.208-0.05c-1.558-0.013,0.105,2.071,0.306,2.297
					c0.787,0.875,1.624,1.7,2.51,2.475C85.829-7.607,86.377-7.294,87.032-7.195z"/>
				<path opacity="0.1091" fill="#F0DEF1" enable-background="new    " d="M78.838-9.551C89.061-10.04,99.296-9.86,109.53-9.86
					c1.227,0,1.491-2.134,0.117-2.135c-10.247,0-20.497-0.162-30.736,0.265C77.618-11.676,77.476-9.485,78.838-9.551z"/>
				<path opacity="0.1091" fill="#F0DEF1" enable-background="new    " d="M82.473-9.653c10.237-0.365,20.478-0.274,30.721-0.277
					c1.985-0.001,0.736-2.808-0.574-2.808c-10.243,0.002-20.486-0.118-30.722,0.276C79.907-12.385,81.175-9.607,82.473-9.653z"/>
				<path opacity="0.1091" fill="#F0DEF1" enable-background="new    " d="M86.53-4.398c10.317,0.049,20.634,0.026,30.951,0.042
					c1.944,0.003-0.963-2.808-1.005-2.851c-1.214-1.21-2.476-2.367-3.786-3.473c-0.642-0.697-1.407-1.179-2.295-1.446
					c-1.501-0.183-3.139-0.036-4.645-0.043c-3.545-0.016-7.091-0.01-10.636-0.01c-5.073,0-10.14-0.038-15.212-0.141
					c-1.907-0.038,0.77,2.765,0.854,2.856c1.142,1.237,2.333,2.424,3.575,3.561C84.934-5.191,85.667-4.69,86.53-4.398z"/>
				<path opacity="0.1091" fill="#F0DEF1" enable-background="new    " d="M77.513-5.555C87.865-5.148,98.228-5.3,108.589-5.294
					c1.223,0.001,0.338-1.591,0.064-1.91c-0.706-0.821-1.838-2.24-3.032-2.241c-10.273-0.011-20.549,0.126-30.816-0.21
					c-1.187-0.039-0.423,1.538-0.155,1.872C75.321-6.947,76.345-5.601,77.513-5.555z"/>
			</g>
		</g>
	</g>
	<path display="inline" fill="#00A99D" d="M35.143,9.85c-0.042-0.06-0.052-0.132-0.127-0.191c-0.642-0.519-1.897-0.738-3.154-0.812
		c-1.285-0.079-2.675-0.052-4.181-0.14c-2.128-0.258-4.535,0.277-6.669,0.561c2.559-0.132,5.146-0.399,7.645-0.388
		c1.243,0.01,2.467,0.088,3.589,0.306c1.091,0.218,2.155,0.616,2.583,1.138c-0.196,0.235-0.349,0.437-0.523,0.577
		c-0.212,0.151-0.388,0.222-0.61,0.198c-1.098-0.318-2.579-0.442-4.058-0.448c-0.014-0.226-0.042-0.669-0.056-0.892
		c-4.241,0.957-8.739-0.14-13.26,1.563c0.182,0.098,0.106,0.292,0.09,0.441l-0.033,0.005l0.033-0.005
		c-0.016,0.13,0.017,0.226,0.309,0.189c-0.292,0.037-0.325-0.059-0.309-0.189c4.56-0.797,8.82-1.255,13.055-1.112
		c-3.265,0.013-6.671,0.496-10.129,1.014c-1.736,0.262-3.499,0.54-5.33,0.78c-1.838,0.236-3.714,0.454-5.837,0.492
		c-0.358,0.008-1.098,0.01-1.501-0.013c-0.371-0.175-0.768-0.341-1.18-0.5c-0.49-0.173-0.907-0.321-1.274-0.451
		c-0.406-0.123-0.975-0.345-1.461-0.52c-0.546-0.237-1.294-0.563-1.668-0.859c0.507-0.337,0.63-1.269,1.034-1.777
		c0.198-0.261,0.426-0.42,0.768-0.41C3.075,8.404,3.289,8.44,3.547,8.526C3.803,8.61,4.078,8.68,4.433,8.84
		C4.481,8.62,4.579,8.181,4.628,7.961C3.375,7.109,3.588,5.619,4.18,4.759c0.458-0.947,1.545-1.282,1.548-1.853
		C5.63,2.627,5.944,2.637,6.465,2.612c0.611,0.01,1.22,0.02,1.862,0.03c1.447,0.011,3.131-0.034,4.723-0.441
		c2.334-0.493,4.729-1.057,7.271-0.94c3.495,0.229,7.292-0.51,11.11,0.32c0.689,0.102,1.646-0.007,2.591,0.01
		c0.468,0.006,0.921,0.031,1.328,0.133c0.395,0.092,0.702,0.221,0.892,0.444c0.546,0.455,0.427,0.922,0.215,1.42
		C35.193,3.23,34.051,3.126,32.94,3.06C31.823,2.988,30.758,3,29.697,2.998c-2.589-0.104-5.128-0.091-7.657-0.218
		c2.497,0.302,5.028,0.246,7.657,0.218c1.06,0.055,2.119,0.112,3.213,0.256c1.086,0.135,2.197,0.325,3.364,0.734
		c-0.198,0.425-0.375,0.876-0.352,1.337c0,0,0.16,0.038,0.36,0.085c0.199,0.069,0.438,0.151,0.597,0.206
		c0.432,0.797,0.193,1.475-0.163,2.033c-0.366,0.565-0.846,1.095-1.13,1.572C35.488,9.406,35.283,9.63,35.143,9.85z"/>
	<g display="inline">
		<g>
			<g>
				<path fill="#EEDAEF" d="M103.907-24.976c-0.042-0.06-0.052-0.132-0.127-0.191c-0.642-0.519-1.897-0.738-3.154-0.812
					c-1.285-0.079-2.675-0.052-4.181-0.14c-2.128-0.258-4.535,0.277-6.669,0.561c2.559-0.131,5.146-0.399,7.645-0.388
					c1.243,0.01,2.467,0.089,3.589,0.306c1.091,0.218,2.155,0.616,2.583,1.138c-0.196,0.235-0.349,0.437-0.523,0.577
					c-0.212,0.151-0.388,0.222-0.61,0.198c-1.098-0.318-2.579-0.442-4.058-0.448c-0.014-0.226-0.042-0.669-0.056-0.892
					c-4.241,0.957-8.739-0.14-13.26,1.563c0.182,0.098,0.106,0.292,0.09,0.441l-0.033,0.005l0.033-0.005
					c-0.016,0.13,0.017,0.226,0.309,0.189c-0.292,0.037-0.325-0.059-0.309-0.189c4.56-0.797,8.82-1.255,13.055-1.112
					c-3.265,0.013-6.671,0.496-10.129,1.014c-1.736,0.262-3.499,0.54-5.33,0.78c-1.838,0.236-3.714,0.454-5.837,0.492
					c-0.358,0.008-1.098,0.01-1.501-0.013c-0.371-0.175-0.768-0.341-1.18-0.5c-0.49-0.173-0.907-0.321-1.274-0.451
					c-0.406-0.123-0.975-0.345-1.461-0.52c-0.546-0.237-1.294-0.563-1.668-0.859c0.507-0.337,0.63-1.269,1.034-1.777
					c0.198-0.261,0.426-0.42,0.768-0.41c0.187-0.004,0.401,0.032,0.658,0.119c0.257,0.083,0.532,0.154,0.886,0.313
					c0.049-0.219,0.146-0.659,0.195-0.878c-1.252-0.853-1.039-2.342-0.448-3.202c0.458-0.947,1.545-1.282,1.548-1.853
					c-0.098-0.279,0.217-0.269,0.738-0.294c0.611,0.01,1.22,0.02,1.862,0.03c1.447,0.011,3.131-0.034,4.723-0.441
					c2.334-0.493,4.729-1.057,7.271-0.94c3.495,0.229,7.292-0.51,11.11,0.32c0.689,0.102,1.646-0.007,2.591,0.01
					c0.468,0.006,0.921,0.031,1.328,0.133c0.395,0.092,0.702,0.221,0.892,0.444c0.546,0.455,0.427,0.922,0.215,1.42
					c-1.263-0.358-2.404-0.462-3.516-0.528c-1.117-0.072-2.182-0.06-3.242-0.062c-2.589-0.104-5.128-0.091-7.657-0.218
					c2.497,0.302,5.028,0.246,7.657,0.218c1.06,0.055,2.119,0.112,3.213,0.256c1.086,0.135,2.197,0.325,3.364,0.734
					c-0.198,0.425-0.375,0.876-0.352,1.337c0,0,0.16,0.038,0.36,0.085c0.199,0.069,0.438,0.151,0.597,0.206
					c0.432,0.797,0.193,1.475-0.163,2.033c-0.366,0.565-0.846,1.095-1.13,1.572C104.251-25.42,104.047-25.196,103.907-24.976z"/>
			</g>
		</g>
	</g>
	<g id="Sol" display="inline">
	</g>
</g>
<g id="Capa_4">
	<g>
		<g>
			<defs>
				<circle id="SVGID_2_" cx="63.232" cy="-4.316" r="26.155"/>
			</defs>
			<clipPath id="SVGID_1_">
				<use xlink:href="#SVGID_2_"  overflow="visible"/>
			</clipPath>
			<g clip-path="url(#SVGID_1_)">
				<g>
					<path fill="#000B37" d="M70.978,37.167c0.002-0.011,0.005-0.02,0.006-0.031c0.246-2.519,0.037-5.131-0.001-7.661
						c-0.035-2.305,0.044-4.667-0.316-6.95c0.052-0.092,0.086-0.202,0.094-0.335c0.312-5.255,0.35-10.527,0.648-15.785
						c0.296-5.209,0.817-10.412,1.008-15.626c0.164-0.228,0.186-0.565-0.004-0.812c-0.288-0.374-0.829-0.493-1.277-0.547
						c-0.441-0.054-0.887,0.028-1.279,0.238c-0.257,0.137-0.337,0.458-0.253,0.707c0,0.001,0,0.001,0,0.001
						c-1.13,10.347-3.071,20.504-5.642,30.586c-0.038,0.151-0.032,0.289,0.001,0.414c-0.902,2.582-1.343,5.381-1.916,8.048
						c-0.559,2.601-1.201,5.199-1.644,7.822c-0.038,0.222,0.058,0.396,0.208,0.509c-0.023,0.142,0.02,0.299,0.15,0.404
						c2.506,2.024,7.39,1.695,10.064,0.173C71.257,38.074,71.268,37.46,70.978,37.167z M70.82-9.276
						c0.057,0.007,0.114,0.015,0.17,0.026c0.101,0.02,0.196,0.053,0.289,0.089C70.494-4.05,70.196,1.146,69.887,6.303
						c-0.296,4.927-0.632,9.897-0.597,14.839c-0.564-0.149-1.185-0.195-1.701-0.249c-0.655-0.069-1.305-0.081-1.954-0.041
						C68.36,11.031,70.048,0.881,70.82-9.276z M61.615,37.475c0.73-2.749,1.256-5.567,1.86-8.347
						c0.497-2.285,1.125-4.619,1.404-6.955c0.872,0.039,1.747,0.081,2.61,0.214c0.732,0.113,1.444,0.408,2.175,0.427
						c-0.306,2.412-0.164,4.903-0.158,7.328c0.006,2.343-0.124,4.749,0.144,7.078c0.001,0.009,0.004,0.016,0.005,0.024
						c-1.36,0.39-2.653,0.756-4.125,0.753C64.192,37.996,62.921,37.632,61.615,37.475z"/>
					<path fill="#000B37" d="M68.745,24.191c-0.061-0.273-0.324-0.493-0.524-0.675c-0.252-0.229-0.606,0.061-0.405,0.346
						c0.155,0.221,0.344,0.515,0.606,0.61C68.595,24.534,68.786,24.374,68.745,24.191z"/>
					<path fill="#000B37" d="M68.69,19.452c-0.154-0.105-0.315-0.102-0.495-0.112c-0.314-0.018-0.439,0.477-0.114,0.561
						c0.165,0.043,0.335,0.108,0.504,0.059C68.806,19.895,68.903,19.598,68.69,19.452z"/>
					<path fill="#000B37" d="M68.772,18.351c-0.018-0.357-0.357-0.478-0.662-0.371c-0.123,0.043-0.17,0.206-0.132,0.318
						c0.044,0.133,0.164,0.185,0.297,0.175c-0.042,0.003-0.018,0,0.015,0.033c0.037,0.036,0.085,0.054,0.131,0.077
						C68.565,18.656,68.78,18.51,68.772,18.351z"/>
					<path fill="#000B37" d="M68.887,16.322c-0.086-0.056-0.17-0.088-0.266-0.121c-0.327-0.114-0.505,0.395-0.177,0.509
						c0.096,0.034,0.182,0.061,0.284,0.07C68.973,16.802,69.094,16.457,68.887,16.322z"/>
					<path fill="#000B37" d="M69.051,14.852c-0.046-0.061-0.081-0.093-0.149-0.129c-0.295-0.157-0.571,0.22-0.299,0.434
						c0.061,0.048,0.104,0.071,0.179,0.089C69.019,15.301,69.206,15.056,69.051,14.852z"/>
					<path fill="#000B37" d="M68.979,13.311c-0.057-0.049-0.098-0.069-0.171-0.088c-0.316-0.079-0.464,0.343-0.166,0.478
						c0.069,0.031,0.113,0.041,0.189,0.038C69.069,13.728,69.16,13.468,68.979,13.311z"/>
					<path fill="#000B37" d="M69.218,12.043c-0.049-0.055-0.088-0.091-0.153-0.126c-0.296-0.162-0.575,0.224-0.301,0.436
						c0.059,0.046,0.107,0.07,0.178,0.093C69.176,12.522,69.388,12.235,69.218,12.043z"/>
					<path fill="#000B37" d="M69.239,10.455c-0.021-0.101-0.069-0.169-0.128-0.251c-0.163-0.229-0.565,0.029-0.415,0.271
						c0.054,0.087,0.096,0.159,0.181,0.217C69.044,10.806,69.28,10.655,69.239,10.455z"/>
					<path fill="#000B37" d="M69.446,9.026c0.002-0.077-0.009-0.135-0.044-0.203c-0.145-0.281-0.572-0.075-0.442,0.213
						c0.032,0.07,0.071,0.114,0.132,0.161C69.227,9.299,69.442,9.195,69.446,9.026z"/>
				</g>
				<g>
					<path fill="#000B37" d="M48.154,24.295c0.157-0.018,0.314-0.102,0.451-0.28c1.796-2.343,3.067-5.209,4.5-7.787
						c1.426-2.566,3.125-5.152,4.108-7.926c0.006-0.015,0.003-0.029,0.006-0.045c0.21-0.394,0.175-0.947-0.306-1.261
						c-0.484-0.316-0.989-0.628-1.507-0.928c2.543-3.617,1.62-2.399,3.83-6.225c2.022-3.501,4.49-7.255,5.731-11.147
						c0.032,0.013,0.064,0.029,0.097,0.042c0.448,0.181,0.967,0.087,1.21-0.372c0.211-0.398,0.076-1.023-0.372-1.21
						c-0.019-0.008-0.039-0.017-0.058-0.025c0.084-0.048,0.159-0.123,0.223-0.216c0.026,0.016,0.052,0.032,0.082,0.043
						c0.396,0.142,0.802,0.328,1.223,0.379c0.289,0.035,0.444-0.321,0.182-0.484c-0.356-0.221-0.785-0.335-1.183-0.467
						c0.058-0.105,0.115-0.209,0.172-0.313c0.308-0.012,0.607,0.02,0.904,0.106c0.291,0.084,0.557,0.24,0.851,0.312
						c0.272,0.066,0.384-0.254,0.233-0.437c-0.364-0.438-1.06-0.579-1.652-0.59c0.034-0.061,0.067-0.122,0.101-0.183
						c0.284,0.045,0.567,0.101,0.844,0.178c0.319,0.089,0.63,0.22,0.954,0.287c0.3,0.062,0.43-0.329,0.183-0.486
						c-0.086-0.055-0.178-0.102-0.273-0.146c0.081,0.015,0.161,0.033,0.243,0.041c0.267,0.025,0.306-0.356,0.111-0.471
						c-0.434-0.254-0.958-0.37-1.445-0.51c0.006-0.01,0.012-0.021,0.017-0.031c0.008,0.001,0.013,0.005,0.022,0.005
						c0.352,0.018,0.699,0.063,1.043,0.14c0.33,0.074,0.654,0.2,0.988,0.245c0.299,0.04,0.445-0.325,0.185-0.492
						c-0.06-0.039-0.126-0.072-0.191-0.104c0.274,0.016,0.395-0.32,0.154-0.477c-0.115-0.075-0.24-0.136-0.368-0.191
						c0.094,0.003,0.188,0.006,0.28-0.003c0.305-0.032,0.337-0.422,0.054-0.52c-0.271-0.094-0.556-0.125-0.835-0.182
						c-0.134-0.027-0.267-0.062-0.4-0.094c0.02-0.037,0.04-0.073,0.06-0.109c0.217,0.047,0.435,0.093,0.652,0.14
						c0.266,0.057,0.539,0.133,0.812,0.109c0.231-0.02,0.342-0.348,0.109-0.462c-0.248-0.121-0.522-0.152-0.792-0.194
						c-0.171-0.027-0.343-0.053-0.514-0.08c0.033-0.06,0.066-0.12,0.099-0.181c0.454,0.118,0.912,0.231,1.381,0.257
						c0.254,0.014,0.359-0.398,0.116-0.493c-0.344-0.136-0.705-0.219-1.069-0.29c0.7-0.012,1.343,0.128,2.041,0.257
						c0.285,0.052,0.467-0.355,0.185-0.492c-0.615-0.299-1.368-0.368-2.068-0.333c0.015-0.03,0.032-0.059,0.047-0.088
						c0.483,0.013,0.948,0.093,1.439,0.149c0.265,0.03,0.48-0.359,0.182-0.484c-0.141-0.059-0.288-0.103-0.438-0.139
						c0.327,0.015,0.653,0.02,0.976,0.003c0.269-0.015,0.341-0.453,0.051-0.49c-0.551-0.07-1.114-0.076-1.673-0.083
						c0.012-0.025,0.025-0.049,0.037-0.074c0.502,0.033,1.014,0.069,1.506,0.003c0.253-0.034,0.341-0.423,0.049-0.478
						c-0.036-0.007-0.072-0.008-0.108-0.014c0.171-0.004,0.341-0.011,0.51-0.029c0.254-0.026,0.337-0.431,0.049-0.475
						c-0.334-0.051-0.671-0.073-1.009-0.082c0.237-0.009,0.475-0.026,0.703-0.08c0.279-0.066,0.171-0.434-0.072-0.457
						c-0.299-0.029-0.61,0.01-0.914,0.043c0.018-0.043,0.038-0.086,0.056-0.129c0.48,0.002,1.009-0.08,1.459-0.188
						c0.28-0.068,0.185-0.458-0.074-0.472c-0.355-0.019-0.752-0.011-1.132,0.034c0.161-0.462-0.432-1.04-0.796-0.553
						c-0.133,0.178-0.258,0.365-0.387,0.547c-0.271-0.334-0.542-0.675-0.873-0.948c-0.234-0.194-0.581,0.071-0.419,0.345
						c0.1,0.169,0.218,0.326,0.341,0.48c-0.11-0.084-0.227-0.154-0.353-0.2c-0.136-0.05-0.288,0.05-0.355,0.161
						c-0.148,0.246,0.097,0.384,0.263,0.501c0.254,0.179,0.481,0.445,0.673,0.687c0.005,0.006,0.012,0.009,0.017,0.014
						c-0.066,0.102-0.128,0.207-0.193,0.309c-0.229-0.328-0.492-0.682-0.815-0.883c-0.239-0.149-0.514,0.17-0.369,0.395
						c0.115,0.178,0.282,0.317,0.423,0.475c0.149,0.166,0.287,0.341,0.418,0.521c0.005,0.007,0.011,0.009,0.016,0.015
						c-0.042,0.068-0.081,0.138-0.122,0.206c-0.205-0.334-0.486-0.691-0.829-0.753c-0.18-0.033-0.366,0.129-0.302,0.319
						c0.071,0.214,0.241,0.352,0.388,0.517c0.144,0.163,0.27,0.338,0.384,0.522c-0.026,0.044-0.05,0.09-0.075,0.134
						c-0.252-0.268-0.554-0.502-0.909-0.572c-0.249-0.049-0.421,0.257-0.232,0.437c0.264,0.253,0.573,0.437,0.822,0.705
						c-0.031,0.055-0.06,0.111-0.091,0.166c-0.169-0.296-0.408-0.644-0.701-0.756c-0.257-0.098-0.501,0.133-0.367,0.393
						c0.083,0.161,0.234,0.271,0.348,0.409c0.113,0.137,0.207,0.287,0.293,0.442c0.028,0.05,0.063,0.082,0.101,0.106
						c-0.029,0.053-0.057,0.106-0.086,0.159c-0.086-0.071-0.172-0.141-0.258-0.212c-0.168-0.138-0.319-0.303-0.549-0.299
						c-0.171,0.003-0.258,0.162-0.229,0.314c0.04,0.211,0.241,0.325,0.398,0.452c0.116,0.094,0.232,0.188,0.348,0.282
						c-0.007,0.014-0.015,0.028-0.022,0.041c-0.085-0.083-0.175-0.163-0.269-0.236c-0.174-0.135-0.364-0.292-0.586-0.331
						c-0.277-0.049-0.424,0.242-0.278,0.451c-0.14,0.036-0.226,0.176-0.196,0.335c0.04,0.214,0.234,0.352,0.37,0.512
						c0.122,0.143,0.228,0.297,0.329,0.455c-0.004,0.008-0.008,0.016-0.013,0.024c-0.086-0.089-0.17-0.18-0.264-0.261
						c-0.141-0.123-0.289-0.266-0.48-0.296c-0.235-0.036-0.404,0.192-0.291,0.404c0.029,0.055,0.07,0.1,0.114,0.143
						c-0.056-0.032-0.114-0.058-0.178-0.067c-0.224-0.032-0.351,0.17-0.263,0.366c0.072,0.16,0.235,0.254,0.359,0.372
						c0.129,0.122,0.243,0.255,0.347,0.399c0.018,0.025,0.041,0.042,0.062,0.058c-0.023,0.043-0.046,0.085-0.069,0.128
						c-0.197-0.173-0.39-0.353-0.592-0.52c-0.166-0.136-0.367-0.243-0.569-0.111c-0.165,0.108-0.149,0.337,0.015,0.436
						c0.124,0.075,0.225,0.131,0.341,0.228c0.149,0.124,0.298,0.249,0.447,0.373c0.035,0.029,0.072,0.047,0.109,0.057
						c-0.045,0.084-0.09,0.166-0.135,0.25c-0.013-0.014-0.023-0.03-0.041-0.042c-0.149-0.104-0.298-0.207-0.446-0.311
						c-0.148-0.103-0.286-0.223-0.465-0.263c-0.206-0.046-0.416,0.2-0.279,0.388c0.117,0.161,0.284,0.248,0.451,0.351
						c0.163,0.102,0.327,0.203,0.49,0.305c0.017,0.011,0.032,0.012,0.049,0.018c-0.027,0.051-0.055,0.101-0.082,0.152
						c-0.225-0.137-0.453-0.265-0.704-0.358c-0.235-0.087-0.403,0.27-0.224,0.421c0.203,0.172,0.431,0.308,0.663,0.435
						c-0.089,0.183-0.094,0.359-0.039,0.51c-0.298-0.083-0.602-0.128-0.908-0.084c-0.436,0.063-0.87,0.558-0.539,0.997
						c0.087,0.115,0.178,0.218,0.274,0.314c-2.404,3.357-4.097,7.377-6.177,10.937c-2.237,3.83-1.415,2.516-3.817,6.242
						c-0.932-0.44-1.889-0.812-2.85-1.061c-0.296-0.077-0.51,0.049-0.616,0.244c-0.2,0.006-0.398,0.096-0.511,0.296
						c-2.85,5.028-5.438,10.116-8.627,14.952c-0.21,0.318-0.168,0.616-0.001,0.837c-0.103,0.118-0.153,0.283-0.104,0.443
						c0.346,1.139,1.594,1.893,2.576,2.454c1.189,0.678,2.492,1.096,3.833,1.349C47.693,24.715,47.983,24.547,48.154,24.295z
						 M44.232,21.876c-0.662-0.351-1.276-0.888-1.942-1.269c0.088-0.061,0.17-0.138,0.24-0.239
						c3.193-4.631,6.222-9.687,8.114-15.011c1.66,1.096,3.448,2.05,5.16,3.068c-1.548,2.057-2.727,4.464-3.999,6.682
						c-1.46,2.545-3.278,5.13-4.381,7.856C46.306,22.766,45.241,22.411,44.232,21.876z"/>
					<path fill="#000B37" d="M47.369,22.034c-0.125-0.269-0.428-0.496-0.631-0.711c-0.231-0.245-0.559,0.131-0.35,0.378
						c0.196,0.231,0.38,0.538,0.641,0.696C47.272,22.544,47.466,22.242,47.369,22.034z"/>
					<path fill="#000B37" d="M47.924,20.972c-0.074-0.154-0.223-0.275-0.34-0.398c-0.122-0.127-0.244-0.254-0.365-0.381
						c-0.233-0.243-0.568,0.134-0.352,0.38l0.35,0.398c0.116,0.131,0.218,0.272,0.37,0.362
						C47.826,21.473,48.024,21.181,47.924,20.972z"/>
					<path fill="#000B37" d="M48.348,19.841c-0.128-0.262-0.391-0.484-0.586-0.698c-0.187-0.205-0.556,0.091-0.382,0.315
						c0.177,0.228,0.351,0.527,0.586,0.698C48.195,20.322,48.477,20.103,48.348,19.841z"/>
					<path fill="#000B37" d="M48.749,18.534c-0.057-0.176-0.187-0.294-0.309-0.427c-0.123-0.134-0.245-0.267-0.368-0.401
						c-0.224-0.244-0.555,0.129-0.346,0.373c0.11,0.129,0.221,0.258,0.331,0.387c0.109,0.127,0.204,0.267,0.359,0.339
						C48.59,18.887,48.814,18.734,48.749,18.534z"/>
					<path fill="#000B37" d="M49.554,17.585c-0.204-0.305-0.511-0.555-0.77-0.813c-0.239-0.238-0.581,0.139-0.354,0.382
						c0.234,0.25,0.458,0.55,0.737,0.75C49.38,18.056,49.727,17.844,49.554,17.585z"/>
					<path fill="#000B37" d="M50.429,16.4c-0.142-0.24-0.375-0.435-0.566-0.636c-0.226-0.236-0.563,0.133-0.344,0.371
						c0.19,0.206,0.368,0.437,0.6,0.596C50.322,16.869,50.538,16.585,50.429,16.4z"/>
					<path fill="#000B37" d="M50.925,14.991c-0.1-0.193-0.327-0.318-0.495-0.45c-0.254-0.199-0.6,0.16-0.346,0.373
						c0.181,0.152,0.362,0.356,0.594,0.419C50.883,15.39,51.01,15.157,50.925,14.991z"/>
					<path fill="#000B37" d="M51.7,14.49c-0.031-0.182-0.154-0.348-0.247-0.505c-0.097-0.163-0.195-0.326-0.292-0.49
						c-0.18-0.302-0.614-0.021-0.458,0.284c0.087,0.17,0.173,0.34,0.26,0.509c0.085,0.167,0.158,0.346,0.3,0.472
						C51.474,14.948,51.742,14.738,51.7,14.49z"/>
					<path fill="#000B37" d="M52.235,13.205c-0.092-0.261-0.286-0.481-0.445-0.705c-0.181-0.255-0.585-0.013-0.417,0.258
						c0.144,0.232,0.271,0.502,0.475,0.687C52.013,13.595,52.314,13.431,52.235,13.205z"/>
					<path fill="#000B37" d="M52.816,12.014c-0.125-0.274-0.366-0.525-0.567-0.746c-0.194-0.213-0.509,0.078-0.378,0.311
						c0.148,0.263,0.316,0.562,0.539,0.769C52.646,12.565,52.933,12.271,52.816,12.014z"/>
					<path fill="#000B37" d="M53.537,11.04c-0.113-0.236-0.312-0.445-0.469-0.653c-0.196-0.259-0.628-0.001-0.435,0.269
						c0.165,0.231,0.318,0.501,0.527,0.695C53.376,11.552,53.653,11.279,53.537,11.04z"/>
					<path fill="#000B37" d="M54.084,10.171c-0.042-0.251-0.203-0.483-0.32-0.706c-0.159-0.303-0.595-0.023-0.448,0.277
						c0.113,0.23,0.206,0.478,0.388,0.664C53.881,10.586,54.118,10.375,54.084,10.171z"/>
					<path fill="#000B37" d="M54.545,8.641c-0.068-0.133-0.169-0.249-0.259-0.368c-0.192-0.257-0.618-0.004-0.43,0.266
						c0.098,0.141,0.19,0.291,0.311,0.413C54.374,9.161,54.665,8.876,54.545,8.641z"/>
				</g>
			</g>
		</g>
		<circle fill="none" stroke="#000B37" stroke-width="2.2738" stroke-miterlimit="10" cx="63.232" cy="-4.316" r="26.155"/>
	</g>
</g>
</svg>
