<?xml version="1.0" encoding="utf-8"?>
<!-- Generator: Adobe Illustrator 17.0.0, SVG Export Plug-In . SVG Version: 6.00 Build 0)  -->
<!DOCTYPE svg PUBLIC "-//W3C//DTD SVG 1.1//EN" "http://www.w3.org/Graphics/SVG/1.1/DTD/svg11.dtd">
<svg version="1.1" xmlns="http://www.w3.org/2000/svg" xmlns:xlink="http://www.w3.org/1999/xlink" x="0px" y="0px"
	 width="53.372px" height="53.372px" viewBox="-29.754 -23.702 53.372 53.372"
	 enable-background="new -29.754 -23.702 53.372 53.372" xml:space="preserve">
<g id="fondo" display="none">
</g>
<g id="Capa_1" display="none">
	<g id="Capa_2" display="inline">
		<rect x="1.686" y="-28.143" fill="#333366" width="36" height="15"/>
	</g>
	<path display="inline" fill="#00A99D" d="M35.143,9.85c-0.042-0.06-0.052-0.132-0.127-0.191c-0.642-0.519-1.897-0.738-3.154-0.812
		c-1.285-0.079-2.675-0.052-4.181-0.14c-2.128-0.258-4.535,0.277-6.669,0.561c2.559-0.132,5.146-0.399,7.645-0.388
		c1.243,0.01,2.467,0.088,3.589,0.306c1.091,0.218,2.155,0.616,2.583,1.138c-0.196,0.235-0.349,0.437-0.523,0.577
		c-0.212,0.151-0.388,0.222-0.61,0.198c-1.098-0.318-2.579-0.442-4.058-0.448c-0.014-0.226-0.042-0.669-0.056-0.892
		c-4.241,0.957-8.739-0.14-13.26,1.563c0.182,0.098,0.106,0.292,0.09,0.441l-0.033,0.005l0.033-0.005
		c-0.016,0.13,0.017,0.226,0.309,0.189c-0.292,0.037-0.325-0.059-0.309-0.189c4.56-0.797,8.82-1.255,13.055-1.112
		c-3.265,0.013-6.671,0.496-10.129,1.014c-1.736,0.262-3.499,0.54-5.33,0.78c-1.838,0.236-3.714,0.454-5.837,0.492
		c-0.358,0.008-1.098,0.01-1.501-0.013c-0.371-0.175-0.768-0.341-1.18-0.5c-0.49-0.173-0.907-0.321-1.274-0.451
		c-0.406-0.123-0.975-0.345-1.461-0.52c-0.546-0.237-1.294-0.563-1.668-0.859c0.507-0.337,0.63-1.269,1.034-1.777
		c0.198-0.261,0.426-0.42,0.768-0.41C3.075,8.404,3.289,8.44,3.547,8.526C3.803,8.61,4.078,8.68,4.433,8.84
		C4.481,8.62,4.579,8.181,4.628,7.961C3.375,7.109,3.588,5.619,4.18,4.759c0.458-0.947,1.545-1.282,1.548-1.853
		C5.63,2.627,5.944,2.637,6.465,2.612c0.611,0.01,1.22,0.02,1.862,0.03c1.447,0.011,3.131-0.034,4.723-0.441
		c2.334-0.493,4.729-1.057,7.271-0.94c3.495,0.229,7.292-0.51,11.11,0.32c0.689,0.102,1.646-0.007,2.591,0.01
		c0.468,0.006,0.921,0.031,1.328,0.133c0.395,0.092,0.702,0.221,0.892,0.444c0.546,0.455,0.427,0.922,0.215,1.42
		C35.193,3.23,34.051,3.126,32.94,3.06C31.823,2.988,30.758,3,29.697,2.998c-2.589-0.104-5.128-0.091-7.657-0.218
		c2.497,0.302,5.028,0.246,7.657,0.218c1.06,0.055,2.119,0.112,3.213,0.256c1.086,0.135,2.197,0.325,3.364,0.734
		c-0.198,0.425-0.375,0.876-0.352,1.337c0,0,0.16,0.038,0.36,0.085c0.199,0.069,0.438,0.151,0.597,0.206
		c0.432,0.797,0.193,1.475-0.163,2.033c-0.366,0.565-0.846,1.095-1.13,1.572C35.488,9.406,35.283,9.63,35.143,9.85z"/>
	<path display="inline" fill="#EEDAEF" d="M33.884,32.896c-0.042-0.06-0.052-0.132-0.127-0.191
		c-0.642-0.519-1.897-0.738-3.154-0.812c-1.285-0.079-2.675-0.052-4.181-0.14c-2.128-0.258-4.535,0.277-6.669,0.561
		c2.559-0.132,5.146-0.399,7.645-0.388c1.243,0.01,2.467,0.088,3.589,0.306c1.091,0.218,2.155,0.616,2.583,1.138
		c-0.196,0.235-0.349,0.437-0.523,0.577c-0.212,0.151-0.388,0.222-0.61,0.198c-1.098-0.318-2.579-0.442-4.058-0.448
		c-0.014-0.226-0.042-0.669-0.056-0.892c-4.241,0.957-8.739-0.14-13.26,1.563c0.182,0.098,0.106,0.292,0.09,0.441l-0.033,0.005
		l0.033-0.005c-0.016,0.13,0.017,0.226,0.309,0.189c-0.292,0.037-0.325-0.059-0.309-0.189c4.56-0.797,8.82-1.255,13.055-1.112
		c-3.265,0.013-6.671,0.496-10.129,1.014c-1.736,0.262-3.499,0.54-5.33,0.78c-1.838,0.236-3.714,0.454-5.837,0.492
		c-0.358,0.008-1.098,0.01-1.501-0.013c-0.371-0.175-0.768-0.341-1.18-0.5c-0.49-0.173-0.907-0.321-1.274-0.451
		c-0.406-0.123-0.975-0.345-1.461-0.52c-0.546-0.237-1.294-0.563-1.668-0.859c0.507-0.337,0.63-1.269,1.034-1.777
		c0.198-0.261,0.426-0.42,0.768-0.41c0.187-0.004,0.401,0.032,0.658,0.119c0.257,0.083,0.532,0.154,0.886,0.313
		c0.049-0.219,0.146-0.659,0.195-0.878c-1.252-0.853-1.039-2.343-0.448-3.202c0.458-0.947,1.545-1.282,1.548-1.853
		c-0.098-0.279,0.217-0.269,0.738-0.294c0.611,0.01,1.22,0.02,1.862,0.03c1.447,0.011,3.131-0.034,4.723-0.441
		c2.334-0.493,4.729-1.057,7.271-0.94c3.495,0.229,7.292-0.51,11.11,0.32c0.689,0.102,1.646-0.007,2.591,0.01
		c0.468,0.006,0.921,0.031,1.328,0.133c0.395,0.092,0.702,0.221,0.892,0.444c0.546,0.455,0.427,0.922,0.215,1.42
		c-1.263-0.358-2.404-0.462-3.516-0.528c-1.117-0.072-2.182-0.06-3.242-0.062c-2.589-0.104-5.128-0.091-7.657-0.218
		c2.497,0.302,5.028,0.246,7.657,0.218c1.06,0.055,2.119,0.112,3.213,0.256c1.086,0.135,2.197,0.325,3.364,0.734
		c-0.198,0.425-0.375,0.876-0.352,1.337c0,0,0.16,0.038,0.36,0.085c0.199,0.069,0.438,0.151,0.597,0.206
		c0.432,0.797,0.193,1.475-0.163,2.033c-0.366,0.565-0.846,1.095-1.13,1.572C34.228,32.451,34.023,32.675,33.884,32.896z"/>
	<g id="Sol" display="inline">
	</g>
</g>
<g id="Capa_4">
	<g>
		<circle fill="#77459D" cx="-3.068" cy="2.984" r="26.686"/>
		<g>
			<defs>
				<circle id="SVGID_10_" cx="-3.068" cy="2.984" r="26.686"/>
			</defs>
			<clipPath id="SVGID_1_">
				<use xlink:href="#SVGID_10_"  overflow="visible"/>
			</clipPath>
			<g clip-path="url(#SVGID_1_)">
				<polygon fill="#6FFFDE" points="4.674,-2.078 5.699,-2.078 3.486,45.388 0.238,46.106 -4.294,46.106 -5.741,45.897 
					0.238,23.393 				"/>
				<polygon fill="#EB1450" points="-15.911,12.853 -9.711,15.719 -18.452,32.175 -25.742,28.2 				"/>
				<g>
					<path fill="#000B37" d="M4.836,45.309c0.002-0.011,0.005-0.021,0.006-0.032c0.251-2.57,0.038-5.235-0.001-7.817
						c-0.036-2.352,0.044-4.762-0.322-7.092c0.053-0.094,0.088-0.206,0.096-0.342c0.318-5.362,0.357-10.741,0.661-16.105
						C5.578,8.606,6.11,3.298,6.305-2.022C6.472-2.254,6.494-2.599,6.3-2.85C6.007-3.232,5.454-3.353,4.998-3.408
						C4.548-3.463,4.093-3.38,3.693-3.166c-0.262,0.14-0.343,0.467-0.258,0.721c0,0.001,0,0.001,0,0.001
						C2.281,8.114,0.301,18.477-2.322,28.763c-0.039,0.154-0.033,0.295,0.001,0.423c-0.92,2.635-1.37,5.491-1.955,8.212
						c-0.571,2.653-1.226,5.304-1.678,7.98c-0.038,0.227,0.059,0.404,0.213,0.519c-0.024,0.145,0.02,0.305,0.153,0.412
						c2.557,2.065,7.54,1.729,10.268,0.176C5.121,46.234,5.132,45.608,4.836,45.309z M4.674-2.078
						C4.732-2.07,4.791-2.063,4.848-2.051c0.103,0.021,0.199,0.054,0.295,0.091c-0.8,5.215-1.104,10.517-1.42,15.779
						c-0.302,5.027-0.645,10.098-0.609,15.14c-0.576-0.152-1.209-0.199-1.736-0.254c-0.668-0.07-1.331-0.083-1.993-0.042
						C2.165,18.642,3.886,8.286,4.674-2.078z M-4.718,45.623c0.745-2.805,1.281-5.68,1.898-8.516
						c0.507-2.332,1.148-4.713,1.432-7.096c0.89,0.039,1.782,0.082,2.663,0.219c0.747,0.115,1.474,0.416,2.219,0.436
						c-0.312,2.461-0.168,5.003-0.161,7.477c0.006,2.391-0.127,4.846,0.147,7.222c0.001,0.009,0.004,0.016,0.005,0.025
						c-1.388,0.398-2.707,0.771-4.209,0.769C-2.088,46.155-3.384,45.784-4.718,45.623z"/>
					<path fill="#000B37" d="M2.501,27.234C2.343,27.127,2.18,27.13,1.995,27.12c-0.32-0.018-0.448,0.486-0.116,0.573
						c0.168,0.044,0.342,0.11,0.514,0.06C2.62,27.686,2.719,27.383,2.501,27.234z"/>
					<path fill="#000B37" d="M2.585,26.111c-0.019-0.364-0.364-0.488-0.675-0.378c-0.125,0.044-0.173,0.21-0.135,0.324
						c0.045,0.135,0.168,0.189,0.303,0.178c-0.043,0.003-0.019,0,0.016,0.034c0.037,0.037,0.087,0.055,0.133,0.079
						C2.374,26.422,2.593,26.273,2.585,26.111z"/>
					<path fill="#000B37" d="M2.703,24.041c-0.087-0.057-0.174-0.09-0.272-0.124C2.097,23.8,1.915,24.319,2.25,24.436
						c0.098,0.034,0.186,0.062,0.29,0.072C2.791,24.531,2.914,24.178,2.703,24.041z"/>
					<path fill="#000B37" d="M2.87,22.54c-0.047-0.062-0.083-0.095-0.152-0.132c-0.301-0.16-0.582,0.224-0.305,0.442
						c0.062,0.049,0.106,0.072,0.183,0.09C2.837,22.999,3.028,22.749,2.87,22.54z"/>
					<path fill="#000B37" d="M2.797,20.968c-0.058-0.05-0.1-0.071-0.175-0.09c-0.323-0.081-0.473,0.35-0.17,0.487
						c0.07,0.032,0.116,0.042,0.193,0.039C2.888,21.394,2.981,21.128,2.797,20.968z"/>
					<path fill="#000B37" d="M3.04,19.674c-0.05-0.056-0.089-0.093-0.156-0.129c-0.302-0.165-0.586,0.228-0.307,0.445
						c0.06,0.047,0.109,0.072,0.182,0.095C2.997,20.163,3.214,19.87,3.04,19.674z"/>
					<path fill="#000B37" d="M3.062,18.054c-0.021-0.103-0.071-0.172-0.13-0.256c-0.166-0.233-0.576,0.03-0.423,0.276
						c0.055,0.089,0.098,0.162,0.185,0.221C2.862,18.412,3.104,18.259,3.062,18.054z"/>
					<path fill="#000B37" d="M3.273,16.596c0.002-0.078-0.009-0.138-0.045-0.208c-0.148-0.287-0.584-0.076-0.451,0.218
						c0.032,0.072,0.072,0.117,0.135,0.164C3.05,16.875,3.269,16.769,3.273,16.596z"/>
				</g>
				<g>
					<path fill="#000B37" d="M-18.452,32.175c0.16-0.019,0.321-0.104,0.46-0.286c1.833-2.391,3.13-5.315,4.591-7.945
						c1.455-2.618,3.189-5.257,4.191-8.087c0.006-0.016,0.003-0.03,0.006-0.046c0.215-0.402,0.179-0.966-0.313-1.287
						c-0.494-0.323-1.009-0.641-1.538-0.946c2.594-3.691,1.653-2.447,3.908-6.351c2.063-3.572,4.581-7.403,5.847-11.373
						c0.033,0.014,0.065,0.03,0.099,0.043c0.457,0.185,0.987,0.089,1.235-0.379C0.25-4.887,0.113-5.524-0.344-5.716
						c-0.02-0.008-0.04-0.017-0.06-0.025c0.086-0.049,0.162-0.125,0.228-0.221c0.026,0.017,0.053,0.033,0.083,0.044
						c0.404,0.145,0.819,0.335,1.248,0.386C1.45-5.496,1.608-5.859,1.34-6.025c-0.363-0.225-0.8-0.342-1.207-0.476
						C0.192-6.608,0.25-6.714,0.309-6.821C0.623-6.833,0.928-6.8,1.231-6.713C1.528-6.628,1.8-6.468,2.1-6.395
						c0.278,0.067,0.392-0.259,0.237-0.446C1.966-7.288,1.256-7.432,0.652-7.443C0.686-7.506,0.72-7.567,0.755-7.63
						c0.29,0.046,0.578,0.103,0.861,0.182C1.941-7.358,2.259-7.224,2.59-7.155c0.307,0.063,0.439-0.336,0.186-0.496
						C2.688-7.708,2.594-7.756,2.498-7.801C2.58-7.786,2.662-7.767,2.745-7.759c0.272,0.025,0.312-0.363,0.113-0.48
						C2.415-8.499,1.88-8.617,1.384-8.76C1.39-8.771,1.396-8.781,1.402-8.792C1.41-8.791,1.415-8.787,1.424-8.786
						c0.359,0.018,0.713,0.064,1.064,0.143c0.336,0.075,0.667,0.204,1.008,0.25C3.801-8.352,3.95-8.725,3.685-8.895
						C3.623-8.935,3.557-8.968,3.49-9.001c0.279,0.016,0.403-0.326,0.157-0.487C3.529-9.565,3.402-9.627,3.271-9.683
						C3.367-9.68,3.463-9.677,3.557-9.686c0.312-0.032,0.344-0.43,0.055-0.53c-0.276-0.095-0.567-0.128-0.852-0.186
						c-0.137-0.028-0.272-0.064-0.408-0.096c0.02-0.037,0.041-0.074,0.062-0.111c0.222,0.047,0.443,0.095,0.665,0.143
						c0.271,0.058,0.55,0.135,0.829,0.111c0.236-0.021,0.349-0.355,0.111-0.471c-0.253-0.124-0.532-0.155-0.808-0.198
						c-0.175-0.027-0.35-0.054-0.524-0.082c0.033-0.062,0.068-0.123,0.101-0.185c0.464,0.12,0.931,0.235,1.409,0.262
						c0.259,0.015,0.366-0.406,0.118-0.503c-0.351-0.138-0.719-0.223-1.09-0.296c0.714-0.012,1.37,0.131,2.083,0.262
						c0.29,0.053,0.476-0.362,0.188-0.502c-0.627-0.306-1.395-0.375-2.11-0.34c0.016-0.03,0.032-0.06,0.048-0.09
						c0.493,0.013,0.967,0.095,1.468,0.152c0.27,0.03,0.49-0.366,0.185-0.493c-0.143-0.06-0.294-0.105-0.447-0.142
						c0.333,0.015,0.666,0.021,0.996,0.003c0.274-0.015,0.348-0.462,0.052-0.5c-0.562-0.071-1.136-0.078-1.707-0.084
						c0.012-0.025,0.026-0.05,0.038-0.075c0.512,0.034,1.035,0.07,1.537,0.004c0.258-0.034,0.348-0.431,0.05-0.488
						c-0.036-0.007-0.074-0.008-0.11-0.014c0.174-0.004,0.348-0.012,0.521-0.029c0.259-0.026,0.344-0.44,0.05-0.485
						c-0.34-0.052-0.685-0.074-1.03-0.084c0.242-0.01,0.484-0.026,0.717-0.081c0.285-0.067,0.174-0.443-0.073-0.466
						c-0.305-0.029-0.622,0.01-0.932,0.044c0.018-0.044,0.039-0.087,0.057-0.131c0.49,0.003,1.03-0.081,1.489-0.192
						c0.286-0.069,0.188-0.467-0.075-0.481c-0.362-0.02-0.767-0.011-1.155,0.034c0.165-0.471-0.441-1.061-0.813-0.564
						c-0.136,0.182-0.263,0.372-0.395,0.558c-0.277-0.34-0.553-0.689-0.891-0.967c-0.239-0.198-0.593,0.073-0.428,0.352
						c0.102,0.172,0.222,0.333,0.348,0.49c-0.112-0.085-0.231-0.157-0.36-0.204c-0.139-0.051-0.294,0.051-0.362,0.164
						C2.01-15.931,2.26-15.789,2.429-15.67c0.259,0.183,0.491,0.454,0.687,0.701c0.005,0.006,0.012,0.009,0.017,0.015
						c-0.067,0.104-0.131,0.211-0.197,0.316c-0.234-0.335-0.502-0.696-0.832-0.901c-0.244-0.152-0.525,0.173-0.377,0.403
						c0.117,0.182,0.288,0.324,0.432,0.484c0.152,0.17,0.293,0.348,0.427,0.532c0.005,0.007,0.012,0.009,0.017,0.015
						c-0.042,0.07-0.083,0.141-0.125,0.211c-0.209-0.341-0.495-0.705-0.846-0.769c-0.184-0.034-0.373,0.132-0.309,0.326
						c0.072,0.218,0.246,0.359,0.396,0.528c0.147,0.166,0.275,0.345,0.392,0.533c-0.026,0.045-0.051,0.092-0.077,0.137
						c-0.257-0.274-0.565-0.513-0.927-0.584c-0.254-0.05-0.43,0.262-0.237,0.446c0.27,0.258,0.584,0.446,0.839,0.719
						c-0.032,0.056-0.062,0.113-0.093,0.17c-0.173-0.302-0.416-0.657-0.716-0.771c-0.263-0.1-0.511,0.136-0.375,0.401
						c0.084,0.164,0.239,0.276,0.355,0.417c0.115,0.139,0.212,0.293,0.299,0.45c0.028,0.051,0.065,0.084,0.103,0.109
						c-0.03,0.054-0.058,0.108-0.088,0.162c-0.088-0.072-0.175-0.144-0.263-0.216c-0.172-0.141-0.325-0.31-0.56-0.305
						c-0.175,0.003-0.263,0.166-0.234,0.321c0.041,0.216,0.246,0.332,0.406,0.462c0.118,0.096,0.236,0.192,0.355,0.287
						c-0.008,0.014-0.015,0.028-0.022,0.042c-0.087-0.085-0.178-0.166-0.275-0.241c-0.178-0.138-0.372-0.298-0.598-0.338
						c-0.283-0.05-0.433,0.247-0.283,0.461c-0.143,0.037-0.231,0.18-0.2,0.342c0.041,0.218,0.238,0.36,0.377,0.523
						c0.124,0.146,0.233,0.303,0.335,0.464C0.231-9.812,0.226-9.804,0.222-9.796c-0.088-0.091-0.174-0.184-0.269-0.267
						c-0.144-0.125-0.295-0.272-0.49-0.302c-0.24-0.037-0.412,0.195-0.297,0.412c0.03,0.056,0.071,0.102,0.116,0.146
						C-0.775-9.839-0.834-9.865-0.9-9.875c-0.229-0.033-0.358,0.174-0.268,0.373c0.073,0.163,0.24,0.259,0.366,0.379
						c0.131,0.125,0.248,0.26,0.354,0.407c0.019,0.026,0.041,0.043,0.064,0.06c-0.023,0.044-0.047,0.087-0.07,0.13
						c-0.201-0.177-0.398-0.36-0.604-0.53c-0.169-0.139-0.374-0.248-0.58-0.114c-0.169,0.11-0.152,0.344,0.015,0.445
						c0.127,0.077,0.23,0.134,0.348,0.233c0.152,0.127,0.304,0.254,0.456,0.381c0.036,0.03,0.074,0.048,0.111,0.058
						c-0.046,0.085-0.092,0.169-0.138,0.255c-0.014-0.014-0.024-0.03-0.042-0.043c-0.152-0.106-0.304-0.211-0.455-0.317
						c-0.151-0.105-0.292-0.227-0.474-0.268c-0.21-0.047-0.424,0.204-0.285,0.396c0.119,0.164,0.29,0.253,0.46,0.358
						c0.167,0.104,0.333,0.207,0.5,0.311c0.017,0.011,0.033,0.012,0.05,0.019C-1.122-7.29-1.15-7.239-1.178-7.187
						c-0.229-0.14-0.463-0.271-0.718-0.365c-0.24-0.089-0.412,0.275-0.229,0.43c0.208,0.175,0.44,0.314,0.677,0.444
						c-0.091,0.187-0.095,0.366-0.04,0.521c-0.304-0.085-0.614-0.131-0.926-0.086c-0.445,0.064-0.888,0.569-0.55,1.017
						c0.088,0.117,0.182,0.222,0.28,0.32c-2.452,3.425-4.18,7.526-6.302,11.159c-2.283,3.908-1.444,2.567-3.895,6.369
						c-0.95-0.449-1.927-0.829-2.908-1.082c-0.303-0.078-0.52,0.05-0.629,0.249c-0.204,0.006-0.406,0.098-0.522,0.302
						c-2.908,5.131-5.549,10.321-8.803,15.256c-0.214,0.324-0.171,0.628-0.001,0.854c-0.105,0.12-0.156,0.289-0.106,0.452
						c0.353,1.162,1.626,1.932,2.629,2.503c1.213,0.691,2.543,1.118,3.91,1.376C-18.922,32.604-18.626,32.432-18.452,32.175z
						 M-22.453,29.708c-0.676-0.358-1.302-0.906-1.982-1.294c0.09-0.062,0.174-0.141,0.245-0.244
						c3.257-4.725,6.348-9.884,8.279-15.316c1.693,1.119,3.518,2.092,5.265,3.13c-1.58,2.099-2.783,4.554-4.081,6.817
						c-1.49,2.597-3.345,5.234-4.47,8.015C-20.337,30.615-21.424,30.253-22.453,29.708z"/>
					<path fill="#000B37" d="M-19.252,29.868c-0.127-0.275-0.437-0.506-0.644-0.726c-0.236-0.25-0.57,0.133-0.357,0.385
						c0.2,0.236,0.388,0.549,0.654,0.711C-19.352,30.389-19.154,30.08-19.252,29.868z"/>
					<path fill="#000B37" d="M-18.686,28.785c-0.075-0.157-0.227-0.28-0.347-0.406c-0.124-0.13-0.249-0.259-0.373-0.389
						c-0.238-0.248-0.58,0.136-0.359,0.388l0.357,0.406c0.118,0.134,0.223,0.278,0.378,0.369
						C-18.786,29.297-18.584,28.998-18.686,28.785z"/>
					<path fill="#000B37" d="M-18.253,27.631c-0.131-0.267-0.399-0.494-0.598-0.712c-0.191-0.21-0.567,0.093-0.39,0.321
						c0.181,0.233,0.358,0.538,0.598,0.712C-18.41,28.121-18.122,27.898-18.253,27.631z"/>
					<path fill="#000B37" d="M-17.844,26.297c-0.059-0.179-0.191-0.3-0.316-0.436c-0.125-0.136-0.25-0.273-0.376-0.409
						c-0.228-0.249-0.566,0.132-0.353,0.381c0.113,0.132,0.225,0.264,0.338,0.395c0.111,0.13,0.208,0.272,0.366,0.346
						C-18.007,26.657-17.778,26.501-17.844,26.297z"/>
					<path fill="#000B37" d="M-17.023,25.329c-0.208-0.311-0.522-0.566-0.786-0.83c-0.244-0.243-0.593,0.142-0.361,0.39
						c0.238,0.255,0.468,0.561,0.752,0.765C-17.201,25.81-16.847,25.593-17.023,25.329z"/>
					<path fill="#000B37" d="M-16.13,24.12c-0.144-0.245-0.382-0.444-0.578-0.649c-0.23-0.241-0.574,0.136-0.351,0.379
						c0.194,0.21,0.375,0.446,0.613,0.608C-16.239,24.599-16.019,24.309-16.13,24.12z"/>
					<path fill="#000B37" d="M-15.625,22.683c-0.102-0.197-0.333-0.324-0.505-0.459c-0.259-0.203-0.612,0.163-0.353,0.381
						c0.184,0.155,0.369,0.363,0.606,0.428C-15.667,23.09-15.537,22.852-15.625,22.683z"/>
					<path fill="#000B37" d="M-14.834,22.171c-0.031-0.186-0.157-0.355-0.252-0.515c-0.099-0.167-0.199-0.333-0.298-0.5
						c-0.183-0.308-0.626-0.021-0.467,0.289c0.089,0.173,0.177,0.346,0.265,0.52c0.087,0.17,0.162,0.353,0.306,0.482
						C-15.064,22.639-14.791,22.424-14.834,22.171z"/>
					<path fill="#000B37" d="M-14.288,20.86c-0.094-0.267-0.292-0.491-0.454-0.719c-0.185-0.26-0.597-0.013-0.426,0.264
						c0.147,0.236,0.276,0.512,0.484,0.701C-14.514,21.258-14.207,21.091-14.288,20.86z"/>
					<path fill="#000B37" d="M-13.695,19.645c-0.128-0.279-0.373-0.535-0.579-0.761c-0.198-0.218-0.519,0.08-0.385,0.317
						c0.151,0.268,0.322,0.574,0.55,0.784C-13.868,20.207-13.575,19.907-13.695,19.645z"/>
					<path fill="#000B37" d="M-12.959,18.651c-0.116-0.241-0.318-0.454-0.479-0.667c-0.2-0.264-0.641-0.001-0.444,0.275
						c0.169,0.236,0.325,0.511,0.538,0.709C-13.124,19.173-12.841,18.895-12.959,18.651z"/>
					<path fill="#000B37" d="M-12.401,17.764c-0.043-0.256-0.207-0.493-0.326-0.72c-0.162-0.309-0.607-0.023-0.457,0.283
						c0.115,0.235,0.21,0.488,0.395,0.677C-12.608,18.188-12.366,17.973-12.401,17.764z"/>
					<path fill="#000B37" d="M-11.931,16.203c-0.069-0.136-0.173-0.254-0.264-0.376c-0.196-0.262-0.631-0.004-0.439,0.272
						c0.1,0.144,0.194,0.296,0.317,0.422C-12.106,16.734-11.808,16.444-11.931,16.203z"/>
				</g>
			</g>
		</g>
	</g>
</g>
</svg>
