<?xml version="1.0" encoding="utf-8"?>
<!-- Generator: Adobe Illustrator 17.0.0, SVG Export Plug-In . SVG Version: 6.00 Build 0)  -->
<!DOCTYPE svg PUBLIC "-//W3C//DTD SVG 1.1//EN" "http://www.w3.org/Graphics/SVG/1.1/DTD/svg11.dtd">
<svg version="1.1" xmlns="http://www.w3.org/2000/svg" xmlns:xlink="http://www.w3.org/1999/xlink" x="0px" y="0px"
	 width="55.692px" height="55.692px" viewBox="294.283 -58.848 55.692 55.692"
	 enable-background="new 294.283 -58.848 55.692 55.692" xml:space="preserve">
<g id="fondo" display="none">
	<rect x="166.592" y="-90.47" display="inline" fill="#FFFFFF" width="180.667" height="122.28"/>
</g>
<g id="Capa_1" display="none">
	<g id="Sol" display="inline">
		<g>
			<circle fill="#FDE000" cx="304.713" cy="-35.177" r="3.796"/>
			<g>
				<rect x="304.333" y="-43.528" fill="#FDE000" width="0.759" height="3.644"/>
				<rect x="304.333" y="-30.47" fill="#FDE000" width="0.759" height="3.644"/>
			</g>
			<g>
				<rect x="309.42" y="-35.556" fill="#FDE000" width="3.644" height="0.759"/>
				<rect x="296.361" y="-35.556" fill="#FDE000" width="3.644" height="0.759"/>
			</g>
			<g>
				
					<rect x="299.716" y="-41.616" transform="matrix(0.7071 -0.7071 0.7071 0.7071 116.0345 200.5444)" fill="#FDE000" width="0.759" height="3.644"/>
				
					<rect x="308.95" y="-32.382" transform="matrix(0.7071 -0.7071 0.7071 0.7071 112.2097 209.7784)" fill="#FDE000" width="0.759" height="3.644"/>
			</g>
			<g>
				
					<rect x="308.95" y="-41.616" transform="matrix(0.7071 0.7071 -0.7071 0.7071 62.4621 -230.3845)" fill="#FDE000" width="0.759" height="3.644"/>
				
					<rect x="299.716" y="-32.382" transform="matrix(0.7071 0.7071 -0.7071 0.7071 66.2869 -221.1505)" fill="#FDE000" width="0.759" height="3.644"/>
			</g>
		</g>
	</g>
</g>
<g id="Capa_4">
	<g>
		<g>
			<g>
				<path fill="none" stroke="#000B37" stroke-width="0.9801" stroke-miterlimit="10" d="M333.425-44.693
					c-1.131-4.009-4.813-6.948-9.183-6.948c-4.396,0-8.096,2.973-9.203,7.018c-0.59-0.187-1.218-0.289-1.87-0.289
					c-3.412,0-6.179,2.766-6.179,6.179c0,3.412,2.766,6.179,6.179,6.179c1.956,0,17.397,0,18.628,0c3.412,0,6.179-2.767,6.179-6.179
					C337.976-41.581,336.047-43.978,333.425-44.693z"/>
				<path fill="none" stroke="#000B37" stroke-width="0.9801" stroke-miterlimit="10" d="M331.603-43.596h-0.001
					c-0.904-3.114-3.776-5.391-7.182-5.391c-4.131,0-7.48,3.349-7.48,7.48c0,4.131,3.349,7.48,7.48,7.48c1.488,0,5.978,0,7.184,0
					c2.642,0,4.784-2.142,4.784-4.784C336.387-41.454,334.245-43.596,331.603-43.596z"/>
			</g>
			<path fill="#000B37" d="M321.967-22.815h-1.211v-0.908c0-0.285-0.231-0.517-0.517-0.517s-0.517,0.231-0.517,0.517v0.908h-0.748
				v-0.908c0-0.161-0.075-0.303-0.191-0.398c0.015-0.148-0.033-0.302-0.147-0.416l-0.642-0.642l0.529-0.529l0.642,0.642
				c0.202,0.202,0.529,0.202,0.73,0c0.202-0.202,0.202-0.529,0-0.731l-0.642-0.643l0.856-0.856c0.202-0.202,0.202-0.529,0-0.731
				c-0.202-0.202-0.529-0.202-0.731,0l-0.856,0.857l-0.643-0.643c-0.202-0.202-0.529-0.202-0.731,0
				c-0.202,0.202-0.202,0.529,0,0.731l0.642,0.642l-0.529,0.529l-0.642-0.642c-0.114-0.114-0.268-0.161-0.416-0.146
				c-0.095-0.115-0.237-0.191-0.398-0.191h-0.909v-0.748h0.909c0.285,0,0.517-0.231,0.517-0.517c0-0.286-0.231-0.517-0.517-0.517
				h-0.909v-1.211c0-0.285-0.231-0.517-0.517-0.517c-0.285,0-0.517,0.231-0.517,0.517v1.211h-0.909
				c-0.285,0-0.517,0.231-0.517,0.517c0,0.285,0.231,0.517,0.517,0.517h0.909v0.748h-0.909c-0.161,0-0.303,0.075-0.398,0.191
				c-0.149-0.015-0.302,0.033-0.416,0.146l-0.642,0.642l-0.529-0.529l0.642-0.642c0.202-0.202,0.202-0.529,0-0.731
				c-0.202-0.202-0.529-0.202-0.731,0l-0.642,0.643l-0.857-0.857c-0.202-0.202-0.529-0.202-0.731,0
				c-0.202,0.202-0.202,0.529,0,0.731l0.857,0.856l-0.642,0.643c-0.202,0.202-0.202,0.529,0,0.731c0.202,0.202,0.529,0.202,0.731,0
				l0.642-0.642l0.529,0.529l-0.642,0.642c-0.114,0.114-0.161,0.268-0.147,0.416c-0.115,0.095-0.191,0.237-0.191,0.398v0.908h-0.748
				v-0.908c0-0.285-0.231-0.517-0.517-0.517c-0.285,0-0.517,0.232-0.517,0.517v0.908h-1.211c-0.285,0-0.516,0.231-0.516,0.516
				c0,0.285,0.231,0.516,0.516,0.516h1.211v0.909c0,0.285,0.231,0.516,0.517,0.516c0.285,0,0.517-0.231,0.517-0.516v-0.909h0.748
				v0.909c0,0.161,0.075,0.303,0.191,0.398c-0.015,0.149,0.033,0.302,0.147,0.416l0.642,0.642l-0.529,0.529l-0.642-0.642
				c-0.202-0.202-0.529-0.202-0.731,0c-0.202,0.202-0.202,0.529,0,0.73l0.642,0.642l-0.857,0.857c-0.202,0.202-0.202,0.529,0,0.73
				c0.202,0.202,0.529,0.202,0.731,0l0.857-0.856l0.642,0.642c0.202,0.202,0.529,0.202,0.731,0c0.202-0.201,0.202-0.529,0-0.73
				l-0.642-0.642l0.529-0.529l0.642,0.642c0.114,0.114,0.267,0.161,0.416,0.147c0.095,0.115,0.237,0.191,0.398,0.191h0.909v0.748
				h-0.909c-0.285,0-0.517,0.231-0.517,0.517c0,0.285,0.231,0.516,0.517,0.516h0.909v1.211c0,0.285,0.231,0.517,0.517,0.517
				c0.285,0,0.517-0.231,0.517-0.517v-1.211h0.909c0.285,0,0.517-0.231,0.517-0.516c0-0.285-0.231-0.517-0.517-0.517h-0.909v-0.748
				h0.909c0.161,0,0.303-0.075,0.398-0.191c0.148,0.014,0.302-0.033,0.416-0.147l0.642-0.642l0.529,0.529l-0.642,0.642
				c-0.202,0.202-0.202,0.529,0,0.73c0.202,0.202,0.529,0.202,0.731,0l0.643-0.642l0.856,0.856c0.202,0.202,0.529,0.202,0.731,0
				c0.202-0.202,0.202-0.529,0-0.73l-0.856-0.857l0.642-0.642c0.202-0.202,0.202-0.529,0-0.73c-0.202-0.202-0.529-0.202-0.73,0
				l-0.642,0.642l-0.529-0.529l0.642-0.642c0.114-0.114,0.161-0.268,0.147-0.416c0.115-0.095,0.191-0.237,0.191-0.398v-0.909h0.748
				v0.909c0,0.285,0.231,0.516,0.517,0.516s0.517-0.231,0.517-0.516v-0.909h1.211c0.285,0,0.517-0.231,0.517-0.516
				C322.483-22.583,322.252-22.815,321.967-22.815z M317.906-23.806c0.012,0.012,0.026,0.022,0.04,0.032
				c-0.002,0.017-0.005,0.033-0.005,0.051v0.908h-0.422c0.031-0.162-0.016-0.337-0.142-0.463l-0.185-0.185v-0.261
				c0-0.178-0.09-0.335-0.227-0.428l0.298-0.298L317.906-23.806z M313.866-20.521h-0.219l-0.155-0.155l0.375-0.375V-20.521z
				 M314.899-24.075h0.219l0.155,0.155l-0.375,0.375V-24.075z M316.004-21.407l-0.375-0.375h0.53v0.219L316.004-21.407z
				 M312.606-21.562v-0.219h0.53l-0.374,0.375L312.606-21.562z M312.761-23.189l0.374,0.375h-0.53v-0.219L312.761-23.189z
				 M315.63-22.815l0.375-0.375l0.155,0.155v0.219H315.63z M313.866-24.075v0.53l-0.375-0.375l0.155-0.155H313.866z M314.899-20.521
				v-0.529l0.375,0.375l-0.155,0.155H314.899z M315.807-25.856c0.017,0,0.034-0.004,0.051-0.005c0.011,0.013,0.02,0.027,0.032,0.04
				l0.643,0.643l-0.298,0.298c-0.093-0.137-0.25-0.227-0.428-0.227h-0.261l-0.185-0.185c-0.126-0.126-0.3-0.173-0.463-0.142v-0.421
				H315.807z M312.874-25.822c0.012-0.012,0.022-0.027,0.032-0.04c0.017,0.002,0.034,0.005,0.051,0.005h0.909v0.421
				c-0.163-0.031-0.337,0.017-0.463,0.142l-0.185,0.185h-0.261c-0.178,0-0.335,0.09-0.428,0.227l-0.298-0.298L312.874-25.822z
				 M311.501-24.449l0.298,0.298c-0.137,0.093-0.227,0.25-0.227,0.428v0.261l-0.185,0.185c-0.126,0.126-0.173,0.3-0.142,0.463
				h-0.422v-0.908c0-0.018-0.004-0.034-0.005-0.051c0.013-0.011,0.027-0.02,0.04-0.032L311.501-24.449z M310.859-20.79
				c-0.012-0.012-0.026-0.022-0.04-0.032c0.002-0.017,0.005-0.034,0.005-0.051v-0.909h0.422c-0.031,0.163,0.016,0.337,0.142,0.463
				l0.185,0.185v0.261c0,0.178,0.09,0.334,0.227,0.427l-0.298,0.298L310.859-20.79z M312.957-18.74
				c-0.017,0-0.034,0.003-0.051,0.005c-0.011-0.013-0.02-0.027-0.032-0.039l-0.642-0.643l0.298-0.298
				c0.093,0.137,0.25,0.227,0.428,0.227h0.261l0.185,0.184c0.126,0.126,0.3,0.173,0.463,0.142v0.422H312.957z M315.891-18.774
				c-0.012,0.012-0.022,0.026-0.032,0.039c-0.017-0.002-0.033-0.005-0.051-0.005h-0.909v-0.422c0.163,0.031,0.337-0.016,0.463-0.142
				l0.185-0.184h0.261c0.178,0,0.335-0.09,0.428-0.227l0.298,0.298L315.891-18.774z M317.264-20.147l-0.298-0.298
				c0.137-0.093,0.227-0.25,0.227-0.427v-0.261l0.185-0.185c0.126-0.126,0.173-0.3,0.142-0.463h0.422v0.909
				c0,0.017,0.003,0.034,0.005,0.051c-0.013,0.01-0.027,0.02-0.04,0.032L317.264-20.147z"/>
			<path fill="#000B37" d="M334.783-21.501h-0.779v-0.584c0-0.183-0.149-0.332-0.332-0.332c-0.183,0-0.332,0.149-0.332,0.332v0.584
				h-0.481v-0.584c0-0.104-0.049-0.195-0.123-0.256c0.009-0.095-0.021-0.194-0.094-0.267l-0.413-0.413l0.34-0.34l0.413,0.413
				c0.13,0.13,0.34,0.13,0.47,0c0.13-0.129,0.13-0.34,0-0.47l-0.413-0.413l0.551-0.55c0.13-0.13,0.13-0.34,0-0.47
				c-0.13-0.129-0.34-0.129-0.47,0l-0.551,0.551l-0.413-0.413c-0.13-0.13-0.34-0.13-0.47,0c-0.13,0.13-0.13,0.34,0,0.47l0.413,0.413
				l-0.34,0.34l-0.413-0.413c-0.073-0.073-0.172-0.104-0.267-0.094c-0.061-0.074-0.152-0.122-0.256-0.122h-0.584v-0.481h0.584
				c0.184,0,0.332-0.149,0.332-0.332c0-0.183-0.149-0.332-0.332-0.332h-0.584v-0.779c0-0.183-0.149-0.332-0.332-0.332
				c-0.184,0-0.332,0.149-0.332,0.332v0.779h-0.584c-0.183,0-0.332,0.149-0.332,0.332c0,0.184,0.149,0.332,0.332,0.332h0.584v0.481
				h-0.584c-0.104,0-0.195,0.048-0.256,0.122c-0.095-0.009-0.194,0.021-0.268,0.094l-0.413,0.413l-0.34-0.34l0.413-0.413
				c0.13-0.13,0.13-0.34,0-0.47c-0.13-0.13-0.34-0.13-0.47,0l-0.413,0.413l-0.551-0.551c-0.13-0.129-0.34-0.129-0.47,0
				c-0.13,0.13-0.13,0.34,0,0.47l0.551,0.55l-0.413,0.413c-0.13,0.13-0.13,0.34,0,0.47c0.13,0.13,0.34,0.13,0.47,0l0.413-0.413
				l0.34,0.34l-0.413,0.413c-0.073,0.073-0.104,0.172-0.094,0.267c-0.074,0.061-0.123,0.152-0.123,0.256v0.584h-0.481v-0.584
				c0-0.183-0.149-0.332-0.332-0.332c-0.183,0-0.332,0.149-0.332,0.332v0.584h-0.779c-0.183,0-0.332,0.149-0.332,0.332
				c0,0.184,0.149,0.332,0.332,0.332h0.779v0.584c0,0.183,0.149,0.332,0.332,0.332c0.183,0,0.332-0.149,0.332-0.332v-0.584h0.481
				v0.584c0,0.103,0.048,0.195,0.123,0.255c-0.009,0.096,0.021,0.194,0.094,0.268l0.413,0.413l-0.34,0.34l-0.413-0.413
				c-0.13-0.13-0.34-0.13-0.47,0c-0.13,0.13-0.13,0.34,0,0.47l0.413,0.413l-0.551,0.551c-0.13,0.129-0.13,0.34,0,0.47
				c0.13,0.13,0.34,0.13,0.47,0l0.551-0.551l0.413,0.413c0.13,0.13,0.34,0.13,0.47,0c0.13-0.13,0.13-0.34,0-0.47l-0.413-0.413
				l0.34-0.34l0.413,0.413c0.073,0.073,0.172,0.104,0.268,0.094c0.061,0.074,0.152,0.123,0.256,0.123h0.584v0.481h-0.584
				c-0.183,0-0.332,0.149-0.332,0.332c0,0.184,0.149,0.332,0.332,0.332h0.584v0.779c0,0.183,0.149,0.332,0.332,0.332
				c0.183,0,0.332-0.149,0.332-0.332v-0.779h0.584c0.184,0,0.332-0.148,0.332-0.332c0-0.183-0.149-0.332-0.332-0.332h-0.584v-0.481
				h0.584c0.104,0,0.195-0.048,0.256-0.123c0.096,0.009,0.194-0.021,0.267-0.094l0.413-0.413l0.34,0.34l-0.413,0.413
				c-0.13,0.13-0.13,0.34,0,0.47c0.13,0.13,0.34,0.13,0.47,0l0.413-0.413l0.551,0.551c0.13,0.13,0.34,0.13,0.47,0
				c0.13-0.13,0.13-0.34,0-0.47l-0.551-0.551l0.413-0.413c0.13-0.13,0.13-0.34,0-0.47c-0.13-0.13-0.34-0.13-0.47,0l-0.413,0.413
				l-0.34-0.34l0.413-0.413c0.073-0.073,0.103-0.172,0.094-0.268c0.074-0.061,0.123-0.152,0.123-0.255v-0.584h0.481v0.584
				c0,0.183,0.149,0.332,0.332,0.332c0.184,0,0.332-0.149,0.332-0.332v-0.584h0.779c0.183,0,0.332-0.148,0.332-0.332
				C335.115-21.353,334.966-21.501,334.783-21.501z M332.172-22.138c0.008,0.008,0.017,0.014,0.025,0.021
				c-0.001,0.011-0.003,0.022-0.003,0.033v0.584h-0.271c0.02-0.104-0.01-0.217-0.091-0.298l-0.119-0.119v-0.168
				c0-0.115-0.058-0.215-0.146-0.275l0.192-0.192L332.172-22.138z M329.575-20.027h-0.141l-0.1-0.1l0.241-0.241V-20.027z
				 M330.239-22.311h0.141l0.1,0.099l-0.241,0.241V-22.311z M330.95-20.596l-0.241-0.241h0.341v0.141L330.95-20.596z
				 M328.765-20.696v-0.141h0.34l-0.241,0.241L328.765-20.696z M328.865-21.742l0.241,0.241h-0.34v-0.141L328.865-21.742z
				 M330.709-21.501l0.241-0.241l0.1,0.1v0.141H330.709z M329.575-22.311v0.34l-0.241-0.241l0.1-0.099H329.575z M330.239-20.027
				v-0.34l0.241,0.241l-0.1,0.1H330.239z M330.823-23.457c0.011,0,0.022-0.002,0.033-0.003c0.007,0.008,0.013,0.018,0.021,0.026
				l0.413,0.413l-0.192,0.192c-0.06-0.088-0.16-0.146-0.275-0.146h-0.168l-0.119-0.119c-0.081-0.081-0.193-0.111-0.297-0.091v-0.271
				H330.823z M328.938-23.434c0.008-0.008,0.014-0.017,0.021-0.026c0.011,0.001,0.022,0.003,0.033,0.003h0.584v0.271
				c-0.104-0.02-0.217,0.011-0.298,0.091l-0.119,0.119h-0.168c-0.114,0-0.215,0.058-0.275,0.146l-0.191-0.192L328.938-23.434z
				 M328.055-22.552l0.192,0.192c-0.088,0.06-0.146,0.16-0.146,0.275v0.168l-0.119,0.119c-0.081,0.081-0.111,0.193-0.091,0.298
				h-0.271v-0.584c0-0.011-0.002-0.022-0.003-0.033c0.009-0.007,0.017-0.013,0.025-0.021L328.055-22.552z M327.642-20.199
				c-0.008-0.008-0.017-0.014-0.025-0.021c0.001-0.01,0.003-0.021,0.003-0.032v-0.584h0.271c-0.02,0.105,0.01,0.217,0.091,0.298
				l0.119,0.119v0.168c0,0.114,0.058,0.215,0.146,0.275l-0.192,0.192L327.642-20.199z M328.991-18.882
				c-0.011,0-0.022,0.002-0.033,0.003c-0.007-0.008-0.013-0.017-0.021-0.026l-0.413-0.413l0.191-0.192
				c0.06,0.088,0.161,0.146,0.275,0.146h0.168l0.119,0.119c0.081,0.081,0.193,0.111,0.298,0.091v0.271H328.991z M330.877-18.904
				c-0.008,0.008-0.014,0.017-0.021,0.026c-0.011-0.001-0.022-0.003-0.033-0.003h-0.584v-0.271c0.104,0.02,0.216-0.011,0.297-0.091
				l0.119-0.119h0.168c0.114,0,0.215-0.058,0.275-0.146l0.192,0.192L330.877-18.904z M331.759-19.786l-0.192-0.192
				c0.088-0.06,0.146-0.161,0.146-0.275v-0.168l0.119-0.119c0.081-0.081,0.111-0.193,0.091-0.298h0.271v0.584
				c0,0.011,0.002,0.022,0.003,0.032c-0.008,0.007-0.017,0.013-0.025,0.021L331.759-19.786z"/>
			<path fill="#000B37" d="M325.137-13.524h-0.444v-0.333c0-0.104-0.085-0.189-0.189-0.189c-0.105,0-0.19,0.085-0.19,0.189v0.333
				h-0.274v-0.333c0-0.059-0.028-0.111-0.07-0.146c0.005-0.055-0.012-0.111-0.054-0.153l-0.236-0.236l0.194-0.194l0.236,0.236
				c0.074,0.074,0.194,0.074,0.268,0c0.074-0.074,0.074-0.194,0-0.268l-0.236-0.236l0.314-0.314c0.074-0.074,0.074-0.194,0-0.268
				c-0.074-0.074-0.194-0.074-0.268,0l-0.314,0.314l-0.236-0.236c-0.074-0.074-0.194-0.074-0.268,0
				c-0.074,0.074-0.074,0.194,0,0.268l0.236,0.236l-0.194,0.194l-0.236-0.236c-0.042-0.042-0.098-0.059-0.153-0.054
				c-0.035-0.042-0.087-0.07-0.146-0.07h-0.333v-0.274h0.333c0.105,0,0.19-0.085,0.19-0.19c0-0.105-0.085-0.19-0.19-0.19h-0.333
				v-0.444c0-0.105-0.085-0.19-0.19-0.19s-0.189,0.085-0.189,0.19v0.444h-0.333c-0.104,0-0.189,0.085-0.189,0.19
				c0,0.105,0.085,0.19,0.189,0.19h0.333v0.274h-0.333c-0.059,0-0.111,0.028-0.146,0.07c-0.055-0.006-0.111,0.012-0.153,0.054
				l-0.236,0.236l-0.194-0.194l0.236-0.236c0.074-0.074,0.074-0.194,0-0.268c-0.074-0.074-0.194-0.074-0.268,0l-0.236,0.236
				l-0.314-0.314c-0.074-0.074-0.194-0.074-0.268,0c-0.074,0.074-0.074,0.194,0,0.268l0.314,0.314l-0.236,0.236
				c-0.074,0.074-0.074,0.194,0,0.268c0.074,0.074,0.194,0.074,0.268,0l0.236-0.236l0.194,0.194l-0.236,0.236
				c-0.042,0.042-0.059,0.098-0.054,0.153c-0.042,0.035-0.07,0.087-0.07,0.146v0.333h-0.274v-0.333c0-0.104-0.085-0.189-0.189-0.189
				c-0.105,0-0.19,0.085-0.19,0.189v0.333h-0.444c-0.105,0-0.19,0.085-0.19,0.19c0,0.104,0.085,0.19,0.19,0.19h0.444v0.333
				c0,0.105,0.085,0.19,0.19,0.19c0.105,0,0.189-0.085,0.189-0.19v-0.333h0.274v0.333c0,0.059,0.028,0.111,0.07,0.146
				c-0.006,0.054,0.012,0.111,0.054,0.153l0.236,0.236l-0.194,0.194l-0.236-0.236c-0.074-0.074-0.194-0.074-0.268,0
				c-0.074,0.074-0.074,0.194,0,0.268l0.236,0.236l-0.314,0.314c-0.074,0.074-0.074,0.194,0,0.268c0.074,0.074,0.194,0.074,0.268,0
				l0.314-0.314l0.236,0.236c0.074,0.074,0.194,0.074,0.268,0c0.074-0.074,0.074-0.194,0-0.268l-0.236-0.236l0.194-0.194
				l0.236,0.236c0.042,0.042,0.098,0.059,0.153,0.054c0.035,0.043,0.087,0.07,0.146,0.07h0.333v0.274h-0.333
				c-0.104,0-0.189,0.085-0.189,0.19c0,0.105,0.085,0.19,0.189,0.19h0.333v0.444c0,0.105,0.085,0.189,0.189,0.189
				s0.19-0.085,0.19-0.189v-0.444h0.333c0.105,0,0.19-0.085,0.19-0.19c0-0.105-0.085-0.19-0.19-0.19h-0.333v-0.274h0.333
				c0.059,0,0.111-0.028,0.146-0.07c0.055,0.005,0.111-0.012,0.153-0.054l0.236-0.236l0.194,0.194l-0.236,0.236
				c-0.074,0.074-0.074,0.194,0,0.268c0.074,0.074,0.194,0.074,0.268,0l0.236-0.236l0.314,0.314c0.074,0.074,0.194,0.074,0.268,0
				c0.074-0.074,0.074-0.194,0-0.268l-0.314-0.314l0.236-0.236c0.074-0.074,0.074-0.194,0-0.268c-0.074-0.074-0.194-0.074-0.268,0
				l-0.236,0.236l-0.194-0.194l0.236-0.236c0.042-0.042,0.059-0.098,0.054-0.153c0.042-0.035,0.07-0.087,0.07-0.146v-0.333h0.274
				v0.333c0,0.105,0.085,0.19,0.19,0.19c0.105,0,0.189-0.085,0.189-0.19v-0.333h0.444c0.105,0,0.19-0.085,0.19-0.19
				C325.327-13.439,325.242-13.524,325.137-13.524z M323.648-13.888c0.005,0.004,0.01,0.008,0.015,0.012
				c-0.001,0.006-0.002,0.012-0.002,0.018v0.333h-0.155c0.011-0.06-0.006-0.123-0.052-0.17l-0.068-0.068v-0.096
				c0-0.065-0.033-0.122-0.083-0.156l0.109-0.109L323.648-13.888z M322.166-12.683h-0.081l-0.057-0.057l0.137-0.138V-12.683z
				 M322.545-13.986h0.08l0.057,0.057l-0.137,0.137V-13.986z M322.951-13.008l-0.137-0.137h0.194v0.08L322.951-13.008z
				 M321.704-13.064v-0.08h0.194l-0.137,0.137L321.704-13.064z M321.761-13.661l0.137,0.137h-0.194v-0.08L321.761-13.661z
				 M322.813-13.524l0.137-0.137l0.057,0.057v0.08H322.813z M322.166-13.986v0.194l-0.137-0.137l0.057-0.057H322.166z
				 M322.545-12.683v-0.194l0.137,0.138l-0.057,0.057H322.545z M322.878-14.64c0.006,0,0.012-0.002,0.019-0.002
				c0.004,0.005,0.007,0.01,0.012,0.014l0.236,0.236l-0.109,0.109c-0.034-0.05-0.092-0.083-0.157-0.083h-0.096l-0.068-0.067
				c-0.046-0.046-0.11-0.063-0.17-0.052v-0.155H322.878z M321.802-14.627c0.005-0.004,0.008-0.01,0.012-0.014
				c0.006,0,0.012,0.002,0.019,0.002h0.333v0.155c-0.06-0.011-0.124,0.006-0.17,0.052l-0.068,0.067h-0.096
				c-0.065,0-0.123,0.033-0.157,0.083l-0.109-0.109L321.802-14.627z M321.299-14.123l0.109,0.109
				c-0.05,0.034-0.083,0.092-0.083,0.156v0.096l-0.068,0.068c-0.046,0.046-0.063,0.11-0.052,0.17h-0.155v-0.333
				c0-0.006-0.001-0.012-0.002-0.018c0.005-0.004,0.01-0.008,0.014-0.012L321.299-14.123z M321.063-12.781
				c-0.004-0.004-0.01-0.008-0.014-0.012c0-0.007,0.002-0.013,0.002-0.019v-0.333h0.155c-0.011,0.059,0.006,0.124,0.052,0.17
				l0.068,0.068v0.096c0,0.065,0.033,0.123,0.083,0.157l-0.109,0.109L321.063-12.781z M321.833-12.029
				c-0.006,0-0.012,0.001-0.019,0.002c-0.004-0.005-0.007-0.01-0.012-0.015l-0.236-0.236l0.109-0.109
				c0.034,0.05,0.092,0.083,0.157,0.083h0.096l0.068,0.068c0.046,0.046,0.11,0.063,0.17,0.052v0.155H321.833z M322.909-12.042
				c-0.004,0.004-0.008,0.01-0.012,0.015c-0.006-0.001-0.012-0.002-0.019-0.002h-0.333v-0.155c0.059,0.011,0.124-0.006,0.17-0.052
				l0.068-0.068h0.096c0.065,0,0.123-0.033,0.157-0.083l0.109,0.109L322.909-12.042z M323.413-12.546l-0.109-0.109
				c0.05-0.034,0.083-0.092,0.083-0.157v-0.096l0.068-0.068c0.046-0.046,0.063-0.11,0.052-0.17h0.155v0.333
				c0,0.006,0.001,0.012,0.002,0.019c-0.005,0.004-0.01,0.007-0.015,0.012L323.413-12.546z"/>
		</g>
		<circle fill="none" stroke="#000B37" stroke-width="2.2738" stroke-miterlimit="10" cx="322.129" cy="-31.002" r="26.155"/>
	</g>
</g>
</svg>
