<?xml version="1.0" encoding="utf-8"?>
<!-- Generator: Adobe Illustrator 17.0.0, SVG Export Plug-In . SVG Version: 6.00 Build 0)  -->
<!DOCTYPE svg PUBLIC "-//W3C//DTD SVG 1.1//EN" "http://www.w3.org/Graphics/SVG/1.1/DTD/svg11.dtd">
<svg version="1.1" xmlns="http://www.w3.org/2000/svg" xmlns:xlink="http://www.w3.org/1999/xlink" x="0px" y="0px"
	 width="55.692px" height="55.692px" viewBox="231.518 -58.848 55.692 55.692"
	 enable-background="new 231.518 -58.848 55.692 55.692" xml:space="preserve">
<g id="fondo" display="none">
	<rect x="166.592" y="-90.47" display="inline" fill="#FFFFFF" width="180.667" height="122.28"/>
</g>
<g id="Capa_1" display="none">
	<g display="inline">
		<text transform="matrix(1 0 0 1 245.9352 -39.7939)" font-family="'SegoeUIEmoji'" font-size="4.7611">tendencia</text>
	</g>
	<text transform="matrix(1 0 0 1 216.7224 -43.1734)" display="inline"><tspan x="0" y="0" font-family="'SegoeUIEmoji'" font-size="4.8331">Estación</tspan><tspan x="0" y="5.8" font-family="'SegoeUIEmoji'" font-size="4.8331">del año</tspan></text>
	<g id="Sol" display="inline">
	</g>
</g>
<g id="Capa_4">
	<g>
		<g>
			<defs>
				<circle id="SVGID_14_" cx="259.363" cy="-31.002" r="26.155"/>
			</defs>
			<clipPath id="SVGID_1_">
				<use xlink:href="#SVGID_14_"  overflow="visible"/>
			</clipPath>
			<g clip-path="url(#SVGID_1_)">
				<rect x="259.363" y="-20.756" fill="#000B37" width="1.129" height="26.476"/>
				<circle fill="none" stroke="#000B37" stroke-width="1.4701" stroke-miterlimit="10" cx="259.94" cy="-35.771" r="4.183"/>
				<g>
					
						<ellipse fill="none" stroke="#000B37" stroke-width="1.4701" stroke-miterlimit="10" cx="259.941" cy="-45.37" rx="1.694" ry="5.416"/>
					
						<ellipse fill="none" stroke="#000B37" stroke-width="1.4701" stroke-miterlimit="10" cx="259.941" cy="-26.172" rx="1.694" ry="5.416"/>
					
						<ellipse fill="none" stroke="#000B37" stroke-width="1.4701" stroke-miterlimit="10" cx="250.341" cy="-35.771" rx="5.416" ry="1.694"/>
					
						<ellipse fill="none" stroke="#000B37" stroke-width="1.4701" stroke-miterlimit="10" cx="269.54" cy="-35.771" rx="5.416" ry="1.694"/>
					
						<ellipse transform="matrix(0.7072 0.707 -0.707 0.7072 48.0081 -201.0409)" fill="none" stroke="#000B37" stroke-width="1.4701" stroke-miterlimit="10" cx="266.728" cy="-42.559" rx="1.693" ry="5.416"/>
					
						<ellipse transform="matrix(0.7071 0.7072 -0.7072 0.7071 53.6654 -187.5108)" fill="none" stroke="#000B37" stroke-width="1.4701" stroke-miterlimit="10" cx="253.153" cy="-28.983" rx="1.693" ry="5.416"/>
					
						<ellipse transform="matrix(0.7072 -0.7071 0.7071 0.7072 104.2268 166.5316)" fill="none" stroke="#000B37" stroke-width="1.4701" stroke-miterlimit="10" cx="253.153" cy="-42.559" rx="1.693" ry="5.415"/>
					
						<ellipse transform="matrix(0.7071 -0.7071 0.7071 0.7071 98.6183 180.1178)" fill="none" stroke="#000B37" stroke-width="1.4701" stroke-miterlimit="10" cx="266.728" cy="-28.983" rx="1.693" ry="5.416"/>
				</g>
				<path fill="#000B37" d="M272.839-12.494c-5.164,7.754-11.793,12.413-11.793,12.413s1.743-7.913,6.907-15.666
					c5.164-7.754,11.792-12.414,11.792-12.414S278.003-20.248,272.839-12.494z"/>
				<path fill="#000B37" d="M247.305-7.606c5.164,7.754,11.793,12.413,11.793,12.413s-1.743-7.913-6.907-15.666
					c-5.164-7.754-11.792-12.413-11.792-12.413S242.142-15.36,247.305-7.606z"/>
			</g>
		</g>
		<circle fill="none" stroke="#000B37" stroke-width="2.2738" stroke-miterlimit="10" cx="259.363" cy="-31.002" r="26.155"/>
	</g>
	<g>
		<g>
			<defs>
				<circle id="SVGID_16_" cx="263.081" cy="-93.089" r="26.686"/>
			</defs>
			<clipPath id="SVGID_3_">
				<use xlink:href="#SVGID_16_"  overflow="visible"/>
			</clipPath>
			<g clip-path="url(#SVGID_3_)">
				<rect x="263.081" y="-82.635" fill="#AFDEA3" width="1.152" height="27.014"/>
				<path fill="#AFDEA3" d="M250.778-69.218c5.268,7.911,12.032,12.665,12.032,12.665s-1.779-8.073-7.047-15.985
					c-5.268-7.911-12.032-12.665-12.032-12.665S245.51-77.13,250.778-69.218z"/>
			</g>
		</g>
	</g>
</g>
</svg>
