<?xml version="1.0" encoding="utf-8"?>
<!-- Generator: Adobe Illustrator 17.0.0, SVG Export Plug-In . SVG Version: 6.00 Build 0)  -->
<!DOCTYPE svg PUBLIC "-//W3C//DTD SVG 1.1//EN" "http://www.w3.org/Graphics/SVG/1.1/DTD/svg11.dtd">
<svg version="1.1" xmlns="http://www.w3.org/2000/svg" xmlns:xlink="http://www.w3.org/1999/xlink" x="0px" y="0px"
	 width="55.692px" height="55.692px" viewBox="105.987 -58.848 55.692 55.692"
	 enable-background="new 105.987 -58.848 55.692 55.692" xml:space="preserve">
<g id="fondo" display="none">
</g>
<g id="Capa_1" display="none">
	<g display="inline">
		<line fill="none" x1="76.686" y1="-13.143" x2="107.686" y2="-13.143"/>
		<g>
			<g>
				<path opacity="0.1091" fill="#F0DEF1" enable-background="new    " d="M84.58-1.976c10.327,0.04,20.657,0.079,30.984,0.033
					c2.11-0.009-1.362-3.218-1.373-3.229c-1.456-1.458-2.96-2.864-4.512-4.219c-0.758-0.824-1.649-1.436-2.675-1.836
					c-1.414-0.282-3.193-0.046-4.617-0.053c-3.546-0.017-7.092-0.01-10.639-0.009c-5.086,0.001-10.165-0.053-15.25-0.173
					c-2.086-0.049,1.185,3.213,1.218,3.249c1.38,1.493,2.81,2.937,4.29,4.331C82.724-3.041,83.581-2.405,84.58-1.976z"/>
				<path opacity="0.1091" fill="#F0DEF1" enable-background="new    " d="M80.128-5.412c10.275-0.018,20.55-0.045,30.825-0.006
					c1.374,0.005,0.129-1.794-0.11-2.06c-0.798-0.887-2.183-2.634-3.512-2.651c-10.182-0.129-20.371-0.011-30.554-0.009
					c-1.332,0-0.255,1.715,0.012,2.035C77.506-7.243,78.852-5.409,80.128-5.412z"/>
				<path opacity="0.1091" fill="#F0DEF1" enable-background="new    " d="M80.183-11.615c10.24-0.41,20.487-0.263,30.735-0.263
					c0.506,0,1.79-1.595,1.099-1.595c-10.261,0-20.522-0.127-30.777,0.221C80.671-13.232,79.406-11.584,80.183-11.615z"/>
				<path opacity="0.1091" fill="#F0DEF1" enable-background="new    " d="M84.323-6.604c10.279-0.039,20.559-0.071,30.838-0.02
					c1.469,0.007-0.033-1.937-0.24-2.159c-0.874-0.938-2.429-2.876-3.857-2.909c-10.172-0.233-20.367-0.014-30.542-0.019
					c-1.426-0.001-0.111,1.856,0.134,2.139C81.428-8.676,82.966-6.599,84.323-6.604z"/>
				<path opacity="0.1091" fill="#F0DEF1" enable-background="new    " d="M84.216-11.832c10.25-0.36,20.506-0.233,30.762-0.233
					c1.34,0,1.38-2.224,0.002-2.224c-10.266,0-20.533-0.115-30.795,0.201C82.8-14.044,82.848-11.783,84.216-11.832z"/>
				<path opacity="0.1091" fill="#F0DEF1" enable-background="new    " d="M77.233-7.435C87.454-7.873,97.681-7.76,107.91-7.763
					c1.925-0.001,0.841-2.748-0.476-2.748c-10.232,0.002-20.464-0.142-30.686,0.318c-0.508,0.023-1.239,0.513-1.133,1.117
					C75.703-8.577,76.673-7.411,77.233-7.435z"/>
				<path opacity="0.1091" fill="#F0DEF1" enable-background="new    " d="M81.106-1.926c10.316,0.046,20.632,0.025,30.949,0.04
					c1.986,0.003-1.029-2.92-1.076-2.969c-1.269-1.293-2.585-2.535-3.95-3.726c-0.666-0.74-1.461-1.267-2.385-1.582
					c-1.459-0.234-3.159-0.04-4.625-0.047c-3.546-0.016-7.092-0.01-10.638-0.009c-5.079,0.001-10.153-0.043-15.231-0.144
					c-1.952-0.039,0.842,2.882,0.927,2.977c1.196,1.322,2.443,2.594,3.74,3.817C79.444-2.813,80.207-2.266,81.106-1.926z"/>
				<path opacity="0.1091" fill="#F0DEF1" enable-background="new    " d="M87.032-7.195c10.299,0.009,20.598-0.045,30.897,0.013
					c1.601,0.009-0.266-2.145-0.426-2.311c-0.841-0.861-1.728-1.671-2.664-2.429c-0.47-0.519-1.04-0.82-1.711-0.902
					c-5.1-0.212-10.245-0.031-15.348-0.031c-5.07,0-10.138-0.007-15.208-0.05c-1.558-0.013,0.105,2.071,0.306,2.297
					c0.787,0.875,1.624,1.7,2.51,2.475C85.829-7.607,86.377-7.294,87.032-7.195z"/>
				<path opacity="0.1091" fill="#F0DEF1" enable-background="new    " d="M78.838-9.551C89.061-10.04,99.296-9.86,109.53-9.86
					c1.227,0,1.491-2.134,0.117-2.135c-10.247,0-20.497-0.162-30.736,0.265C77.618-11.676,77.476-9.485,78.838-9.551z"/>
				<path opacity="0.1091" fill="#F0DEF1" enable-background="new    " d="M82.473-9.653c10.237-0.365,20.478-0.274,30.721-0.277
					c1.985-0.001,0.736-2.808-0.574-2.808c-10.243,0.002-20.486-0.118-30.722,0.276C79.907-12.385,81.175-9.607,82.473-9.653z"/>
				<path opacity="0.1091" fill="#F0DEF1" enable-background="new    " d="M86.53-4.398c10.317,0.049,20.634,0.026,30.951,0.042
					c1.944,0.003-0.963-2.808-1.005-2.851c-1.214-1.21-2.476-2.367-3.786-3.473c-0.642-0.697-1.407-1.179-2.295-1.446
					c-1.501-0.183-3.139-0.036-4.645-0.043c-3.545-0.016-7.091-0.01-10.636-0.01c-5.073,0-10.14-0.038-15.212-0.141
					c-1.907-0.038,0.77,2.765,0.854,2.856c1.142,1.237,2.333,2.424,3.575,3.561C84.934-5.191,85.667-4.69,86.53-4.398z"/>
				<path opacity="0.1091" fill="#F0DEF1" enable-background="new    " d="M77.513-5.555C87.865-5.148,98.228-5.3,108.589-5.294
					c1.223,0.001,0.338-1.591,0.064-1.91c-0.706-0.821-1.838-2.24-3.032-2.241c-10.273-0.011-20.549,0.126-30.816-0.21
					c-1.187-0.039-0.423,1.538-0.155,1.872C75.321-6.947,76.345-5.601,77.513-5.555z"/>
			</g>
		</g>
	</g>
	<g id="Sol" display="inline">
	</g>
</g>
<g id="Capa_4">
	<g>
		<g>
			<path fill="none" stroke="#010B36" stroke-width="1.0596" stroke-miterlimit="10" d="M126.84-39.83h-5.107
				c-0.445,0-0.805,0.36-0.805,0.826c0,0.445,0.36,0.805,0.805,0.805h5.107c0.466,0,0.826-0.36,0.826-0.805
				C127.666-39.47,127.306-39.83,126.84-39.83z"/>
			<path fill="#000B37" d="M127.645-17.898c-0.487-0.487-1.272-0.487-1.759,0l-5.573,5.573c-0.487,0.487-0.487,1.271,0,1.78
				c0.509,0.487,1.293,0.487,1.78,0l5.552-5.573C128.154-16.605,128.154-17.389,127.645-17.898z"/>
			<path fill="none" stroke="#010B36" stroke-width="1.0596" stroke-miterlimit="10" d="M129.446-44.471l-3.603-3.603
				c-0.318-0.318-0.848-0.318-1.165,0c-0.318,0.318-0.318,0.826,0,1.144l3.624,3.603c0.318,0.339,0.826,0.339,1.144,0
				C129.764-43.645,129.764-44.154,129.446-44.471z"/>
			<path fill="#010B36" d="M133.409-17.898c-0.509-0.487-1.293-0.487-1.78,0l-5.573,5.573c-0.487,0.487-0.487,1.271,0,1.78
				c0.509,0.487,1.293,0.487,1.78,0l5.573-5.573C133.896-16.605,133.896-17.389,133.409-17.898z"/>
			<path fill="#000B37" d="M139.448-17.898c-0.487-0.487-1.293-0.487-1.78,0l-5.552,5.573c-0.509,0.487-0.509,1.271,0,1.78
				c0.487,0.487,1.271,0.487,1.759,0l5.573-5.573C139.936-16.605,139.936-17.389,139.448-17.898z"/>
			<path fill="none" stroke="#010B36" stroke-width="1.0596" stroke-miterlimit="10" d="M142.691-48.074
				c-0.318-0.318-0.848-0.318-1.165,0l-3.603,3.603c-0.318,0.318-0.318,0.826,0,1.144c0.318,0.339,0.826,0.339,1.144,0l3.624-3.603
				C143.009-47.247,143.009-47.756,142.691-48.074z"/>
			<path fill="none" stroke="#010B36" stroke-width="1.0596" stroke-miterlimit="10" d="M145.615-39.83h-5.086
				c-0.445,0-0.784,0.318-0.805,0.763c0.572,0.233,1.123,0.53,1.632,0.869h4.259c0.466,0,0.826-0.36,0.826-0.805
				C146.442-39.47,146.081-39.83,145.615-39.83z"/>
			<path fill="none" stroke="#010B36" stroke-width="1.0596" stroke-miterlimit="10" d="M137.923-44.471l3.603-3.603
				c0.318-0.318,0.848-0.318,1.165,0c0.318,0.318,0.318,0.826,0,1.144l-3.624,3.603c-0.318,0.339-0.826,0.339-1.144,0
				C137.605-43.645,137.605-44.154,137.923-44.471z"/>
			<path fill="none" stroke="#010B36" stroke-width="1.0596" stroke-miterlimit="10" d="M132.943-51.019
				c0-0.403,0.318-0.763,0.72-0.784v-0.021c0.021,0,0.021,0,0.042,0.021c0.403,0.021,0.72,0.381,0.72,0.784v5.107
				c0,0.403-0.318,0.763-0.72,0.784c-0.021,0.021-0.021,0.021-0.042,0.021v-0.021c-0.403-0.021-0.72-0.382-0.72-0.784V-51.019z"/>
			<path fill="none" stroke="#010B36" stroke-width="1.0596" stroke-miterlimit="10" d="M124.678-48.074
				c0.318-0.318,0.848-0.318,1.165,0l3.603,3.603c0.318,0.318,0.318,0.826,0,1.144c-0.318,0.339-0.826,0.339-1.144,0l-3.624-3.603
				C124.36-47.247,124.36-47.756,124.678-48.074z"/>
			<path fill="none" stroke="#010B36" stroke-width="1.0596" stroke-miterlimit="10" d="M121.733-39.83h5.107
				c0.466,0,0.826,0.36,0.826,0.826c0,0.445-0.36,0.805-0.826,0.805h-5.107c-0.445,0-0.805-0.36-0.805-0.805
				C120.927-39.47,121.288-39.83,121.733-39.83z"/>
			<path fill="none" stroke="#010B36" stroke-width="1.0596" stroke-miterlimit="10" d="M143.899-19.254h-20.132
				c-3.687,0-6.675-2.988-6.675-6.675c0-3.687,2.988-6.675,6.675-6.675c0.699,0,1.377,0.106,2.013,0.318
				c0.53-1.95,1.632-3.687,3.115-5.001c-0.212-0.551-0.318-1.144-0.318-1.759c0-2.818,2.267-5.128,5.086-5.171
				c0.021,0,0.021,0,0.042,0c2.691,0.042,4.895,2.161,5.065,4.81c0.339,0.085,0.657,0.191,0.953,0.339
				c0.021-0.445,0.36-0.763,0.805-0.763h5.086c0.466,0,0.826,0.36,0.826,0.826c0,0.445-0.36,0.805-0.826,0.805h-4.259
				c2.077,1.335,3.624,3.412,4.302,5.828c2.84,0.784,4.916,3.369,4.916,6.442C150.574-22.242,147.586-19.254,143.899-19.254z"/>
			<g>
				<g>
					<path fill="none" stroke="#010B36" stroke-width="1.0596" stroke-miterlimit="10" d="M138.77-39.407
						c-0.954-0.318-1.971-0.466-3.03-0.466c-0.699,0-1.377,0.064-2.034,0.212c-0.021,0-0.021,0-0.042,0
						c-1.801,0.36-3.433,1.208-4.768,2.373c-0.212-0.551-0.318-1.144-0.318-1.759c0-2.818,2.267-5.128,5.086-5.171
						c0.021,0,0.021,0,0.042,0C136.397-44.175,138.601-42.056,138.77-39.407z"/>
					<path fill="none" stroke="#010B36" stroke-width="1.0596" stroke-miterlimit="10" d="M127.666-39.004
						c0,0.445-0.36,0.805-0.826,0.805h-5.107c-0.445,0-0.805-0.36-0.805-0.805c0-0.466,0.36-0.826,0.805-0.826h5.107
						C127.306-39.83,127.666-39.47,127.666-39.004z"/>
					<path fill="none" stroke="#010B36" stroke-width="1.0596" stroke-miterlimit="10" d="M129.446-43.327
						c-0.318,0.339-0.826,0.339-1.144,0l-3.624-3.603c-0.318-0.318-0.318-0.826,0-1.144c0.318-0.318,0.848-0.318,1.165,0
						l3.603,3.603C129.764-44.154,129.764-43.645,129.446-43.327z"/>
				</g>
				<g>
					<path fill="none" stroke="#010B36" stroke-width="1.0596" stroke-miterlimit="10" d="M146.442-39.004
						c0,0.445-0.36,0.805-0.826,0.805h-4.259c-0.509-0.339-1.06-0.636-1.632-0.869c0.021-0.445,0.36-0.763,0.805-0.763h5.086
						C146.081-39.83,146.442-39.47,146.442-39.004z"/>
					<path fill="none" stroke="#010B36" stroke-width="1.0596" stroke-miterlimit="10" d="M142.691-46.93l-3.624,3.603
						c-0.318,0.339-0.826,0.339-1.144,0c-0.318-0.318-0.318-0.826,0-1.144l3.603-3.603c0.318-0.318,0.848-0.318,1.165,0
						C143.009-47.756,143.009-47.247,142.691-46.93z"/>
				</g>
			</g>
			<path fill="none" stroke="#010B36" stroke-width="1.0596" stroke-miterlimit="10" d="M145.658-32.371
				c-0.678-2.416-2.225-4.493-4.302-5.828c-0.509-0.339-1.06-0.636-1.632-0.869c-0.297-0.148-0.614-0.254-0.953-0.339
				c-0.954-0.318-1.971-0.466-3.03-0.466c-0.699,0-1.377,0.064-2.034,0.212c-0.021,0-0.021,0-0.042,0
				c-1.801,0.36-3.433,1.208-4.768,2.373c-1.483,1.314-2.585,3.052-3.115,5.001c-0.636-0.212-1.314-0.318-2.013-0.318
				c-3.687,0-6.675,2.988-6.675,6.675c0,3.687,2.988,6.675,6.675,6.675h20.132c3.687,0,6.675-2.988,6.675-6.675
				C150.574-29.002,148.497-31.587,145.658-32.371z M143.687-20.843h-7.756c-4.471,0-8.095-3.624-8.095-8.074
				c0-1.547,0.445-2.988,1.187-4.217c0.191-0.318,0.403-0.614,0.636-0.911l0.021-0.021c0.275-0.318,0.572-0.636,0.89-0.911
				c0.869-0.784,1.928-1.377,3.094-1.695c0,0,0.021-0.021,0.042-0.021c0.699-0.212,1.462-0.318,2.225-0.318
				c0.805,0,1.568,0.106,2.289,0.339c2.649,0.763,4.704,2.84,5.467,5.488c2.861,0,5.171,2.31,5.171,5.171
				C148.857-23.153,146.548-20.843,143.687-20.843z"/>
			<path fill="none" stroke="#010B36" stroke-width="1.0596" stroke-miterlimit="10" d="M148.857-26.014
				c0,2.861-2.31,5.171-5.171,5.171h-7.756c-4.471,0-8.095-3.624-8.095-8.074c0-1.547,0.445-2.988,1.187-4.217
				c0.191-0.318,0.403-0.614,0.636-0.911l0.021-0.021c0.275-0.318,0.572-0.636,0.89-0.911c0.869-0.784,1.928-1.377,3.094-1.695
				c0,0,0.021-0.021,0.042-0.021c0.699-0.212,1.462-0.318,2.225-0.318c0.805,0,1.568,0.106,2.289,0.339
				c2.649,0.763,4.704,2.84,5.467,5.488C146.548-31.185,148.857-28.875,148.857-26.014z"/>
		</g>
		<circle fill="none" stroke="#000B37" stroke-width="2.2738" stroke-miterlimit="10" cx="133.833" cy="-31.002" r="26.155"/>
	</g>
</g>
</svg>
