<?xml version="1.0" encoding="utf-8"?>
<!-- Generator: Adobe Illustrator 17.0.0, SVG Export Plug-In . SVG Version: 6.00 Build 0)  -->
<!DOCTYPE svg PUBLIC "-//W3C//DTD SVG 1.1//EN" "http://www.w3.org/Graphics/SVG/1.1/DTD/svg11.dtd">
<svg version="1.1" xmlns="http://www.w3.org/2000/svg" xmlns:xlink="http://www.w3.org/1999/xlink" x="0px" y="0px"
	 width="55.692px" height="58.078px" viewBox="40.979 33.242 55.692 58.078" enable-background="new 40.979 33.242 55.692 58.078"
	 xml:space="preserve">
<g id="fondo" display="none">
</g>
<g id="Capa_1" display="none">
	<g display="inline">
		<path opacity="0.1797" fill="#00A99D" enable-background="new    " d="M65.975,33.635c10.28,0.052,20.596,0.326,30.873,0.064
			c0.245-0.006-2.538-2.456-1.969-1.977c-1.23-1.035-2.474-2.053-3.73-3.056c-0.632-0.554-1.308-1.046-2.028-1.476
			c-0.956-0.226-1.989-0.137-2.963-0.151c-3.231-0.047-6.458-0.058-9.69-0.052c-5.925,0.011-11.824-0.233-17.735-0.588
			c0.082,0.37,0.28,0.678,0.593,0.924c0.919,0.988,1.858,1.956,2.818,2.904c0.949,0.959,1.918,1.897,2.906,2.815
			C65.297,33.355,65.605,33.553,65.975,33.635z"/>
		<path opacity="0.1797" fill="#00A99D" enable-background="new    " d="M66.031,38.012c5.154,0.021,10.308,0.035,15.462,0.043
			c5.16,0.008,10.355,0.17,15.512-0.01c-0.195-0.434-0.499-0.787-0.91-1.06c-1.3-1.144-2.618-2.266-3.955-3.366
			c-1.327-1.113-2.672-2.203-4.035-3.271c-0.344-0.354-0.747-0.587-1.209-0.7c-1.297-0.4-3.294-0.106-4.618-0.125
			c-3.544-0.053-7.088-0.027-10.632-0.022c-4.95,0.007-9.892-0.365-14.826-0.725c0.152,0.447,0.418,0.825,0.799,1.133
			c1.178,1.251,2.377,2.483,3.596,3.694c1.208,1.223,2.436,2.425,3.684,3.606C65.207,37.591,65.584,37.859,66.031,38.012z"/>
		<path opacity="0.1797" fill="#00A99D" enable-background="new    " d="M64.147,34.175c10.274,0.082,20.582,0.328,30.855,0.094
			c0.259-0.006-2.341-2.291-1.802-1.836c-1.133-0.953-2.279-1.89-3.438-2.811c-0.582-0.512-1.208-0.961-1.876-1.349
			c-0.951-0.207-1.985-0.119-2.948-0.133c-3.231-0.046-6.459-0.057-9.69-0.05c-5.926,0.01-11.828-0.221-17.741-0.562
			c0.061,0.345,0.238,0.633,0.53,0.862c0.839,0.91,1.699,1.801,2.58,2.671c0.87,0.882,1.759,1.743,2.668,2.583
			C63.514,33.937,63.802,34.114,64.147,34.175z"/>
		<path opacity="0.1797" fill="#00A99D" enable-background="new    " d="M65.151,36.478c5.136,0.019,10.271,0.034,15.407,0.045
			c5.159,0.011,10.351,0.163,15.508-0.006c0.225-0.007-2.833-2.72-2.223-2.203c-1.377-1.166-2.768-2.316-4.172-3.45
			c-0.708-0.622-1.461-1.182-2.258-1.682c-1.517-0.421-3.384-0.186-4.938-0.209c-3.544-0.054-7.089-0.026-10.634-0.019
			c-4.956,0.01-9.903-0.322-14.845-0.648c0.114,0.406,0.344,0.747,0.689,1.022c1.039,1.111,2.098,2.202,3.179,3.274
			c1.069,1.083,2.158,2.145,3.267,3.186C64.405,36.132,64.745,36.363,65.151,36.478z"/>
	</g>
	<g id="Sol" display="inline">
	</g>
</g>
<g id="Capa_4">
	<g>
		<g>
			<defs>
				<circle id="SVGID_2_" cx="63.232" cy="-4.316" r="26.155"/>
			</defs>
			<clipPath id="SVGID_1_">
				<use xlink:href="#SVGID_2_"  overflow="visible"/>
			</clipPath>
			<g clip-path="url(#SVGID_1_)">
				<g>
					<path fill="#000B37" d="M70.978,37.167c0.002-0.011,0.005-0.02,0.006-0.031c0.246-2.519,0.037-5.131-0.001-7.661
						c-0.035-2.305,0.044-4.667-0.316-6.95c0.052-0.092,0.086-0.202,0.094-0.335c0.312-5.255,0.35-10.527,0.648-15.785
						c0.296-5.209,0.817-10.412,1.008-15.626c0.164-0.228,0.186-0.565-0.004-0.812c-0.288-0.374-0.829-0.493-1.277-0.547
						c-0.441-0.054-0.887,0.028-1.279,0.238c-0.257,0.137-0.337,0.458-0.253,0.707c0,0.001,0,0.001,0,0.001
						c-1.13,10.347-3.071,20.504-5.642,30.586c-0.038,0.151-0.032,0.289,0.001,0.414c-0.902,2.582-1.343,5.381-1.916,8.048
						c-0.559,2.601-1.201,5.199-1.644,7.822c-0.038,0.222,0.058,0.396,0.208,0.509c-0.023,0.142,0.02,0.299,0.15,0.404
						c2.506,2.024,7.39,1.695,10.064,0.173C71.257,38.074,71.268,37.46,70.978,37.167z M70.82-9.276
						c0.057,0.007,0.114,0.015,0.17,0.026c0.101,0.02,0.196,0.053,0.289,0.089C70.494-4.05,70.196,1.146,69.887,6.303
						c-0.296,4.927-0.632,9.897-0.597,14.839c-0.564-0.149-1.185-0.195-1.701-0.249c-0.655-0.069-1.305-0.081-1.954-0.041
						C68.36,11.031,70.048,0.881,70.82-9.276z M61.615,37.475c0.73-2.749,1.256-5.567,1.86-8.347
						c0.497-2.285,1.125-4.619,1.404-6.955c0.872,0.039,1.747,0.081,2.61,0.214c0.732,0.113,1.444,0.408,2.175,0.427
						c-0.306,2.412-0.164,4.903-0.158,7.328c0.006,2.343-0.124,4.749,0.144,7.078c0.001,0.009,0.004,0.016,0.005,0.024
						c-1.36,0.39-2.653,0.756-4.125,0.753C64.192,37.996,62.921,37.632,61.615,37.475z"/>
					<path fill="#000B37" d="M68.768,36.554c-0.15-0.277-0.534-0.365-0.811-0.478c-0.302-0.124-0.562,0.366-0.265,0.521
						c0.259,0.136,0.586,0.39,0.89,0.327C68.741,36.892,68.849,36.705,68.768,36.554z"/>
					<path fill="#000B37" d="M68.706,35.277c-0.135-0.159-0.349-0.217-0.538-0.292c-0.25-0.099-0.436,0.272-0.213,0.42
						c0.172,0.114,0.339,0.252,0.549,0.273C68.716,35.7,68.839,35.433,68.706,35.277z"/>
					<path fill="#000B37" d="M68.742,34.099c-0.115-0.147-0.311-0.202-0.485-0.252c-0.265-0.076-0.487,0.293-0.23,0.452
						c0.184,0.114,0.357,0.214,0.575,0.2C68.798,34.486,68.843,34.227,68.742,34.099z"/>
					<path fill="#000B37" d="M68.653,33.054c0.012-0.308-0.288-0.527-0.563-0.593c-0.333-0.081-0.513,0.391-0.178,0.512
						c0.154,0.055,0.206,0.197,0.34,0.275C68.413,33.341,68.646,33.261,68.653,33.054z"/>
				</g>
			</g>
		</g>
	</g>
	<g>
		<g>
			<defs>
				<circle id="SVGID_6_" cx="68.825" cy="62.281" r="26.155"/>
			</defs>
			<clipPath id="SVGID_3_">
				<use xlink:href="#SVGID_6_"  overflow="visible"/>
			</clipPath>
			<g clip-path="url(#SVGID_3_)">
				<path fill="#000B37" d="M85.34,75.361c-0.148-0.138-0.308-0.199-0.462-0.216c-0.179-0.096-0.39-0.124-0.592-0.013
					c-0.053,0.029-0.103,0.062-0.156,0.092c-0.126-0.262-0.305-0.49-0.517-0.716c-0.23-0.246-0.504-0.493-0.834-0.54
					c-0.038-0.035-0.077-0.07-0.115-0.105c-0.087-0.079-0.191-0.103-0.295-0.091c-0.062-0.036-0.128-0.06-0.195-0.077
					c-0.004-0.011-0.004-0.021-0.009-0.032c-1.523-3.193-4.67-6.01-6.93-8.723c-2.511-3.014-4.899-6.291-7.76-8.982
					c-0.172-0.162-0.361-0.218-0.536-0.208c-0.194-0.1-0.419-0.128-0.634-0.007c-0.233,0.132-0.459,0.277-0.681,0.428
					c-0.582-1.193-1.621-2.17-2.47-3.178c-0.76-0.903-1.496-1.986-2.454-2.708c0.017-0.177-0.038-0.361-0.195-0.52
					c-1.475-1.49-4.204-2.804-6.361-2.266c-0.442-0.115-1.006,0.195-0.942,0.797c0.231,2.173,0.996,4.431,2.306,6.219
					c-0.031,0.117-0.025,0.244,0.039,0.369c0.608,1.196,1.54,2.168,2.393,3.194c0.714,0.859,1.379,1.887,2.269,2.584
					c-0.311,0.319-0.597,0.656-0.83,1.027c-0.14,0.223-0.122,0.459-0.018,0.646c-0.037,0.198,0.006,0.414,0.172,0.616
					c2.489,3.04,4.977,6.081,7.466,9.121c2.215,2.706,4.311,5.829,6.902,8.196c-0.12,0.151-0.237,0.305-0.345,0.466
					c-0.141,0.212-0.119,0.445-0.012,0.626c0.007,0.026,0.007,0.051,0.017,0.078c0.169,0.459,0.584,0.804,0.908,1.162
					c0.124,0.137,0.248,0.268,0.374,0.397c-0.317,0.469-0.042,1.001,0.413,1.087c1.679,2.521,3.81,5.057,5.889,7.245
					c0.076,0.08,0.157,0.136,0.239,0.179c0.144,0.304,0.505,0.512,0.859,0.342c1.682-0.809,3.067-2.195,4.504-3.375
					c1.627-1.337,3.395-2.592,4.824-4.138c0.256-0.277,0.305-0.587,0.224-0.845c0.01-0.103,0-0.208-0.058-0.312
					c-0.776-1.387-1.871-2.567-2.879-3.79C87.723,78.015,86.647,76.575,85.34,75.361z M59.117,57.102
					c-0.711-0.86-1.378-1.765-2.197-2.518c-0.004-0.011-0.003-0.02-0.009-0.031c-0.95-1.912-1.705-3.71-2.138-5.765
					c0.674,0.145,1.358,0.241,2.011,0.488c1.009,0.381,1.829,0.975,2.682,1.618c0.006,0.005,0.013,0.007,0.019,0.012
					c0.499,1.198,1.522,2.202,2.332,3.196c0.819,1.003,1.574,2.181,2.609,2.974c-0.59,0.487-1.161,1.002-1.741,1.489
					c-0.473,0.396-0.984,0.785-1.479,1.192C60.682,58.777,59.816,57.948,59.117,57.102z M68.229,71.051
					c-2.418-2.952-4.836-5.903-7.254-8.855c1.032-0.613,1.94-1.506,2.852-2.254c1.014-0.832,2.105-1.618,3.017-2.566
					c2.062,3.079,4.652,5.865,7.003,8.714c2.172,2.632,4.312,6.121,7.033,8.227c-1.194,0.838-2.282,1.822-3.403,2.76
					c-0.865,0.723-1.826,1.416-2.665,2.207C73.005,76.335,70.411,73.714,68.229,71.051z M75.617,81.647
					c-0.136-0.159-0.27-0.339-0.413-0.511c1.229-0.741,2.306-1.798,3.401-2.698c1.247-1.025,2.544-1.999,3.667-3.157
					c0.047,0.075,0.097,0.148,0.148,0.217c0.147,0.2,0.299,0.381,0.473,0.535c-1.09,0.799-2.093,1.738-3.121,2.603
					c-1.299,1.094-2.674,2.144-3.915,3.313C75.778,81.849,75.702,81.747,75.617,81.647z M85.584,87.076
					c-1.163,0.973-2.437,1.88-3.471,2.993c-1.65-2.264-3.572-4.605-5.565-6.59c1.517-1.058,2.915-2.328,4.343-3.494
					c1.261-1.03,2.614-1.996,3.736-3.177c0.886,1.284,1.943,2.451,2.942,3.648c0.828,0.992,1.617,2.03,2.539,2.934
					C88.506,84.469,87.063,85.839,85.584,87.076z"/>
				<path fill="#000B37" d="M58.835,51.667c-0.187,0.373-0.291,0.723-0.612,1.016c-0.319,0.292-0.679,0.383-1.081,0.5
					c-0.324,0.094-0.35,0.567,0.022,0.614c1.079,0.134,2.348-0.976,2.292-2.071C59.438,51.363,58.96,51.419,58.835,51.667z"/>
				<path fill="#000B37" d="M78.642,73.507c-0.273-0.134-0.652-0.118-0.951-0.152c-0.297-0.033-0.643-0.102-0.926,0.014
					c-0.194,0.08-0.236,0.389-0.047,0.501c0.049,0.024,0.093,0.055,0.133,0.092c0.048,0.039,0.106,0.05,0.162,0.042
					c0.199,0.058,0.42,0.079,0.607,0.106c0.303,0.044,0.654,0.149,0.957,0.088C78.95,74.123,78.956,73.661,78.642,73.507z"/>
				<path fill="#000B37" d="M77.196,72.044c-0.219-0.095-0.488-0.097-0.724-0.123c-0.239-0.026-0.485-0.067-0.724-0.026
					c-0.333,0.057-0.339,0.489-0.058,0.618c0.219,0.1,0.476,0.119,0.712,0.155c0.239,0.036,0.49,0.097,0.73,0.06
					C77.5,72.673,77.509,72.18,77.196,72.044z"/>
				<path fill="#000B37" d="M75.822,70.619c-0.218-0.077-0.455-0.048-0.684-0.045c-0.23,0.003-0.459,0.01-0.688,0.035
					c-0.365,0.039-0.324,0.583,0.022,0.625c0.231,0.028,0.461,0.037,0.694,0.041c0.235,0.005,0.454,0.027,0.679-0.048
					C76.123,71.133,76.075,70.709,75.822,70.619z"/>
				<path fill="#000B37" d="M74.538,69.132c-0.349-0.021-0.726,0.112-1.052,0.228c-0.264,0.094-0.193,0.55,0.091,0.549
					c0.345-0.002,0.745-0.001,1.066-0.14C74.946,69.638,74.872,69.153,74.538,69.132z"/>
				<path fill="#000B37" d="M73.959,67.833c-0.242-0.089-0.525-0.082-0.781-0.101c-0.255-0.018-0.525-0.064-0.778-0.015
					c-0.283,0.056-0.31,0.433-0.051,0.543c0.236,0.1,0.513,0.11,0.766,0.144c0.256,0.035,0.528,0.098,0.785,0.06
					C74.228,68.416,74.263,67.944,73.959,67.833z"/>
				<path fill="#000B37" d="M72.604,66.312c-0.379-0.055-0.781-0.028-1.164-0.034c-0.382-0.007-0.446,0.57-0.056,0.598
					c0.41,0.03,0.831,0.09,1.242,0.068C73.003,66.924,72.944,66.362,72.604,66.312z"/>
				<path fill="#000B37" d="M71.703,65.088c-0.329-0.179-0.812-0.129-1.181-0.129c-0.375,0.001-0.427,0.514-0.054,0.58
					c0.361,0.064,0.833,0.198,1.185,0.078C71.863,65.547,71.901,65.195,71.703,65.088z"/>
				<path fill="#000B37" d="M70.609,63.931c-0.317-0.117-0.734-0.051-1.069-0.051c-0.373,0-0.44,0.564-0.055,0.587
					c0.328,0.019,0.755,0.116,1.072,0.021C70.816,64.41,70.906,64.04,70.609,63.931z"/>
				<path fill="#000B37" d="M69.834,62.432c-0.218-0.066-0.445-0.04-0.672-0.033c-0.231,0.007-0.462,0.013-0.693,0.02
					c-0.375,0.011-0.447,0.586-0.056,0.595c0.245,0.005,0.491,0.01,0.736,0.016c0.241,0.005,0.473,0.025,0.705-0.047
					C70.103,62.904,70.068,62.502,69.834,62.432z"/>
				<path fill="#000B37" d="M68.777,61.121c-0.203-0.122-0.431-0.141-0.661-0.181c-0.234-0.04-0.467-0.074-0.703-0.104
					c-0.332-0.042-0.471,0.505-0.132,0.585c0.228,0.054,0.456,0.106,0.686,0.149c0.226,0.043,0.46,0.117,0.69,0.074
					C68.891,61.6,69.002,61.256,68.777,61.121z"/>
				<path fill="#000B37" d="M67.291,59.871c-0.284-0.133-0.679-0.101-0.987-0.108c-0.403-0.009-0.442,0.533-0.057,0.613
					c0.305,0.063,0.677,0.18,0.987,0.113C67.56,60.417,67.58,60.006,67.291,59.871z"/>
				<path fill="#000B37" d="M88.409,83.343c-0.712-0.242-1.611,0.013-2.25,0.352c-0.329,0.174-0.103,0.691,0.239,0.531
					c0.311-0.145,0.631-0.243,0.973-0.283c0.33-0.039,0.653,0.01,0.982-0.003C88.672,83.926,88.685,83.437,88.409,83.343z"/>
				<path fill="#000B37" d="M86.913,81.643c-0.506,0.015-1.016,0.115-1.517,0.181c-0.398,0.052-0.293,0.653,0.101,0.611
					c0.474-0.051,0.972-0.066,1.439-0.164C87.268,82.202,87.29,81.632,86.913,81.643z"/>
				<path fill="#000B37" d="M85.479,80.427c-0.282,0.05-0.539,0.182-0.756,0.366c-0.29,0.247,0.065,0.646,0.37,0.446
					c0.155-0.102,0.344-0.16,0.529-0.172c0.197-0.013,0.381,0.074,0.566-0.025c0.176-0.095,0.21-0.282,0.103-0.443
					C86.126,80.356,85.735,80.382,85.479,80.427z"/>
				<path fill="#000B37" d="M85.504,79.269c-0.464-0.027-0.961,0.086-1.423,0.138c-0.398,0.045-0.289,0.637,0.1,0.607
					c0.433-0.033,0.924-0.012,1.345-0.117C85.856,79.815,85.885,79.291,85.504,79.269z"/>
			</g>
		</g>
		<circle fill="none" stroke="#000B37" stroke-width="2.2738" stroke-miterlimit="10" cx="68.825" cy="62.281" r="26.155"/>
	</g>
</g>
</svg>
