<?xml version="1.0" encoding="utf-8"?>
<!-- Generator: Adobe Illustrator 17.0.0, SVG Export Plug-In . SVG Version: 6.00 Build 0)  -->
<!DOCTYPE svg PUBLIC "-//W3C//DTD SVG 1.1//EN" "http://www.w3.org/Graphics/SVG/1.1/DTD/svg11.dtd">
<svg version="1.1" xmlns="http://www.w3.org/2000/svg" xmlns:xlink="http://www.w3.org/1999/xlink" x="0px" y="0px" width="52.8px"
	 height="52.8px" viewBox="291.201 -119.489 52.8 52.8" enable-background="new 291.201 -119.489 52.8 52.8" xml:space="preserve">
<g id="fondo" display="none">
	<rect x="166.592" y="-90.47" display="inline" fill="#FFFFFF" width="180.667" height="122.28"/>
</g>
<g id="Capa_1" display="none">
	<g display="inline">
		<path fill="#00A99D" d="M308.972-65.655c-0.042-0.06-0.052-0.132-0.127-0.191c-0.642-0.519-1.897-0.738-3.154-0.812
			c-1.285-0.079-2.675-0.052-4.181-0.14c-2.128-0.258-4.535,0.277-6.669,0.561c2.559-0.131,5.146-0.399,7.645-0.388
			c1.243,0.01,2.467,0.088,3.589,0.306c1.091,0.218,2.155,0.616,2.583,1.138c-0.196,0.235-0.349,0.437-0.523,0.577
			c-0.212,0.151-0.388,0.222-0.61,0.198c-1.098-0.318-2.579-0.442-4.058-0.448c-0.014-0.226-0.042-0.669-0.056-0.892
			c-4.241,0.957-8.739-0.14-13.26,1.563c0.182,0.098,0.107,0.292,0.09,0.441l-0.033,0.005l0.033-0.005
			c-0.016,0.13,0.017,0.226,0.309,0.189c-0.292,0.037-0.325-0.059-0.309-0.189c4.56-0.797,8.82-1.255,13.055-1.112
			c-3.265,0.013-6.671,0.496-10.129,1.014c-1.736,0.262-3.499,0.54-5.33,0.78c-1.838,0.236-3.714,0.454-5.837,0.492
			c-0.358,0.008-1.098,0.01-1.501-0.013c-0.371-0.175-0.768-0.341-1.18-0.5c-0.49-0.173-0.907-0.321-1.274-0.451
			c-0.406-0.123-0.975-0.345-1.461-0.52c-0.546-0.237-1.294-0.563-1.668-0.859c0.507-0.337,0.63-1.269,1.034-1.777
			c0.198-0.261,0.426-0.42,0.768-0.41c0.187-0.004,0.401,0.032,0.658,0.119c0.257,0.083,0.532,0.154,0.886,0.313
			c0.049-0.219,0.146-0.659,0.195-0.878c-1.252-0.853-1.039-2.342-0.448-3.202c0.458-0.947,1.544-1.282,1.548-1.853
			c-0.098-0.279,0.217-0.269,0.738-0.294c0.611,0.01,1.22,0.02,1.862,0.03c1.447,0.011,3.131-0.034,4.723-0.441
			c2.334-0.493,4.729-1.057,7.271-0.94c3.495,0.229,7.292-0.51,11.11,0.32c0.689,0.102,1.646-0.007,2.591,0.01
			c0.468,0.006,0.921,0.031,1.328,0.133c0.395,0.092,0.702,0.221,0.892,0.444c0.546,0.455,0.427,0.922,0.214,1.42
			c-1.262-0.358-2.404-0.462-3.516-0.528c-1.117-0.072-2.182-0.06-3.242-0.062c-2.589-0.104-5.128-0.091-7.656-0.218
			c2.497,0.302,5.028,0.246,7.656,0.218c1.06,0.055,2.119,0.112,3.213,0.256c1.086,0.135,2.197,0.325,3.364,0.734
			c-0.198,0.425-0.375,0.876-0.352,1.337c0,0,0.16,0.038,0.36,0.085c0.199,0.069,0.438,0.151,0.597,0.206
			c0.432,0.797,0.193,1.475-0.163,2.033c-0.366,0.565-0.846,1.095-1.13,1.572C309.317-66.099,309.112-65.875,308.972-65.655z"/>
	</g>
	<g id="Sol" display="inline">
	</g>
</g>
<g id="Capa_4">
	<g>
		<circle fill="#333366" cx="317.601" cy="-93.089" r="26.4"/>
		<g>
			<path fill="#FFFFFF" d="M329.748-103.747c-1.154-4.09-4.91-7.089-9.37-7.089c-4.485,0-8.26,3.034-9.39,7.161
				c-0.602-0.191-1.242-0.294-1.908-0.294c-3.482,0-6.304,2.822-6.304,6.304c0,3.482,2.823,6.304,6.304,6.304
				c1.996,0,17.75,0,19.006,0c3.482,0,6.304-2.823,6.304-6.304C334.391-100.572,332.424-103.018,329.748-103.747z"/>
			<path fill="#CFEDFA" d="M327.889-102.628C327.889-102.628,327.888-102.628,327.889-102.628c-0.924-3.177-3.855-5.501-7.329-5.501
				c-4.215,0-7.632,3.417-7.632,7.632c0,4.215,3.417,7.632,7.632,7.632c1.518,0,6.099,0,7.329,0c2.696,0,4.882-2.185,4.882-4.882
				S330.585-102.628,327.889-102.628z"/>
		</g>
		<path fill="#FFFFFF" d="M318.187-83.93h-1.236v-0.927c0-0.291-0.236-0.527-0.527-0.527c-0.291,0-0.527,0.236-0.527,0.527v0.927
			h-0.763v-0.927c0-0.164-0.077-0.309-0.194-0.406c0.015-0.151-0.033-0.308-0.15-0.425l-0.655-0.655l0.54-0.54l0.655,0.655
			c0.206,0.206,0.54,0.206,0.745,0c0.206-0.206,0.206-0.54,0-0.745l-0.655-0.656l0.874-0.874c0.206-0.206,0.206-0.539,0-0.745
			c-0.206-0.206-0.54-0.206-0.745,0l-0.874,0.874l-0.656-0.656c-0.206-0.206-0.54-0.206-0.745,0c-0.206,0.206-0.206,0.54,0,0.745
			l0.655,0.655l-0.54,0.54l-0.655-0.655c-0.116-0.116-0.273-0.164-0.425-0.149c-0.097-0.118-0.242-0.194-0.406-0.194h-0.927v-0.763
			h0.927c0.291,0,0.527-0.236,0.527-0.527c0-0.291-0.236-0.527-0.527-0.527h-0.927v-1.236c0-0.291-0.236-0.527-0.527-0.527
			c-0.291,0-0.527,0.236-0.527,0.527v1.236h-0.927c-0.291,0-0.527,0.236-0.527,0.527c0,0.291,0.236,0.527,0.527,0.527h0.927v0.763
			h-0.927c-0.164,0-0.309,0.077-0.406,0.194c-0.152-0.015-0.308,0.033-0.424,0.149l-0.655,0.655l-0.54-0.54l0.655-0.655
			c0.206-0.206,0.206-0.539,0-0.745c-0.206-0.206-0.54-0.206-0.745,0l-0.655,0.656l-0.874-0.874c-0.206-0.206-0.54-0.206-0.745,0
			c-0.206,0.206-0.206,0.54,0,0.745l0.874,0.874l-0.655,0.656c-0.206,0.206-0.206,0.539,0,0.745c0.206,0.206,0.54,0.206,0.746,0
			l0.655-0.655l0.54,0.54l-0.655,0.655c-0.116,0.116-0.164,0.273-0.15,0.425c-0.118,0.097-0.194,0.242-0.194,0.406v0.927h-0.763
			v-0.927c0-0.291-0.236-0.527-0.527-0.527c-0.291,0-0.527,0.236-0.527,0.527v0.927h-1.236c-0.291,0-0.527,0.236-0.527,0.527
			c0,0.291,0.236,0.527,0.527,0.527h1.236v0.927c0,0.291,0.236,0.527,0.527,0.527c0.291,0,0.527-0.236,0.527-0.527v-0.927h0.763
			v0.927c0,0.164,0.077,0.309,0.194,0.406c-0.015,0.152,0.033,0.309,0.15,0.425l0.655,0.655l-0.54,0.54l-0.655-0.655
			c-0.206-0.206-0.54-0.206-0.746,0c-0.206,0.206-0.206,0.539,0,0.745l0.655,0.655l-0.874,0.874c-0.206,0.206-0.206,0.539,0,0.745
			c0.206,0.206,0.54,0.206,0.745,0l0.874-0.874l0.655,0.655c0.206,0.206,0.54,0.206,0.745,0c0.206-0.205,0.206-0.539,0-0.745
			l-0.655-0.655l0.54-0.54l0.655,0.655c0.116,0.116,0.273,0.164,0.424,0.15c0.097,0.118,0.242,0.194,0.406,0.194h0.927v0.763h-0.927
			c-0.291,0-0.527,0.236-0.527,0.527c0,0.291,0.236,0.527,0.527,0.527h0.927v1.236c0,0.291,0.236,0.527,0.527,0.527
			c0.291,0,0.527-0.236,0.527-0.527v-1.236h0.927c0.291,0,0.527-0.236,0.527-0.527c0-0.291-0.236-0.527-0.527-0.527h-0.927v-0.763
			h0.927c0.164,0,0.309-0.077,0.406-0.194c0.152,0.015,0.308-0.033,0.425-0.15l0.655-0.655l0.54,0.54l-0.655,0.655
			c-0.206,0.206-0.206,0.54,0,0.745c0.206,0.206,0.54,0.206,0.745,0l0.656-0.655l0.874,0.874c0.206,0.206,0.54,0.206,0.745,0
			c0.206-0.206,0.206-0.539,0-0.745l-0.874-0.874l0.655-0.655c0.206-0.206,0.206-0.54,0-0.745c-0.206-0.206-0.539-0.206-0.745,0
			l-0.655,0.655l-0.54-0.54l0.655-0.655c0.116-0.116,0.164-0.273,0.15-0.425c0.118-0.097,0.194-0.242,0.194-0.406v-0.927h0.763
			v0.927c0,0.291,0.236,0.527,0.527,0.527c0.291,0,0.527-0.236,0.527-0.527v-0.927h1.236c0.291,0,0.527-0.236,0.527-0.527
			C318.714-83.694,318.478-83.93,318.187-83.93z M314.044-84.942c0.012,0.012,0.027,0.022,0.04,0.033
			c-0.002,0.017-0.005,0.034-0.005,0.052v0.927h-0.43c0.032-0.166-0.017-0.344-0.145-0.472l-0.188-0.188v-0.266
			c0-0.181-0.092-0.342-0.232-0.436l0.304-0.304L314.044-84.942z M309.922-81.59h-0.224l-0.158-0.158l0.382-0.382V-81.59z
			 M310.976-85.216h0.224l0.158,0.158l-0.382,0.382V-85.216z M312.104-82.494l-0.382-0.382h0.54v0.224L312.104-82.494z
			 M308.636-82.652v-0.224h0.54l-0.382,0.382L308.636-82.652z M308.794-84.312l0.382,0.382h-0.54v-0.224L308.794-84.312z
			 M311.721-83.93l0.382-0.382l0.158,0.158v0.224H311.721z M309.922-85.216v0.541l-0.382-0.382l0.158-0.158H309.922z M310.976-81.59
			v-0.54l0.382,0.382L311.2-81.59H310.976z M311.903-87.033c0.018,0,0.035-0.004,0.052-0.005c0.011,0.013,0.021,0.028,0.033,0.04
			l0.656,0.656l-0.304,0.304c-0.095-0.139-0.255-0.231-0.436-0.231h-0.266l-0.188-0.188c-0.128-0.128-0.306-0.176-0.472-0.145v-0.43
			H311.903z M308.91-86.998c0.013-0.012,0.022-0.027,0.033-0.04c0.017,0.002,0.034,0.005,0.052,0.005h0.927v0.43
			c-0.166-0.031-0.344,0.017-0.472,0.145l-0.189,0.188h-0.266c-0.181,0-0.341,0.092-0.436,0.231l-0.304-0.304L308.91-86.998z
			 M307.509-85.597l0.304,0.304c-0.14,0.095-0.231,0.255-0.231,0.436v0.266l-0.188,0.188c-0.128,0.128-0.177,0.306-0.145,0.472
			h-0.43v-0.927c0-0.018-0.004-0.035-0.005-0.052c0.013-0.011,0.028-0.021,0.04-0.033L307.509-85.597z M306.854-81.864
			c-0.013-0.012-0.027-0.022-0.04-0.033c0.002-0.018,0.005-0.034,0.005-0.052v-0.927h0.43c-0.032,0.166,0.017,0.344,0.145,0.472
			l0.188,0.188v0.266c0,0.181,0.092,0.341,0.231,0.436l-0.304,0.304L306.854-81.864z M308.995-79.772
			c-0.018,0-0.035,0.004-0.052,0.005c-0.011-0.014-0.02-0.028-0.033-0.04l-0.655-0.656l0.304-0.304
			c0.095,0.14,0.255,0.232,0.436,0.232h0.266l0.189,0.188c0.128,0.129,0.306,0.177,0.472,0.145v0.43H308.995z M311.988-79.807
			c-0.013,0.012-0.022,0.027-0.033,0.04c-0.017-0.002-0.034-0.005-0.052-0.005h-0.927v-0.43c0.166,0.032,0.344-0.017,0.472-0.145
			l0.188-0.188h0.266c0.181,0,0.341-0.092,0.436-0.232l0.304,0.304L311.988-79.807z M313.389-81.208l-0.304-0.304
			c0.14-0.095,0.232-0.255,0.232-0.436v-0.266l0.188-0.188c0.128-0.128,0.177-0.306,0.145-0.472h0.43v0.927
			c0,0.018,0.004,0.034,0.005,0.052c-0.013,0.011-0.028,0.02-0.04,0.033L313.389-81.208z"/>
		<path fill="#FFFFFF" d="M331.263-82.59h-0.795v-0.596c0-0.187-0.152-0.339-0.339-0.339c-0.187,0-0.339,0.152-0.339,0.339v0.596
			H329.3v-0.596c0-0.106-0.049-0.199-0.125-0.261c0.01-0.097-0.021-0.198-0.096-0.273l-0.421-0.422l0.347-0.347l0.421,0.421
			c0.132,0.133,0.347,0.133,0.479,0c0.132-0.132,0.132-0.347,0-0.479l-0.421-0.421l0.562-0.562c0.132-0.133,0.132-0.347,0-0.48
			c-0.132-0.132-0.347-0.132-0.479,0l-0.562,0.562l-0.421-0.422c-0.132-0.132-0.347-0.132-0.479,0c-0.132,0.133-0.132,0.347,0,0.479
			l0.421,0.421l-0.347,0.347l-0.421-0.421c-0.075-0.075-0.175-0.106-0.273-0.096c-0.062-0.076-0.155-0.125-0.261-0.125h-0.596
			v-0.491h0.596c0.187,0,0.339-0.152,0.339-0.339c0-0.187-0.152-0.339-0.339-0.339h-0.596v-0.795c0-0.187-0.152-0.339-0.339-0.339
			c-0.187,0-0.339,0.152-0.339,0.339v0.795h-0.596c-0.187,0-0.339,0.152-0.339,0.339c0,0.187,0.152,0.339,0.339,0.339h0.596v0.491
			h-0.596c-0.106,0-0.199,0.049-0.261,0.125c-0.097-0.01-0.198,0.021-0.273,0.096l-0.421,0.421l-0.347-0.347l0.421-0.421
			c0.132-0.132,0.132-0.347,0-0.479c-0.132-0.132-0.347-0.132-0.479,0l-0.421,0.422l-0.562-0.562c-0.132-0.132-0.347-0.132-0.479,0
			c-0.132,0.133-0.132,0.347,0,0.48l0.562,0.562l-0.421,0.421c-0.132,0.133-0.132,0.347,0,0.479c0.132,0.133,0.347,0.133,0.479,0
			l0.421-0.421l0.347,0.347l-0.421,0.422c-0.075,0.075-0.106,0.175-0.096,0.273c-0.076,0.062-0.125,0.155-0.125,0.261v0.596h-0.491
			v-0.596c0-0.187-0.152-0.339-0.339-0.339c-0.187,0-0.339,0.152-0.339,0.339v0.596h-0.795c-0.187,0-0.339,0.152-0.339,0.339
			c0,0.187,0.152,0.339,0.339,0.339h0.795v0.596c0,0.187,0.152,0.339,0.339,0.339c0.187,0,0.339-0.152,0.339-0.339v-0.596h0.491
			v0.596c0,0.105,0.049,0.198,0.125,0.261c-0.01,0.098,0.021,0.198,0.096,0.273l0.421,0.422l-0.347,0.347l-0.421-0.422
			c-0.132-0.132-0.347-0.132-0.479,0c-0.132,0.133-0.132,0.347,0,0.479l0.421,0.421l-0.562,0.562c-0.132,0.132-0.132,0.347,0,0.479
			c0.132,0.132,0.347,0.132,0.479,0l0.562-0.562l0.421,0.421c0.132,0.132,0.347,0.132,0.479,0c0.132-0.132,0.132-0.347,0-0.48
			l-0.421-0.421l0.347-0.347l0.421,0.421c0.075,0.075,0.176,0.106,0.273,0.096c0.062,0.076,0.155,0.125,0.261,0.125h0.596v0.491
			h-0.596c-0.187,0-0.339,0.152-0.339,0.339c0,0.187,0.152,0.339,0.339,0.339h0.596v0.795c0,0.187,0.152,0.339,0.339,0.339
			c0.187,0,0.339-0.152,0.339-0.339v-0.795h0.596c0.187,0,0.339-0.151,0.339-0.339c0-0.187-0.152-0.339-0.339-0.339h-0.596v-0.491
			h0.596c0.106,0,0.199-0.049,0.261-0.125c0.098,0.01,0.198-0.021,0.273-0.096l0.421-0.421l0.347,0.347l-0.421,0.421
			c-0.132,0.133-0.132,0.347,0,0.48c0.132,0.132,0.347,0.132,0.479,0l0.421-0.421l0.562,0.562c0.132,0.132,0.347,0.132,0.479,0
			c0.132-0.133,0.132-0.347,0-0.479l-0.562-0.562l0.421-0.421c0.132-0.132,0.132-0.347,0-0.479c-0.132-0.132-0.347-0.132-0.479,0
			l-0.421,0.422l-0.347-0.347l0.421-0.422c0.075-0.075,0.106-0.175,0.096-0.273c0.076-0.062,0.125-0.155,0.125-0.261v-0.596h0.491
			v0.596c0,0.187,0.152,0.339,0.339,0.339c0.187,0,0.339-0.152,0.339-0.339v-0.596h0.795c0.187,0,0.339-0.151,0.339-0.339
			C331.602-82.438,331.45-82.59,331.263-82.59z M328.6-83.24c0.008,0.008,0.017,0.014,0.026,0.021
			c-0.001,0.011-0.003,0.022-0.003,0.034v0.596h-0.276c0.02-0.107-0.01-0.221-0.093-0.304l-0.121-0.121v-0.171
			c0-0.117-0.059-0.22-0.149-0.28l0.196-0.196L328.6-83.24z M325.95-81.085h-0.144l-0.102-0.102l0.246-0.245V-81.085z
			 M326.628-83.416h0.144l0.102,0.101l-0.246,0.246V-83.416z M327.353-81.666l-0.246-0.246h0.348v0.144L327.353-81.666z
			 M325.124-81.768v-0.144h0.347l-0.246,0.246L325.124-81.768z M325.225-82.835l0.246,0.246h-0.347v-0.144L325.225-82.835z
			 M327.107-82.59l0.246-0.246l0.102,0.102v0.144H327.107z M325.95-83.416v0.347l-0.246-0.246l0.102-0.101H325.95z M326.628-81.085
			v-0.347l0.246,0.245l-0.102,0.102H326.628z M327.224-84.585c0.011,0,0.022-0.002,0.033-0.003c0.007,0.009,0.013,0.018,0.021,0.026
			l0.421,0.421l-0.196,0.196c-0.061-0.09-0.164-0.149-0.28-0.149h-0.171l-0.121-0.121c-0.083-0.082-0.197-0.113-0.303-0.093v-0.276
			H327.224z M325.3-84.562c0.008-0.008,0.014-0.018,0.021-0.026c0.011,0.001,0.022,0.003,0.033,0.003h0.596v0.276
			c-0.107-0.02-0.221,0.011-0.304,0.093l-0.121,0.121h-0.171c-0.117,0-0.219,0.059-0.28,0.149l-0.195-0.196L325.3-84.562z
			 M324.399-83.661l0.196,0.196c-0.09,0.061-0.149,0.163-0.149,0.28v0.171l-0.121,0.121c-0.083,0.083-0.113,0.197-0.093,0.304
			h-0.276v-0.596c0-0.011-0.002-0.022-0.003-0.034c0.009-0.007,0.018-0.013,0.026-0.021L324.399-83.661z M323.978-81.261
			c-0.008-0.008-0.017-0.014-0.026-0.021c0.001-0.011,0.003-0.022,0.003-0.033v-0.596h0.276c-0.02,0.107,0.011,0.221,0.093,0.304
			l0.121,0.121v0.172c0,0.117,0.059,0.219,0.149,0.28l-0.196,0.195L323.978-81.261z M325.354-79.917
			c-0.011,0-0.022,0.002-0.033,0.004c-0.007-0.009-0.013-0.018-0.021-0.026l-0.421-0.421l0.195-0.195
			c0.061,0.09,0.164,0.149,0.28,0.149h0.171l0.121,0.121c0.083,0.082,0.197,0.113,0.304,0.093v0.276H325.354z M327.278-79.94
			c-0.008,0.008-0.014,0.017-0.021,0.026c-0.011-0.001-0.022-0.004-0.033-0.004h-0.596v-0.276c0.106,0.02,0.221-0.011,0.303-0.093
			l0.121-0.121h0.171c0.117,0,0.219-0.059,0.28-0.149l0.196,0.195L327.278-79.94z M328.179-80.84l-0.196-0.195
			c0.09-0.061,0.149-0.164,0.149-0.28v-0.172l0.121-0.121c0.083-0.082,0.114-0.197,0.093-0.304h0.276v0.596
			c0,0.011,0.002,0.022,0.003,0.033c-0.009,0.008-0.018,0.014-0.026,0.021L328.179-80.84z"/>
		<path fill="#FFFFFF" d="M321.422-74.451h-0.453v-0.34c0-0.107-0.086-0.193-0.193-0.193c-0.107,0-0.193,0.087-0.193,0.193v0.34
			h-0.28v-0.34c0-0.06-0.028-0.113-0.071-0.149c0.005-0.056-0.012-0.113-0.055-0.156l-0.24-0.24l0.198-0.198l0.24,0.24
			c0.076,0.076,0.198,0.076,0.274,0c0.075-0.075,0.075-0.198,0-0.273l-0.24-0.24l0.321-0.32c0.076-0.076,0.076-0.198,0-0.273
			c-0.076-0.076-0.198-0.076-0.274,0l-0.321,0.32l-0.24-0.241c-0.076-0.075-0.198-0.075-0.273,0c-0.076,0.076-0.076,0.198,0,0.274
			l0.24,0.24l-0.198,0.198l-0.24-0.24c-0.043-0.043-0.1-0.06-0.156-0.055c-0.035-0.043-0.089-0.072-0.149-0.072h-0.34v-0.28h0.34
			c0.107,0,0.193-0.086,0.193-0.193c0-0.107-0.087-0.193-0.193-0.193h-0.34v-0.453c0-0.107-0.087-0.194-0.193-0.194
			c-0.107,0-0.193,0.087-0.193,0.194v0.453h-0.34c-0.107,0-0.193,0.087-0.193,0.193c0,0.107,0.087,0.193,0.193,0.193h0.34v0.28
			h-0.34c-0.06,0-0.113,0.028-0.149,0.072c-0.056-0.006-0.113,0.012-0.156,0.055l-0.24,0.24l-0.198-0.198l0.24-0.24
			c0.076-0.076,0.076-0.198,0-0.274c-0.076-0.075-0.198-0.075-0.273,0l-0.24,0.241l-0.321-0.32c-0.076-0.076-0.198-0.076-0.273,0
			c-0.076,0.075-0.076,0.198,0,0.273l0.321,0.32l-0.24,0.24c-0.076,0.075-0.076,0.198,0,0.273c0.075,0.076,0.198,0.076,0.273,0
			l0.24-0.24l0.198,0.198l-0.24,0.24c-0.043,0.043-0.06,0.1-0.055,0.156c-0.043,0.035-0.072,0.089-0.072,0.149v0.34h-0.28v-0.34
			c0-0.107-0.087-0.193-0.193-0.193c-0.107,0-0.193,0.087-0.193,0.193v0.34h-0.453c-0.107,0-0.193,0.086-0.193,0.194
			c0,0.107,0.087,0.193,0.193,0.193h0.453v0.34c0,0.107,0.087,0.194,0.193,0.194c0.107,0,0.193-0.087,0.193-0.194v-0.34h0.28v0.34
			c0,0.06,0.028,0.113,0.072,0.149c-0.006,0.056,0.012,0.113,0.055,0.156l0.24,0.241l-0.198,0.198l-0.24-0.24
			c-0.076-0.075-0.198-0.075-0.273,0c-0.076,0.076-0.076,0.198,0,0.273l0.24,0.241l-0.321,0.321c-0.076,0.075-0.076,0.198,0,0.273
			c0.075,0.076,0.198,0.076,0.273,0l0.321-0.321l0.24,0.241c0.076,0.076,0.198,0.076,0.273,0c0.076-0.076,0.076-0.198,0-0.274
			l-0.24-0.24l0.198-0.198l0.24,0.241c0.043,0.043,0.1,0.06,0.156,0.055c0.035,0.043,0.089,0.072,0.149,0.072h0.34v0.28h-0.34
			c-0.107,0-0.193,0.086-0.193,0.193c0,0.107,0.087,0.193,0.193,0.193h0.34v0.453c0,0.107,0.087,0.193,0.193,0.193
			c0.107,0,0.193-0.086,0.193-0.193v-0.453h0.34c0.107,0,0.193-0.087,0.193-0.193c0-0.107-0.087-0.193-0.193-0.193h-0.34v-0.28h0.34
			c0.06,0,0.113-0.028,0.149-0.072c0.056,0.005,0.113-0.012,0.156-0.055l0.24-0.241l0.198,0.198l-0.24,0.24
			c-0.076,0.075-0.076,0.198,0,0.274c0.076,0.076,0.198,0.076,0.273,0l0.24-0.241l0.321,0.321c0.076,0.076,0.198,0.076,0.274,0
			c0.076-0.075,0.076-0.198,0-0.273l-0.321-0.321l0.24-0.241c0.075-0.075,0.075-0.198,0-0.273c-0.076-0.075-0.198-0.075-0.274,0
			l-0.24,0.24l-0.198-0.198l0.24-0.241c0.043-0.042,0.06-0.1,0.055-0.156c0.043-0.035,0.071-0.088,0.071-0.149v-0.34h0.28v0.34
			c0,0.107,0.087,0.194,0.193,0.194c0.107,0,0.193-0.087,0.193-0.194v-0.34h0.453c0.107,0,0.193-0.087,0.193-0.193
			C321.616-74.364,321.529-74.451,321.422-74.451z M319.903-74.822c0.005,0.005,0.01,0.008,0.015,0.012
			c-0.001,0.006-0.002,0.012-0.002,0.019v0.34h-0.158c0.012-0.061-0.006-0.126-0.053-0.173l-0.069-0.069v-0.098
			c0-0.066-0.034-0.125-0.085-0.16l0.111-0.112L319.903-74.822z M318.391-73.592h-0.082l-0.058-0.058l0.14-0.14V-73.592z
			 M318.777-74.922h0.082l0.058,0.058l-0.14,0.14V-74.922z M319.191-73.924l-0.14-0.14h0.198v0.082L319.191-73.924z M317.919-73.982
			v-0.082h0.198l-0.14,0.14L317.919-73.982z M317.977-74.591l0.14,0.14h-0.198v-0.082L317.977-74.591z M319.051-74.451l0.14-0.14
			l0.058,0.058v0.082H319.051z M318.391-74.922v0.198l-0.14-0.14l0.058-0.058H318.391z M318.777-73.592v-0.198l0.14,0.14
			l-0.058,0.058H318.777z M319.117-75.589c0.007,0,0.013-0.002,0.019-0.002c0.004,0.005,0.008,0.01,0.012,0.015l0.24,0.24
			l-0.112,0.111c-0.035-0.051-0.093-0.085-0.16-0.085h-0.098l-0.069-0.069c-0.047-0.047-0.113-0.065-0.173-0.053v-0.158H319.117z
			 M318.02-75.576c0.005-0.005,0.008-0.01,0.012-0.015c0.006,0,0.013,0.002,0.019,0.002h0.34v0.158
			c-0.061-0.011-0.126,0.006-0.173,0.053l-0.069,0.069h-0.098c-0.066,0-0.125,0.034-0.16,0.085l-0.112-0.111L318.02-75.576z
			 M317.506-75.062l0.112,0.112c-0.051,0.035-0.085,0.094-0.085,0.16v0.098l-0.069,0.069c-0.047,0.047-0.065,0.112-0.053,0.173
			h-0.158v-0.34c0-0.007-0.001-0.012-0.002-0.019c0.005-0.004,0.01-0.008,0.015-0.012L317.506-75.062z M317.265-73.692
			c-0.005-0.005-0.01-0.008-0.015-0.012c0.001-0.007,0.002-0.013,0.002-0.019v-0.34h0.158c-0.012,0.06,0.006,0.126,0.053,0.173
			l0.069,0.069v0.098c0,0.067,0.034,0.125,0.085,0.16l-0.112,0.112L317.265-73.692z M318.051-72.925
			c-0.006,0-0.013,0.001-0.019,0.002c-0.004-0.005-0.007-0.01-0.012-0.015l-0.24-0.24l0.112-0.112
			c0.035,0.051,0.093,0.085,0.16,0.085h0.098l0.069,0.069c0.047,0.047,0.112,0.065,0.173,0.053v0.158H318.051z M319.149-72.938
			c-0.005,0.005-0.008,0.01-0.012,0.015c-0.007-0.001-0.013-0.002-0.019-0.002h-0.34v-0.158c0.061,0.012,0.126-0.006,0.173-0.053
			l0.069-0.069h0.098c0.067,0,0.125-0.034,0.16-0.085l0.112,0.112L319.149-72.938z M319.662-73.452l-0.111-0.112
			c0.051-0.035,0.085-0.094,0.085-0.16v-0.098l0.069-0.069c0.047-0.047,0.065-0.113,0.053-0.173h0.158v0.34
			c0,0.006,0.001,0.013,0.002,0.019c-0.005,0.004-0.01,0.008-0.015,0.012L319.662-73.452z"/>
	</g>
</g>
</svg>
