<?xml version="1.0" encoding="utf-8"?>
<!-- Generator: Adobe Illustrator 17.0.0, SVG Export Plug-In . SVG Version: 6.00 Build 0)  -->
<!DOCTYPE svg PUBLIC "-//W3C//DTD SVG 1.1//EN" "http://www.w3.org/Graphics/SVG/1.1/DTD/svg11.dtd">
<svg version="1.1" xmlns="http://www.w3.org/2000/svg" xmlns:xlink="http://www.w3.org/1999/xlink" x="0px" y="0px" width="52.8px"
	 height="52.8px" viewBox="105.705 -119.489 52.8 52.8" enable-background="new 105.705 -119.489 52.8 52.8" xml:space="preserve">
<g id="fondo" display="none">
</g>
<g id="Capa_1" display="none">
	<g id="Sol" display="inline">
	</g>
</g>
<g id="Capa_4">
	<g>
		<circle fill="#77459D" cx="132.105" cy="-93.089" r="26.4"/>
		<g>
			<g>
				<path fill="#FEF37C" d="M132.448-108.991c-2.674,0.029-4.833,2.204-4.833,4.885c0,2.681,2.159,4.856,4.833,4.885V-108.991z"/>
				<path fill="#FEF37C" d="M132.448-116.167c-0.4,0.028-0.717,0.358-0.717,0.765v4.816c0,0.407,0.317,0.737,0.717,0.765V-116.167z"
					/>
				<path fill="#FEF37C" d="M120.397-104.068c0,0.425,0.345,0.77,0.77,0.77h4.817c0.425,0,0.77-0.345,0.77-0.77
					c0-0.426-0.345-0.771-0.77-0.771h-4.817C120.741-104.838,120.397-104.493,120.397-104.068z"/>
				<path fill="#FEF37C" d="M123.942-95.508c0.301,0.301,0.789,0.301,1.09,0l3.405-3.406c0.301-0.301,0.301-0.789,0-1.09
					c-0.301-0.301-0.789-0.301-1.09,0l-3.406,3.406C123.641-96.297,123.641-95.809,123.942-95.508z"/>
				<path fill="#FEF37C" d="M123.942-112.627c-0.301,0.301-0.301,0.789,0,1.09l3.406,3.406c0.301,0.301,0.789,0.301,1.09,0
					c0.301-0.301,0.301-0.789,0-1.089l-3.405-3.406C124.731-112.928,124.243-112.928,123.942-112.627z"/>
			</g>
			<g>
				<path fill="#FEE436" d="M132.423-108.991c2.674,0.029,4.833,2.204,4.833,4.885c0,2.681-2.159,4.856-4.833,4.885V-108.991z"/>
				<path fill="#FEE436" d="M132.423-116.167c0.4,0.028,0.717,0.358,0.717,0.765v4.816c0,0.407-0.317,0.737-0.717,0.765V-116.167z"
					/>
				<path fill="#FEE436" d="M144.475-104.068c0,0.425-0.345,0.77-0.77,0.77h-4.816c-0.426,0-0.77-0.345-0.77-0.77
					c0-0.426,0.345-0.771,0.77-0.771h4.816C144.13-104.838,144.475-104.493,144.475-104.068z"/>
				<path fill="#FEE436" d="M140.929-95.508c-0.301,0.301-0.789,0.301-1.089,0l-3.406-3.406c-0.301-0.301-0.301-0.789,0-1.09
					c0.301-0.301,0.789-0.301,1.09,0l3.405,3.406C141.23-96.297,141.23-95.809,140.929-95.508z"/>
				<path fill="#FEE436" d="M140.929-112.627c0.301,0.301,0.301,0.789,0,1.09l-3.405,3.406c-0.301,0.301-0.789,0.301-1.09,0
					c-0.301-0.301-0.301-0.789,0-1.089l3.406-3.406C140.141-112.928,140.628-112.928,140.929-112.627z"/>
			</g>
		</g>
		<g>
			<path fill="#FFFFFF" d="M143.742-97.801c-1.154-4.09-4.91-7.089-9.37-7.089c-4.486,0-8.26,3.034-9.39,7.16
				c-0.602-0.191-1.243-0.294-1.907-0.294c-3.482,0-6.304,2.822-6.304,6.304c0,3.482,2.823,6.304,6.304,6.304
				c1.995,0,17.75,0,19.006,0c3.481,0,6.304-2.823,6.304-6.304C148.385-94.627,146.418-97.072,143.742-97.801z"/>
			<path fill="#FFFFFF" d="M126.746-84.132c0.463,0.463,0.463,1.214,0,1.677l-5.244,5.244c-0.464,0.463-1.215,0.463-1.678,0
				c-0.463-0.463-0.463-1.214,0-1.677l5.244-5.244C125.531-84.596,126.282-84.596,126.746-84.132z"/>
			<path fill="#FFFFFF" d="M132.167-84.132c0.463,0.463,0.463,1.214,0,1.677l-5.244,5.244c-0.464,0.463-1.214,0.463-1.678,0
				c-0.463-0.463-0.463-1.214,0-1.677l5.244-5.244C130.953-84.596,131.703-84.596,132.167-84.132z"/>
			<path fill="#FFFFFF" d="M137.87-84.132c0.463,0.463,0.463,1.214,0,1.677l-5.244,5.244c-0.463,0.463-1.214,0.463-1.677,0
				c-0.463-0.463-0.463-1.214,0-1.677l5.244-5.244C136.656-84.596,137.407-84.596,137.87-84.132z"/>
			<path fill="#CFEDFA" d="M141.883-96.682c0,0-0.001,0-0.001,0c-0.923-3.178-3.853-5.501-7.328-5.501
				c-4.215,0-7.632,3.417-7.632,7.632c0,4.215,3.417,7.632,7.632,7.632c1.518,0,6.099,0,7.329,0c2.696,0,4.882-2.186,4.882-4.882
				C146.765-94.497,144.579-96.682,141.883-96.682z"/>
		</g>
	</g>
</g>
</svg>
