<?xml version="1.0" encoding="utf-8"?>
<!-- Generator: Adobe Illustrator 17.0.0, SVG Export Plug-In . SVG Version: 6.00 Build 0)  -->
<!DOCTYPE svg PUBLIC "-//W3C//DTD SVG 1.1//EN" "http://www.w3.org/Graphics/SVG/1.1/DTD/svg11.dtd">
<svg version="1.1" xmlns="http://www.w3.org/2000/svg" xmlns:xlink="http://www.w3.org/1999/xlink" x="0px" y="0px"
	 width="53.372px" height="53.372px" viewBox="236.395 -119.775 53.372 53.372"
	 enable-background="new 236.395 -119.775 53.372 53.372" xml:space="preserve">
<g id="fondo" display="none">
	<rect x="166.592" y="-90.47" display="inline" fill="#FFFFFF" width="180.667" height="122.28"/>
</g>
<g id="Capa_1" display="none">
	<g display="inline">
		<path fill="#00A99D" d="M308.972-65.655c-0.042-0.06-0.052-0.132-0.127-0.191c-0.642-0.519-1.897-0.738-3.154-0.812
			c-1.285-0.079-2.675-0.052-4.181-0.14c-2.128-0.258-4.535,0.277-6.669,0.561c2.559-0.131,5.146-0.399,7.645-0.388
			c1.243,0.01,2.467,0.088,3.589,0.306c1.091,0.218,2.155,0.616,2.583,1.138c-0.196,0.235-0.349,0.437-0.523,0.577
			c-0.212,0.151-0.388,0.222-0.61,0.198c-1.098-0.318-2.579-0.442-4.058-0.448c-0.014-0.226-0.042-0.669-0.056-0.892
			c-4.241,0.957-8.739-0.14-13.26,1.563c0.182,0.098,0.107,0.292,0.09,0.441l-0.033,0.005l0.033-0.005
			c-0.016,0.13,0.017,0.226,0.309,0.189c-0.292,0.037-0.325-0.059-0.309-0.189c4.56-0.797,8.82-1.255,13.055-1.112
			c-3.265,0.013-6.671,0.496-10.129,1.014c-1.736,0.262-3.499,0.54-5.33,0.78c-1.838,0.236-3.714,0.454-5.837,0.492
			c-0.358,0.008-1.098,0.01-1.501-0.013c-0.371-0.175-0.768-0.341-1.18-0.5c-0.49-0.173-0.907-0.321-1.274-0.451
			c-0.406-0.123-0.975-0.345-1.461-0.52c-0.546-0.237-1.294-0.563-1.668-0.859c0.507-0.337,0.63-1.269,1.034-1.777
			c0.198-0.261,0.426-0.42,0.768-0.41c0.187-0.004,0.401,0.032,0.658,0.119c0.257,0.083,0.532,0.154,0.886,0.313
			c0.049-0.219,0.146-0.659,0.195-0.878c-1.252-0.853-1.039-2.342-0.448-3.202c0.458-0.947,1.544-1.282,1.548-1.853
			c-0.098-0.279,0.217-0.269,0.738-0.294c0.611,0.01,1.22,0.02,1.862,0.03c1.447,0.011,3.131-0.034,4.723-0.441
			c2.334-0.493,4.729-1.057,7.271-0.94c3.495,0.229,7.292-0.51,11.11,0.32c0.689,0.102,1.646-0.007,2.591,0.01
			c0.468,0.006,0.921,0.031,1.328,0.133c0.395,0.092,0.702,0.221,0.892,0.444c0.546,0.455,0.427,0.922,0.214,1.42
			c-1.262-0.358-2.404-0.462-3.516-0.528c-1.117-0.072-2.182-0.06-3.242-0.062c-2.589-0.104-5.128-0.091-7.656-0.218
			c2.497,0.302,5.028,0.246,7.656,0.218c1.06,0.055,2.119,0.112,3.213,0.256c1.086,0.135,2.197,0.325,3.364,0.734
			c-0.198,0.425-0.375,0.876-0.352,1.337c0,0,0.16,0.038,0.36,0.085c0.199,0.069,0.438,0.151,0.597,0.206
			c0.432,0.797,0.193,1.475-0.163,2.033c-0.366,0.565-0.846,1.095-1.13,1.572C309.317-66.099,309.112-65.875,308.972-65.655z"/>
		<g>
			<g>
				<path d="M239.664-71.055c-0.176,0.192-0.392,0.344-0.647,0.456c-0.256,0.112-0.517,0.201-0.78,0.264
					c-0.264,0.064-0.504,0.12-0.72,0.168c-0.216,0.048-0.372,0.104-0.468,0.168c-0.017,0.144-0.041,0.388-0.072,0.732
					c-0.032,0.344-0.088,0.7-0.168,1.068c-0.017,0.032-0.024,0.056-0.024,0.072c0,0.016-0.004,0.028-0.012,0.036
					c-0.008,0.008-0.012,0.028-0.012,0.06c-0.017,0.032-0.032,0.072-0.048,0.12c-0.017,0.048-0.033,0.096-0.049,0.144l-0.071,0.144
					c-0.225,0.417-0.461,0.752-0.708,1.008c-0.249,0.256-0.492,0.456-0.732,0.6c-0.24,0.144-0.46,0.244-0.66,0.3
					s-0.356,0.092-0.468,0.108c-0.032,0-0.112,0.012-0.24,0.036s-0.275,0.02-0.443-0.012c-0.168-0.032-0.353-0.104-0.553-0.216
					c-0.199-0.112-0.38-0.304-0.54-0.576c-0.096-0.16-0.132-0.468-0.107-0.924c0.023-0.456,0.116-0.964,0.275-1.524
					c0.081-0.288,0.2-0.616,0.36-0.984c0.304-0.72,0.692-1.344,1.164-1.872c0.472-0.528,1.044-0.88,1.716-1.056
					c0.096-0.016,0.2-0.016,0.313,0c0.079,0.016,0.172,0.044,0.275,0.084c0.104,0.04,0.196,0.1,0.276,0.18l0.048,0.048
					c0.111,0.16,0.128,0.384,0.048,0.672c-0.08,0.272-0.176,0.396-0.288,0.372s-0.184-0.068-0.216-0.132
					c0-0.096-0.012-0.18-0.036-0.252c-0.023-0.072-0.052-0.108-0.084-0.108c-0.048,0.016-0.231,0.188-0.552,0.516
					c-0.32,0.328-0.64,0.789-0.96,1.38c-0.177,0.32-0.332,0.628-0.468,0.924c-0.137,0.296-0.269,0.676-0.396,1.14
					c-0.032,0.112-0.052,0.196-0.06,0.252c-0.009,0.056-0.021,0.108-0.036,0.156c-0.017,0.048-0.028,0.104-0.036,0.168
					c-0.008,0.064-0.012,0.16-0.012,0.288c-0.017,0.08-0.017,0.16,0,0.24c0,0.176,0.048,0.32,0.144,0.432
					c0.08,0.112,0.2,0.168,0.36,0.168h0.048h0.072c0.527-0.128,0.932-0.352,1.212-0.672c0.279-0.32,0.487-0.656,0.624-1.008
					c0.136-0.352,0.22-0.684,0.252-0.996c0.031-0.312,0.056-0.516,0.072-0.612c-0.433,0.033-0.708-0.008-0.828-0.12
					s-0.16-0.248-0.12-0.408c0.04-0.16,0.132-0.324,0.275-0.492c0.145-0.168,0.272-0.3,0.385-0.396
					c0.096-0.08,0.199-0.127,0.312-0.144s0.216-0.016,0.313,0c0.111,0.032,0.216,0.072,0.312,0.12
					c0.048,0.081,0.132,0.125,0.252,0.132c0.12,0.008,0.244,0,0.372-0.024c0.128-0.024,0.248-0.056,0.36-0.096
					c0.111-0.04,0.176-0.068,0.191-0.084c0.225-0.128,0.46-0.244,0.708-0.348c0.248-0.104,0.484-0.22,0.708-0.348
					c0.225-0.08,0.336,0.008,0.336,0.264c0,0.096-0.032,0.192-0.096,0.288C239.704-71.103,239.679-71.071,239.664-71.055z
					 M233.136-68.727c0.032-0.032,0.04-0.063,0.023-0.096c-0.031-0.032-0.048-0.032-0.048,0h-0.023v-0.024
					c-0.049,0-0.072,0.032-0.072,0.096c-0.032,0.032-0.024,0.064,0.023,0.096C233.104-68.655,233.136-68.679,233.136-68.727z
					 M233.184-68.943c0.016-0.016,0.023-0.032,0.023-0.048c0-0.032-0.016-0.056-0.048-0.072h-0.023h-0.024v0.024v0.024
					c-0.016,0-0.023,0.008-0.023,0.024v0.024v0.024l0.023,0.024h0.048L233.184-68.943z M233.257-69.135
					c0.016,0,0.023-0.008,0.023-0.024c0-0.032-0.016-0.048-0.048-0.048h-0.024c-0.016-0.016-0.023-0.016-0.023,0h-0.024v0.024v0.024
					v0.024l0.024,0.024h0.048h0.024V-69.135z M233.448-69.543c-0.048-0.096-0.104-0.08-0.168,0.048
					c-0.016,0.064-0.008,0.096,0.024,0.096c0.016,0,0.023,0.004,0.023,0.012c0,0.008,0.008,0.012,0.024,0.012
					c0.032,0,0.052-0.012,0.06-0.036c0.008-0.024,0.021-0.051,0.036-0.084v-0.024V-69.543z M233.328-70.167h0.048
					c0.049,0,0.097-0.036,0.145-0.108s0.088-0.156,0.12-0.252c0-0.016,0.004-0.028,0.012-0.036c0.008-0.008,0.012-0.02,0.012-0.036
					c0.016-0.016,0.024-0.027,0.024-0.036c0-0.008,0.008-0.02,0.024-0.036c0.031-0.048,0.056-0.092,0.071-0.132
					s0.04-0.084,0.072-0.132l0.072-0.072c0.063-0.064,0.096-0.112,0.096-0.144l0.072-0.072c0.176-0.208,0.256-0.32,0.239-0.336
					v-0.024c-0.016-0.016-0.032-0.024-0.048-0.024c-0.048,0-0.124,0.072-0.228,0.216c-0.104,0.144-0.172,0.232-0.204,0.264
					l-0.144,0.216c-0.033,0.033-0.053,0.068-0.061,0.108s-0.028,0.076-0.06,0.108c-0.064,0.016-0.129,0.104-0.192,0.264
					c-0.032,0.064-0.057,0.136-0.072,0.216V-70.167z M234.505-71.415c-0.081,0.064-0.137,0.12-0.169,0.168
					c-0.048,0.032-0.1,0.081-0.155,0.144c-0.057,0.064-0.101,0.136-0.132,0.216c-0.032,0.032-0.057,0.072-0.072,0.12
					c-0.017,0.048-0.04,0.096-0.072,0.144c-0.032,0.048-0.06,0.104-0.084,0.168c-0.023,0.064-0.052,0.096-0.084,0.096l-0.023,0.024
					h-0.024v0.048v0.024c-0.017,0.016-0.032,0.048-0.048,0.096c-0.017,0.048-0.04,0.096-0.072,0.144
					c-0.096,0.176-0.152,0.284-0.168,0.324s-0.024,0.068-0.024,0.084h0.024c0.063,0,0.096-0.024,0.096-0.072
					c0.048-0.016,0.072-0.056,0.072-0.12c0.016-0.016,0.024-0.032,0.024-0.048c0.016,0,0.023-0.008,0.023-0.024l0.024-0.024v-0.048
					c0-0.016,0.008-0.024,0.023-0.024c0-0.032,0.016-0.063,0.049-0.096c0.016,0,0.023-0.008,0.023-0.024v-0.024l0.024-0.048
					c0-0.016,0.008-0.024,0.023-0.024h0.024l0.023-0.024v-0.024h0.024v-0.024v-0.024v-0.024c0-0.016,0.008-0.032,0.024-0.048
					l0.048-0.048c0.031-0.032,0.06-0.072,0.084-0.12c0.023-0.048,0.052-0.088,0.084-0.12c0.031-0.032,0.052-0.06,0.06-0.084
					s0.028-0.052,0.061-0.084c0.031-0.032,0.096-0.12,0.191-0.264l0.072-0.144c0.096-0.128,0.184-0.232,0.264-0.312l0.168-0.168
					l0.024-0.024c0.063-0.048,0.088-0.08,0.072-0.096c0-0.016-0.009-0.024-0.024-0.024c-0.032,0-0.064,0.008-0.096,0.024
					c-0.064,0.032-0.124,0.084-0.181,0.156c-0.056,0.072-0.1,0.124-0.132,0.156S234.52-71.447,234.505-71.415z M234.072-69.831
					c0.016-0.016,0.024-0.056,0.024-0.12v-0.024c0-0.032-0.017-0.048-0.048-0.048l-0.024,0.024
					c-0.017,0.016-0.024,0.028-0.024,0.036c0,0.008-0.008,0.02-0.023,0.036v0.024v0.024v0.024v0.072H234
					C234.032-69.783,234.056-69.799,234.072-69.831z M234.264-70.239c0-0.048-0.017-0.08-0.048-0.096h-0.024l-0.024,0.024v0.024
					c-0.016,0-0.023,0.008-0.023,0.024v0.024v0.024l0.048,0.048c0.016,0,0.04-0.016,0.072-0.048V-70.239z M234.48-70.599
					c0-0.032-0.008-0.056-0.024-0.072l-0.023-0.024c-0.017,0-0.057,0.048-0.12,0.144l-0.024,0.024
					c-0.032,0.032-0.048,0.072-0.048,0.12c0,0.048,0.016,0.072,0.048,0.072c0.016,0,0.057-0.032,0.12-0.096l0.072-0.144V-70.599z
					 M234.432-71.775c-0.032,0-0.057,0.024-0.072,0.072l0.024,0.024l0.048,0.048c0.016,0,0.023-0.004,0.023-0.012
					c0-0.008,0.008-0.012,0.024-0.012v-0.024l0.024-0.024c0.016,0,0.023-0.008,0.023-0.024v-0.024
					c-0.032-0.032-0.056-0.048-0.072-0.048L234.432-71.775z M235.944-67.167c0.048-0.063,0.072-0.112,0.072-0.144
					c0-0.016-0.017-0.024-0.048-0.024l-0.048,0.024c-0.033,0.032-0.057,0.064-0.072,0.096l-0.024,0.024
					c-0.063,0.096-0.136,0.184-0.216,0.264c-0.016,0.032-0.032,0.052-0.048,0.06c-0.017,0.008-0.04,0.028-0.072,0.06
					c-0.016,0.017-0.032,0.028-0.048,0.036c-0.017,0.008-0.032,0.021-0.048,0.036c-0.017,0.016-0.057,0.04-0.12,0.072
					c-0.048,0.032-0.096,0.068-0.144,0.108c-0.049,0.04-0.089,0.076-0.12,0.108c-0.049,0.016-0.12,0.056-0.217,0.12
					c-0.016,0.016-0.032,0.028-0.048,0.036c-0.016,0.008-0.032,0.021-0.048,0.036c-0.016,0.016-0.032,0.024-0.048,0.024
					c-0.017,0-0.04,0.008-0.072,0.024c-0.016,0.016-0.028,0.024-0.036,0.024s-0.02,0.008-0.035,0.024
					c-0.081,0.016-0.12,0.04-0.12,0.072v0.024h0.048h0.072c0.048-0.016,0.092-0.032,0.132-0.048c0.039-0.016,0.084-0.04,0.132-0.072
					l0.023-0.024c0.064,0,0.136-0.032,0.217-0.096l0.048-0.024c0.016,0,0.023-0.008,0.023-0.024h0.024
					c0.176-0.096,0.271-0.16,0.288-0.192c0.08-0.08,0.168-0.172,0.264-0.276s0.184-0.22,0.265-0.348H235.944z M234.696-70.911
					l0.048-0.096c0-0.016-0.008-0.032-0.023-0.048h-0.024c-0.016,0-0.04,0.016-0.072,0.048l-0.023,0.024l-0.024,0.024l-0.023,0.048
					v0.048l0.023,0.024l0.048-0.024c0.017,0,0.032-0.008,0.049-0.024L234.696-70.911z M234.576-71.871l0.048,0.048h0.024
					l0.024-0.024h0.023v-0.024v-0.024v-0.024h-0.023v-0.024h-0.049H234.6l-0.024,0.024V-71.871z M234.888-71.199
					c0.016,0,0.023-0.016,0.023-0.048c0-0.032-0.016-0.048-0.048-0.048c-0.016-0.016-0.023-0.016-0.023,0
					c-0.017,0-0.024,0.008-0.024,0.024c-0.016,0-0.024,0.008-0.024,0.024l-0.023,0.024v0.024c0.032,0.032,0.056,0.048,0.072,0.048
					l0.023-0.024C234.88-71.175,234.888-71.183,234.888-71.199z M234.96-66.063c0-0.032-0.008-0.056-0.023-0.072h-0.024h-0.023
					v0.024h-0.024v0.024v0.024c0.016,0,0.024,0.004,0.024,0.012c0,0.008,0.008,0.012,0.023,0.012h0.024
					C234.952-66.039,234.96-66.047,234.96-66.063z M235.104-71.487c-0.048-0.048-0.088-0.048-0.12,0l-0.024,0.024v0.048l0.049,0.048
					h0.023h0.024v-0.024v-0.024h0.023v-0.024h0.024v-0.024V-71.487z M235.104-66.135v-0.072h-0.024c0-0.016-0.004-0.024-0.012-0.024
					s-0.012,0.008-0.012,0.024h-0.024l-0.023,0.024v0.024c0,0.032,0.023,0.048,0.071,0.048h0.024V-66.135z M235.968-66.831
					c0.031-0.032,0.039-0.063,0.023-0.096l-0.048-0.024c-0.016,0-0.032,0.004-0.048,0.012c-0.017,0.008-0.032,0.012-0.048,0.012
					c-0.032,0.032-0.057,0.06-0.072,0.084s-0.04,0.052-0.072,0.084c-0.048,0.112-0.111,0.184-0.191,0.216
					c-0.064,0.032-0.129,0.076-0.192,0.132c-0.064,0.057-0.12,0.108-0.168,0.156c-0.016,0-0.023,0.008-0.023,0.024
					c0,0.016,0.016,0.024,0.048,0.024c0.031,0,0.092-0.032,0.18-0.096s0.14-0.104,0.156-0.12c0.031-0.032,0.056-0.056,0.071-0.072
					c0.017-0.016,0.04-0.032,0.072-0.048l0.096-0.096c0.064-0.016,0.12-0.064,0.169-0.144L235.968-66.831z M235.872-70.311
					c0-0.016-0.008-0.024-0.023-0.024h-0.024c-0.016,0-0.016-0.008,0-0.024h-0.023h-0.049v0.048l0.024,0.048h0.024h0.023h0.024
					h0.023v-0.024V-70.311z M235.944-70.455v-0.024c-0.032-0.016-0.057-0.024-0.072-0.024c0-0.016-0.004-0.024-0.012-0.024
					s-0.012,0.008-0.012,0.024c-0.017,0-0.024,0.008-0.024,0.024v0.024h0.024h-0.024l-0.023,0.024l-0.024-0.024v0.024v0.024
					l0.024,0.048c0.016,0,0.027,0.004,0.035,0.012c0.009,0.008,0.021,0.012,0.036,0.012h0.024v-0.024
					c0.016,0,0.032-0.008,0.048-0.024v-0.024h-0.023c0-0.016,0.008-0.024,0.023-0.024V-70.455z M236.16-70.599
					c0-0.063-0.016-0.111-0.048-0.144h-0.023h-0.024v0.024h-0.024v0.024c-0.016,0.016-0.023,0.032-0.023,0.048h-0.024h-0.023v0.048
					v0.024l-0.024-0.024l-0.023,0.024v0.024c0.016,0,0.016,0.008,0,0.024l0.048,0.048h0.023v-0.024h0.024l0.023-0.024
					c0.017,0,0.024-0.008,0.024-0.024l0.024-0.024v-0.024h0.023l0.024,0.024L236.16-70.599z M236.448-70.743
					c0-0.048-0.016-0.08-0.048-0.096c0.016-0.016,0.02-0.024,0.012-0.024s-0.02,0.008-0.036,0.024c-0.016,0-0.032,0.008-0.048,0.024
					h-0.023h-0.024h-0.023v0.024h-0.024v0.024c0-0.016-0.008-0.024-0.024-0.024l-0.023,0.024v0.024v0.024
					c0.016,0.016,0.016,0.032,0,0.048h0.023h0.024l0.048-0.024h0.024c0.016,0.016,0.023,0.016,0.023,0h0.024v-0.024h0.023h0.024
					C236.416-70.719,236.432-70.727,236.448-70.743z M237.192-70.383c0.032,0,0.032-0.016,0-0.048l-0.024-0.024h-0.023l-0.024,0.024
					c-0.016-0.016-0.027-0.02-0.036-0.012c-0.008,0.008-0.004,0.02,0.013,0.036c-0.032,0.032-0.032,0.056,0,0.072
					c0.031,0,0.056-0.008,0.071-0.024C237.184-70.359,237.192-70.367,237.192-70.383z M237.528-70.479
					c0-0.016,0.008-0.028,0.024-0.036c0.016-0.008,0.008-0.028-0.024-0.06h-0.048h-0.024l-0.288-0.024
					c-0.032,0.033-0.048,0.057-0.048,0.072c0,0.032,0.016,0.048,0.048,0.048H237.528z M237.768-70.623
					c0-0.048-0.017-0.056-0.048-0.024h-0.024l-0.023,0.024c-0.017,0-0.024,0.016-0.024,0.048c0,0.016,0.016,0.024,0.048,0.024
					c0.048,0,0.072-0.016,0.072-0.048V-70.623z M238.104-70.695c0.048,0,0.056-0.016,0.024-0.048c0-0.032-0.024-0.04-0.072-0.024
					l-0.024,0.024c-0.016,0-0.023,0.004-0.023,0.012c0,0.008,0.008,0.012,0.023,0.012v0.024l0.024,0.024h0.023
					C238.08-70.687,238.088-70.695,238.104-70.695z M238.416-70.839v-0.024c0-0.016-0.016-0.024-0.048-0.024v0.024h-0.048
					c-0.032,0-0.048,0.008-0.048,0.024c-0.017,0.016-0.024,0.032-0.024,0.048l0.049,0.024c0.016,0,0.023-0.003,0.023-0.012
					c0-0.008,0.008-0.012,0.024-0.012h0.023C238.4-70.807,238.416-70.823,238.416-70.839z M238.776-71.007l-0.024-0.024h-0.023
					l-0.024,0.024c-0.016,0.016-0.032,0.024-0.048,0.024s-0.04,0.008-0.072,0.024l-0.023,0.024h-0.048
					c0,0.032,0.016,0.048,0.048,0.048s0.072-0.008,0.12-0.024c0.048-0.016,0.08-0.04,0.096-0.072V-71.007z M239.16-71.127
					c0.016-0.016,0.024-0.04,0.024-0.072l-0.048-0.024c-0.017,0-0.04,0.016-0.072,0.048v0.024c0,0.016,0.008,0.024,0.024,0.024
					c0,0.016,0.008,0.024,0.023,0.024l0.024-0.024H239.16z M239.425-71.271c0.016,0,0.023-0.016,0.023-0.048l-0.023-0.024
					l-0.024-0.024c-0.016,0.016-0.032,0.024-0.048,0.024c-0.048,0.048-0.072,0.064-0.072,0.048v0.024
					c0,0.032,0.008,0.048,0.024,0.048c0.016,0,0.023-0.008,0.023-0.024h0.024l0.048-0.024H239.425z M239.544-71.463
					c0,0.016-0.008,0.032-0.023,0.048l0.023,0.024c0.032,0.016,0.076,0,0.133-0.048c0.056-0.048,0.084-0.08,0.084-0.096v-0.024
					c0.016-0.016,0.016-0.024,0-0.024c-0.032,0-0.061,0.008-0.084,0.024c-0.024,0.016-0.053,0.032-0.084,0.048L239.544-71.463z"/>
				<path d="M240.217-68.367c-0.097-0.016-0.16-0.048-0.192-0.096c-0.096-0.064-0.024-0.152,0.216-0.264
					c-0.016,0-0.04-0.008-0.072-0.024l-0.144-0.072c-0.032-0.016-0.021-0.044,0.036-0.084c0.056-0.04,0.124-0.076,0.204-0.108
					c0.079-0.048,0.184-0.088,0.312-0.12c0.368-0.192,0.632-0.404,0.792-0.636c0.16-0.231,0.272-0.444,0.336-0.636
					c0.064-0.224,0.088-0.448,0.072-0.672c-0.032-0.111-0.088-0.176-0.168-0.192c-0.08-0.016-0.136-0.016-0.168,0
					c-0.177,0.096-0.452,0.328-0.828,0.696s-0.828,1-1.356,1.896c-0.096,0.288-0.195,0.584-0.3,0.888
					c-0.104,0.304-0.195,0.588-0.275,0.852s-0.141,0.504-0.181,0.72c-0.039,0.216-0.044,0.38-0.012,0.492
					c0,0.096,0.009,0.184,0.024,0.264s0.023,0.156,0.023,0.228c0,0.072,0.017,0.124,0.048,0.156c0,0.016-0.008,0.032-0.023,0.048
					c-0.048,0.048-0.08,0.072-0.097,0.072c-0.063,0.016-0.14,0.016-0.228,0c-0.088-0.016-0.147-0.072-0.18-0.168h-0.024
					c-0.063,0.016-0.104,0-0.12-0.048c-0.016-0.048-0.031-0.088-0.048-0.12c0-0.016-0.008-0.008-0.023,0.024
					c-0.017,0.032-0.04,0.056-0.072,0.072c-0.016,0.016-0.04,0.008-0.072-0.024c-0.016-0.017-0.024-0.033-0.024-0.048
					c-0.079-0.144-0.132-0.296-0.155-0.456c-0.024-0.16-0.044-0.328-0.061-0.504c0-0.224,0.013-0.436,0.036-0.636
					c0.024-0.2,0.053-0.356,0.084-0.468c0.017-0.032,0.024-0.072,0.024-0.12c0.176-0.672,0.364-1.332,0.563-1.98
					c0.2-0.648,0.412-1.3,0.637-1.956c0-0.016,0.004-0.027,0.012-0.036c0.008-0.008,0.012-0.028,0.012-0.06
					c0.064-0.16,0.124-0.336,0.18-0.528c0.057-0.192,0.116-0.352,0.181-0.48c0.031-0.032,0.048-0.063,0.048-0.096
					c0.016-0.016,0.023-0.028,0.023-0.036c0-0.008,0.009-0.02,0.024-0.036v-0.048c0.016-0.032,0.02-0.072,0.012-0.12
					c-0.008-0.048,0.021-0.072,0.084-0.072v-0.024c0.064-0.016,0.136-0.044,0.217-0.084c0.079-0.04,0.191-0.036,0.336,0.012
					c0.144,0.048,0.239,0.084,0.288,0.108c0.048,0.024,0.096,0.068,0.144,0.132s0.092,0.12,0.132,0.168s0.076,0.112,0.108,0.192
					c0,0.032,0.004,0.056,0.012,0.072s0.012,0.032,0.012,0.048c0.016,0.032,0.028,0.064,0.036,0.096
					c0.008,0.032,0.012,0.081,0.012,0.144c-0.016,0.081-0.032,0.132-0.048,0.156s-0.048,0.068-0.096,0.132
					c-0.064,0.064-0.104,0.128-0.12,0.192c-0.016,0.064-0.072,0.168-0.168,0.312c-0.032,0.081-0.084,0.176-0.156,0.288
					c-0.071,0.112-0.132,0.224-0.18,0.336c-0.032,0.064-0.048,0.104-0.048,0.12c0.176-0.256,0.368-0.508,0.576-0.756
					c0.207-0.248,0.424-0.444,0.647-0.588c0.192-0.128,0.352-0.22,0.48-0.276c0.128-0.056,0.231-0.092,0.312-0.108
					c0.016-0.016,0.048-0.024,0.097-0.024h0.191c0.096,0,0.24,0.04,0.433,0.12c0.096,0,0.176,0.008,0.239,0.024
					c0.097,0.016,0.168,0.064,0.216,0.144c0.049,0.08,0.085,0.168,0.108,0.264c0.024,0.096,0.04,0.196,0.048,0.3
					s0.013,0.18,0.013,0.228c0.031,0.32-0.009,0.624-0.12,0.912c-0.097,0.256-0.265,0.524-0.504,0.804
					c-0.24,0.28-0.601,0.524-1.08,0.732c-0.177,0.081-0.372,0.152-0.588,0.216C240.708-68.447,240.471-68.399,240.217-68.367z
					 M237.841-65.727v0.024v0.024v0.024c0.016,0,0.023,0.008,0.023,0.024h0.024h0.023l0.024-0.024l0.023-0.024v-0.024v-0.048
					c0.032,0,0.057-0.008,0.072-0.024v-0.024v-0.024v-0.024v-0.024l-0.048-0.024h-0.048c0.016-0.016,0.023-0.028,0.023-0.036
					c0-0.008,0.009-0.02,0.024-0.036v-0.024c0.016-0.016,0.024-0.032,0.024-0.048c-0.017,0-0.024-0.008-0.024-0.024v-0.096v-0.096
					h0.024v-0.024v-0.024v-0.024h-0.024c0-0.064,0.008-0.096,0.024-0.096v-0.048v-0.048v-0.096c0-0.032,0.004-0.06,0.012-0.084
					s0.012-0.044,0.012-0.06c0.032-0.016,0.057-0.068,0.072-0.156c0.016-0.087,0.016-0.147,0-0.18l-0.024-0.024
					c-0.031-0.032-0.056-0.048-0.071-0.048h-0.024v0.048h-0.024c-0.016,0.032-0.031,0.08-0.048,0.144
					c-0.016,0.064-0.016,0.112,0,0.144v0.096c0,0.096-0.008,0.16-0.023,0.192v0.024c-0.016,0.081-0.024,0.2-0.024,0.36v0.024v0.096
					c-0.016,0.048-0.016,0.088,0,0.12v0.072v0.024v0.024l0.024,0.024c-0.016,0-0.032,0.008-0.048,0.024V-65.727z M238.056-65.583
					l-0.024-0.048h-0.023c-0.032,0-0.057,0.008-0.072,0.024v0.024v0.024h-0.072c-0.016,0.016-0.023,0.032-0.023,0.048v0.024v0.024
					h0.023h0.024c0.048,0,0.071-0.008,0.071-0.024v-0.024h0.024v-0.024h0.024h0.048V-65.583z M238.009-67.263
					c0,0.016,0.008,0.024,0.023,0.024l0.048,0.024v-0.024h0.024l0.023-0.024v-0.024v-0.024v-0.024l-0.023-0.024
					c-0.032-0.016-0.056-0.016-0.072,0l-0.023,0.024V-67.263z M238.08-67.623c-0.063,0.064-0.071,0.112-0.023,0.144v0.024h0.023
					h0.024h0.023c0.032,0,0.049-0.024,0.049-0.072c0.016-0.016,0.023-0.04,0.023-0.072v-0.024l-0.023-0.024
					C238.144-67.663,238.112-67.655,238.08-67.623z M238.272-66.495c0.016-0.032,0.023-0.076,0.023-0.132
					c0-0.056-0.008-0.092-0.023-0.108c0-0.016-0.008-0.024-0.024-0.024c-0.031,0-0.056,0.024-0.071,0.072
					c-0.017,0.048-0.024,0.12-0.024,0.216v0.048v0.072v0.024c-0.016,0.064-0.024,0.124-0.024,0.18c0,0.056-0.008,0.116-0.023,0.18
					v0.048c0,0.16,0.008,0.272,0.023,0.336v0.072v0.024c0,0.032,0.005,0.068,0.013,0.108c0.008,0.04,0.02,0.068,0.036,0.084
					c0,0.016,0.008,0.024,0.023,0.024h0.024c0.016-0.016,0.023-0.04,0.023-0.072v-0.096c0-0.144-0.008-0.231-0.023-0.264
					c0-0.032,0.008-0.056,0.023-0.072c0-0.032,0.005-0.056,0.013-0.072s0.004-0.04-0.013-0.072v-0.168
					C238.217-66.247,238.224-66.383,238.272-66.495z M239.88-69.975v-0.024h-0.023l-0.024-0.024l-0.023,0.024l-0.024,0.024v0.048
					l0.024,0.024h0.023h0.024l0.023-0.048V-69.975z M240.024-70.143v-0.072c0-0.016-0.017-0.024-0.048-0.024h-0.024h-0.023v0.024
					l-0.024,0.024v0.024v0.024c0.016,0.016,0.032,0.024,0.048,0.024C239.984-70.119,240.008-70.127,240.024-70.143z M240.12-70.359
					c0.016,0,0.016-0.008,0-0.024c-0.016,0-0.023-0.004-0.023-0.012c0-0.008-0.009-0.012-0.024-0.012l-0.024,0.024v0.024v0.024
					c-0.016,0-0.016,0.008,0,0.024h0.024c0.032,0,0.048-0.008,0.048-0.024V-70.359z M240.288-70.551c0.016-0.016,0.016-0.04,0-0.072
					h-0.048l-0.023,0.024c-0.017,0.016-0.017,0.033,0,0.048l0.023,0.024h0.024L240.288-70.551z M240.432-70.743
					c0.016-0.016,0.016-0.032,0-0.048h-0.024c-0.032,0-0.064,0.016-0.096,0.048c0,0.032,0.008,0.048,0.023,0.048
					c0,0.016,0.008,0.024,0.024,0.024l0.048-0.024c0-0.016,0.008-0.024,0.024-0.024V-70.743z M240.504-70.839
					c0.032,0,0.064-0.02,0.097-0.06c0.031-0.04,0.048-0.076,0.048-0.108c0-0.032-0.017-0.048-0.048-0.048l-0.048,0.024l-0.049,0.048
					c-0.016,0.016-0.023,0.04-0.023,0.072c-0.017,0-0.024,0.008-0.024,0.024s0.008,0.032,0.024,0.048H240.504z M240.888-71.223
					c-0.032-0.032-0.057-0.04-0.072-0.024l-0.024,0.024v0.048l0.024,0.024h0.024c0.016,0,0.023-0.008,0.023-0.024l0.024-0.024
					V-71.223z M241.056-71.319c0.016-0.016,0.016-0.04,0-0.072h-0.024c-0.032,0-0.064,0.016-0.096,0.048v0.048l0.048,0.024h0.024
					v-0.024h0.023L241.056-71.319z M241.32-71.535c-0.048-0.048-0.072-0.04-0.072,0.024l-0.048,0.048h-0.048
					c-0.017,0-0.024,0.016-0.024,0.048l0.024,0.024c0.016,0,0.044-0.008,0.084-0.024c0.04-0.016,0.068-0.04,0.084-0.072v-0.024
					V-71.535z M241.752-69.279c-0.063,0.032-0.096,0.072-0.096,0.12c0.032,0.032,0.056,0.048,0.072,0.048h0.023
					c0.049,0,0.072-0.024,0.072-0.072c0-0.048-0.016-0.08-0.048-0.096H241.752z M241.968-69.327l-0.024-0.024l-0.024-0.024h-0.023
					v0.024h-0.024l-0.023,0.024v0.024v0.024c0,0.016,0.016,0.024,0.048,0.024h0.023h0.049V-69.327z M242.088-69.375
					c0-0.016-0.008-0.024-0.023-0.024c-0.017-0.016-0.024-0.032-0.024-0.048h-0.048c-0.016,0-0.023,0.008-0.023,0.024v0.048h0.023
					c0,0.032,0.008,0.048,0.024,0.048h0.023v-0.024h0.024L242.088-69.375z M242.064-70.383c0,0.016,0.008,0.032,0.023,0.048h0.024
					c0.032,0,0.063-0.024,0.096-0.072c0-0.016,0.004-0.032,0.013-0.048c0.008-0.016,0.012-0.032,0.012-0.048l-0.024-0.024h-0.023
					h-0.024h-0.048c-0.016,0.016-0.024,0.04-0.024,0.072C242.072-70.439,242.064-70.415,242.064-70.383z M242.112-69.951
					c0,0.016,0.008,0.024,0.024,0.024h0.023h0.024h0.023v-0.024v-0.024v-0.024h-0.023c0-0.016-0.009-0.024-0.024-0.024h-0.023
					h-0.024c0,0.016-0.008,0.024-0.024,0.024v0.024L242.112-69.951z M242.16-70.671c0,0.064,0.008,0.104,0.024,0.12h0.023
					c0.032,0,0.048-0.04,0.048-0.12c0.032,0,0.049-0.008,0.049-0.024v-0.024v-0.072c0-0.016-0.005-0.028-0.013-0.036
					c-0.008-0.008-0.012-0.02-0.012-0.036c-0.016-0.192-0.057-0.288-0.12-0.288l-0.048,0.048v0.024
					c0.016,0.016,0.024,0.041,0.024,0.072v0.024h0.023v0.096v0.072V-70.671z M242.304-69.639c-0.032-0.032-0.057-0.048-0.072-0.048
					l-0.048,0.024l-0.048,0.048c0,0.064,0.031,0.104,0.096,0.12c0.032,0,0.056-0.04,0.072-0.12V-69.639z M242.232-70.191
					l-0.024,0.024v0.024v0.024h-0.023v0.024c0.016,0.016,0.031,0.024,0.048,0.024l0.023,0.024c0.017,0,0.024-0.008,0.024-0.024
					c0.016,0,0.032-0.008,0.048-0.024c0-0.032-0.008-0.056-0.023-0.072l-0.049-0.024H242.232z M242.328-70.215
					c0.048-0.016,0.097-0.072,0.145-0.168c0.048-0.096,0.063-0.176,0.048-0.24c0.016-0.063,0.023-0.152,0.023-0.264v-0.096
					c0.017-0.096,0-0.2-0.048-0.312l-0.023-0.048v-0.024h-0.024c-0.032,0-0.048,0.008-0.048,0.024
					c-0.032,0.032-0.048,0.072-0.048,0.12c0,0.032,0.016,0.064,0.048,0.096c0,0.032,0.008,0.048,0.024,0.048v0.024
					c0,0.048,0.003,0.104,0.012,0.168c0.008,0.064,0.004,0.12-0.012,0.168c-0.017,0.064-0.033,0.12-0.049,0.168
					c-0.016,0.048-0.032,0.104-0.048,0.168c-0.016,0.032-0.023,0.052-0.023,0.06c0,0.008-0.009,0.028-0.024,0.06v0.048h0.024
					H242.328z M242.88-70.767v-0.12c0-0.272-0.032-0.416-0.096-0.432l-0.023-0.024l-0.024,0.024
					c-0.017,0.032-0.024,0.084-0.024,0.156c0,0.072,0.008,0.125,0.024,0.156c0.016,0.08,0.016,0.152,0,0.216v0.024
					c-0.032,0.225-0.064,0.364-0.096,0.42c-0.032,0.056-0.057,0.092-0.072,0.108h-0.024v0.024l-0.023,0.024h0.023
					c-0.016,0-0.023,0.004-0.023,0.012c0,0.008,0.008,0.012,0.023,0.012c0,0.016-0.004,0.028-0.012,0.036
					c-0.008,0.008-0.012,0.02-0.012,0.036c-0.017,0-0.024,0.008-0.024,0.024c-0.016,0.016-0.023,0.032-0.023,0.048
					c0,0.016-0.017,0.04-0.048,0.072l-0.024,0.024l-0.024,0.024v0.024c-0.032,0-0.048,0.024-0.048,0.072h-0.023v0.024
					c-0.017,0-0.024,0.008-0.024,0.024v0.024c0,0.016,0.008,0.024,0.024,0.024l0.023,0.024c0.016,0,0.024-0.008,0.024-0.024h0.048
					v-0.024v-0.024l0.048-0.048l0.024-0.024c0.016-0.016,0.031-0.04,0.048-0.072c0.016-0.032,0.031-0.064,0.048-0.096h0.024v-0.024
					c0.031-0.032,0.048-0.056,0.048-0.072c0.016,0,0.031-0.008,0.048-0.024v-0.024v-0.024l0.023-0.024h-0.023v-0.024h0.023
					c0.032,0,0.049-0.016,0.049-0.048c0.031-0.032,0.048-0.072,0.048-0.12v-0.024c0.031-0.096,0.048-0.168,0.048-0.216
					c0-0.048,0.008-0.087,0.023-0.12V-70.767z"/>
				<path d="M243.935-65.559c-0.367-0.208-0.615-0.456-0.744-0.744c-0.127-0.288-0.184-0.588-0.168-0.9
					c0.017-0.312,0.072-0.62,0.168-0.924c0.097-0.304,0.192-0.568,0.288-0.792c0.145-0.384,0.328-0.752,0.553-1.104
					c0.224-0.352,0.468-0.664,0.731-0.936c0.265-0.272,0.54-0.492,0.828-0.66c0.288-0.168,0.576-0.26,0.864-0.276v-0.024
					c0.24-0.08,0.479-0.104,0.72-0.072c0.208,0.032,0.416,0.112,0.624,0.24c0.208,0.128,0.392,0.368,0.552,0.72
					c0.016,0.032,0.024,0.064,0.024,0.096c0,0.081-0.024,0.128-0.072,0.144c-0.016,0-0.028,0.004-0.036,0.012
					c-0.008,0.008-0.028,0.012-0.06,0.012c0,0.081-0.057,0.088-0.168,0.024c-0.064-0.032-0.12-0.064-0.168-0.096h-0.024
					l-0.336-0.168c-0.112-0.064-0.236-0.108-0.372-0.132c-0.136-0.024-0.275-0.012-0.42,0.036c-0.016,0.016-0.032,0.024-0.048,0.024
					c-0.304,0.128-0.64,0.424-1.008,0.888c-0.16,0.192-0.292,0.356-0.396,0.492c-0.104,0.136-0.2,0.284-0.288,0.444
					c-0.088,0.16-0.18,0.34-0.275,0.54c-0.097,0.2-0.2,0.468-0.313,0.804c-0.128,0.336-0.207,0.592-0.239,0.768
					c-0.032,0.176-0.049,0.304-0.049,0.384c0,0.096,0.024,0.152,0.072,0.168c0.24-0.048,0.508-0.22,0.804-0.516
					c0.296-0.296,0.588-0.628,0.876-0.996c0.288-0.368,0.544-0.732,0.769-1.092c0.224-0.36,0.376-0.612,0.456-0.756
					c0.031-0.08,0.1-0.208,0.204-0.384c0.104-0.176,0.204-0.28,0.3-0.312c0.032-0.032,0.075-0.056,0.132-0.072
					c0.056-0.016,0.108-0.008,0.156,0.024c0.08,0.064,0.136,0.136,0.168,0.216l0.144,0.168l0.048,0.048
					c0.032,0.032,0.068,0.06,0.108,0.084c0.04,0.024,0.076,0.068,0.108,0.132c0.031,0.128,0.039,0.224,0.023,0.288
					c0,0.064-0.023,0.12-0.072,0.168c0,0.032-0.004,0.06-0.012,0.084s-0.012,0.052-0.012,0.084l-0.072,0.168v0.048
					c-0.048,0.24-0.08,0.424-0.096,0.552c-0.017,0.128-0.032,0.224-0.048,0.288c-0.017,0.064-0.024,0.112-0.024,0.144
					c-0.016,0.08-0.04,0.236-0.072,0.468s-0.044,0.476-0.035,0.732c0.008,0.256,0.043,0.484,0.107,0.684
					c0.063,0.2,0.184,0.3,0.36,0.3c0.159,0,0.392-0.168,0.695-0.504c0.305-0.336,0.62-0.724,0.948-1.164
					c0.328-0.44,0.632-0.879,0.912-1.32c0.28-0.44,0.483-0.772,0.612-0.996l0.023-0.024c0.017-0.016,0.028-0.032,0.036-0.048
					s0.028-0.04,0.061-0.072c0.031-0.032,0.063-0.048,0.096-0.048c0.063,0.016,0.088,0.064,0.072,0.144
					c0,0.064-0.013,0.12-0.036,0.168c-0.024,0.048-0.053,0.096-0.084,0.144c0.063-0.096,0.111-0.112,0.144-0.048v0.072h-0.048
					l-0.023,0.024c-0.017,0.016-0.024,0.032-0.024,0.048v0.024c0.016,0.016,0.032,0.024,0.048,0.024s0.024-0.008,0.024-0.024
					l0.023-0.024L252-69.687c0,0.032-0.017,0.064-0.048,0.096c0.08-0.048,0.111-0.032,0.096,0.048c0,0.048-0.008,0.081-0.024,0.096
					v0.024c-0.016,0.032-0.023,0.056-0.023,0.072c0,0.016-0.009,0.032-0.024,0.048l-0.048,0.12
					c-0.016,0.016-0.023,0.032-0.023,0.048c-0.017,0.048-0.057,0.12-0.12,0.216c-0.112,0.192-0.261,0.424-0.444,0.696
					c-0.185,0.272-0.376,0.548-0.576,0.828c-0.2,0.28-0.404,0.548-0.611,0.804c-0.209,0.256-0.393,0.464-0.553,0.624
					c-0.176,0.176-0.356,0.296-0.54,0.36c-0.184,0.064-0.355,0.096-0.516,0.096c-0.177,0-0.36-0.024-0.552-0.072
					c-0.129-0.048-0.257-0.112-0.385-0.192c-0.111-0.08-0.231-0.172-0.359-0.276c-0.129-0.104-0.248-0.236-0.36-0.396
					c-0.08-0.096-0.132-0.244-0.156-0.444c-0.023-0.2-0.035-0.399-0.035-0.6s0.003-0.376,0.012-0.528
					c0.008-0.152,0.012-0.236,0.012-0.252c-0.016,0.016-0.1,0.156-0.252,0.42c-0.152,0.264-0.428,0.708-0.828,1.332
					c-0.24,0.368-0.464,0.624-0.672,0.768s-0.393,0.232-0.552,0.264C244.24-65.455,244.08-65.479,243.935-65.559z M244.08-68.895
					v0.048h0.048h0.024h0.023c0.017,0,0.024-0.008,0.024-0.024c0.016-0.016,0.023-0.063,0.023-0.144v-0.024h0.024v-0.096h-0.024
					v-0.024H244.2c-0.016-0.016-0.04-0.024-0.072-0.024l-0.024,0.024v0.072c-0.016,0-0.016,0.008,0,0.024h0.049
					c0,0.016-0.004,0.028-0.013,0.036c-0.008,0.008-0.012,0.02-0.012,0.036c-0.032,0.032-0.048,0.056-0.048,0.072V-68.895z
					 M244.248-69.447c-0.016,0-0.024,0.016-0.024,0.048l0.024,0.024c0.016,0,0.023,0.004,0.023,0.012
					c0,0.008,0.009,0.012,0.024,0.012s0.024-0.008,0.024-0.024h0.023v-0.072l-0.048-0.024h-0.024
					C244.256-69.471,244.248-69.462,244.248-69.447z M244.368-69.159c0-0.032-0.008-0.048-0.024-0.048
					c0-0.016-0.008-0.024-0.023-0.024h-0.024l-0.024,0.024c-0.016,0-0.023,0.008-0.023,0.024v0.024c0,0.016,0.008,0.024,0.023,0.024
					l0.024,0.024h0.024c0.016,0,0.023-0.008,0.023-0.024h0.024V-69.159z M244.368-69.663c-0.032,0.032-0.048,0.057-0.048,0.072
					l0.023,0.024l0.024,0.024h0.023c0.017,0,0.032-0.008,0.048-0.024v-0.024c0.017,0,0.024-0.008,0.024-0.024v-0.048l-0.048-0.048
					C244.384-69.711,244.368-69.695,244.368-69.663z M244.439-69.783c0.032,0.032,0.057,0.048,0.072,0.048
					c0.032,0,0.061-0.024,0.084-0.072c0.024-0.048,0.036-0.087,0.036-0.12c0-0.016-0.008-0.032-0.024-0.048
					c0-0.032-0.032-0.032-0.096,0c-0.048,0.048-0.072,0.096-0.072,0.144V-69.783z M245.328-70.383
					c0.111-0.112,0.184-0.184,0.216-0.216c0.032-0.032,0.048-0.063,0.048-0.096l-0.024-0.024c0-0.016-0.008-0.024-0.023-0.024
					c-0.064,0-0.216,0.152-0.456,0.456c-0.064,0.048-0.128,0.136-0.192,0.264c-0.032,0.08-0.063,0.136-0.096,0.168
					c-0.08,0.032-0.141,0.112-0.18,0.24c-0.04,0.128-0.061,0.208-0.061,0.24c-0.016,0.016-0.016,0.032,0,0.048h0.048
					c0.049,0,0.093-0.036,0.133-0.108c0.039-0.072,0.075-0.147,0.107-0.228l0.048-0.096l0.049-0.096
					c0.016-0.048,0.056-0.12,0.119-0.216c0.097-0.064,0.16-0.144,0.192-0.24l0.024-0.024L245.328-70.383z M244.607-70.071
					c-0.016,0-0.016,0.008,0,0.024h0.024c0.063,0,0.111-0.04,0.144-0.12c0.017,0,0.024,0.008,0.024,0.024l0.024-0.024h0.023v-0.024
					c0.016,0,0.024-0.008,0.024-0.024l-0.024-0.048c0-0.016,0.016-0.04,0.048-0.072c0,0.016,0.008,0.024,0.024,0.024h0.024
					l0.023-0.024c0.016,0,0.024-0.008,0.024-0.024c0.016,0,0.023-0.008,0.023-0.024v-0.048l-0.023-0.024l0.071-0.096v0.048
					c0.032,0.032,0.057,0.024,0.072-0.024c0.08,0,0.12-0.048,0.12-0.144l-0.024-0.024l0.192-0.192
					c0.08-0.08,0.156-0.152,0.229-0.216c0.071-0.063,0.155-0.12,0.252-0.168c0.128-0.063,0.224-0.104,0.287-0.12h0.024
					c0.016,0,0.048,0,0.096,0c0.049,0,0.08-0.008,0.097-0.024c0.031,0,0.048-0.016,0.048-0.048l-0.024-0.024
					c-0.016,0-0.032-0.004-0.048-0.012c-0.016-0.008-0.04-0.012-0.072-0.012s-0.071,0.004-0.12,0.012
					c-0.048,0.008-0.088,0.012-0.119,0.012c-0.064,0.032-0.133,0.064-0.204,0.096c-0.072,0.033-0.132,0.064-0.181,0.096
					l-0.023,0.024c-0.048,0.032-0.097,0.06-0.145,0.084s-0.096,0.06-0.144,0.108c-0.032,0.016-0.076,0.052-0.132,0.108
					c-0.057,0.056-0.116,0.124-0.181,0.204c0,0.016-0.004,0.024-0.012,0.024s-0.012,0.008-0.012,0.024l-0.072,0.096
					c-0.08,0.081-0.152,0.168-0.216,0.264C244.687-70.263,244.639-70.167,244.607-70.071z M245.16-70.503
					c0,0.016,0.008,0.024,0.023,0.024c0.032,0,0.048-0.008,0.048-0.024c0-0.016-0.016-0.024-0.048-0.024L245.16-70.503z
					 M245.759-70.839c0.016,0,0.024-0.004,0.024-0.012c0-0.008-0.009-0.012-0.024-0.012c0-0.032-0.016-0.048-0.048-0.048h-0.048
					c0,0.017-0.009,0.024-0.024,0.024c-0.016,0.016-0.023,0.04-0.023,0.072c0.031,0.032,0.056,0.048,0.071,0.048l0.024-0.024
					c0.016,0,0.024-0.008,0.024-0.024C245.752-70.815,245.759-70.823,245.759-70.839z M245.952-71.031
					c-0.017,0-0.024-0.008-0.024-0.024s-0.016-0.024-0.048-0.024v0.024h-0.024c-0.016,0.016-0.023,0.032-0.023,0.048v0.024
					c0.016,0.016,0.031,0.024,0.048,0.024v0.024h0.024l0.023-0.024h0.024V-71.031z M247.607-67.455c0-0.016-0.008-0.024-0.023-0.024
					c-0.08,0-0.128,0.008-0.145,0.024c0.017,0.016,0.024,0.032,0.024,0.048c0,0.032,0.008,0.056,0.024,0.072h0.119v-0.024h0.024
					l0.024-0.024v-0.024v-0.024v-0.024H247.607z M247.584-67.215h-0.072c-0.016,0-0.023,0.008-0.023,0.024h-0.024l0.024,0.024
					c0.016,0.016,0.031,0.024,0.048,0.024h0.048h0.023v-0.024l-0.023-0.024V-67.215z M247.656-67.695l0.023-0.024h-0.023
					l-0.049-0.024h-0.023c-0.032,0-0.048,0.008-0.048,0.024h-0.024v0.024c0,0.032,0.032,0.04,0.096,0.024v-0.024H247.656z
					 M248.063-69.591c0.032-0.08,0.049-0.148,0.049-0.204c0-0.056,0.016-0.124,0.048-0.204v-0.024l-0.024-0.024h-0.023
					c-0.032,0.016-0.064,0.064-0.097,0.144s-0.063,0.168-0.096,0.264c-0.032,0.112-0.057,0.24-0.072,0.384
					c-0.032,0.096-0.048,0.184-0.048,0.264c-0.032,0.048-0.048,0.104-0.048,0.168s-0.009,0.128-0.024,0.192
					c-0.063,0.032-0.1,0.072-0.107,0.12c-0.009,0.048-0.013,0.096-0.013,0.144c-0.016,0.032-0.023,0.056-0.023,0.072
					c-0.017,0.032-0.032,0.072-0.048,0.12c-0.017,0.048-0.017,0.088,0,0.12c0,0.064,0.008,0.096,0.023,0.096
					c0,0.016,0.032,0.024,0.097,0.024c0.048-0.016,0.071-0.072,0.071-0.168l-0.023-0.024c0.048-0.096,0.071-0.2,0.071-0.312
					c0-0.048,0.009-0.1,0.024-0.156s0.024-0.116,0.024-0.18v-0.024c0-0.016,0.008-0.032,0.023-0.048c0-0.048,0.016-0.088,0.048-0.12
					c-0.016-0.032-0.016-0.06,0-0.084s0.016-0.044,0-0.06c0.064-0.08,0.092-0.164,0.084-0.252S248-69.527,248.063-69.591z
					 M249.983-66.975l0.024,0.024c0.032,0,0.072-0.028,0.12-0.084s0.072-0.1,0.072-0.132v-0.024l-0.024-0.024
					c-0.048,0-0.088,0.04-0.12,0.12l-0.072,0.096V-66.975z M250.271-67.383v0.048h0.024c0.016,0,0.04-0.012,0.072-0.036
					c0.031-0.024,0.048-0.052,0.048-0.084v-0.024l-0.024-0.024c-0.016,0-0.04,0.016-0.071,0.048c-0.017,0-0.024,0.008-0.024,0.024
					C250.279-67.415,250.271-67.399,250.271-67.383z M250.464-67.647v0.024c0.016,0,0.024,0.008,0.024,0.024
					c0.016,0,0.023-0.008,0.023-0.024c0.048,0,0.072-0.016,0.072-0.048v-0.024c-0.017-0.016-0.032-0.024-0.048-0.024h-0.024
					c0,0.016-0.008,0.024-0.023,0.024v0.024L250.464-67.647z M250.752-68.031l0.023,0.024h0.024c0.032,0,0.056-0.012,0.072-0.036
					c0.016-0.024,0.031-0.044,0.048-0.06c0.048-0.048,0.072-0.087,0.072-0.12s-0.017-0.048-0.048-0.048
					c-0.033,0-0.068,0.036-0.108,0.108c-0.04,0.072-0.068,0.108-0.084,0.108V-68.031z M251.04-68.391h0.023
					c0.017,0,0.04-0.016,0.072-0.048c0.032-0.032,0.048-0.056,0.048-0.072l-0.023-0.024l-0.024-0.024
					c-0.016,0-0.032,0.008-0.048,0.024v0.024l-0.024,0.024c-0.016,0.016-0.023,0.032-0.023,0.048V-68.391z M251.231-68.679
					c0,0.016,0.008,0.024,0.024,0.024c0.032,0,0.048-0.016,0.048-0.048h0.024c0-0.016,0.008-0.032,0.023-0.048l-0.048-0.048
					c-0.016,0-0.032,0.008-0.048,0.024v0.024l-0.024,0.024V-68.679z M251.519-69.135c-0.016,0.016-0.023,0.032-0.023,0.048
					c-0.017,0-0.017,0.008,0,0.024v0.024h0.048l0.023-0.024l0.024-0.024v-0.072h-0.024
					C251.535-69.159,251.519-69.151,251.519-69.135z M251.759-69.327c0.032-0.048,0.04-0.08,0.024-0.096l-0.024-0.024
					c-0.016,0-0.023,0.004-0.023,0.012c0,0.008-0.009,0.012-0.024,0.012l-0.048,0.048c-0.017,0.016-0.024,0.032-0.024,0.048v0.024
					c0.032,0.032,0.056,0.048,0.072,0.048l0.024-0.024c0-0.016,0.008-0.024,0.023-0.024V-69.327z"/>
				<path d="M251.904-65.487c-0.368-0.208-0.624-0.468-0.768-0.78c-0.145-0.312-0.225-0.636-0.24-0.972s0.016-0.664,0.096-0.984
					c0.08-0.32,0.168-0.6,0.264-0.84c0.16-0.384,0.36-0.768,0.601-1.152c0.24-0.384,0.504-0.74,0.792-1.068s0.588-0.596,0.899-0.804
					c0.313-0.208,0.612-0.32,0.9-0.336h0.024c0.144-0.048,0.288-0.08,0.432-0.096c0.128-0.016,0.264-0.016,0.408,0
					c0.144,0.016,0.296,0.072,0.456,0.168c0.128-0.32,0.231-0.592,0.312-0.816c0.08-0.224,0.128-0.352,0.145-0.384
					c0.352-1.024,0.699-1.86,1.044-2.508c0.344-0.648,0.663-1.14,0.96-1.476c0.296-0.336,0.56-0.544,0.792-0.624
					c0.231-0.08,0.428-0.08,0.588,0c0.032-0.032,0.088-0.024,0.168,0.024c0.063,0.048,0.124,0.068,0.18,0.06
					s0.092,0.044,0.108,0.156c0.016,0.144,0.012,0.3-0.012,0.468c-0.024,0.168-0.053,0.3-0.084,0.396
					c-0.017,0.032-0.028,0.064-0.036,0.096c-0.009,0.032-0.021,0.064-0.036,0.096c-0.08,0.208-0.213,0.472-0.396,0.792
					c-0.184,0.32-0.396,0.668-0.636,1.044s-0.508,0.776-0.804,1.2c-0.297,0.424-0.588,0.836-0.876,1.236
					c-0.16,0.464-0.309,0.916-0.444,1.356c-0.136,0.44-0.26,0.836-0.372,1.188v0.024c0,0.032-0.016,0.096-0.048,0.192l-0.024,0.024
					c0,0.033-0.004,0.052-0.012,0.06c-0.008,0.008-0.012,0.028-0.012,0.06c-0.032,0.128-0.064,0.24-0.097,0.336
					c-0.032,0.096-0.063,0.184-0.096,0.264c-0.048,0.16-0.08,0.284-0.096,0.372c-0.017,0.088-0.032,0.164-0.048,0.228
					c-0.017,0.064-0.024,0.112-0.024,0.144c-0.016,0.08-0.036,0.248-0.06,0.504c-0.024,0.256-0.036,0.52-0.036,0.792
					c0,0.272,0.027,0.52,0.084,0.744c0.056,0.224,0.172,0.336,0.348,0.336c0.16,0,0.393-0.168,0.696-0.504
					c0.304-0.336,0.62-0.724,0.948-1.164c0.327-0.44,0.636-0.88,0.924-1.32c0.288-0.439,0.496-0.771,0.624-0.996l0.023-0.024
					c0.017-0.016,0.028-0.032,0.036-0.048c0.008-0.016,0.028-0.04,0.061-0.072c0.031-0.032,0.056-0.048,0.071-0.048
					c0.08,0,0.112,0.048,0.097,0.144c-0.032,0.096-0.064,0.176-0.097,0.24c-0.032,0-0.048,0.016-0.048,0.048
					c-0.016,0.016-0.023,0.032-0.023,0.048l0.023,0.048h0.024l0.023-0.024v-0.024h0.024v-0.024v-0.024v-0.024
					c0.016-0.032,0.032-0.048,0.048-0.048s0.024,0.008,0.024,0.024c0,0.016,0.004,0.024,0.012,0.024s0.012,0.008,0.012,0.024
					c0,0.08,0.004,0.124,0.013,0.132c0.008,0.008-0.005,0.028-0.036,0.06c0.016-0.016,0.031-0.024,0.048-0.024
					c0.032,0,0.048,0.024,0.048,0.072c-0.016,0.016-0.024,0.048-0.024,0.096h-0.023v0.024c0,0.032-0.004,0.057-0.012,0.072
					c-0.009,0.016-0.013,0.032-0.013,0.048c-0.032,0.096-0.048,0.136-0.048,0.12c-0.016,0.016-0.023,0.032-0.023,0.048
					c-0.017,0.048-0.057,0.12-0.12,0.216c-0.112,0.192-0.261,0.424-0.444,0.696c-0.184,0.272-0.376,0.548-0.576,0.828
					s-0.404,0.548-0.611,0.804c-0.209,0.256-0.393,0.464-0.553,0.624c-0.176,0.176-0.359,0.296-0.552,0.36s-0.368,0.096-0.528,0.096
					c-0.176,0-0.359-0.024-0.552-0.072c-0.128-0.064-0.256-0.136-0.384-0.216c-0.112-0.08-0.232-0.168-0.36-0.264
					c-0.128-0.096-0.248-0.224-0.359-0.384c-0.081-0.112-0.133-0.28-0.156-0.504c-0.024-0.224-0.036-0.448-0.036-0.672
					c0-0.272,0.016-0.56,0.048-0.864c-0.063,0.144-0.144,0.312-0.24,0.504c-0.144,0.304-0.432,0.792-0.863,1.464
					c-0.24,0.368-0.452,0.624-0.637,0.768c-0.184,0.144-0.34,0.231-0.468,0.264C252.128-65.383,252-65.407,251.904-65.487z
					 M251.784-69.351v0.024h0.024c0,0.032,0.016,0.048,0.048,0.048c0.016,0.016,0.04,0.024,0.072,0.024h0.023v-0.024l0.024-0.024
					v-0.024v-0.024c-0.048-0.048-0.08-0.072-0.097-0.072l-0.023,0.024h-0.024c-0.031,0-0.048,0.008-0.048,0.024V-69.351z
					 M251.856-69.519c0,0.016,0.008,0.024,0.023,0.024l0.049,0.024h0.023c0-0.016,0.009-0.024,0.024-0.024
					c0-0.016,0.004-0.024,0.012-0.024S252-69.527,252-69.543c0,0.016,0.009,0.024,0.024,0.024h0.023h0.024v-0.024h0.024v-0.024
					v-0.024l-0.024-0.024c-0.016,0-0.024-0.004-0.024-0.012c0-0.008-0.008-0.012-0.023-0.012L252-69.615
					c-0.016,0.016-0.023,0.032-0.023,0.048c-0.016-0.016-0.032-0.024-0.048-0.024h-0.024h-0.024v0.024l-0.023,0.024V-69.519z
					 M255.504-71.607c-0.111-0.048-0.236-0.084-0.372-0.108s-0.275-0.012-0.42,0.036h-0.023c-0.272,0.112-0.608,0.408-1.008,0.888
					c-0.32,0.384-0.589,0.776-0.805,1.176s-0.443,0.928-0.684,1.584c-0.128,0.336-0.208,0.596-0.24,0.78
					c-0.032,0.184-0.04,0.316-0.023,0.396c0.016,0.096,0.056,0.152,0.119,0.168c0.24-0.048,0.532-0.256,0.876-0.624
					c0.345-0.368,0.685-0.784,1.021-1.248l-0.048,0.024c0.176-0.272,0.348-0.544,0.516-0.816c0.168-0.271,0.34-0.543,0.517-0.816
					c0.031-0.032,0.056-0.068,0.071-0.108c0.016-0.04,0.04-0.076,0.072-0.108c0.063-0.192,0.132-0.392,0.204-0.6
					C255.348-71.191,255.424-71.399,255.504-71.607z M252.024-69.831v0.024c0.016,0.017,0.028,0.024,0.036,0.024
					s0.02,0.008,0.036,0.024l0.023-0.024v-0.024c0.016,0,0.024-0.008,0.024-0.024v-0.024c0-0.016-0.009-0.024-0.024-0.024h-0.072
					C252.032-69.879,252.024-69.863,252.024-69.831z M252.168-70.071c-0.016,0-0.023,0.008-0.023,0.024
					c0,0.016-0.009,0.024-0.024,0.024c0,0.048,0.024,0.072,0.072,0.072h0.023v-0.024l0.024-0.024v-0.024h0.024v-0.024v-0.024
					c-0.032-0.032-0.057-0.048-0.072-0.048C252.176-70.119,252.168-70.103,252.168-70.071z M252.24-70.215l0.024,0.024
					c0,0.016,0.016,0.024,0.048,0.024c0.08,0,0.12-0.056,0.12-0.168c0-0.048-0.017-0.072-0.049-0.072s-0.056,0.008-0.071,0.024
					c-0.017,0.016-0.028,0.04-0.036,0.072c-0.009,0.032-0.021,0.056-0.036,0.072V-70.215z M252.576-70.023
					c-0.048,0.08-0.057,0.136-0.023,0.168c0,0.016,0.016,0.024,0.048,0.024c0.031,0,0.056-0.008,0.071-0.024
					c0.032-0.032,0.052-0.06,0.061-0.084c0.008-0.024,0.02-0.052,0.036-0.084c0-0.016,0.004-0.028,0.012-0.036
					c0.008-0.008,0.012-0.02,0.012-0.036c0.016-0.016,0.036-0.044,0.061-0.084c0.023-0.04,0.06-0.124,0.107-0.252
					c0.048-0.048,0.072-0.088,0.072-0.12c0.016-0.016,0.068-0.08,0.156-0.192s0.172-0.208,0.252-0.288
					c0.08-0.096,0.128-0.152,0.144-0.168s0.016-0.032,0-0.048c0-0.016-0.008-0.024-0.023-0.024c-0.048,0-0.132,0.072-0.252,0.216
					c-0.12,0.144-0.196,0.232-0.229,0.264l-0.144,0.216l-0.145,0.216h-0.023c-0.032,0.048-0.068,0.1-0.108,0.156
					C252.62-70.147,252.592-70.087,252.576-70.023z M252.552-70.599c0.016,0,0.023,0.008,0.023,0.024l0.048,0.024l0.024-0.024
					l0.023-0.024c0.097-0.063,0.145-0.12,0.145-0.168c0.063-0.08,0.136-0.152,0.216-0.216c0.016-0.032,0.024-0.064,0.024-0.096
					l0.023-0.024c0-0.016,0.016-0.024,0.048-0.024c0-0.016,0.004-0.024,0.013-0.024c0.008,0,0.012-0.008,0.012-0.024
					c0.032-0.016,0.08-0.056,0.144-0.12c0.08-0.08,0.136-0.128,0.168-0.144l0.072-0.072c0.08-0.064,0.156-0.124,0.229-0.18
					c0.071-0.056,0.147-0.1,0.228-0.132c0.016-0.016,0.032-0.024,0.048-0.024l0.097-0.048c0.016,0,0.031-0.003,0.048-0.012
					c0.016-0.008,0.039-0.012,0.071-0.012c0.08,0,0.136-0.008,0.168-0.024h0.024c0.016,0,0.032-0.008,0.048-0.024
					c0,0.016-0.023,0-0.072-0.048c-0.016,0-0.032-0.008-0.048-0.024h-0.168c-0.063,0.016-0.124,0.036-0.18,0.06
					c-0.057,0.024-0.101,0.044-0.132,0.06l-0.097,0.048c-0.032,0.032-0.056,0.048-0.071,0.048c-0.032,0.016-0.064,0.028-0.097,0.036
					c-0.032,0.008-0.063,0.021-0.096,0.036c-0.048,0.032-0.12,0.096-0.216,0.192c-0.017,0.048-0.048,0.081-0.096,0.096
					c-0.049,0.048-0.093,0.1-0.133,0.156c-0.04,0.057-0.084,0.108-0.132,0.156c-0.016,0.032-0.032,0.052-0.048,0.06
					c-0.016,0.008-0.032,0.028-0.048,0.06c-0.017,0.016-0.028,0.032-0.036,0.048c-0.008,0.016-0.028,0.04-0.06,0.072
					c-0.032,0.033-0.061,0.076-0.084,0.132c-0.024,0.056-0.053,0.084-0.084,0.084c0,0.016-0.009,0.024-0.024,0.024
					s-0.023,0.008-0.023,0.024V-70.599z M253.776-71.439h-0.024c-0.016,0-0.032,0.008-0.048,0.024c-0.032,0-0.048,0.008-0.048,0.024
					l-0.024,0.024v0.024l0.024,0.024c0.016,0,0.024,0.008,0.024,0.024h0.023h0.024c0-0.016,0.008-0.024,0.023-0.024l0.024-0.024
					c0.016-0.016,0.023-0.032,0.023-0.048v-0.024h0.024l0.048-0.024l0.024-0.024h0.023h0.024l0.024-0.024l0.023-0.024
					c0.048-0.048,0.096-0.08,0.145-0.096v-0.024c0.079-0.032,0.132-0.056,0.155-0.072c0.024-0.016,0.036-0.032,0.036-0.048
					c0-0.032-0.016-0.048-0.048-0.048c-0.017,0-0.096,0.048-0.24,0.144c-0.016,0-0.023,0.008-0.023,0.024
					c-0.032,0-0.064,0.016-0.097,0.048h-0.023l-0.024,0.024l-0.072,0.072l-0.023,0.024V-71.439z M255.24-68.295
					c0.016-0.063,0.027-0.124,0.036-0.18c0.008-0.056,0.027-0.124,0.06-0.204c0.032-0.128,0.057-0.232,0.072-0.312
					c0.016-0.064,0.027-0.12,0.036-0.168c0.008-0.048,0.02-0.104,0.036-0.168c0.031-0.08,0.056-0.164,0.072-0.252
					c0.016-0.087,0.031-0.171,0.048-0.252c0.016-0.048,0.027-0.1,0.036-0.156c0.008-0.056,0.02-0.108,0.035-0.156
					c0.032-0.096,0.049-0.16,0.049-0.192c0.016-0.032,0.043-0.096,0.084-0.192c0.039-0.096,0.075-0.208,0.107-0.336
					c0.128-0.288,0.2-0.456,0.216-0.504c0.016-0.048,0.008-0.08-0.023-0.096h-0.024c-0.032,0-0.068,0.04-0.107,0.12
					c-0.04,0.08-0.076,0.168-0.108,0.264c-0.048,0.112-0.088,0.232-0.12,0.36c-0.032,0.048-0.064,0.136-0.096,0.264
					c-0.017,0.081-0.057,0.2-0.12,0.36c-0.128,0.32-0.22,0.644-0.276,0.972c-0.056,0.328-0.1,0.652-0.132,0.972
					c0,0.064-0.004,0.132-0.012,0.204c-0.009,0.072-0.021,0.148-0.036,0.228c0,0.096-0.008,0.168-0.024,0.216v0.072
					c0,0.048-0.004,0.096-0.012,0.144c-0.008,0.048-0.004,0.088,0.012,0.12c0,0.032-0.004,0.072-0.012,0.12s-0.004,0.088,0.012,0.12
					c0.017,0,0.024,0.004,0.024,0.012c0,0.008,0.008,0.012,0.024,0.012l0.023-0.024c0.016-0.016,0.028-0.048,0.036-0.096
					s0.012-0.144,0.012-0.288v-0.048C255.168-67.647,255.192-67.959,255.24-68.295z M255.36-67.479c0,0.032-0.004,0.072-0.012,0.12
					c-0.009,0.048-0.005,0.088,0.012,0.12c0.032,0.032,0.056,0.048,0.072,0.048l0.023-0.024h0.024
					c0.031-0.032,0.044-0.072,0.036-0.12c-0.009-0.048-0.021-0.088-0.036-0.12c-0.017-0.016-0.024-0.032-0.024-0.048h-0.023
					c-0.032,0-0.049,0.008-0.049,0.024H255.36z M255.36-66.759c0,0.016,0.016,0.024,0.048,0.024h0.024
					c0.031,0,0.048-0.016,0.048-0.048v-0.048l-0.048-0.024h-0.024h-0.024l-0.023,0.024v0.024v0.024V-66.759z M255.504-67.719v-0.072
					c0-0.016-0.008-0.024-0.023-0.024h-0.024h-0.048l-0.024,0.024v0.024v0.024v0.024v0.048l0.049,0.024
					c0.048,0,0.071-0.016,0.071-0.048V-67.719z M255.408-66.447c0,0.016,0.016,0.024,0.048,0.024h0.048l0.024-0.024v-0.024
					l-0.024-0.024c0.032-0.032,0.032-0.048,0-0.048c0-0.032-0.023-0.048-0.071-0.048c-0.017,0-0.024,0.008-0.024,0.024
					c-0.016,0-0.024,0.008-0.024,0.024c0,0.016,0.004,0.024,0.013,0.024c0.008,0,0.012,0.008,0.012,0.024
					c-0.016,0.016-0.016,0.024,0,0.024V-66.447z M255.48-67.959c0.016,0,0.031-0.008,0.048-0.024v-0.024l0.024-0.024l-0.024-0.024
					c0-0.064-0.024-0.072-0.072-0.024c-0.016,0-0.023,0.008-0.023,0.024l-0.024,0.024v0.024v0.024h0.024
					c0,0.016,0.008,0.024,0.023,0.024H255.48z M255.6-68.487v-0.024h-0.048c-0.033,0-0.049,0.008-0.049,0.024
					c-0.016,0.016-0.023,0.032-0.023,0.048v0.024c0.016,0.016,0.039,0.024,0.072,0.024h0.023h0.024v-0.024v-0.024v-0.024V-68.487z
					 M255.648-66.015c0.031,0,0.048-0.016,0.048-0.048c0.016,0,0.024-0.003,0.024-0.012s-0.009-0.012-0.024-0.012
					c0-0.032-0.021-0.072-0.06-0.12c-0.041-0.048-0.076-0.072-0.108-0.072l-0.048,0.048v0.024c0,0.016,0.008,0.032,0.023,0.048
					c0.016,0.032,0.036,0.064,0.061,0.096C255.588-66.031,255.616-66.015,255.648-66.015z M255.672-68.775
					c0-0.032-0.008-0.048-0.023-0.048c-0.064-0.032-0.104-0.024-0.12,0.024v0.024c-0.017,0.016-0.024,0.032-0.024,0.048
					c0,0.032,0.008,0.057,0.024,0.072h0.096h0.024l0.023-0.024v-0.024v-0.024v-0.024V-68.775z M255.72-69.063v-0.024v-0.024v-0.024
					c0-0.016-0.009-0.024-0.024-0.024c-0.048-0.016-0.072-0.016-0.072,0c-0.016,0-0.023,0.008-0.023,0.024v0.048
					c0,0.032,0.023,0.048,0.071,0.048c0.017,0,0.024-0.008,0.024-0.024H255.72z M256.416-71.463c0.032-0.08,0.056-0.16,0.072-0.24
					c0.016-0.08,0.04-0.16,0.072-0.24c0.016-0.016,0.023-0.032,0.023-0.048l-0.023-0.024h-0.024c-0.032,0-0.072,0.048-0.12,0.144
					c-0.048,0.096-0.088,0.208-0.12,0.336l-0.144,0.48c-0.032,0.096-0.064,0.208-0.096,0.336c-0.032,0.08-0.057,0.156-0.072,0.228
					c-0.017,0.072-0.04,0.148-0.072,0.228c-0.032,0.032-0.056,0.08-0.072,0.144c-0.016,0.064-0.032,0.128-0.048,0.192
					c-0.016,0.016-0.023,0.04-0.023,0.072c-0.017,0.032-0.036,0.076-0.061,0.132c-0.023,0.056-0.028,0.108-0.012,0.156
					c-0.032,0.08-0.04,0.128-0.024,0.144c0.032,0.032,0.057,0.048,0.072,0.048c0.048-0.016,0.088-0.08,0.12-0.192v-0.048
					c0.032-0.064,0.052-0.128,0.06-0.192c0.009-0.063,0.021-0.127,0.036-0.192c0.016-0.08,0.032-0.152,0.048-0.216
					c0.017-0.064,0.032-0.136,0.049-0.216c0.016-0.016,0.023-0.032,0.023-0.048c0-0.016,0.008-0.04,0.024-0.072l0.048-0.096
					c0.016-0.032,0.032-0.068,0.048-0.108c0.016-0.04,0.016-0.076,0-0.108c0.048-0.096,0.088-0.196,0.12-0.3
					C256.352-71.267,256.384-71.367,256.416-71.463z M256.728-72.327c0-0.032-0.009-0.056-0.024-0.072
					c0-0.016-0.008-0.024-0.023-0.024h-0.024c-0.016,0.016-0.028,0.032-0.036,0.048c-0.008,0.016-0.021,0.032-0.036,0.048v0.12
					h0.072c0.016,0,0.024-0.008,0.024-0.024l0.023-0.048v-0.024L256.728-72.327z M256.776-74.151
					c-0.017,0.032-0.032,0.072-0.048,0.12c-0.017,0.048-0.017,0.088,0,0.12c0,0.017,0.008,0.033,0.023,0.048l0.024-0.024
					c0.016-0.032,0.032-0.072,0.048-0.12s0.032-0.088,0.048-0.12c0.063-0.096,0.097-0.184,0.097-0.264
					c0.031-0.063,0.056-0.127,0.071-0.192c0.016-0.063,0.04-0.128,0.072-0.192s0.063-0.112,0.096-0.144
					c0.032-0.048,0.061-0.096,0.084-0.144c0.024-0.048,0.044-0.104,0.061-0.168c0.031-0.063,0.06-0.128,0.084-0.192
					c0.023-0.064,0.052-0.136,0.084-0.216c0.031-0.064,0.056-0.12,0.071-0.168l0.217-0.432v-0.024
					c0.096-0.176,0.151-0.276,0.168-0.3c0.016-0.024,0.008-0.044-0.024-0.06c-0.016,0-0.04,0.016-0.072,0.048
					s-0.104,0.16-0.216,0.384v0.024l-0.072,0.144c-0.032,0.048-0.052,0.092-0.06,0.132c-0.008,0.041-0.028,0.076-0.06,0.108
					c-0.081,0.128-0.165,0.272-0.252,0.432c-0.089,0.16-0.148,0.312-0.181,0.456c-0.032,0.064-0.056,0.128-0.071,0.192
					c-0.017,0.064-0.041,0.128-0.072,0.192c0,0.032-0.004,0.056-0.013,0.072c-0.008,0.016-0.012,0.032-0.012,0.048
					c-0.016,0.033-0.036,0.072-0.06,0.12C256.788-74.223,256.776-74.183,256.776-74.151z M256.872-72.711
					c0.016,0,0.008-0.016-0.023-0.048h-0.024H256.8l-0.023,0.024c-0.017,0.016-0.024,0.032-0.024,0.048
					c0,0.032,0.016,0.056,0.048,0.072h0.024c0.016,0,0.024-0.008,0.024-0.024v-0.024h0.023v-0.024V-72.711z M257.712-75.471
					l-0.023,0.024v0.024v0.024c-0.032,0.032-0.064,0.08-0.097,0.144s-0.063,0.136-0.096,0.216c0,0.016-0.016,0.057-0.048,0.12
					c0,0.08-0.024,0.144-0.072,0.192v0.024c-0.016,0-0.023,0.008-0.023,0.024s-0.009,0.032-0.024,0.048l-0.048,0.096
					c-0.032,0.064-0.048,0.12-0.048,0.168c0,0.016,0.008,0.024,0.023,0.024c0.017,0.016,0.032,0.024,0.049,0.024
					c0.048,0,0.084-0.032,0.107-0.096c0.024-0.063,0.044-0.12,0.061-0.168c0-0.032,0.008-0.048,0.023-0.048
					c0.016-0.032,0.028-0.072,0.036-0.12s0.027-0.088,0.06-0.12c0.032-0.08,0.064-0.16,0.097-0.24
					c0.031-0.08,0.056-0.152,0.072-0.216l0.023-0.024v-0.024c0.016,0,0.024-0.008,0.024-0.024c0-0.016-0.024-0.04-0.072-0.072
					H257.712z M257.856-67.215c-0.032,0-0.072,0.032-0.12,0.096s-0.072,0.104-0.072,0.12c0,0.032,0.008,0.048,0.024,0.048
					c0.016,0,0.039-0.016,0.072-0.048l0.048-0.048c0.016-0.016,0.039-0.056,0.071-0.12v-0.024
					C257.88-67.207,257.872-67.215,257.856-67.215z M257.76-75.567l-0.024,0.024c-0.017,0-0.024,0.016-0.024,0.048v0.024
					c0.016,0,0.028,0.004,0.036,0.012c0.008,0.008,0.021,0.012,0.036,0.012h0.024l0.023-0.024v-0.024v-0.024
					c0.016,0,0.032-0.008,0.048-0.024v-0.024v-0.024v-0.024h0.024v-0.024h0.024v-0.024c0-0.016-0.009-0.024-0.024-0.024h-0.024
					c0-0.016-0.008-0.024-0.023-0.024h-0.024h-0.023v0.024v0.024v0.024h-0.024v0.024c-0.016,0-0.023,0.008-0.023,0.024V-75.567z
					 M259.128-77.391c-0.16,0.128-0.364,0.497-0.611,1.104c-0.249,0.608-0.509,1.305-0.78,2.088c0.304-0.432,0.58-0.836,0.828-1.212
					c0.248-0.375,0.447-0.708,0.6-0.996s0.248-0.524,0.288-0.708s0.004-0.3-0.107-0.348c-0.032,0-0.068,0.004-0.108,0.012
					C259.196-77.443,259.16-77.423,259.128-77.391z M257.976-75.831c0.016-0.016,0.016-0.024,0-0.024v-0.024
					c-0.017,0-0.024-0.004-0.024-0.012c0-0.008-0.008-0.012-0.023-0.012c-0.032,0-0.049,0.024-0.049,0.072
					c-0.032,0-0.048,0.024-0.048,0.072c0,0.016,0.008,0.024,0.024,0.024c0,0.016,0.016,0.024,0.048,0.024h0.024l0.023-0.024v-0.048
					c0.016,0,0.024-0.008,0.024-0.024V-75.831z M257.952-74.031c0.016-0.016,0.036-0.044,0.061-0.084
					c0.023-0.04,0.035-0.076,0.035-0.108c0-0.016-0.008-0.024-0.023-0.024H258c-0.016,0.016-0.048,0.052-0.096,0.108
					s-0.064,0.1-0.048,0.132c0,0.016,0.008,0.024,0.023,0.024C257.896-73.983,257.92-73.999,257.952-74.031z M257.952-67.383
					c-0.016,0-0.023,0.008-0.023,0.024c0,0.016,0.003,0.024,0.012,0.024c0.008,0,0.012,0.008,0.012,0.024h0.024L258-67.335
					l0.024-0.024c0.031-0.032,0.048-0.064,0.048-0.096c0-0.032-0.008-0.048-0.024-0.048c-0.016,0-0.032,0.008-0.048,0.024v0.024
					l-0.023,0.024C257.96-67.415,257.952-67.399,257.952-67.383z M258.072-76.287c-0.017,0-0.04,0.016-0.072,0.048
					c0,0.032-0.004,0.056-0.012,0.072c-0.008,0.016-0.012,0.04-0.012,0.072v0.072L258-75.999c0.016,0,0.04-0.016,0.072-0.048
					c0-0.032,0.016-0.048,0.048-0.048v-0.024v-0.024l0.048-0.096c-0.016-0.016-0.032-0.024-0.048-0.024h-0.023
					C258.096-76.279,258.088-76.287,258.072-76.287z M258.072-76.335l0.024,0.024c0,0.032,0.023,0.048,0.071,0.048h0.024v-0.024
					v-0.024c0.016,0,0.023-0.008,0.023-0.024v-0.024v-0.024h-0.023c-0.017,0-0.024-0.004-0.024-0.012
					c0-0.008-0.008-0.012-0.023-0.012l-0.024,0.024L258.072-76.335z M258.24-74.511l-0.024-0.024c-0.032,0-0.056,0.008-0.071,0.024
					v0.048h-0.024c-0.016,0.016-0.023,0.048-0.023,0.096l0.023,0.024c0.016,0,0.024-0.008,0.024-0.024h0.023
					c0-0.016,0.008-0.032,0.024-0.048c0.032-0.032,0.048-0.056,0.048-0.072V-74.511z M258.144-67.623
					c0.016,0.016,0.031,0.024,0.048,0.024l0.048-0.024c0-0.016,0.008-0.032,0.024-0.048l-0.024-0.024v-0.024h-0.024h-0.048v0.024
					c0,0.016-0.008,0.024-0.023,0.024V-67.623z M258.216-76.575c-0.016,0.016-0.016,0.032,0,0.048c0.017,0,0.024,0.008,0.024,0.024
					h0.048l0.024-0.024l0.023-0.024v-0.024c0.016-0.016,0.024-0.032,0.024-0.048c0-0.032-0.017-0.048-0.048-0.048
					c-0.032,0-0.057,0.016-0.072,0.048L258.216-76.575z M258.408-74.703c0-0.032-0.008-0.048-0.024-0.048l-0.023-0.024
					c-0.017,0-0.032,0.008-0.048,0.024v0.024c-0.032,0.032-0.032,0.057,0,0.072h0.023l0.048-0.024L258.408-74.703z M258.624-68.271
					c-0.032,0-0.071,0.028-0.12,0.084c-0.048,0.056-0.071,0.1-0.071,0.132s0.016,0.048,0.048,0.048c0.016,0,0.039-0.008,0.072-0.024
					v-0.024c0.016,0,0.023-0.008,0.023-0.024c0-0.016,0.008-0.032,0.024-0.048c0.048-0.048,0.063-0.088,0.048-0.12
					C258.648-68.263,258.639-68.271,258.624-68.271z M258.768-75.327h-0.048c-0.017,0-0.041,0.024-0.072,0.072
					c-0.032,0.032-0.048,0.056-0.048,0.072c-0.017,0.048-0.017,0.081,0,0.096c0,0.016,0.008,0.024,0.023,0.024
					s0.032-0.008,0.048-0.024c0.017-0.016,0.04-0.064,0.072-0.144l0.024-0.024v-0.024V-75.327z M258.696-68.439
					c0,0.048,0.016,0.072,0.048,0.072l0.024-0.024c0-0.016,0.016-0.04,0.048-0.072l0.023-0.048c0.017,0,0.024-0.004,0.024-0.012
					c0-0.008-0.008-0.012-0.024-0.012l-0.048-0.024c-0.016,0-0.023,0.008-0.023,0.024s-0.009,0.024-0.024,0.024
					s-0.023,0.008-0.023,0.024C258.72-68.471,258.712-68.455,258.696-68.439z M258.912-75.519c0.032,0,0.048-0.024,0.048-0.072
					v-0.024h-0.071l-0.024,0.024v0.024h-0.024v0.048c-0.016,0.016-0.023,0.032-0.023,0.048l0.023,0.024h0.024
					c0.016-0.016,0.024-0.032,0.024-0.048L258.912-75.519z M258.912-68.751v0.072h0.024c0.031,0,0.048-0.008,0.048-0.024
					c0.016,0,0.023-0.016,0.023-0.048v-0.024h-0.023l-0.024-0.024l-0.023,0.024v0.024H258.912z M259.08-75.783
					c0.016,0,0.028-0.008,0.036-0.024c0.008-0.016,0.004-0.024-0.012-0.024v-0.024h-0.024l-0.023-0.024h-0.024v0.024l-0.024,0.024
					v0.072h0.024C259.064-75.759,259.08-75.767,259.08-75.783z M259.224-69.159c-0.032,0-0.049,0.016-0.049,0.048l-0.023,0.024
					c0,0.016,0.008,0.024,0.023,0.024c0,0.016,0.009,0.024,0.024,0.024h0.024v-0.024c0.016,0,0.023-0.008,0.023-0.024
					c0.016,0,0.024-0.008,0.024-0.024v-0.024C259.272-69.151,259.256-69.159,259.224-69.159z M259.344-76.239
					c-0.017,0-0.024-0.004-0.024-0.012c0-0.008-0.008-0.012-0.024-0.012l-0.048,0.048l-0.023,0.024c0,0.016,0.003,0.024,0.012,0.024
					c0.008,0,0.012,0.008,0.012,0.024l0.048,0.024l0.024-0.024c0-0.016,0.004-0.024,0.012-0.024s0.013-0.008,0.013-0.024V-76.239z
					 M259.344-69.399c-0.049,0.048-0.057,0.08-0.024,0.096l0.048,0.048c0.016,0,0.024-0.004,0.024-0.012
					c0-0.008,0.008-0.012,0.023-0.012v-0.024l0.024-0.024v-0.024c0.016-0.016,0.023-0.04,0.023-0.072
					c0-0.016-0.016-0.024-0.048-0.024c-0.016,0-0.023,0.004-0.023,0.012c0,0.008-0.009,0.012-0.024,0.012L259.344-69.399z
					 M259.512-76.455c0-0.016,0.003-0.027,0.012-0.036c0.008-0.008,0.012-0.02,0.012-0.036h-0.023
					c-0.017-0.032-0.049-0.024-0.097,0.024l-0.048,0.096c0.032,0.032,0.056,0.048,0.072,0.048c0.016,0,0.023-0.008,0.023-0.024
					c0.017,0,0.024-0.008,0.024-0.024s0.008-0.024,0.024-0.024V-76.455z M259.704-76.839c-0.063-0.032-0.096-0.016-0.096,0.048
					v0.048h0.048h0.024c0-0.016,0.008-0.032,0.023-0.048V-76.839z"/>
				<path d="M259.271-65.559c-0.367-0.208-0.615-0.456-0.744-0.744c-0.127-0.288-0.184-0.588-0.168-0.9
					c0.017-0.312,0.072-0.62,0.168-0.924c0.097-0.304,0.192-0.568,0.288-0.792c0.145-0.384,0.328-0.752,0.553-1.104
					c0.224-0.352,0.468-0.664,0.731-0.936c0.265-0.272,0.54-0.492,0.828-0.66c0.288-0.168,0.576-0.26,0.864-0.276v-0.024
					c0.24-0.08,0.479-0.104,0.72-0.072c0.208,0.032,0.416,0.112,0.624,0.24c0.208,0.128,0.392,0.368,0.552,0.72
					c0.016,0.032,0.024,0.064,0.024,0.096c0,0.081-0.024,0.128-0.072,0.144c-0.016,0-0.028,0.004-0.036,0.012
					c-0.008,0.008-0.028,0.012-0.06,0.012c0,0.081-0.057,0.088-0.168,0.024c-0.064-0.032-0.12-0.064-0.168-0.096h-0.024
					l-0.336-0.168c-0.112-0.064-0.236-0.108-0.372-0.132c-0.136-0.024-0.275-0.012-0.42,0.036c-0.016,0.016-0.032,0.024-0.048,0.024
					c-0.304,0.128-0.64,0.424-1.008,0.888c-0.16,0.192-0.292,0.356-0.396,0.492c-0.104,0.136-0.2,0.284-0.288,0.444
					c-0.088,0.16-0.18,0.34-0.275,0.54c-0.097,0.2-0.2,0.468-0.313,0.804c-0.128,0.336-0.207,0.592-0.239,0.768
					c-0.032,0.176-0.049,0.304-0.049,0.384c0,0.096,0.024,0.152,0.072,0.168c0.24-0.048,0.508-0.22,0.804-0.516
					c0.296-0.296,0.588-0.628,0.876-0.996c0.288-0.368,0.544-0.732,0.769-1.092c0.224-0.36,0.376-0.612,0.456-0.756
					c0.031-0.08,0.1-0.208,0.204-0.384c0.104-0.176,0.204-0.28,0.3-0.312c0.032-0.032,0.075-0.056,0.132-0.072
					c0.056-0.016,0.108-0.008,0.156,0.024c0.08,0.064,0.136,0.136,0.168,0.216l0.144,0.168l0.048,0.048
					c0.032,0.032,0.068,0.06,0.108,0.084c0.04,0.024,0.076,0.068,0.108,0.132c0.031,0.128,0.039,0.224,0.023,0.288
					c0,0.064-0.023,0.12-0.072,0.168c0,0.032-0.004,0.06-0.012,0.084s-0.012,0.052-0.012,0.084l-0.072,0.168v0.048
					c-0.048,0.24-0.08,0.424-0.096,0.552c-0.017,0.128-0.032,0.224-0.048,0.288c-0.017,0.064-0.024,0.112-0.024,0.144
					c-0.016,0.08-0.04,0.236-0.072,0.468s-0.044,0.476-0.035,0.732c0.008,0.256,0.043,0.484,0.107,0.684
					c0.063,0.2,0.184,0.3,0.36,0.3c0.159,0,0.392-0.168,0.695-0.504c0.305-0.336,0.62-0.724,0.948-1.164
					c0.328-0.44,0.632-0.879,0.912-1.32c0.28-0.44,0.483-0.772,0.612-0.996l0.023-0.024c0.017-0.016,0.028-0.032,0.036-0.048
					s0.028-0.04,0.061-0.072c0.031-0.032,0.063-0.048,0.096-0.048c0.063,0.016,0.088,0.064,0.072,0.144
					c0,0.064-0.013,0.12-0.036,0.168c-0.024,0.048-0.053,0.096-0.084,0.144c0.063-0.096,0.111-0.112,0.144-0.048v0.072h-0.048
					l-0.023,0.024c-0.017,0.016-0.024,0.032-0.024,0.048v0.024c0.016,0.016,0.032,0.024,0.048,0.024s0.024-0.008,0.024-0.024
					l0.023-0.024l0.024-0.024c0,0.032-0.017,0.064-0.048,0.096c0.08-0.048,0.111-0.032,0.096,0.048c0,0.048-0.008,0.081-0.024,0.096
					v0.024c-0.016,0.032-0.023,0.056-0.023,0.072c0,0.016-0.009,0.032-0.024,0.048l-0.048,0.12
					c-0.016,0.016-0.023,0.032-0.023,0.048c-0.017,0.048-0.057,0.12-0.12,0.216c-0.112,0.192-0.261,0.424-0.444,0.696
					c-0.185,0.272-0.376,0.548-0.576,0.828c-0.2,0.28-0.404,0.548-0.611,0.804c-0.209,0.256-0.393,0.464-0.553,0.624
					c-0.176,0.176-0.356,0.296-0.54,0.36c-0.184,0.064-0.355,0.096-0.516,0.096c-0.177,0-0.36-0.024-0.552-0.072
					c-0.129-0.048-0.257-0.112-0.385-0.192c-0.111-0.08-0.231-0.172-0.359-0.276c-0.129-0.104-0.248-0.236-0.36-0.396
					c-0.08-0.096-0.132-0.244-0.156-0.444c-0.023-0.2-0.035-0.399-0.035-0.6s0.003-0.376,0.012-0.528
					c0.008-0.152,0.012-0.236,0.012-0.252c-0.016,0.016-0.1,0.156-0.252,0.42c-0.152,0.264-0.428,0.708-0.828,1.332
					c-0.24,0.368-0.464,0.624-0.672,0.768s-0.393,0.232-0.552,0.264C259.576-65.455,259.416-65.479,259.271-65.559z M259.416-68.895
					v0.048h0.048h0.024h0.023c0.017,0,0.024-0.008,0.024-0.024c0.016-0.016,0.023-0.063,0.023-0.144v-0.024h0.024v-0.096h-0.024
					v-0.024h-0.023c-0.016-0.016-0.04-0.024-0.072-0.024l-0.024,0.024v0.072c-0.016,0-0.016,0.008,0,0.024h0.049
					c0,0.016-0.004,0.028-0.013,0.036c-0.008,0.008-0.012,0.02-0.012,0.036c-0.032,0.032-0.048,0.056-0.048,0.072V-68.895z
					 M259.584-69.447c-0.016,0-0.024,0.016-0.024,0.048l0.024,0.024c0.016,0,0.023,0.004,0.023,0.012
					c0,0.008,0.009,0.012,0.024,0.012s0.024-0.008,0.024-0.024h0.023v-0.072l-0.048-0.024h-0.024
					C259.592-69.471,259.584-69.462,259.584-69.447z M259.704-69.159c0-0.032-0.008-0.048-0.024-0.048
					c0-0.016-0.008-0.024-0.023-0.024h-0.024l-0.024,0.024c-0.016,0-0.023,0.008-0.023,0.024v0.024c0,0.016,0.008,0.024,0.023,0.024
					l0.024,0.024h0.024c0.016,0,0.023-0.008,0.023-0.024h0.024V-69.159z M259.704-69.663c-0.032,0.032-0.048,0.057-0.048,0.072
					l0.023,0.024l0.024,0.024h0.023c0.017,0,0.032-0.008,0.048-0.024v-0.024c0.017,0,0.024-0.008,0.024-0.024v-0.048l-0.048-0.048
					C259.719-69.711,259.704-69.695,259.704-69.663z M259.775-69.783c0.032,0.032,0.057,0.048,0.072,0.048
					c0.032,0,0.061-0.024,0.084-0.072c0.024-0.048,0.036-0.087,0.036-0.12c0-0.016-0.008-0.032-0.024-0.048
					c0-0.032-0.032-0.032-0.096,0c-0.048,0.048-0.072,0.096-0.072,0.144V-69.783z M260.664-70.383
					c0.111-0.112,0.184-0.184,0.216-0.216c0.032-0.032,0.048-0.063,0.048-0.096l-0.024-0.024c0-0.016-0.008-0.024-0.023-0.024
					c-0.064,0-0.216,0.152-0.456,0.456c-0.064,0.048-0.128,0.136-0.192,0.264c-0.032,0.08-0.063,0.136-0.096,0.168
					c-0.08,0.032-0.141,0.112-0.18,0.24c-0.04,0.128-0.061,0.208-0.061,0.24c-0.016,0.016-0.016,0.032,0,0.048h0.048
					c0.049,0,0.093-0.036,0.133-0.108c0.039-0.072,0.075-0.147,0.107-0.228l0.048-0.096l0.049-0.096
					c0.016-0.048,0.056-0.12,0.119-0.216c0.097-0.064,0.16-0.144,0.192-0.24l0.024-0.024L260.664-70.383z M259.943-70.071
					c-0.016,0-0.016,0.008,0,0.024h0.024c0.063,0,0.111-0.04,0.144-0.12c0.017,0,0.024,0.008,0.024,0.024l0.024-0.024h0.023v-0.024
					c0.016,0,0.024-0.008,0.024-0.024l-0.024-0.048c0-0.016,0.016-0.04,0.048-0.072c0,0.016,0.008,0.024,0.024,0.024h0.024
					l0.023-0.024c0.016,0,0.024-0.008,0.024-0.024c0.016,0,0.023-0.008,0.023-0.024v-0.048l-0.023-0.024l0.071-0.096v0.048
					c0.032,0.032,0.057,0.024,0.072-0.024c0.08,0,0.12-0.048,0.12-0.144l-0.024-0.024l0.192-0.192
					c0.08-0.08,0.156-0.152,0.229-0.216c0.071-0.063,0.155-0.12,0.252-0.168c0.128-0.063,0.224-0.104,0.287-0.12h0.024
					c0.016,0,0.048,0,0.096,0c0.049,0,0.08-0.008,0.097-0.024c0.031,0,0.048-0.016,0.048-0.048l-0.024-0.024
					c-0.016,0-0.032-0.004-0.048-0.012c-0.016-0.008-0.04-0.012-0.072-0.012s-0.071,0.004-0.12,0.012
					c-0.048,0.008-0.088,0.012-0.119,0.012c-0.064,0.032-0.133,0.064-0.204,0.096c-0.072,0.033-0.132,0.064-0.181,0.096L261-71.271
					c-0.048,0.032-0.097,0.06-0.145,0.084s-0.096,0.06-0.144,0.108c-0.032,0.016-0.076,0.052-0.132,0.108
					c-0.057,0.056-0.116,0.124-0.181,0.204c0,0.016-0.004,0.024-0.012,0.024s-0.012,0.008-0.012,0.024l-0.072,0.096
					c-0.08,0.081-0.152,0.168-0.216,0.264C260.023-70.263,259.975-70.167,259.943-70.071z M260.496-70.503
					c0,0.016,0.008,0.024,0.023,0.024c0.032,0,0.048-0.008,0.048-0.024c0-0.016-0.016-0.024-0.048-0.024L260.496-70.503z
					 M261.095-70.839c0.016,0,0.024-0.004,0.024-0.012c0-0.008-0.009-0.012-0.024-0.012c0-0.032-0.016-0.048-0.048-0.048H261
					c0,0.017-0.009,0.024-0.024,0.024c-0.016,0.016-0.023,0.04-0.023,0.072c0.031,0.032,0.056,0.048,0.071,0.048l0.024-0.024
					c0.016,0,0.024-0.008,0.024-0.024C261.088-70.815,261.095-70.823,261.095-70.839z M261.288-71.031
					c-0.017,0-0.024-0.008-0.024-0.024s-0.016-0.024-0.048-0.024v0.024h-0.024c-0.016,0.016-0.023,0.032-0.023,0.048v0.024
					c0.016,0.016,0.031,0.024,0.048,0.024v0.024h0.024l0.023-0.024h0.024V-71.031z M262.943-67.455c0-0.016-0.008-0.024-0.023-0.024
					c-0.08,0-0.128,0.008-0.145,0.024c0.017,0.016,0.024,0.032,0.024,0.048c0,0.032,0.008,0.056,0.024,0.072h0.119v-0.024h0.024
					l0.024-0.024v-0.024v-0.024v-0.024H262.943z M262.92-67.215h-0.072c-0.016,0-0.023,0.008-0.023,0.024H262.8l0.024,0.024
					c0.016,0.016,0.031,0.024,0.048,0.024h0.048h0.023v-0.024l-0.023-0.024V-67.215z M262.992-67.695l0.023-0.024h-0.023
					l-0.049-0.024h-0.023c-0.032,0-0.048,0.008-0.048,0.024h-0.024v0.024c0,0.032,0.032,0.04,0.096,0.024v-0.024H262.992z
					 M263.399-69.591c0.032-0.08,0.049-0.148,0.049-0.204c0-0.056,0.016-0.124,0.048-0.204v-0.024l-0.024-0.024h-0.023
					c-0.032,0.016-0.064,0.064-0.097,0.144s-0.063,0.168-0.096,0.264c-0.032,0.112-0.057,0.24-0.072,0.384
					c-0.032,0.096-0.048,0.184-0.048,0.264c-0.032,0.048-0.048,0.104-0.048,0.168s-0.009,0.128-0.024,0.192
					c-0.063,0.032-0.1,0.072-0.107,0.12c-0.009,0.048-0.013,0.096-0.013,0.144c-0.016,0.032-0.023,0.056-0.023,0.072
					c-0.017,0.032-0.032,0.072-0.048,0.12c-0.017,0.048-0.017,0.088,0,0.12c0,0.064,0.008,0.096,0.023,0.096
					c0,0.016,0.032,0.024,0.097,0.024c0.048-0.016,0.071-0.072,0.071-0.168l-0.023-0.024c0.048-0.096,0.071-0.2,0.071-0.312
					c0-0.048,0.009-0.1,0.024-0.156s0.024-0.116,0.024-0.18v-0.024c0-0.016,0.008-0.032,0.023-0.048c0-0.048,0.016-0.088,0.048-0.12
					c-0.016-0.032-0.016-0.06,0-0.084s0.016-0.044,0-0.06c0.064-0.08,0.092-0.164,0.084-0.252S263.336-69.527,263.399-69.591z
					 M265.319-66.975l0.024,0.024c0.032,0,0.072-0.028,0.12-0.084s0.072-0.1,0.072-0.132v-0.024l-0.024-0.024
					c-0.048,0-0.088,0.04-0.12,0.12l-0.072,0.096V-66.975z M265.607-67.383v0.048h0.024c0.016,0,0.04-0.012,0.072-0.036
					c0.031-0.024,0.048-0.052,0.048-0.084v-0.024l-0.024-0.024c-0.016,0-0.04,0.016-0.071,0.048c-0.017,0-0.024,0.008-0.024,0.024
					C265.615-67.415,265.607-67.399,265.607-67.383z M265.8-67.647v0.024c0.016,0,0.024,0.008,0.024,0.024
					c0.016,0,0.023-0.008,0.023-0.024c0.048,0,0.072-0.016,0.072-0.048v-0.024c-0.017-0.016-0.032-0.024-0.048-0.024h-0.024
					c0,0.016-0.008,0.024-0.023,0.024v0.024L265.8-67.647z M266.088-68.031l0.023,0.024h0.024c0.032,0,0.056-0.012,0.072-0.036
					c0.016-0.024,0.031-0.044,0.048-0.06c0.048-0.048,0.072-0.087,0.072-0.12s-0.017-0.048-0.048-0.048
					c-0.033,0-0.068,0.036-0.108,0.108c-0.04,0.072-0.068,0.108-0.084,0.108V-68.031z M266.376-68.391h0.023
					c0.017,0,0.04-0.016,0.072-0.048c0.032-0.032,0.048-0.056,0.048-0.072l-0.023-0.024l-0.024-0.024
					c-0.016,0-0.032,0.008-0.048,0.024v0.024l-0.024,0.024c-0.016,0.016-0.023,0.032-0.023,0.048V-68.391z M266.567-68.679
					c0,0.016,0.008,0.024,0.024,0.024c0.032,0,0.048-0.016,0.048-0.048h0.024c0-0.016,0.008-0.032,0.023-0.048l-0.048-0.048
					c-0.016,0-0.032,0.008-0.048,0.024v0.024l-0.024,0.024V-68.679z M266.855-69.135c-0.016,0.016-0.023,0.032-0.023,0.048
					c-0.017,0-0.017,0.008,0,0.024v0.024h0.048l0.023-0.024l0.024-0.024v-0.072h-0.024
					C266.871-69.159,266.855-69.151,266.855-69.135z M267.095-69.327c0.032-0.048,0.04-0.08,0.024-0.096l-0.024-0.024
					c-0.016,0-0.023,0.004-0.023,0.012c0,0.008-0.009,0.012-0.024,0.012L267-69.375c-0.017,0.016-0.024,0.032-0.024,0.048v0.024
					c0.032,0.032,0.056,0.048,0.072,0.048l0.024-0.024c0-0.016,0.008-0.024,0.023-0.024V-69.327z"/>
			</g>
		</g>
	</g>
	<g id="Sol" display="inline">
	</g>
</g>
<g id="Capa_4">
	<g>
		<circle fill="#00A99D" cx="263.081" cy="-93.089" r="26.686"/>
		<g>
			<defs>
				<circle id="SVGID_16_" cx="263.081" cy="-93.089" r="26.686"/>
			</defs>
			<clipPath id="SVGID_1_">
				<use xlink:href="#SVGID_16_"  overflow="visible"/>
			</clipPath>
			<g clip-path="url(#SVGID_1_)">
				<rect x="263.081" y="-82.635" fill="#AFDEA3" width="1.152" height="27.014"/>
				<circle fill="#FFFFFF" cx="263.669" cy="-97.955" r="4.268"/>
				<g>
					<ellipse fill="#FEDB00" cx="263.669" cy="-107.749" rx="1.728" ry="5.526"/>
					<ellipse fill="#FEDB00" cx="263.669" cy="-88.161" rx="1.728" ry="5.526"/>
					<ellipse fill="#FEDB00" cx="253.875" cy="-97.955" rx="5.526" ry="1.728"/>
					<ellipse fill="#FEDB00" cx="273.464" cy="-97.955" rx="5.526" ry="1.728"/>
					
						<ellipse transform="matrix(0.7072 0.707 -0.707 0.7072 5.0779 -222.0224)" fill="#FEDB00" cx="270.595" cy="-104.881" rx="1.727" ry="5.526"/>
					
						<ellipse transform="matrix(0.7071 0.7072 -0.7072 0.7071 10.8406 -208.2267)" fill="#FEDB00" cx="256.744" cy="-91.029" rx="1.728" ry="5.526"/>
					
						<ellipse transform="matrix(0.7072 -0.7071 0.7071 0.7072 149.3439 150.8199)" fill="#FEDB00" cx="256.744" cy="-104.881" rx="1.727" ry="5.525"/>
					
						<ellipse transform="matrix(0.7071 -0.7071 0.7071 0.7071 143.6246 164.6788)" fill="#FEDB00" cx="270.595" cy="-91.029" rx="1.728" ry="5.526"/>
				</g>
				<path fill="#AFDEA3" d="M276.83-74.206c-5.268,7.911-12.032,12.665-12.032,12.665s1.779-8.073,7.047-15.985
					c5.268-7.911,12.032-12.666,12.032-12.666S282.098-82.117,276.83-74.206z"/>
				<path fill="#AFDEA3" d="M250.778-69.218c5.268,7.911,12.032,12.665,12.032,12.665s-1.779-8.073-7.047-15.985
					c-5.268-7.911-12.032-12.665-12.032-12.665S245.51-77.13,250.778-69.218z"/>
			</g>
		</g>
	</g>
</g>
</svg>
