<?xml version="1.0" encoding="utf-8"?>
<!-- Generator: Adobe Illustrator 17.0.0, SVG Export Plug-In . SVG Version: 6.00 Build 0)  -->
<!DOCTYPE svg PUBLIC "-//W3C//DTD SVG 1.1//EN" "http://www.w3.org/Graphics/SVG/1.1/DTD/svg11.dtd">
<svg version="1.1" xmlns="http://www.w3.org/2000/svg" xmlns:xlink="http://www.w3.org/1999/xlink" x="0px" y="0px"
	 width="55.692px" height="55.692px" viewBox="94.351 91.346 55.692 55.692" enable-background="new 94.351 91.346 55.692 55.692"
	 xml:space="preserve">
<g id="fondo" display="none">
</g>
<g id="Capa_1" display="none">
	<g id="Sol" display="inline">
	</g>
</g>
<g id="Capa_4">
	<g>
		<g>
			<defs>
				<circle id="SVGID_4_" cx="122.197" cy="119.192" r="26.155"/>
			</defs>
			<clipPath id="SVGID_1_">
				<use xlink:href="#SVGID_4_"  overflow="visible"/>
			</clipPath>
			<g clip-path="url(#SVGID_1_)">
				<path fill="#000B37" d="M77.511,178.817c4.987-5.603,9.919-11.256,14.868-16.892c5.494-6.258,10.98-12.523,16.454-18.799
					c0.264,0.242,0.679,0.318,0.999-0.016c5.07-5.288,10.411-10.565,15.017-16.276c0.146,0.016,0.296-0.02,0.425-0.097
					c0.185,0.075,0.401,0.085,0.622-0.013c2.785-1.231,5.607-2.401,8.36-3.7c1.881-0.887,3.522-2.024,4.26-4.043
					c1.462-4.002-1.026-7.97-4.256-10.226c-3.171-2.215-8.075-4.388-11.536-1.609c-1.693,1.359-2.165,3.637-2.666,5.646
					c-0.67,2.684-1.198,5.406-1.506,8.16c-2.526,2.647-4.736,5.695-6.999,8.57c-2.285,2.904-4.595,5.792-6.824,8.741
					c-0.06,0.079-0.099,0.161-0.125,0.244c-0.111,0.02-0.222,0.08-0.322,0.195c-9.917,11.415-19.325,23.378-28.705,35.243
					c-1.084,1.371-3.841,3.845-2.434,5.852C74.463,181.682,76.488,179.967,77.511,178.817z M119.747,121.063
					c0.589-3.507,1.105-7.197,2.324-10.538c1.88-5.151,7.569-3.323,11.004-0.926c3.062,2.137,6.206,6.798,3.172,10.283
					c-1.354,1.555-3.715,2.243-5.541,3.054c-0.849,0.377-1.697,0.754-2.546,1.132c3.523-2.042,7.138-4.484,8.169-8.473
					c0.078-0.303-0.373-0.408-0.466-0.116c-1.542,4.846-6.833,7.067-10.745,9.731c-0.04-0.057-0.079-0.115-0.12-0.171
					c3.925-2.734,8.005-5.805,10.167-10.204c0.146-0.298-0.288-0.537-0.454-0.249c-2.473,4.289-6.164,7.092-10.059,9.995
					c-0.039-0.049-0.077-0.101-0.117-0.149c3.587-3.451,7.998-7.09,10.119-11.688c0.123-0.266-0.246-0.469-0.401-0.219
					c-2.745,4.421-6.454,7.814-10.055,11.503c0,0-0.001-0.001-0.001-0.001c3.218-3.971,6.169-8.272,9.08-12.474
					c0.184-0.265-0.267-0.599-0.464-0.339c-3.062,4.054-6.201,8.174-8.957,12.45c-0.069-0.07-0.136-0.142-0.206-0.21
					c3.021-4.131,5.731-8.554,8.512-12.852c0.198-0.306-0.298-0.571-0.497-0.272c-2.822,4.224-5.789,8.431-8.367,12.81
					c-0.098-0.086-0.193-0.177-0.294-0.259c1.498-1.893,2.809-3.95,4.07-6.008c1.437-2.346,2.597-4.924,4.325-7.071
					c0.234-0.291-0.191-0.7-0.428-0.405c-1.541,1.918-2.596,4.159-3.849,6.267c-1.41,2.372-2.997,4.61-4.518,6.907
					c-0.083-0.061-0.164-0.123-0.249-0.181c3.215-3.754,5.506-8.613,6.66-13.42c0.087-0.362-0.454-0.493-0.557-0.139
					c-1.44,4.939-3.623,9.088-6.548,13.269c-0.079-0.049-0.155-0.1-0.235-0.146c0.023-0.018,0.046-0.035,0.064-0.062
					c3.029-4.403,4.184-9.22,5.947-14.185c0.105-0.297-0.389-0.492-0.517-0.202c-0.967,2.193-1.393,4.579-2.187,6.836
					c-0.914,2.597-2.192,5.012-3.719,7.291c-0.019,0.028-0.027,0.055-0.034,0.082c-0.075-0.039-0.147-0.081-0.222-0.118
					c0.019-0.018,0.037-0.039,0.052-0.069c2.103-4.281,4.114-8.823,4.829-13.586c0.054-0.357-0.471-0.501-0.551-0.138
					c-1.062,4.768-2.921,8.985-4.681,13.503c-0.017,0.043-0.018,0.083-0.013,0.122c-0.078-0.035-0.154-0.074-0.233-0.107
					c0.052-0.033,0.098-0.08,0.123-0.153c1.41-4.146,2.811-8.486,3.728-12.774c0.05-0.235-0.317-0.405-0.41-0.161
					c-1.574,4.112-2.778,8.526-3.863,12.798c-0.011,0.045-0.013,0.086-0.007,0.123C119.901,121.124,119.826,121.09,119.747,121.063z
					 M112.875,130.253c2.108-2.714,4.36-5.402,6.244-8.284c2.073,0.804,3.786,2.206,4.976,4.069
					c-5.253,4.815-10.056,10.303-14.871,15.565c-0.121-0.101-0.269-0.162-0.422-0.16c-0.417-0.397-0.87-0.759-1.306-1.134
					c-0.505-0.434-0.993-0.873-1.529-1.256C108.312,136.155,110.589,133.197,112.875,130.253z M75.939,178.627
					c-0.261-0.128-0.522-0.255-0.784-0.383c-0.847-0.098-1.008-0.361-0.482-0.789c0.254-0.653,1.074-1.336,1.52-1.875
					c1.055-1.275,2.104-2.555,3.145-3.841c4.005-4.95,8.022-9.891,12.016-14.85c4.594-5.704,9.268-11.354,13.676-17.205
					c0.474,0.576,1.013,1.077,1.558,1.593c0.381,0.361,0.754,0.743,1.148,1.097c-8.239,9.338-16.465,18.689-24.649,28.075
					c-2.089,2.396-4.172,4.798-6.27,7.187C76.668,177.804,76.121,178.596,75.939,178.627z"/>
				<path fill="#000B37" d="M109.96,140.339c-0.002-0.129-0.05-0.238-0.094-0.357c-0.141-0.381-0.751-0.162-0.592,0.204
					c0.064,0.147,0.116,0.268,0.226,0.387C109.679,140.764,109.963,140.553,109.96,140.339z"/>
				<path fill="#000B37" d="M110.898,139.133c-0.012-0.147-0.076-0.266-0.138-0.398c-0.144-0.309-0.645-0.148-0.51,0.176
					c0.067,0.161,0.121,0.301,0.24,0.43C110.64,139.503,110.914,139.329,110.898,139.133z"/>
				<path fill="#000B37" d="M111.805,138.284c-0.056-0.176-0.173-0.292-0.294-0.426c-0.222-0.246-0.623,0.001-0.437,0.299
					c0.093,0.15,0.175,0.306,0.324,0.406C111.6,138.698,111.887,138.542,111.805,138.284z"/>
				<path fill="#000B37" d="M112.523,137.704c-0.064-0.168-0.174-0.319-0.267-0.473c-0.154-0.253-0.522,0.006-0.377,0.259
					c0.078,0.137,0.149,0.291,0.25,0.412C112.28,138.083,112.62,137.956,112.523,137.704z"/>
				<path fill="#000B37" d="M113.105,136.689c-0.059-0.142-0.147-0.259-0.235-0.384c-0.184-0.261-0.563,0.007-0.405,0.277
					c0.078,0.133,0.149,0.257,0.254,0.371C112.883,137.13,113.193,136.9,113.105,136.689z"/>
				<path fill="#000B37" d="M113.632,135.726c-0.018-0.132-0.063-0.254-0.104-0.38c-0.095-0.29-0.538-0.136-0.447,0.154
					c0.04,0.128,0.077,0.251,0.139,0.37C113.325,136.069,113.661,135.939,113.632,135.726z"/>
				<path fill="#000B37" d="M114.368,135.12c0.052-0.215-0.061-0.442-0.126-0.646c-0.104-0.328-0.579-0.152-0.498,0.172
					c0.055,0.221,0.079,0.444,0.246,0.609C114.123,135.385,114.33,135.276,114.368,135.12z"/>
				<path fill="#000B37" d="M115.128,134.011c-0.017-0.176-0.096-0.341-0.157-0.506c-0.111-0.3-0.567-0.143-0.47,0.162
					c0.054,0.168,0.093,0.347,0.188,0.497C114.817,134.366,115.151,134.246,115.128,134.011z"/>
				<path fill="#000B37" d="M115.84,133.331c-0.038-0.239-0.154-0.451-0.252-0.67c-0.138-0.31-0.638-0.145-0.504,0.174
					c0.092,0.218,0.165,0.464,0.311,0.652C115.531,133.661,115.881,133.588,115.84,133.331z"/>
				<path fill="#000B37" d="M116.708,132.532c-0.04-0.248-0.154-0.479-0.247-0.711c-0.117-0.296-0.582-0.139-0.47,0.162
					c0.087,0.233,0.156,0.488,0.291,0.698C116.403,132.867,116.746,132.765,116.708,132.532z"/>
				<path fill="#000B37" d="M117.398,131.277c-0.002-0.219-0.099-0.45-0.157-0.66c-0.067-0.238-0.477-0.16-0.43,0.088
					c0.04,0.213,0.054,0.466,0.149,0.661C117.068,131.593,117.401,131.546,117.398,131.277z"/>
				<path fill="#000B37" d="M118.438,130.418c-0.037-0.213-0.156-0.402-0.251-0.594c-0.06-0.122-0.178-0.201-0.318-0.155
					c-0.119,0.04-0.21,0.195-0.155,0.318c0.086,0.19,0.154,0.424,0.29,0.583C118.139,130.727,118.484,130.677,118.438,130.418z"/>
				<path fill="#000B37" d="M119.108,129.546c0.024-0.308-0.164-0.613-0.292-0.885c-0.132-0.282-0.564-0.148-0.467,0.161
					c0.089,0.282,0.158,0.653,0.381,0.859C118.851,129.791,119.094,129.719,119.108,129.546z"/>
				<path fill="#000B37" d="M119.863,128.85c-0.008-0.273-0.125-0.566-0.193-0.83c-0.074-0.288-0.488-0.131-0.43,0.148
					c0.052,0.247,0.073,0.543,0.178,0.773C119.524,129.172,119.871,129.12,119.863,128.85z"/>
				<path fill="#000B37" d="M120.745,127.828c-0.074-0.248-0.203-0.488-0.306-0.725c-0.117-0.267-0.542-0.127-0.433,0.149
					c0.103,0.262,0.191,0.537,0.326,0.784C120.463,128.276,120.816,128.068,120.745,127.828z"/>
				<path fill="#000B37" d="M121.505,127.205c0.047-0.172,0.029-0.355,0.025-0.532c-0.004-0.181-0.008-0.362-0.012-0.543
					c-0.007-0.307-0.459-0.262-0.468,0.034c-0.011,0.343-0.077,0.739,0.011,1.073C121.124,127.48,121.45,127.406,121.505,127.205z"
					/>
				<path fill="#000B37" d="M122.787,125.929c-0.066-0.235-0.208-0.461-0.314-0.68c-0.059-0.122-0.178-0.2-0.316-0.154
					c-0.118,0.039-0.209,0.194-0.154,0.316c0.109,0.242,0.201,0.516,0.352,0.735C122.516,126.379,122.86,126.189,122.787,125.929z"
					/>
			</g>
		</g>
		<circle fill="none" stroke="#000B37" stroke-width="2.2738" stroke-miterlimit="10" cx="122.197" cy="119.192" r="26.155"/>
	</g>
	<g>
		<g>
			<defs>
				<circle id="SVGID_6_" cx="68.825" cy="62.281" r="26.155"/>
			</defs>
			<clipPath id="SVGID_3_">
				<use xlink:href="#SVGID_6_"  overflow="visible"/>
			</clipPath>
		</g>
	</g>
</g>
</svg>
