<?xml version="1.0" encoding="utf-8"?>
<!-- Generator: Adobe Illustrator 17.0.0, SVG Export Plug-In . SVG Version: 6.00 Build 0)  -->
<!DOCTYPE svg PUBLIC "-//W3C//DTD SVG 1.1//EN" "http://www.w3.org/Graphics/SVG/1.1/DTD/svg11.dtd">
<svg version="1.1" xmlns="http://www.w3.org/2000/svg" xmlns:xlink="http://www.w3.org/1999/xlink" x="0px" y="0px"
	 width="55.692px" height="55.692px" viewBox="168.752 -58.848 55.692 55.692"
	 enable-background="new 168.752 -58.848 55.692 55.692" xml:space="preserve">
<g id="fondo" display="none">
	<rect x="166.592" y="-90.47" display="inline" fill="#FFFFFF" width="180.667" height="122.28"/>
</g>
<g id="Capa_1" display="none">
	<text transform="matrix(1 0 0 1 216.7224 -43.1734)" display="inline"><tspan x="0" y="0" font-family="'SegoeUIEmoji'" font-size="4.8331">Estación</tspan><tspan x="0" y="5.8" font-family="'SegoeUIEmoji'" font-size="4.8331">del año</tspan></text>
	<g id="Sol" display="inline">
	</g>
</g>
<g id="Capa_4">
	<g>
		<g>
			<path fill="none" stroke="#000B37" stroke-width="1.4701" stroke-miterlimit="10" d="M196.579-39.694v0.01
				c0.007,0,0.012-0.004,0.019-0.005c0.007,0.001,0.012,0.004,0.019,0.005v-0.01c0.585-0.061,1.044-0.544,1.044-1.144v-7.269
				c0-0.601-0.46-1.084-1.044-1.144v-0.01c-0.007,0-0.012,0.004-0.019,0.005c-0.007-0.001-0.012-0.004-0.019-0.005v0.01
				c-0.585,0.061-1.044,0.544-1.044,1.144v7.269C195.535-40.238,195.995-39.755,196.579-39.694z"/>
			<path fill="none" stroke="#000B37" stroke-width="1.4701" stroke-miterlimit="10" d="M188.023-31.002
				c0-0.642-0.521-1.163-1.163-1.163h-7.268c-0.642,0-1.163,0.52-1.163,1.163c0,0.642,0.52,1.163,1.163,1.163h7.268
				C187.502-29.839,188.023-30.36,188.023-31.002z"/>
			<path fill="none" stroke="#000B37" stroke-width="1.4701" stroke-miterlimit="10" d="M188.92-24.868l-5.14,5.14
				c-0.454,0.454-0.454,1.19,0,1.644c0.454,0.454,1.19,0.454,1.644,0l5.14-5.14c0.454-0.454,0.454-1.19,0-1.644
				C190.109-25.322,189.374-25.322,188.92-24.868z"/>
			<path fill="none" stroke="#000B37" stroke-width="1.4701" stroke-miterlimit="10" d="M188.92-37.136
				c0.454,0.454,1.19,0.454,1.644,0c0.454-0.454,0.454-1.19,0-1.644l-5.14-5.14c-0.454-0.454-1.19-0.454-1.644,0
				c-0.454,0.454-0.454,1.19,0,1.644L188.92-37.136z"/>
			<path fill="none" stroke="#000B37" stroke-width="1.4701" stroke-miterlimit="10" d="M196.617-38.428v-0.004
				c-0.006,0-0.012,0.002-0.019,0.002c-0.006,0-0.012-0.002-0.019-0.002v0.004c-4.018,0.064-7.256,3.335-7.256,7.368
				c0,4.033,3.239,7.304,7.256,7.368v0.004c0.006,0,0.012-0.002,0.019-0.002c0.006,0,0.012,0.002,0.019,0.002v-0.004
				c4.018-0.064,7.256-3.335,7.256-7.368C203.873-35.093,200.635-38.364,196.617-38.428z"/>
			<path fill="none" stroke="#000B37" stroke-width="1.4701" stroke-miterlimit="10" d="M196.617-22.309v-0.01
				c-0.007,0-0.012,0.004-0.019,0.005c-0.007-0.001-0.012-0.004-0.019-0.005v0.01c-0.585,0.061-1.044,0.544-1.044,1.145v7.268
				c0,0.601,0.46,1.084,1.044,1.144v0.01c0.007,0,0.012-0.004,0.019-0.005c0.007,0.001,0.012,0.004,0.019,0.005v-0.01
				c0.585-0.061,1.044-0.544,1.044-1.144v-7.268C197.661-21.766,197.202-22.249,196.617-22.309z"/>
			<path fill="none" stroke="#000B37" stroke-width="1.4701" stroke-miterlimit="10" d="M213.604-32.164h-7.268
				c-0.642,0-1.163,0.52-1.163,1.163c0,0.642,0.52,1.163,1.163,1.163h7.268c0.642,0,1.163-0.521,1.163-1.163
				C214.767-31.644,214.246-32.164,213.604-32.164z"/>
			<path fill="none" stroke="#000B37" stroke-width="1.4701" stroke-miterlimit="10" d="M204.277-24.868
				c-0.454-0.454-1.19-0.454-1.644,0c-0.454,0.454-0.454,1.19,0,1.644l5.14,5.14c0.454,0.454,1.19,0.454,1.644,0
				c0.454-0.454,0.454-1.19,0-1.644L204.277-24.868z"/>
			<path fill="none" stroke="#000B37" stroke-width="1.4701" stroke-miterlimit="10" d="M204.277-37.136l5.14-5.14
				c0.454-0.454,0.454-1.19,0-1.644c-0.454-0.454-1.19-0.454-1.644,0l-5.14,5.14c-0.454,0.454-0.454,1.19,0,1.644
				C203.087-36.682,203.823-36.682,204.277-37.136z"/>
		</g>
		<circle fill="none" stroke="#000B37" stroke-width="2.2738" stroke-miterlimit="10" cx="196.598" cy="-31.002" r="26.155"/>
	</g>
</g>
</svg>
