<?xml version="1.0" encoding="utf-8"?>
<!-- Generator: Adobe Illustrator 17.0.0, SVG Export Plug-In . SVG Version: 6.00 Build 0)  -->
<!DOCTYPE svg PUBLIC "-//W3C//DTD SVG 1.1//EN" "http://www.w3.org/Graphics/SVG/1.1/DTD/svg11.dtd">
<svg version="1.1" xmlns="http://www.w3.org/2000/svg" xmlns:xlink="http://www.w3.org/1999/xlink" x="0px" y="0px"
	 width="53.372px" height="53.372px" viewBox="-29.988 92.506 53.372 53.372" enable-background="new -29.988 92.506 53.372 53.372"
	 xml:space="preserve">
<g id="fondo" display="none">
</g>
<g id="Capa_1" display="none">
	<g id="Sol" display="inline">
	</g>
</g>
<g id="Capa_4">
	<g>
		<circle fill="#00A99D" cx="-3.302" cy="119.192" r="26.686"/>
		<g>
			<defs>
				<circle id="SVGID_8_" cx="-3.302" cy="119.192" r="26.686"/>
			</defs>
			<clipPath id="SVGID_1_">
				<use xlink:href="#SVGID_8_"  overflow="visible"/>
			</clipPath>
			<g clip-path="url(#SVGID_1_)">
				<path fill="#FCA33A" d="M-19.861,139.456l13.42-17.432c0,0,4.239,0.347,5.532,4.607c0.313,0.358-15.241,15.955-15.241,15.955
					L-19.861,139.456z"/>
				<path fill="#FEF2A0" d="M-5.682,120.383c0,0,1.652-11.527,3.506-12.515c1.273-0.679,2.356-4.68,11.031,1.282
					s2.865,11.654,2.172,12.449c-0.693,0.796-9.089,3.17-11.307,4.714c-0.979-2.19-2.753-4.078-5.52-5.212L-5.682,120.383z"/>
				<path fill="#000B37" d="M-48.895,180.028c5.088-5.717,10.121-11.484,15.17-17.235c5.606-6.385,11.203-12.777,16.788-19.18
					c0.27,0.247,0.693,0.324,1.019-0.016c5.173-5.396,10.622-10.78,15.322-16.606c0.149,0.016,0.302-0.02,0.434-0.099
					c0.189,0.076,0.409,0.086,0.634-0.013c2.842-1.256,5.721-2.45,8.53-3.776c1.919-0.905,3.593-2.065,4.346-4.125
					c1.492-4.083-1.047-8.132-4.343-10.433c-3.235-2.259-8.239-4.477-11.77-1.642c-1.727,1.387-2.209,3.711-2.721,5.761
					c-0.684,2.739-1.222,5.515-1.536,8.325c-2.577,2.701-4.832,5.811-7.141,8.744c-2.332,2.963-4.689,5.91-6.963,8.918
					c-0.061,0.081-0.354,0.33-0.456,0.448c-10.118,11.647-19.718,23.853-29.288,35.958c-1.106,1.398-3.919,3.923-2.483,5.971
					C-52.004,182.95-49.939,181.201-48.895,180.028z M-5.801,121.101c0.601-3.579,1.127-7.343,2.371-10.752
					c1.918-5.255,7.722-3.391,11.227-0.945c3.124,2.18,6.332,6.936,3.237,10.492c-1.381,1.587-3.79,2.288-5.654,3.116
					c-0.866,0.384-1.732,0.77-2.598,1.155c3.595-2.083,7.283-4.575,8.335-8.645c0.08-0.309-0.381-0.416-0.475-0.119
					c-1.573,4.945-6.972,7.21-10.963,9.929c-0.041-0.058-0.081-0.117-0.122-0.175c4.005-2.789,8.167-5.923,10.374-10.411
					c0.149-0.304-0.294-0.548-0.464-0.254c-2.524,4.376-6.29,7.236-10.263,10.198c-0.04-0.05-0.079-0.103-0.119-0.152
					c3.66-3.521,8.16-7.234,10.325-11.925c0.125-0.272-0.251-0.478-0.409-0.224c-2.801,4.51-6.585,7.973-10.259,11.737
					c0,0-0.001-0.001-0.001-0.001c3.284-4.052,6.294-8.44,9.264-12.727c0.187-0.27-0.273-0.611-0.474-0.345
					c-3.124,4.136-6.327,8.34-9.139,12.703c-0.07-0.071-0.138-0.145-0.21-0.214c3.083-4.214,5.848-8.727,8.685-13.113
					c0.202-0.312-0.304-0.582-0.507-0.278c-2.879,4.309-5.906,8.602-8.537,13.07c-0.1-0.088-0.197-0.18-0.3-0.265
					c1.528-1.931,2.866-4.03,4.152-6.13c1.466-2.394,2.65-5.023,4.413-7.215c0.239-0.297-0.195-0.714-0.436-0.414
					c-1.572,1.957-2.649,4.243-3.928,6.395c-1.438,2.42-3.058,4.704-4.609,7.048c-0.084-0.062-0.168-0.125-0.254-0.185
					c3.28-3.83,5.617-8.788,6.795-13.693c0.089-0.369-0.463-0.503-0.569-0.142c-1.47,5.039-3.697,9.272-6.681,13.538
					c-0.08-0.05-0.158-0.102-0.24-0.149c0.023-0.018,0.046-0.036,0.065-0.063c3.09-4.493,4.269-9.407,6.068-14.473
					c0.108-0.303-0.397-0.502-0.528-0.207c-0.987,2.237-1.421,4.672-2.232,6.975c-0.933,2.65-2.237,5.113-3.794,7.439
					c-0.019,0.029-0.027,0.056-0.034,0.084c-0.076-0.04-0.15-0.083-0.227-0.121c0.02-0.019,0.038-0.04,0.053-0.07
					c2.146-4.368,4.198-9.002,4.927-13.862c0.055-0.364-0.48-0.511-0.563-0.141c-1.083,4.865-2.98,9.167-4.776,13.777
					c-0.017,0.044-0.018,0.085-0.013,0.125c-0.08-0.035-0.157-0.076-0.238-0.109c0.053-0.033,0.1-0.082,0.125-0.156
					c1.439-4.23,2.868-8.658,3.804-13.033c0.051-0.24-0.323-0.413-0.419-0.164c-1.606,4.196-2.834,8.7-3.942,13.058
					c-0.012,0.046-0.013,0.088-0.007,0.126C-5.643,121.164-5.72,121.128-5.801,121.101z M-12.812,130.477
					c2.15-2.769,4.449-5.512,6.371-8.453c2.115,0.821,3.863,2.251,5.077,4.152c-5.36,4.913-10.261,10.512-15.173,15.881
					c-0.123-0.103-0.274-0.165-0.43-0.163c-0.425-0.405-0.887-0.774-1.332-1.157c-0.515-0.443-1.013-0.891-1.56-1.281
					C-17.468,136.499-15.145,133.482-12.812,130.477z M-50.498,179.834c-0.267-0.13-0.533-0.261-0.8-0.391
					c-0.865-0.1-1.028-0.368-0.492-0.805c0.259-0.666,1.095-1.363,1.55-1.913c1.076-1.301,2.147-2.607,3.209-3.919
					c4.087-5.051,8.185-10.092,12.26-15.152c4.687-5.82,9.456-11.585,13.954-17.554c0.483,0.587,1.033,1.099,1.589,1.626
					c0.389,0.368,0.769,0.758,1.171,1.119c-8.406,9.528-16.799,19.068-25.15,28.645c-2.132,2.445-4.257,4.895-6.397,7.333
					C-49.755,178.994-50.313,179.802-50.498,179.834z"/>
				<path fill="#000B37" d="M-15.786,140.768c-0.002-0.131-0.051-0.243-0.096-0.364c-0.144-0.389-0.767-0.166-0.604,0.208
					c0.065,0.15,0.118,0.274,0.23,0.394C-16.074,141.202-15.784,140.987-15.786,140.768z"/>
				<path fill="#000B37" d="M-14.83,139.538c-0.013-0.15-0.078-0.271-0.141-0.406c-0.147-0.315-0.658-0.151-0.52,0.179
					c0.069,0.164,0.123,0.308,0.245,0.439C-15.093,139.915-14.813,139.738-14.83,139.538z"/>
				<path fill="#000B37" d="M-13.904,138.672c-0.057-0.18-0.177-0.298-0.3-0.435c-0.227-0.251-0.635,0.001-0.446,0.306
					c0.095,0.153,0.178,0.312,0.331,0.414C-14.114,139.094-13.821,138.935-13.904,138.672z"/>
				<path fill="#000B37" d="M-13.171,138.08c-0.066-0.172-0.177-0.326-0.273-0.482c-0.158-0.258-0.532,0.006-0.385,0.264
					c0.08,0.14,0.152,0.297,0.255,0.421C-13.419,138.466-13.073,138.337-13.171,138.08z"/>
				<path fill="#000B37" d="M-12.578,137.044c-0.06-0.144-0.15-0.264-0.24-0.392c-0.187-0.266-0.574,0.007-0.413,0.283
					c0.079,0.136,0.152,0.262,0.259,0.378C-12.804,137.494-12.488,137.26-12.578,137.044z"/>
				<path fill="#000B37" d="M-12.04,136.062c-0.018-0.135-0.064-0.259-0.106-0.388c-0.096-0.296-0.549-0.138-0.456,0.157
					c0.041,0.131,0.078,0.256,0.142,0.377C-12.354,136.412-12.011,136.279-12.04,136.062z"/>
				<path fill="#000B37" d="M-11.289,135.443c0.053-0.22-0.062-0.451-0.128-0.659c-0.106-0.334-0.591-0.155-0.508,0.175
					c0.056,0.226,0.081,0.453,0.251,0.621C-11.54,135.714-11.328,135.603-11.289,135.443z"/>
				<path fill="#000B37" d="M-10.513,134.312c-0.017-0.18-0.098-0.348-0.16-0.516c-0.113-0.306-0.578-0.146-0.479,0.165
					c0.055,0.172,0.095,0.354,0.192,0.507C-10.831,134.674-10.491,134.552-10.513,134.312z"/>
				<path fill="#000B37" d="M-9.788,133.618c-0.039-0.244-0.157-0.46-0.257-0.684c-0.141-0.316-0.651-0.147-0.514,0.177
					c0.094,0.223,0.168,0.473,0.317,0.665C-10.103,133.955-9.746,133.88-9.788,133.618z"/>
				<path fill="#000B37" d="M-8.902,132.803c-0.041-0.253-0.158-0.488-0.252-0.726c-0.12-0.302-0.593-0.142-0.479,0.165
					c0.089,0.238,0.159,0.498,0.297,0.712C-9.213,133.145-8.863,133.04-8.902,132.803z"/>
				<path fill="#000B37" d="M-8.197,131.523c-0.002-0.224-0.101-0.459-0.161-0.673c-0.068-0.243-0.487-0.163-0.439,0.09
					c0.041,0.217,0.056,0.475,0.152,0.675C-8.534,131.844-8.194,131.797-8.197,131.523z"/>
				<path fill="#000B37" d="M-7.136,130.646c-0.038-0.217-0.159-0.41-0.256-0.606c-0.061-0.124-0.182-0.205-0.324-0.158
					c-0.122,0.04-0.214,0.199-0.158,0.324c0.087,0.194,0.157,0.432,0.296,0.595C-7.442,130.961-7.09,130.911-7.136,130.646z"/>
				<path fill="#000B37" d="M-6.453,129.756c0.025-0.314-0.168-0.625-0.298-0.903c-0.135-0.288-0.576-0.151-0.476,0.164
					c0.091,0.287,0.161,0.666,0.389,0.876C-6.716,130.006-6.467,129.933-6.453,129.756z"/>
				<path fill="#000B37" d="M-5.683,129.046c-0.008-0.279-0.128-0.577-0.197-0.847c-0.075-0.294-0.498-0.133-0.439,0.151
					c0.053,0.252,0.075,0.555,0.181,0.789C-6.029,129.374-5.675,129.322-5.683,129.046z"/>
				<path fill="#000B37" d="M-4.783,128.003c-0.075-0.253-0.207-0.498-0.313-0.74c-0.119-0.272-0.553-0.13-0.441,0.152
					c0.105,0.267,0.195,0.548,0.333,0.8C-5.071,128.46-4.71,128.249-4.783,128.003z"/>
				<path fill="#000B37" d="M-4.008,127.368c0.048-0.176,0.03-0.362,0.026-0.542c-0.004-0.185-0.008-0.369-0.012-0.554
					c-0.007-0.314-0.468-0.267-0.478,0.034c-0.011,0.35-0.078,0.754,0.011,1.095C-4.396,127.648-4.064,127.573-4.008,127.368z"/>
				<path fill="#000B37" d="M-2.699,126.066c-0.067-0.239-0.212-0.47-0.32-0.694c-0.06-0.124-0.181-0.204-0.322-0.157
					c-0.121,0.04-0.213,0.198-0.157,0.322c0.112,0.247,0.205,0.527,0.359,0.75C-2.976,126.525-2.624,126.331-2.699,126.066z"/>
			</g>
		</g>
	</g>
</g>
</svg>
