<?xml version="1.0" encoding="utf-8"?>
<!-- Generator: Adobe Illustrator 17.0.0, SVG Export Plug-In . SVG Version: 6.00 Build 0)  -->
<!DOCTYPE svg PUBLIC "-//W3C//DTD SVG 1.1//EN" "http://www.w3.org/Graphics/SVG/1.1/DTD/svg11.dtd">
<svg version="1.1" xmlns="http://www.w3.org/2000/svg" xmlns:xlink="http://www.w3.org/1999/xlink" x="0px" y="0px" width="52.8px"
	 height="52.8px" viewBox="169.555 -119.489 52.8 52.8" enable-background="new 169.555 -119.489 52.8 52.8" xml:space="preserve">
<g id="fondo" display="none">
	<rect x="166.592" y="-90.47" display="inline" fill="#FFFFFF" width="180.667" height="122.28"/>
</g>
<g id="Capa_1" display="none">
	<g display="inline">
		<g>
			<g>
				<path d="M181.009-72.879c-0.017-0.032-0.04-0.096-0.072-0.192c-0.016-0.08-0.008-0.168,0.024-0.264
					c0.031-0.096,0.071-0.192,0.119-0.288c0.049-0.112,0.104-0.224,0.168-0.336c0.544-1.008,1.137-1.832,1.776-2.472
					s1.275-1.148,1.908-1.524c0.632-0.375,1.244-0.644,1.836-0.804c0.592-0.16,1.112-0.264,1.56-0.312v-0.024
					c0.192-0.032,0.393-0.048,0.601-0.048c0.176,0,0.38,0.008,0.611,0.024c0.232,0.016,0.477,0.048,0.732,0.096
					c0.24,0.048,0.456,0.12,0.648,0.216c0.256,0.112,0.512,0.256,0.768,0.432c0.256,0.176,0.483,0.404,0.684,0.684
					c0.2,0.28,0.353,0.62,0.456,1.02c0.104,0.4,0.148,0.872,0.133,1.416c-0.032,0.848-0.133,1.656-0.301,2.424
					s-0.376,1.492-0.624,2.172s-0.527,1.308-0.84,1.884c-0.312,0.576-0.62,1.088-0.924,1.536c-0.144,0.224-0.3,0.428-0.468,0.612
					c-0.168,0.184-0.34,0.364-0.517,0.54c-0.144,0.144-0.287,0.264-0.432,0.36c-0.176,0.128-0.344,0.249-0.504,0.36
					c-0.16,0.111-0.32,0.216-0.48,0.312c-0.319,0.176-0.68,0.328-1.079,0.456c-0.16,0.048-0.297,0.076-0.408,0.084
					c-0.112,0.008-0.208,0.012-0.288,0.012c-0.096,0-0.177-0.016-0.24-0.048c-0.048,0-0.104-0.016-0.168-0.048
					c-0.064-0.032-0.132-0.06-0.204-0.084c-0.072-0.024-0.156-0.068-0.252-0.132c-0.176-0.096-0.316-0.212-0.42-0.348
					c-0.104-0.136-0.156-0.22-0.156-0.252c-0.128-0.368-0.168-0.736-0.12-1.104c0.049-0.368,0.145-0.708,0.288-1.02
					c0.145-0.312,0.304-0.588,0.48-0.828c0.176-0.24,0.327-0.408,0.456-0.504c0.447-0.368,0.823-0.528,1.128-0.48
					c0.016,0,0.075,0.008,0.18,0.024s0.147,0.056,0.132,0.12c0,0.032-0.008,0.056-0.023,0.072l0.048,0.048
					c0.096-0.032,0.144-0.032,0.144,0c0,0.032-0.04,0.064-0.12,0.096c0.112,0.032,0.169,0.064,0.169,0.096
					c0,0.032-0.028,0.052-0.084,0.06c-0.057,0.008-0.108,0.021-0.156,0.036c-0.112,0.032-0.213,0.072-0.3,0.12
					c-0.089,0.048-0.165,0.088-0.229,0.12c-0.064,0.048-0.128,0.096-0.192,0.144c-0.416,0.4-0.716,0.772-0.899,1.116
					c-0.185,0.344-0.296,0.652-0.336,0.924c-0.04,0.272-0.028,0.492,0.036,0.66c0.063,0.168,0.136,0.276,0.216,0.324
					c0.176,0.096,0.444,0.072,0.804-0.072c0.36-0.144,0.716-0.336,1.068-0.576c0.128-0.08,0.264-0.176,0.408-0.288
					c0.144-0.112,0.296-0.24,0.456-0.384l0.216-0.216c0.063-0.064,0.144-0.148,0.239-0.252c0.097-0.104,0.2-0.236,0.313-0.396
					c0.256-0.32,0.512-0.712,0.768-1.176c0.256-0.464,0.536-1.048,0.841-1.752c0.239-0.544,0.455-1.128,0.647-1.752
					c0.096-0.304,0.18-0.588,0.252-0.852s0.124-0.524,0.156-0.78c0.288-1.712,0.159-2.888-0.384-3.528
					c-0.16-0.208-0.345-0.368-0.553-0.48c-0.208-0.112-0.424-0.184-0.647-0.216c-0.08-0.016-0.192-0.024-0.336-0.024
					c-0.416-0.016-0.937,0.048-1.561,0.192c-0.704,0.176-1.344,0.428-1.92,0.756c-0.576,0.328-1.084,0.672-1.523,1.032
					c-0.44,0.36-0.809,0.704-1.104,1.032c-0.296,0.328-0.5,0.572-0.611,0.732c-0.16,0.225-0.341,0.508-0.54,0.852
					c-0.2,0.344-0.389,0.652-0.564,0.924c-0.096,0.192-0.088,0.272,0.024,0.24c0.048-0.032,0.084-0.003,0.107,0.084
					c0.024,0.088-0.052,0.18-0.228,0.276c-0.097,0.064-0.185,0.084-0.265,0.06c-0.08-0.024-0.152-0.06-0.216-0.108
					c-0.016-0.032-0.032-0.056-0.048-0.072s-0.032-0.04-0.048-0.072c-0.048-0.016-0.072-0.048-0.072-0.096
					c-0.016-0.016-0.023-0.028-0.023-0.036c0-0.008-0.009-0.02-0.024-0.036c-0.032-0.063-0.048-0.136-0.048-0.216
					S181.041-72.767,181.009-72.879z M182.593-75.063c0.016,0.016,0.039,0.024,0.071,0.024l0.024-0.024h0.024l0.023-0.024
					c0-0.032-0.008-0.048-0.023-0.048c0-0.016-0.009-0.024-0.024-0.024v-0.024c-0.032,0-0.048,0.008-0.048,0.024l-0.024,0.024v0.024
					l-0.023,0.024V-75.063z M182.809-75.351c-0.032,0.032-0.048,0.057-0.048,0.072l0.023,0.024c0.016,0.016,0.032,0.024,0.049,0.024
					c0.016,0,0.031-0.008,0.048-0.024l0.023-0.024v-0.024v-0.024c0-0.016-0.008-0.024-0.023-0.024l-0.024-0.024
					c-0.016,0-0.023,0.004-0.023,0.012C182.834-75.355,182.825-75.351,182.809-75.351z M182.953-75.495
					c-0.016,0-0.016,0.008,0,0.024l0.049,0.048c0.016,0,0.023-0.004,0.023-0.012c0-0.008,0.008-0.012,0.024-0.012l0.023-0.048
					c0.016,0,0.024-0.008,0.024-0.024l0.023-0.024v-0.048c-0.016,0-0.023-0.008-0.023-0.024l-0.024-0.024
					c-0.032,0-0.048,0.008-0.048,0.024s-0.008,0.024-0.023,0.024C182.969-75.559,182.953-75.527,182.953-75.495z M183.241-65.727
					c-0.032-0.016-0.044-0.048-0.036-0.096c0.008-0.048,0.017-0.096,0.024-0.144s0.012-0.088,0.012-0.12
					c0-0.032-0.008-0.032-0.023,0c-0.032,0.08-0.061,0.148-0.084,0.204c-0.024,0.056-0.053,0.116-0.084,0.18
					c-0.032,0.048-0.048,0.024-0.048-0.072c0-0.048,0.008-0.096,0.023-0.144c0.08-0.608,0.168-1.188,0.264-1.74
					c0.097-0.552,0.208-1.096,0.337-1.632c0.127-0.536,0.268-1.072,0.42-1.608c0.151-0.536,0.315-1.092,0.491-1.668
					c0.097-0.32,0.181-0.592,0.252-0.816c0.072-0.224,0.145-0.44,0.217-0.648c0.071-0.208,0.155-0.42,0.252-0.636
					c0.096-0.216,0.207-0.484,0.336-0.804c0.016,0,0.023-0.008,0.023-0.024c0.016-0.032,0.024-0.056,0.024-0.072
					c0-0.016,0.008-0.04,0.023-0.072c0-0.016,0.013-0.064,0.036-0.144c0.024-0.08,0.061-0.168,0.108-0.264s0.108-0.18,0.18-0.252
					c0.072-0.072,0.156-0.108,0.252-0.108c0.145,0,0.244,0.008,0.3,0.024c0.057,0.016,0.101,0.048,0.133,0.096
					c0.031,0.032,0.056,0.064,0.071,0.096c0.017,0.032,0.049,0.088,0.097,0.168c0.048,0.064,0.1,0.148,0.155,0.252
					c0.057,0.104,0.068,0.196,0.036,0.276c-0.032,0.048-0.063,0.104-0.096,0.168c0,0.064-0.017,0.112-0.048,0.144
					c-0.017,0.081-0.068,0.204-0.156,0.372s-0.164,0.316-0.228,0.444c-0.049,0.112-0.081,0.188-0.097,0.228
					s-0.027,0.072-0.036,0.096c-0.008,0.024-0.023,0.064-0.048,0.12c-0.023,0.056-0.068,0.148-0.132,0.276
					c-0.32,0.672-0.596,1.348-0.828,2.028c-0.231,0.68-0.443,1.352-0.636,2.016c-0.192,0.664-0.38,1.308-0.564,1.932
					c-0.184,0.624-0.38,1.216-0.588,1.776c-0.032,0.081-0.056,0.1-0.071,0.06c-0.017-0.04-0.049-0.028-0.097,0.036
					c-0.032,0.064-0.056,0.096-0.071,0.096C183.321-65.703,183.289-65.711,183.241-65.727z M183.289-75.903
					c-0.08,0.048-0.104,0.096-0.071,0.144l0.048,0.024c0.032,0,0.067-0.016,0.107-0.048s0.068-0.064,0.084-0.096
					c0.032-0.032,0.049-0.056,0.049-0.072c0-0.064-0.032-0.096-0.097-0.096c-0.016,0-0.04,0.016-0.071,0.048v0.024
					c-0.017,0-0.024,0.008-0.024,0.024S183.305-75.919,183.289-75.903z M183.481-76.095c0,0.032,0.008,0.056,0.024,0.072
					c0,0.016,0.008,0.024,0.023,0.024l0.024-0.024l-0.024,0.024h0.024h0.023v-0.024h0.024v-0.024h0.024v-0.048h-0.024
					c0-0.064-0.024-0.072-0.072-0.024L183.481-76.095z M183.721-76.287c-0.08,0.081-0.12,0.136-0.12,0.168
					c0.016,0,0.024,0.004,0.024,0.012c0,0.008,0.008,0.012,0.023,0.012c0-0.016,0.008-0.024,0.024-0.024l0.048-0.024
					c0.048-0.016,0.104-0.056,0.168-0.12l0.023-0.024c0.049-0.032,0.093-0.068,0.133-0.108c0.039-0.04,0.084-0.076,0.132-0.108
					c0.031-0.032,0.052-0.056,0.06-0.072s0.028-0.04,0.061-0.072c0.111-0.048,0.22-0.108,0.323-0.18
					c0.104-0.072,0.212-0.148,0.324-0.228c0.063-0.048,0.128-0.096,0.192-0.144c0.063-0.048,0.136-0.096,0.216-0.144
					c0.048-0.016,0.1-0.04,0.156-0.072c0.056-0.032,0.115-0.063,0.18-0.096c0.032-0.032,0.08-0.064,0.145-0.096
					c0.031-0.032,0.075-0.056,0.132-0.072c0.056-0.016,0.107-0.04,0.155-0.072c0.064-0.032,0.112-0.063,0.145-0.096l0.023-0.024
					c0-0.016-0.008-0.024-0.023-0.024c-0.032,0-0.072,0.008-0.12,0.024c-0.08,0.032-0.156,0.068-0.228,0.108
					c-0.072,0.04-0.148,0.076-0.229,0.108c-0.064,0.016-0.144,0.056-0.24,0.12c-0.048,0.032-0.104,0.064-0.168,0.096h-0.023
					c-0.064,0.032-0.148,0.068-0.252,0.108c-0.104,0.041-0.181,0.092-0.229,0.156c-0.112,0.064-0.216,0.136-0.312,0.216
					c-0.097,0.081-0.192,0.168-0.288,0.264c-0.032,0.032-0.068,0.064-0.108,0.096c-0.04,0.033-0.076,0.064-0.107,0.096l-0.072,0.072
					c-0.048,0.032-0.096,0.072-0.145,0.12L183.721-76.287z M183.697-76.599l0.048,0.048l0.024-0.024
					c0.032,0,0.048-0.008,0.048-0.024c0-0.016-0.016-0.04-0.048-0.072c-0.017-0.016-0.032-0.016-0.048,0l-0.024,0.024v0.024V-76.599
					z M183.937-75.855c0.032-0.032,0.016-0.063-0.048-0.096h-0.024v0.024h-0.023l-0.024,0.024v0.024v0.024
					c0,0.032,0.016,0.048,0.048,0.048c0.016,0,0.032-0.008,0.048-0.024L183.937-75.855z M183.889-76.791
					c-0.017,0.016-0.017,0.032,0,0.048c0,0.016,0.016,0.024,0.048,0.024c0.016,0,0.032-0.008,0.048-0.024h0.024
					c0.016-0.016,0.016-0.04,0-0.072v-0.024c-0.017-0.016-0.032-0.024-0.048-0.024l-0.024,0.024h-0.024v0.024
					C183.897-76.815,183.889-76.807,183.889-76.791z M184.13-76.047c0.016,0,0.023-0.008,0.023-0.024
					c0-0.016-0.008-0.024-0.023-0.024l-0.049-0.024h-0.023l-0.024,0.024c-0.016,0-0.023,0.016-0.023,0.048v0.024l0.048,0.048
					c0.016,0,0.023-0.008,0.023-0.024h0.024v-0.024h0.024V-76.047z M184.081-76.911l0.024,0.024c0.016,0,0.052-0.016,0.108-0.048
					c0.056-0.032,0.195-0.136,0.42-0.312h0.023c0.097-0.048,0.192-0.12,0.288-0.216c0.063-0.032,0.112-0.064,0.145-0.096
					c0.063-0.032,0.12-0.056,0.168-0.072c0.031-0.032,0.067-0.052,0.107-0.06c0.04-0.008,0.076-0.028,0.108-0.06
					c0.063-0.032,0.096-0.063,0.096-0.096c-0.032-0.032-0.063-0.048-0.096-0.048c-0.048,0-0.08,0.008-0.096,0.024
					c-0.064,0.032-0.125,0.068-0.181,0.108s-0.116,0.076-0.18,0.108c-0.112,0.112-0.225,0.192-0.336,0.24
					c-0.096,0.032-0.204,0.1-0.324,0.204c-0.12,0.104-0.212,0.196-0.276,0.276V-76.911z M184.201-70.167
					c-0.048,0.096-0.056,0.16-0.023,0.192l0.023,0.024h0.024l0.023-0.048c0.017-0.048,0.049-0.144,0.097-0.288
					c0-0.032,0.016-0.096,0.048-0.192c0-0.048,0.016-0.136,0.048-0.264l0.024-0.048c0.031-0.08,0.056-0.152,0.071-0.216
					c0.017-0.064,0.04-0.136,0.072-0.216c0.08-0.128,0.14-0.264,0.18-0.408s0.076-0.296,0.108-0.456
					c0.032-0.08,0.056-0.168,0.072-0.264c0.016-0.096,0.039-0.184,0.071-0.264c0.017-0.032,0.028-0.064,0.036-0.096
					c0.008-0.032,0.021-0.063,0.036-0.096c0.064-0.111,0.112-0.231,0.145-0.36c0-0.032,0.008-0.056,0.023-0.072
					c0.032-0.064,0.048-0.112,0.048-0.144c0.017-0.032,0.017-0.056,0-0.072l-0.023-0.024c-0.032,0-0.053,0.012-0.061,0.036
					s-0.02,0.044-0.035,0.06c0,0.048-0.009,0.092-0.024,0.132c-0.017,0.04-0.04,0.084-0.072,0.132
					c-0.032,0.064-0.06,0.12-0.084,0.168c-0.023,0.048-0.036,0.104-0.036,0.168h-0.023v0.024c-0.017,0.032-0.032,0.072-0.048,0.12
					c-0.017,0.048-0.024,0.088-0.024,0.12c-0.032,0.064-0.052,0.12-0.06,0.168c-0.009,0.048-0.028,0.096-0.061,0.144
					c-0.032,0.081-0.06,0.152-0.084,0.216c-0.023,0.064-0.052,0.128-0.084,0.192c-0.048,0.096-0.08,0.192-0.096,0.288
					c-0.017,0.096-0.04,0.2-0.072,0.312c-0.016,0.08-0.028,0.152-0.036,0.216c-0.008,0.064-0.028,0.136-0.06,0.216
					c-0.032,0.081-0.064,0.201-0.097,0.36c0,0.048-0.016,0.12-0.048,0.216V-70.167z M184.345-76.239
					c0.016-0.016,0.023-0.04,0.023-0.072c0-0.063-0.032-0.063-0.096,0c-0.016,0-0.04,0.016-0.072,0.048v0.048l0.048,0.048h0.024
					l0.024-0.024l0.023-0.024C184.337-76.215,184.345-76.223,184.345-76.239z M184.849-71.031v-0.024l-0.024-0.024
					c-0.016,0-0.032,0.008-0.048,0.024s-0.023,0.04-0.023,0.072c-0.049,0.08-0.072,0.16-0.072,0.24
					c-0.017,0.016-0.024,0.048-0.024,0.096c-0.016,0.032-0.04,0.096-0.071,0.192c-0.032,0.064-0.061,0.125-0.084,0.18
					c-0.024,0.056-0.036,0.116-0.036,0.18c-0.032,0.064-0.057,0.132-0.072,0.204c-0.017,0.072-0.032,0.148-0.048,0.228
					c0,0.032-0.004,0.052-0.012,0.06c-0.009,0.008-0.013,0.028-0.013,0.06l-0.023,0.072c0,0.096-0.024,0.2-0.072,0.312
					c-0.032,0.032-0.032,0.056,0,0.072h0.023l0.049-0.024c0.016-0.016,0.023-0.032,0.023-0.048c0.032-0.064,0.048-0.104,0.048-0.12
					c0-0.016,0.008-0.032,0.024-0.048c0-0.048,0.008-0.088,0.024-0.12c0-0.016,0.003-0.032,0.012-0.048
					c0.008-0.016,0.012-0.04,0.012-0.072l0.024-0.048c0-0.032,0.008-0.056,0.023-0.072c0.032-0.063,0.064-0.112,0.097-0.144
					c0.031-0.096,0.048-0.192,0.048-0.288c0-0.016,0.004-0.028,0.012-0.036c0.008-0.008,0.012-0.02,0.012-0.036
					c0-0.016,0.004-0.032,0.013-0.048c0.008-0.016,0.012-0.04,0.012-0.072c0.016-0.048,0.027-0.1,0.036-0.156
					c0.008-0.056,0.027-0.116,0.06-0.18c0.032-0.128,0.056-0.231,0.072-0.312V-71.031z M184.754-76.575
					c0.031-0.032,0.048-0.064,0.048-0.096c-0.032-0.032-0.064-0.048-0.097-0.048h-0.023c-0.048,0.016-0.08,0.048-0.096,0.096
					l-0.024,0.024c-0.064,0.064-0.08,0.104-0.048,0.12v0.024h0.048C184.641-76.455,184.705-76.495,184.754-76.575z M184.922-76.719
					l0.023-0.024l-0.023-0.024c0-0.032-0.017-0.048-0.049-0.048l-0.023,0.024h-0.024l-0.048,0.048l0.024,0.024
					c0,0.016,0.008,0.032,0.023,0.048h0.024c0.016,0,0.023-0.008,0.023-0.024h0.024v-0.024H184.922z M184.945-66.231v-0.096
					c-0.016-0.016-0.032-0.024-0.048-0.024s-0.024,0.024-0.024,0.072v0.024v0.024c0,0.016,0.017,0.024,0.049,0.024L184.945-66.231z
					 M184.993-66.639c0-0.016,0.004-0.04,0.013-0.072c0.008-0.032,0.003-0.056-0.013-0.072s-0.04-0.024-0.071-0.024
					c-0.017,0.017-0.024,0.033-0.024,0.048v0.048v0.072v0.024l0.024,0.024C184.937-66.591,184.961-66.607,184.993-66.639z
					 M185.041-67.023v-0.048v-0.024h-0.023c-0.032,0-0.048,0.016-0.048,0.048v0.072c0.016,0,0.023,0.008,0.023,0.024
					c0.016,0,0.024-0.004,0.024-0.012c0-0.008,0.008-0.012,0.023-0.012V-67.023z M185.233-76.935c0-0.016,0.004-0.027,0.012-0.036
					s0.013-0.02,0.013-0.036l-0.048-0.024l-0.049,0.024h-0.023l-0.024,0.024c-0.032,0-0.048,0.016-0.048,0.048
					c0,0.048,0.016,0.072,0.048,0.072h0.024l0.048-0.024l0.024-0.024L185.233-76.935z M185.21-67.503
					c0-0.016-0.005-0.024-0.013-0.024s-0.012-0.008-0.012-0.024v-0.024c-0.017,0-0.032,0.008-0.048,0.024l-0.024,0.048v0.024
					c-0.016,0-0.016,0.008,0,0.024c0,0.016,0.016,0.024,0.048,0.024h0.024v-0.024v-0.024L185.21-67.503z M185.258-72.327
					l-0.024-0.024h-0.023c0-0.016-0.017-0.024-0.049-0.024c-0.016,0-0.023,0.008-0.023,0.024v0.048
					c-0.017,0-0.024,0.008-0.024,0.024v0.024v0.024c0,0.048,0.016,0.072,0.048,0.072l0.049-0.072
					C185.241-72.263,185.258-72.295,185.258-72.327z M185.258-67.839c-0.048,0.048-0.057,0.08-0.024,0.096
					c0,0.016,0.008,0.024,0.024,0.024c0.031,0,0.048-0.016,0.048-0.048c0.016,0,0.023-0.008,0.023-0.024l0.024-0.024v-0.072
					c0-0.016-0.008-0.024-0.024-0.024c-0.016,0-0.032,0.008-0.048,0.024L185.258-67.839z M185.353-72.591l0.024-0.048l-0.049-0.048
					c-0.016,0-0.023-0.008-0.023-0.024h-0.024l-0.023,0.024v0.024c-0.017,0.016-0.024,0.032-0.024,0.048v0.048h0.024
					c0.016,0.016,0.031,0.024,0.048,0.024h0.023v-0.024L185.353-72.591z M185.353-72.927l-0.024,0.024
					c-0.032,0.032-0.04,0.072-0.023,0.12c-0.017,0-0.024,0.004-0.024,0.012c0,0.008,0.008,0.012,0.024,0.012
					c0,0.032,0.023,0.048,0.072,0.048c0.016,0,0.031-0.008,0.048-0.024c0.016-0.016,0.023-0.032,0.023-0.048
					c0-0.032,0.004-0.052,0.013-0.06c0.008-0.008,0.012-0.02,0.012-0.036v-0.048c0.016,0,0.023-0.008,0.023-0.024v-0.048v-0.072
					h-0.048c-0.032,0-0.063,0.032-0.096,0.096V-72.927z M185.473-68.223c-0.064,0.064-0.08,0.12-0.048,0.168h0.023
					c0.032,0,0.064-0.032,0.097-0.096c0.048-0.08,0.063-0.128,0.048-0.144c0-0.016-0.009-0.024-0.024-0.024
					C185.537-68.319,185.506-68.287,185.473-68.223z M185.521-73.383c-0.016,0-0.024,0.008-0.024,0.024v0.024
					c0,0.032,0.009,0.056,0.024,0.072h0.024c0.031,0,0.056-0.016,0.071-0.048c0-0.016,0.004-0.028,0.013-0.036
					c0.008-0.008,0.012-0.02,0.012-0.036v-0.024v-0.048c-0.032-0.016-0.064-0.024-0.096-0.024v0.024
					C185.529-73.439,185.521-73.415,185.521-73.383z M185.617-73.623l0.024,0.024c0.016,0,0.023,0.008,0.023,0.024
					c0.017,0,0.032-0.008,0.049-0.024v-0.024v-0.024c0.016,0,0.023-0.016,0.023-0.048v-0.024l-0.048-0.024h-0.024h-0.023v0.024
					v0.024c-0.017,0-0.024,0.008-0.024,0.024v0.024V-73.623z M185.737-73.911c-0.016,0-0.023,0.004-0.023,0.012
					c0,0.008,0.008,0.012,0.023,0.012c0,0.032,0.008,0.048,0.024,0.048h0.048l0.024-0.024v-0.024c0.016,0,0.023-0.008,0.023-0.024
					v-0.024v-0.024v-0.024c-0.016,0-0.028-0.004-0.036-0.012c-0.008-0.008-0.021-0.012-0.036-0.012s-0.023,0.016-0.023,0.048
					c-0.017,0-0.024,0.008-0.024,0.024V-73.911z M185.857-68.631c0.016,0,0.024,0.004,0.024,0.012c0,0.008,0.008,0.012,0.023,0.012
					l0.024-0.024c0.016,0,0.023-0.008,0.023-0.024v-0.024c0.017,0,0.024-0.008,0.024-0.024v-0.024h-0.048
					c-0.048,0-0.072,0.016-0.072,0.048V-68.631z M186.097-68.871c-0.017,0-0.024,0.004-0.024,0.012c0,0.008,0.008,0.012,0.024,0.012
					c0,0.016,0.016,0.024,0.048,0.024s0.048-0.008,0.048-0.024c0.032,0,0.048-0.016,0.048-0.048l0.024-0.024v-0.024
					c0-0.016-0.017-0.024-0.048-0.024C186.137-68.919,186.097-68.887,186.097-68.871z M186.433-69.063
					c-0.017,0-0.024,0.008-0.024,0.024c0,0.016,0.008,0.024,0.024,0.024c0.016,0,0.056-0.012,0.12-0.036
					c0.063-0.024,0.111-0.052,0.144-0.084v-0.024v-0.024c-0.016,0-0.023-0.003-0.023-0.012c0-0.008-0.009-0.012-0.024-0.012
					l-0.023,0.048c-0.033,0.016-0.061,0.028-0.085,0.036c-0.023,0.008-0.052,0.021-0.084,0.036L186.433-69.063z M190.681-69.111
					c0-0.016,0.016-0.052,0.048-0.108s0.048-0.1,0.048-0.132v-0.024h-0.023c-0.032,0-0.068,0.04-0.108,0.12s-0.06,0.128-0.06,0.144
					c0,0.032,0.008,0.048,0.023,0.048C190.593-69.063,190.617-69.079,190.681-69.111z M190.969-69.687l-0.024-0.024
					c0-0.016-0.008-0.024-0.023-0.024c-0.032,0-0.049,0.016-0.049,0.048c-0.016,0-0.023,0.008-0.023,0.024
					c-0.017,0.016-0.024,0.041-0.024,0.072v0.048c0,0.016,0.008,0.024,0.024,0.024c0.016,0,0.023-0.008,0.023-0.024h0.024
					c0-0.032,0.008-0.056,0.024-0.072C190.953-69.647,190.969-69.671,190.969-69.687z M191.113-69.999l-0.023-0.024h-0.024
					c-0.016,0-0.032,0.008-0.048,0.024v0.048h-0.024c0,0.016,0.008,0.024,0.024,0.024v0.024c0,0.016,0.008,0.024,0.023,0.024
					l0.024-0.024L191.113-69.999z M191.353-70.479c0-0.016,0.016-0.056,0.048-0.12c0.032-0.063,0.04-0.111,0.024-0.144h-0.024
					v-0.024h-0.023c-0.032,0-0.064,0.044-0.097,0.132s-0.048,0.14-0.048,0.156c0,0.032,0.016,0.048,0.048,0.048
					C191.297-70.431,191.321-70.447,191.353-70.479z M191.546-71.007c0-0.016,0.003-0.028,0.012-0.036
					c0.008-0.008,0.012-0.02,0.012-0.036c0-0.016-0.008-0.032-0.023-0.048h-0.024c-0.032,0-0.048,0.016-0.048,0.048v0.024
					c-0.032,0.048-0.048,0.08-0.048,0.096l0.048,0.048c0.016,0,0.023-0.008,0.023-0.024
					C191.497-70.951,191.513-70.975,191.546-71.007z M192.457-75.447c-0.032-0.064-0.056-0.096-0.071-0.096
					c-0.017,0-0.024,0.008-0.024,0.024h-0.023v0.216c0.016,0,0.023,0.008,0.023,0.024c0,0.064-0.004,0.124-0.012,0.18
					c-0.009,0.057-0.012,0.117-0.012,0.18c0,0.048,0,0.1,0,0.156s-0.009,0.108-0.024,0.156v0.048
					c-0.016,0.112-0.024,0.212-0.024,0.3s-0.016,0.188-0.048,0.3c-0.032,0.112-0.056,0.224-0.071,0.336
					c-0.017,0.112-0.041,0.225-0.072,0.336c-0.048,0.32-0.12,0.632-0.216,0.936c-0.017,0.032-0.032,0.076-0.048,0.132
					c-0.017,0.056-0.024,0.1-0.024,0.132c0,0.016-0.004,0.028-0.012,0.036c-0.009,0.008-0.013,0.02-0.013,0.036
					c-0.032,0.064-0.048,0.12-0.048,0.168c-0.032,0.032-0.072,0.108-0.12,0.228c-0.048,0.12-0.063,0.204-0.048,0.252
					c0,0.048,0.016,0.072,0.048,0.072h0.024c0.016-0.032,0.023-0.052,0.023-0.06c0-0.008,0.009-0.028,0.024-0.06
					c0-0.016,0.004-0.028,0.012-0.036c0.008-0.008,0.013-0.028,0.013-0.06c0.079-0.192,0.159-0.392,0.239-0.6s0.136-0.408,0.168-0.6
					c0.017-0.032,0.024-0.052,0.024-0.06c0-0.008,0.008-0.028,0.024-0.06l0.071-0.216c0-0.048,0.016-0.12,0.048-0.216
					c0-0.064,0.009-0.104,0.024-0.12c0.016-0.128,0.032-0.26,0.048-0.396c0.016-0.136,0.032-0.268,0.048-0.396v-0.168
					c0.016-0.048,0.024-0.12,0.024-0.216c0.016-0.111,0.027-0.224,0.036-0.336c0.008-0.112,0.004-0.231-0.013-0.36v-0.168V-75.447z
					 M191.857-73.503c-0.016,0.016-0.023,0.048-0.023,0.096c-0.017,0.048-0.033,0.092-0.049,0.132c-0.016,0.04-0.016,0.076,0,0.108
					v0.048l0.024,0.024c0.016,0,0.04-0.024,0.072-0.072l0.048-0.096c0.016-0.08,0.027-0.156,0.036-0.228
					c0.008-0.072,0.02-0.124,0.036-0.156l0.071-0.36c0.016-0.08,0.032-0.152,0.048-0.216c0.017-0.064,0.024-0.136,0.024-0.216
					v-0.024v-0.048c0.016-0.08,0.024-0.152,0.024-0.216c0-0.063,0-0.136,0-0.216v-0.072v-0.096v-0.072v-0.048
					c0-0.048-0.009-0.088-0.024-0.12l0.024-0.024c0-0.048-0.017-0.087-0.049-0.12c-0.016,0-0.032,0.008-0.048,0.024
					s-0.023,0.048-0.023,0.096v0.096c0.031,0.128,0.039,0.244,0.023,0.348s-0.04,0.204-0.071,0.3c0,0.032-0.005,0.068-0.013,0.108
					c-0.008,0.04-0.012,0.076-0.012,0.108c-0.017,0.176-0.032,0.336-0.048,0.48C191.913-73.791,191.889-73.647,191.857-73.503z
					 M192.506-73.791c0,0.032-0.005,0.068-0.013,0.108c-0.008,0.041-0.012,0.076-0.012,0.108c-0.032,0.128-0.048,0.224-0.048,0.288
					l-0.024,0.072c-0.032,0.112-0.056,0.216-0.071,0.312c-0.017,0.096-0.04,0.2-0.072,0.312c-0.017,0.032-0.04,0.096-0.072,0.192
					c-0.032,0.064-0.052,0.128-0.06,0.192c-0.009,0.064-0.028,0.128-0.061,0.192c-0.016,0.08-0.016,0.12,0,0.12
					c0,0.016,0.008,0.024,0.024,0.024c0.031,0,0.056-0.027,0.072-0.084c0.016-0.056,0.031-0.092,0.048-0.108
					c0.031-0.096,0.056-0.176,0.071-0.24c0-0.032,0.004-0.052,0.013-0.06c0.008-0.008,0.012-0.028,0.012-0.06
					c0.032-0.128,0.063-0.256,0.096-0.384c0.032-0.127,0.064-0.255,0.097-0.384c0.031-0.144,0.06-0.296,0.084-0.456
					c0.023-0.16,0.044-0.328,0.06-0.504l-0.023-0.024l-0.024,0.024c-0.032,0.032-0.052,0.076-0.061,0.132
					c-0.008,0.057-0.012,0.108-0.012,0.156c0,0.016-0.004,0.028-0.012,0.036C192.509-73.819,192.506-73.807,192.506-73.791z
					 M192.097-77.007v0.024c0.016,0.016,0.031,0.024,0.048,0.024l0.024,0.024l0.023-0.024v-0.024v-0.024l-0.023-0.024
					c0-0.016-0.009-0.024-0.024-0.024c-0.032,0-0.048,0.008-0.048,0.024V-77.007z M192.241-76.743h-0.048v0.024v0.024
					c0,0.064,0.024,0.096,0.072,0.096h0.023l0.024-0.024v-0.024v-0.024v-0.024v-0.024C192.298-76.735,192.273-76.743,192.241-76.743
					z M192.338-76.431c0-0.016-0.009-0.024-0.024-0.024c-0.016-0.016-0.032-0.016-0.048,0v0.024v0.024l0.048,0.048h0.024
					c0.016,0,0.023-0.016,0.023-0.048C192.361-76.423,192.353-76.431,192.338-76.431z M192.409-76.047
					c-0.016,0-0.023-0.004-0.023-0.012c0-0.008-0.009-0.012-0.024-0.012h-0.048v0.024v0.024v0.024l0.048,0.024
					c0.016,0,0.032-0.008,0.048-0.024V-76.047z M192.409-75.735v-0.096h-0.023v-0.024c-0.017,0-0.032,0.008-0.048,0.024
					c-0.017,0.016-0.017,0.032,0,0.048v0.024c0,0.064,0.016,0.096,0.048,0.096h0.023v-0.024v-0.024V-75.735z M192.626-74.487
					c-0.017,0.016-0.024,0.032-0.024,0.048v0.096c0.016,0.016,0.032,0.024,0.048,0.024c-0.016,0,0-0.024,0.048-0.072v-0.024v-0.096
					h-0.023l-0.024-0.024L192.626-74.487z M192.649-74.823c-0.016,0-0.023,0.016-0.023,0.048c0,0.016,0.008,0.032,0.023,0.048h0.048
					h0.024v-0.024v-0.024v-0.024c0-0.032-0.017-0.048-0.048-0.048L192.649-74.823z"/>
				<path d="M196.129-72.399c0.128-0.016,0.248-0.008,0.36,0.024c0.096,0.032,0.191,0.072,0.288,0.12
					c0.096,0.048,0.184,0.12,0.264,0.216c0.016,0.016,0.023,0.028,0.023,0.036c0,0.008,0.009,0.021,0.024,0.036
					c0.063,0.112,0.116,0.24,0.156,0.384c0.039,0.144,0.075,0.28,0.107,0.408v0.048c0.049,0.192,0.057,0.392,0.024,0.6
					s-0.076,0.388-0.132,0.54c-0.057,0.152-0.108,0.284-0.156,0.396c-0.064,0.128-0.128,0.24-0.192,0.336
					c-0.256,0.384-0.527,0.704-0.815,0.96c-0.288,0.256-0.568,0.464-0.84,0.624c-0.272,0.16-0.521,0.284-0.744,0.372
					c-0.225,0.088-0.4,0.148-0.528,0.18c-0.016,0.032-0.023,0.056-0.023,0.072v0.024v0.12c-0.017,0.08-0.017,0.16,0,0.24
					c0,0.176,0.048,0.32,0.144,0.432c0.08,0.112,0.2,0.168,0.36,0.168h0.264c0.063,0,0.12-0.003,0.168-0.012s0.08-0.012,0.096-0.012
					c0.128-0.016,0.292-0.044,0.492-0.084c0.2-0.04,0.484-0.18,0.853-0.42c0.495-0.336,0.915-0.672,1.26-1.008
					c0.344-0.336,0.604-0.6,0.78-0.792c0.144-0.176,0.216-0.255,0.216-0.24c0.08-0.08,0.151-0.16,0.216-0.24
					c0.063-0.08,0.12-0.144,0.168-0.192l0.024-0.024l0.096-0.096l0.096-0.048c0.063,0.016,0.088,0.072,0.072,0.168
					c-0.048,0.096-0.12,0.192-0.216,0.288c0.079-0.08,0.136-0.096,0.168-0.048v0.024c-0.017,0.08-0.024,0.124-0.024,0.132
					c0,0.008-0.016,0.036-0.048,0.084c0.032-0.016,0.056-0.024,0.072-0.024c0.031,0,0.039,0.024,0.023,0.072
					c-0.016,0.016-0.023,0.028-0.023,0.036c0,0.008-0.009,0.021-0.024,0.036v0.024l-0.023,0.024c0,0.016-0.017,0.057-0.049,0.12
					l-0.096,0.096v0.024c-0.016,0.016-0.052,0.056-0.107,0.12c-0.057,0.064-0.125,0.136-0.204,0.216
					c-0.129,0.144-0.297,0.316-0.504,0.516c-0.209,0.2-0.444,0.404-0.708,0.612c-0.265,0.208-0.549,0.408-0.853,0.6
					s-0.608,0.344-0.912,0.456c-0.16,0.064-0.396,0.112-0.708,0.144c-0.312,0.032-0.54,0.056-0.684,0.072h-0.024h-0.096h-0.048
					h-0.048c-0.064-0.016-0.181-0.04-0.349-0.072s-0.348-0.112-0.54-0.24c-0.079-0.063-0.164-0.132-0.252-0.204
					c-0.088-0.072-0.172-0.164-0.252-0.276c-0.111-0.176-0.164-0.404-0.156-0.684c0.009-0.28,0.101-0.7,0.276-1.26
					c0.032-0.128,0.076-0.276,0.132-0.444c0.057-0.168,0.124-0.348,0.204-0.54c0.305-0.72,0.704-1.392,1.2-2.016
					S195.457-72.207,196.129-72.399z M193.465-68.319c0-0.016-0.004-0.024-0.012-0.024s-0.013-0.008-0.013-0.024h-0.096h-0.023
					l-0.024,0.024v0.024v0.024v0.024v0.024c0,0.016,0.008,0.032,0.024,0.048h0.048h0.048l0.023-0.024v-0.024v-0.024h0.024V-68.319z
					 M193.537-68.463l-0.024-0.024c-0.016,0-0.031-0.008-0.048-0.024c0.017,0,0.024-0.008,0.024-0.024
					c0-0.032-0.024-0.048-0.072-0.048v-0.024c-0.016,0-0.024,0.008-0.024,0.024h-0.023v0.024v0.024v0.024
					c0,0.016,0.008,0.024,0.023,0.024l0.024,0.024v0.024c0,0.032,0.023,0.056,0.072,0.072c0.016,0,0.023-0.004,0.023-0.012
					c0-0.008,0.009-0.012,0.024-0.012v-0.024v-0.024V-68.463z M193.609-68.895v-0.024h-0.024c-0.032-0.016-0.056-0.016-0.072,0
					c-0.016,0-0.023,0.016-0.023,0.048v0.024c0,0.016,0.016,0.024,0.048,0.024h0.023h0.024c0.016,0,0.024-0.008,0.024-0.024v-0.024
					V-68.895z M193.705-69.135c0.016,0,0.016-0.008,0-0.024c0-0.016-0.008-0.024-0.024-0.024c0-0.016-0.008-0.024-0.023-0.024
					h-0.024c-0.016,0.016-0.023,0.032-0.023,0.048c-0.032,0.032-0.049,0.064-0.049,0.096c0.017,0,0.024,0.008,0.024,0.024
					c0,0.016,0.016,0.024,0.048,0.024h0.024l0.023-0.048v-0.024c0.017,0,0.024-0.008,0.024-0.024V-69.135z M193.68-69.327
					c0,0.016,0.009,0.032,0.024,0.048h0.023c0.049,0,0.084-0.028,0.108-0.084s0.036-0.1,0.036-0.132l-0.024-0.024
					c-0.063-0.032-0.111-0.008-0.144,0.072c-0.016,0-0.028,0.016-0.036,0.048C193.661-69.367,193.665-69.343,193.68-69.327z
					 M193.921-69.759v0.072h0.024c0.016,0,0.039-0.008,0.071-0.024v-0.024c0.016-0.016,0.024-0.028,0.024-0.036
					c0-0.008,0.008-0.02,0.023-0.036c0.017-0.016,0.024-0.027,0.024-0.036c0-0.008,0.008-0.02,0.024-0.036
					c0-0.016,0.008-0.032,0.023-0.048s0.024-0.032,0.024-0.048c0-0.016,0.008-0.024,0.023-0.024v-0.024h0.024l-0.024-0.024
					c0.016-0.016,0.048-0.064,0.097-0.144c0.063-0.032,0.111-0.08,0.144-0.144v-0.048c0.032-0.032,0.063-0.072,0.096-0.12
					s0.064-0.088,0.097-0.12l0.048-0.096c0.031-0.032,0.08-0.088,0.144-0.168c0.016-0.016,0.024-0.028,0.024-0.036
					c0-0.008,0.008-0.02,0.023-0.036l0.192-0.192c0.048-0.048,0.092-0.092,0.132-0.132s0.092-0.084,0.156-0.132
					c0.032-0.016,0.056-0.032,0.072-0.048c0.016-0.016,0.039-0.032,0.071-0.048l0.024-0.072c0-0.016-0.008-0.024-0.024-0.024
					c-0.032,0-0.067,0.012-0.107,0.036s-0.076,0.052-0.108,0.084c-0.016,0-0.08,0.044-0.191,0.132
					c-0.112,0.088-0.185,0.165-0.217,0.228c-0.016,0.016-0.027,0.024-0.035,0.024c-0.009,0-0.021,0.008-0.036,0.024
					c-0.097,0.048-0.168,0.12-0.216,0.216c-0.097,0.112-0.185,0.24-0.265,0.384l-0.023,0.024c-0.049,0.081-0.101,0.176-0.156,0.288
					c-0.057,0.112-0.108,0.208-0.156,0.288v0.024c-0.016,0-0.023,0.008-0.023,0.024v0.024L193.921-69.759z M194.041-69.063
					c0.063,0,0.151-0.144,0.264-0.432l0.048-0.096c0.016-0.032,0.052-0.096,0.108-0.192c0.056-0.096,0.12-0.196,0.192-0.3
					c0.071-0.104,0.136-0.204,0.191-0.3c0.056-0.096,0.092-0.152,0.108-0.168c0.016,0,0.023-0.008,0.023-0.024
					s-0.008-0.032-0.023-0.048h-0.024c-0.016,0-0.044,0.016-0.084,0.048s-0.1,0.112-0.18,0.24l-0.024,0.024
					c-0.048,0.081-0.1,0.16-0.155,0.24c-0.057,0.08-0.117,0.184-0.181,0.312c-0.016,0.016-0.04,0.052-0.072,0.108
					c-0.032,0.056-0.067,0.12-0.107,0.192c-0.04,0.072-0.072,0.14-0.096,0.204c-0.024,0.064-0.036,0.112-0.036,0.144
					c0,0.016,0.008,0.024,0.023,0.024L194.041-69.063z M196.585-71.175c0-0.224-0.048-0.336-0.145-0.336
					c-0.048,0-0.195,0.12-0.443,0.36c-0.248,0.24-0.517,0.576-0.804,1.008c-0.192,0.272-0.377,0.58-0.553,0.924
					s-0.328,0.724-0.456,1.14c0.097,0,0.168-0.008,0.217-0.024c0.079-0.032,0.22-0.096,0.42-0.192
					c0.199-0.096,0.388-0.2,0.563-0.312c0.272-0.224,0.488-0.464,0.648-0.72c0.159-0.256,0.279-0.496,0.359-0.72
					c0.097-0.256,0.16-0.504,0.192-0.744V-71.175z M195.144-70.791l-0.048-0.024l-0.023,0.024c-0.017,0-0.04,0.016-0.072,0.048
					v0.048c0.032,0.016,0.056,0.024,0.072,0.024h0.023c0-0.016,0.008-0.024,0.024-0.024l0.023-0.024
					c0.017-0.016,0.024-0.032,0.024-0.048L195.144-70.791z M195.337-70.935c0-0.016-0.008-0.024-0.024-0.024
					c-0.016-0.016-0.032-0.024-0.048-0.024c-0.032,0-0.048,0.016-0.048,0.048v0.024l0.048,0.048h0.024l0.023-0.024h0.024v-0.024
					V-70.935z M196.537-66.399h0.023c0,0.016,0.008,0.024,0.024,0.024c0.032,0,0.072-0.016,0.12-0.048
					c0.048-0.032,0.08-0.064,0.096-0.096v-0.048h-0.023c-0.032,0-0.076,0.016-0.133,0.048c-0.056,0.032-0.092,0.057-0.107,0.072
					V-66.399z M196.921-66.711v0.048v0.024h0.024c0.063,0,0.111-0.032,0.144-0.096v-0.048h-0.048l-0.048,0.024
					C196.976-66.759,196.953-66.743,196.921-66.711z M197.209-66.951c-0.032,0.032-0.04,0.056-0.024,0.072
					c0,0.016,0.008,0.024,0.024,0.024c0.048,0,0.072-0.016,0.072-0.048c0.016,0,0.023-0.016,0.023-0.048
					c-0.016,0-0.023-0.008-0.023-0.024h-0.024h-0.024C197.232-66.959,197.224-66.951,197.209-66.951z M197.545-67.215v0.024h0.024
					c0.031,0,0.075-0.02,0.132-0.06c0.056-0.04,0.092-0.076,0.107-0.108c0-0.016-0.004-0.024-0.012-0.024s-0.012-0.008-0.012-0.024
					h-0.024c-0.032,0-0.072,0.024-0.12,0.072s-0.08,0.08-0.096,0.096V-67.215z M197.905-67.575
					c-0.017,0.016-0.024,0.032-0.024,0.048c0,0.016,0.008,0.024,0.024,0.024c0.031,0,0.06-0.012,0.084-0.036
					c0.023-0.024,0.044-0.044,0.06-0.06v-0.048h-0.048l-0.048,0.024l-0.024,0.024L197.905-67.575z M198.144-67.815
					c-0.016,0.016-0.023,0.04-0.023,0.072l0.048,0.024c0.016,0,0.032-0.008,0.048-0.024c0-0.016,0.008-0.032,0.024-0.048v-0.024
					c0-0.016-0.017-0.024-0.048-0.024h-0.024v0.024H198.144z M198.457-68.103c-0.017,0.016-0.017,0.032,0,0.048l0.023,0.024h0.024
					l0.024-0.024l0.023-0.024v-0.048c0-0.016-0.023-0.016-0.072,0C198.465-68.127,198.457-68.119,198.457-68.103z M198.625-68.295
					l0.023,0.024c0,0.032,0.017,0.048,0.049,0.048c0.016,0,0.023-0.008,0.023-0.024h0.024c0-0.016,0.008-0.024,0.023-0.024v-0.024
					c0.016-0.016,0.024-0.04,0.024-0.072c-0.017-0.016-0.048-0.016-0.096,0L198.625-68.295z M198.936-68.583
					c0,0.016,0.008,0.032,0.024,0.048h0.024h0.023c0-0.016,0.008-0.024,0.024-0.024v-0.024l0.023-0.024v-0.024
					c-0.016-0.016-0.032-0.024-0.048-0.024c-0.032,0-0.048,0.016-0.048,0.048L198.936-68.583z"/>
				<path d="M204.12-76.335c-0.032-0.08-0.044-0.172-0.035-0.276c0.008-0.104,0.027-0.164,0.06-0.18
					c0-0.032,0.008-0.048,0.024-0.048c0.063-0.048,0.151-0.088,0.264-0.12l0.144-0.048c0.528-0.128,1.096-0.264,1.704-0.408
					c0.512-0.128,1.101-0.268,1.765-0.42c0.663-0.152,1.363-0.3,2.1-0.444c0.032-0.096,0.096-0.228,0.192-0.396
					c0.096-0.168,0.216-0.252,0.359-0.252c0.272,0,0.416,0.04,0.433,0.12c0.031,0.033,0.056,0.064,0.071,0.096
					c0.017,0.032,0.049,0.08,0.097,0.144c0.016,0.016,0.023,0.028,0.023,0.036c0,0.008,0.008,0.02,0.024,0.036
					c0.72-0.127,1.428-0.24,2.124-0.336c0.696-0.096,1.328-0.16,1.896-0.192c0.568-0.032,1.044-0.02,1.429,0.036
					c0.384,0.056,0.64,0.172,0.768,0.348c0.111,0.144,0.2,0.296,0.264,0.456c0.049,0.128,0.076,0.276,0.084,0.444
					s-0.027,0.324-0.107,0.468c-0.097,0.144-0.185,0.244-0.265,0.3s-0.151,0.076-0.216,0.06c-0.063-0.016-0.112-0.06-0.144-0.132
					c-0.032-0.072-0.04-0.147-0.024-0.228c0.016-0.08,0.032-0.164,0.048-0.252c0.017-0.088,0.004-0.168-0.035-0.24
					c-0.041-0.072-0.129-0.128-0.265-0.168s-0.356-0.052-0.66-0.036c-0.144,0.016-0.384,0.048-0.72,0.096
					c-0.336,0.048-0.732,0.108-1.188,0.18c-0.456,0.072-0.96,0.152-1.513,0.24c-0.552,0.088-1.116,0.18-1.691,0.276l-0.049,0.096
					c-0.08,0.225-0.136,0.437-0.168,0.636c-0.032,0.2-0.111,0.436-0.239,0.708c-0.048,0.096-0.097,0.196-0.145,0.3
					c-0.048,0.104-0.096,0.212-0.144,0.324c-0.272,0.624-0.536,1.332-0.792,2.124s-0.513,1.612-0.769,2.46
					c-0.128,0.464-0.304,1.064-0.527,1.8c-0.225,0.736-0.448,1.536-0.672,2.4c0,0.032-0.009,0.056-0.024,0.072
					c0,0.048-0.017,0.12-0.048,0.216c-0.032,0.144-0.068,0.292-0.108,0.444s-0.076,0.308-0.107,0.468
					c0.031-0.112,0.056-0.22,0.071-0.324c0.016-0.104,0.04-0.22,0.072-0.348c-0.032,0.128-0.064,0.244-0.096,0.348
					c-0.032,0.104-0.048,0.211-0.048,0.324c-0.017,0.096-0.028,0.168-0.036,0.216c-0.009,0.048-0.013,0.08-0.013,0.096
					c0,0.048,0.004,0.064,0.013,0.048c0.008-0.016,0.02-0.044,0.036-0.084c0.016-0.04,0.027-0.072,0.036-0.096
					c0.008-0.024,0.012-0.021,0.012,0.012c0.016,0.08,0.027,0.144,0.036,0.192c0.008,0.048-0.028,0.104-0.108,0.168
					c-0.048,0.032-0.092,0.048-0.132,0.048s-0.076,0-0.108,0c-0.048,0-0.088-0.008-0.12-0.024c-0.048-0.032-0.104-0.096-0.168-0.192
					c-0.176-0.272-0.284-0.528-0.323-0.768c-0.04-0.24-0.053-0.456-0.036-0.648c0.016-0.192,0.044-0.356,0.084-0.492
					c0.039-0.136,0.067-0.244,0.084-0.324v-0.024c0.031-0.128,0.06-0.256,0.084-0.384c0.023-0.128,0.052-0.248,0.084-0.36
					c0.031-0.096,0.067-0.232,0.107-0.408c0.04-0.176,0.076-0.328,0.108-0.456c0.144-0.544,0.3-1.096,0.468-1.656
					s0.34-1.104,0.517-1.632c0.176-0.528,0.34-1.023,0.491-1.488c0.152-0.464,0.284-0.872,0.396-1.224
					c0.128-0.448,0.252-0.855,0.372-1.224c0.12-0.368,0.252-0.735,0.396-1.104c-0.512,0.096-1.004,0.184-1.476,0.264
					c-0.473,0.08-0.9,0.152-1.284,0.216c-0.384,0.064-0.712,0.125-0.983,0.18c-0.272,0.056-0.456,0.092-0.553,0.108
					c-0.032,0-0.071,0.008-0.12,0.024c-0.096,0.032-0.184,0.048-0.264,0.048c-0.032,0.016-0.064,0.04-0.096,0.072
					c-0.032,0.032-0.08,0.064-0.145,0.096c-0.08,0.048-0.188,0.012-0.323-0.108C204.236-76.155,204.152-76.255,204.12-76.335z
					 M204.625-76.791c-0.017,0.016-0.024,0.04-0.024,0.072v0.024c0.016,0,0.024,0.004,0.024,0.012c0,0.008,0.008,0.012,0.023,0.012
					h0.024h0.023c0.016,0,0.024-0.024,0.024-0.072v-0.024v-0.024h-0.024h-0.023h-0.024H204.625z M204.816-76.503v0.024
					c0,0.032,0.008,0.048,0.024,0.048h0.023c0.064,0,0.164-0.02,0.301-0.06c0.136-0.04,0.268-0.076,0.396-0.108
					c0.032,0,0.048-0.008,0.048-0.024c0.08,0,0.152-0.008,0.216-0.024c0.064-0.016,0.136-0.04,0.217-0.072
					c0.127-0.032,0.199-0.048,0.216-0.048c0.096-0.016,0.191-0.032,0.288-0.048c0.096-0.016,0.191-0.04,0.288-0.072
					c0.048,0,0.119-0.016,0.216-0.048c0.063,0,0.147-0.008,0.252-0.024c0.104-0.016,0.195-0.04,0.275-0.072
					c0.049,0,0.092-0.004,0.133-0.012c0.039-0.008,0.084-0.02,0.132-0.036c0.031-0.016,0.056-0.024,0.071-0.024
					c0.017,0,0.032-0.008,0.049-0.024h0.071c0.048,0,0.104-0.016,0.168-0.048c0.049,0,0.097-0.004,0.145-0.012
					c0.048-0.008,0.104-0.02,0.168-0.036c0.048-0.016,0.1-0.028,0.156-0.036c0.056-0.008,0.107-0.02,0.155-0.036
					c0.032,0,0.061-0.004,0.084-0.012c0.024-0.008,0.052-0.012,0.084-0.012c0.032-0.016,0.061-0.024,0.084-0.024
					c0.024,0,0.052-0.008,0.084-0.024h0.024c0.144,0,0.216-0.024,0.216-0.072v-0.024c0-0.016-0.016-0.024-0.048-0.024
					s-0.096,0.008-0.192,0.024c-0.096,0.016-0.151,0.024-0.168,0.024c-0.063,0.032-0.128,0.052-0.191,0.06
					c-0.064,0.008-0.137,0.021-0.216,0.036c-0.064,0-0.112,0.008-0.145,0.024h-0.12c-0.048,0.016-0.1,0.024-0.155,0.024
					c-0.057,0-0.101,0.016-0.133,0.048c-0.032,0-0.076,0.004-0.132,0.012c-0.056,0.008-0.107,0.012-0.156,0.012v0.024v-0.024
					c-0.048,0-0.092,0.004-0.132,0.012c-0.04,0.008-0.084,0.021-0.132,0.036c-0.032,0-0.06,0.004-0.084,0.012
					c-0.023,0.008-0.052,0.012-0.084,0.012c-0.128,0.032-0.225,0.048-0.288,0.048c-0.08,0.032-0.164,0.056-0.252,0.072
					s-0.18,0.04-0.276,0.072c-0.08,0.032-0.164,0.056-0.252,0.072s-0.18,0.04-0.275,0.072c-0.032,0.016-0.072,0.024-0.12,0.024
					s-0.088,0.008-0.12,0.024c-0.032,0.016-0.06,0.024-0.084,0.024s-0.052,0.008-0.084,0.024c-0.064,0.016-0.128,0.028-0.192,0.036
					c-0.063,0.008-0.128,0.028-0.191,0.06c-0.032,0.016-0.097,0.036-0.192,0.06S204.832-76.519,204.816-76.503z M204.984-76.767
					h0.024h0.048c0.016,0,0.04-0.003,0.072-0.012c0.031-0.008,0.056-0.028,0.071-0.06v-0.048c-0.016-0.016-0.032-0.024-0.048-0.024
					c-0.016,0.017-0.032,0.024-0.048,0.024h-0.024l-0.023,0.024c-0.017,0-0.024,0.004-0.024,0.012c0,0.008-0.008,0.012-0.023,0.012
					l-0.024,0.024V-76.767z M205.32-76.359v-0.024c0-0.016-0.008-0.024-0.023-0.024h-0.024h-0.023c0,0.016-0.009,0.024-0.024,0.024
					v0.024v0.048c0,0.016,0.016,0.024,0.048,0.024h0.024l0.023-0.024V-76.359z M205.417-76.911l0.023,0.024
					c0.016,0.016,0.04,0.024,0.072,0.024c0.048,0,0.104-0.008,0.168-0.024c0.063-0.016,0.12-0.032,0.168-0.048
					c0.016,0,0.032-0.008,0.048-0.024c0.08,0,0.147-0.008,0.204-0.024c0.056-0.016,0.124-0.032,0.204-0.048
					c0.032-0.016,0.063-0.028,0.096-0.036c0.032-0.008,0.063-0.02,0.096-0.036l0.288-0.072c0.097-0.032,0.192-0.056,0.288-0.072
					c0.097-0.016,0.192-0.032,0.288-0.048c0.128-0.032,0.252-0.06,0.372-0.084s0.244-0.052,0.372-0.084
					c0.096-0.016,0.145-0.048,0.145-0.096c-0.017-0.032-0.064-0.048-0.145-0.048h-0.12c-0.112,0.032-0.224,0.06-0.336,0.084
					s-0.225,0.052-0.336,0.084c-0.112,0.032-0.225,0.064-0.336,0.096c-0.112,0.032-0.232,0.064-0.36,0.096
					c-0.128,0.032-0.216,0.057-0.264,0.072c-0.08,0.032-0.156,0.052-0.228,0.06c-0.072,0.008-0.148,0.02-0.229,0.036
					c-0.032,0-0.064,0.008-0.096,0.024c-0.032,0.016-0.072,0.032-0.12,0.048c-0.048,0.016-0.093,0.032-0.132,0.048
					c-0.04,0.016-0.076,0.024-0.108,0.024L205.417-76.911z M205.633-76.383c-0.017,0-0.024-0.008-0.024-0.024v-0.048
					c0-0.016-0.008-0.024-0.023-0.024c0-0.016-0.009-0.024-0.024-0.024h-0.024h-0.023l-0.024,0.024
					c-0.016,0-0.023,0.008-0.023,0.024v0.024v0.024c0,0.048,0.016,0.072,0.048,0.072h0.023h0.049L205.633-76.383z M205.801-76.479
					v-0.024l-0.024-0.024h-0.023h-0.024h-0.024v0.024h-0.023c0,0.016,0.004,0.024,0.012,0.024s0.012,0.008,0.012,0.024v0.024
					l0.024,0.024h0.024c0.031,0,0.048-0.008,0.048-0.024V-76.479z M206.112-76.503c0-0.063-0.016-0.096-0.048-0.096h-0.023
					l-0.049,0.048c0,0.032,0.004,0.048,0.013,0.048c0.008,0,0.012,0.008,0.012,0.024l0.024,0.024v-0.024h0.023h0.024L206.112-76.503
					z M206.328-76.623c0-0.032-0.016-0.032-0.048,0c-0.016-0.016-0.032-0.024-0.048-0.024c-0.032,0-0.048,0.016-0.048,0.048
					c0,0.033,0.008,0.057,0.024,0.072l0.023,0.024l0.024-0.024h0.048l0.023-0.024V-76.623z M206.64-76.695l-0.048-0.048
					c-0.032,0-0.053,0.004-0.061,0.012c-0.008,0.008-0.027,0.012-0.06,0.012c0,0.016-0.009,0.024-0.024,0.024
					s-0.023,0.008-0.023,0.024c-0.017,0.016-0.017,0.032,0,0.048v0.024c0.031,0.033,0.056,0.048,0.071,0.048
					c0.097,0,0.145-0.04,0.145-0.12V-76.695z M206.976-76.695l0.024-0.024l-0.024-0.024v-0.024l-0.024-0.024h-0.023
					c-0.032,0-0.048,0.008-0.048,0.024v0.024v0.048c0,0.016,0.008,0.024,0.023,0.024h0.024h0.023L206.976-76.695z M207.192-76.743
					c0.016,0,0.024-0.008,0.024-0.024c0-0.032-0.009-0.048-0.024-0.048c-0.016-0.016-0.032-0.024-0.048-0.024
					s-0.032,0.008-0.048,0.024h-0.024v0.024v0.072h0.024h0.023h0.024h0.024h0.023V-76.743z M207.696-69.735
					c0.016-0.032,0.028-0.064,0.036-0.096c0.008-0.032,0.02-0.063,0.036-0.096c0.016-0.032,0.032-0.064,0.048-0.096
					c0.016-0.032,0.024-0.063,0.024-0.096c0.016-0.032,0.027-0.064,0.036-0.096c0.008-0.032,0.02-0.064,0.035-0.096
					c0-0.032,0.017-0.096,0.049-0.192c0.079-0.208,0.144-0.424,0.191-0.648c0.016-0.064,0.032-0.128,0.048-0.192
					c0.017-0.064,0.04-0.136,0.072-0.216c0.016-0.063,0.036-0.132,0.061-0.204c0.023-0.072,0.052-0.148,0.084-0.228
					c0.048-0.128,0.092-0.26,0.132-0.396c0.039-0.136,0.075-0.276,0.107-0.42v-0.024h-0.023c-0.017,0-0.032,0.016-0.048,0.048
					c-0.017,0.032-0.064,0.144-0.145,0.336c-0.032,0.08-0.06,0.16-0.084,0.24c-0.023,0.081-0.044,0.128-0.06,0.144
					c-0.032,0.048-0.053,0.104-0.061,0.168c-0.008,0.064-0.028,0.128-0.06,0.192c-0.032,0.128-0.057,0.216-0.072,0.264
					c-0.064,0.081-0.108,0.172-0.132,0.276c-0.024,0.104-0.052,0.204-0.084,0.3c-0.017,0.064-0.04,0.144-0.072,0.24
					c-0.048,0.081-0.088,0.192-0.12,0.336c0,0.032-0.004,0.06-0.012,0.084c-0.008,0.024-0.012,0.052-0.012,0.084
					c-0.032,0.064-0.053,0.128-0.061,0.192s-0.028,0.128-0.06,0.192c0,0.064-0.017,0.144-0.048,0.24
					c-0.032,0.064-0.057,0.136-0.072,0.216c-0.017,0.08-0.04,0.16-0.072,0.24c0,0.032-0.004,0.068-0.012,0.108
					c-0.009,0.04-0.012,0.076-0.012,0.108c-0.032,0.064-0.049,0.12-0.049,0.168c-0.016,0.032-0.023,0.056-0.023,0.072
					c0,0.016-0.009,0.04-0.024,0.072v0.024c-0.048,0.144-0.063,0.232-0.048,0.264h0.024c0.031,0,0.056-0.036,0.071-0.108
					c0.017-0.072,0.04-0.147,0.072-0.228c0.032-0.111,0.061-0.216,0.084-0.312c0.024-0.096,0.052-0.192,0.084-0.288
					c0.032-0.08,0.052-0.148,0.061-0.204c0.008-0.056,0.027-0.124,0.06-0.204c0-0.032,0.008-0.048,0.024-0.048
					C207.673-69.679,207.68-69.719,207.696-69.735z M207.528-76.887c0,0.016-0.023,0-0.071-0.048c-0.033,0-0.064,0.016-0.097,0.048
					h-0.048l-0.024,0.024v0.048c0,0.016,0.009,0.024,0.024,0.024c0.016,0.016,0.04,0.024,0.072,0.024
					c0.031,0,0.063-0.008,0.096-0.024c0.032-0.016,0.048-0.04,0.048-0.072V-76.887z M208.056-69.759
					c0.016-0.064,0.032-0.124,0.048-0.18c0.016-0.056,0.032-0.116,0.048-0.18c0-0.032,0.016-0.092,0.048-0.18
					s0.072-0.196,0.12-0.324c0.128-0.384,0.2-0.608,0.216-0.672c0.017-0.063,0.009-0.104-0.023-0.12
					c-0.032,0-0.064,0.044-0.096,0.132c-0.032,0.088-0.068,0.184-0.108,0.288c-0.04,0.104-0.084,0.252-0.132,0.444
					c-0.08,0.256-0.145,0.48-0.192,0.672c-0.032,0.112-0.063,0.216-0.096,0.312s-0.064,0.192-0.096,0.288
					c-0.017,0.032-0.024,0.064-0.024,0.096v0.024c0.016,0.016,0.032,0.024,0.048,0.024c0.048,0,0.088-0.056,0.12-0.168
					c0.032-0.08,0.056-0.156,0.072-0.228C208.024-69.603,208.04-69.679,208.056-69.759z M208.297-69.711
					c0-0.032,0.004-0.056,0.012-0.072s0.004-0.04-0.012-0.072h-0.024c-0.032,0-0.056,0.032-0.072,0.096
					c-0.016,0.064-0.023,0.104-0.023,0.12v0.048h0.023c0.032,0,0.049-0.016,0.049-0.048h0.023
					C208.272-69.671,208.28-69.695,208.297-69.711z M208.368-70.023c0.032-0.032,0.04-0.063,0.024-0.096
					c-0.048-0.016-0.072-0.008-0.072,0.024h-0.023v0.024v0.024v0.024l-0.024,0.024l0.024,0.024c0,0.016,0.008,0.024,0.023,0.024
					s0.024-0.004,0.024-0.012c0-0.008,0.008-0.012,0.023-0.012v-0.024V-70.023z M208.465-70.287c0-0.016,0.008-0.032,0.023-0.048
					c0-0.016-0.008-0.024-0.023-0.024l-0.024-0.024h-0.023l-0.024,0.024v0.024c-0.032,0.032-0.032,0.048,0,0.048
					c0,0.016,0.008,0.024,0.024,0.024C208.432-70.263,208.448-70.271,208.465-70.287z M208.633-71.631
					c0.016-0.016,0.023-0.032,0.023-0.048c0-0.032-0.008-0.056-0.023-0.072h-0.024c-0.032,0-0.048,0.008-0.048,0.024
					c0,0.016-0.008,0.032-0.024,0.048c-0.016,0.032-0.023,0.056-0.023,0.072c0,0.016,0.004,0.024,0.012,0.024
					s0.012,0.008,0.012,0.024h0.049c0.031,0,0.048-0.016,0.048-0.048V-71.631z M208.656-70.935c0-0.016-0.008-0.024-0.023-0.024
					c-0.032,0-0.057,0.024-0.072,0.072c-0.016,0.048-0.032,0.088-0.048,0.12c0,0.016,0.004,0.028,0.012,0.036
					c0.008,0.008,0.012,0.021,0.012,0.036l0.049,0.024l0.023-0.024c0-0.016,0.004-0.024,0.012-0.024
					c0.009,0,0.013-0.008,0.013-0.024s0.004-0.04,0.012-0.072c0.008-0.032,0.012-0.063,0.012-0.096V-70.935z M208.753-71.199
					l-0.024-0.024c-0.032-0.032-0.048-0.024-0.048,0.024c-0.017,0-0.024,0.008-0.024,0.024l-0.023,0.048v0.024l0.023,0.024
					c0,0.016,0.008,0.024,0.024,0.024c0.016,0,0.023-0.008,0.023-0.024c0-0.016,0.004-0.027,0.013-0.036
					c0.008-0.008,0.012-0.02,0.012-0.036C208.744-71.167,208.753-71.183,208.753-71.199z M208.68-72.015
					c-0.017,0-0.024,0.008-0.024,0.024v0.048c0,0.016,0.016,0.024,0.048,0.024h0.024c0.016,0,0.024-0.008,0.024-0.024l0.023-0.024
					v-0.024v-0.024v-0.024c-0.016,0-0.032-0.008-0.048-0.024L208.68-72.015z M208.824-71.391c0-0.016,0.004-0.024,0.013-0.024
					c0.008,0,0.012-0.008,0.012-0.024c0-0.016-0.009-0.024-0.024-0.024h-0.023l-0.024-0.024l-0.023,0.024v0.024v0.024v0.048h0.023
					C208.792-71.367,208.808-71.375,208.824-71.391z M208.968-71.823v-0.024h-0.048c-0.032,0-0.048,0.024-0.048,0.072
					c0,0.032,0.016,0.048,0.048,0.048c0.016,0,0.023-0.008,0.023-0.024c0-0.016,0.008-0.024,0.024-0.024v-0.024V-71.823z
					 M209.089-72.111h-0.024c0-0.016-0.008-0.024-0.023-0.024c-0.032,0-0.057,0.016-0.072,0.048
					c-0.048,0.048-0.057,0.08-0.024,0.096c0.016,0.016,0.04,0.024,0.072,0.024c0.016,0,0.024-0.008,0.024-0.024
					s0.008-0.024,0.023-0.024v-0.024v-0.024c0-0.016,0.008-0.024,0.024-0.024V-72.111z M209.16-72.375
					c0.032-0.032,0.032-0.048,0-0.048c0-0.016-0.008-0.024-0.023-0.024l-0.072,0.072c0,0.016,0.008,0.032,0.024,0.048h0.048
					c0.016,0,0.023-0.008,0.023-0.024V-72.375z M211.56-77.799c0,0.016,0.016,0.024,0.048,0.024h0.024
					c0.016,0.016,0.039,0.008,0.071-0.024v-0.072l-0.023-0.024h-0.024h-0.023l-0.024,0.024h-0.023l-0.024,0.024v0.024V-77.799z
					 M212.016-77.943c-0.017,0.016-0.024,0.032-0.024,0.048v0.024l0.024,0.024h0.048c0,0.016,0.008,0.024,0.024,0.024l0.023-0.024
					c0.048,0.016,0.088,0.008,0.12-0.024c0-0.063-0.008-0.104-0.023-0.12c0-0.016-0.009-0.024-0.024-0.024h-0.024l-0.023,0.024
					h-0.024h-0.023h-0.024h-0.023l-0.024,0.024V-77.943z M212.425-77.943h0.023l0.024,0.024h0.023c0.032,0,0.057-0.008,0.072-0.024
					v-0.072v-0.024h-0.023c0-0.016-0.009-0.016-0.024,0h-0.024h-0.023h-0.024v0.024h-0.023v0.024V-77.943z M213.001-78.063v0.024
					c0,0.016,0.008,0.024,0.023,0.024v0.024c0.016,0,0.024-0.008,0.024-0.024h0.023h0.024h0.023l0.024-0.024v-0.072
					c-0.016,0-0.024-0.004-0.024-0.012c0-0.008-0.016-0.003-0.048,0.012c0-0.016-0.008-0.024-0.023-0.024h-0.024l-0.023,0.048
					V-78.063z M213.337-78.111c0,0.016,0.008,0.024,0.023,0.024v0.024h0.024h0.023h0.049c0.016,0,0.023-0.008,0.023-0.024h0.048
					c0.032-0.032,0.048-0.056,0.048-0.072c-0.016-0.016-0.048-0.024-0.096-0.024h-0.023c-0.064,0-0.104,0.016-0.12,0.048V-78.111z
					 M213.768-78.183c0,0.048,0.032,0.072,0.096,0.072c0.032,0,0.084-0.012,0.156-0.036s0.116-0.052,0.132-0.084
					c0-0.048-0.032-0.072-0.096-0.072h-0.024c-0.032,0-0.084,0.012-0.155,0.036C213.804-78.243,213.768-78.215,213.768-78.183z
					 M214.633-78.303v0.048l0.023,0.024l0.024-0.024c0.016,0.016,0.032,0.016,0.048,0h0.024c0.016-0.016,0.023-0.032,0.023-0.048
					c0-0.032-0.008-0.048-0.023-0.048h-0.049c-0.016-0.016-0.04-0.008-0.071,0.024V-78.303z M214.968-78.375
					c0,0.032,0.008,0.056,0.023,0.072c0,0.016,0.008,0.024,0.024,0.024h0.048h0.024l0.023-0.024h0.024
					c0.031,0,0.056-0.016,0.072-0.048v-0.024c0-0.016-0.009-0.024-0.024-0.024h-0.096C215.024-78.399,214.984-78.391,214.968-78.375
					z M215.4-78.375c0,0.016,0.008,0.024,0.024,0.024c0.016,0.016,0.056,0.024,0.12,0.024c0.111,0,0.191-0.024,0.239-0.072v-0.024
					c-0.016-0.032-0.071-0.048-0.168-0.048c-0.016,0-0.048,0-0.096,0s-0.088,0.008-0.12,0.024V-78.375z"/>
				<path d="M212.881-72.399c0.128-0.016,0.248-0.008,0.36,0.024c0.096,0.032,0.191,0.072,0.288,0.12
					c0.096,0.048,0.184,0.12,0.264,0.216c0.016,0.016,0.023,0.028,0.023,0.036c0,0.008,0.009,0.021,0.024,0.036
					c0.063,0.112,0.116,0.24,0.156,0.384c0.039,0.144,0.075,0.28,0.107,0.408v0.048c0.049,0.192,0.057,0.392,0.024,0.6
					s-0.076,0.388-0.132,0.54c-0.057,0.152-0.108,0.284-0.156,0.396c-0.064,0.128-0.128,0.24-0.192,0.336
					c-0.256,0.384-0.527,0.704-0.815,0.96c-0.288,0.256-0.568,0.464-0.84,0.624c-0.272,0.16-0.521,0.284-0.744,0.372
					c-0.225,0.088-0.4,0.148-0.528,0.18c-0.016,0.032-0.023,0.056-0.023,0.072v0.024v0.12c-0.017,0.08-0.017,0.16,0,0.24
					c0,0.176,0.048,0.32,0.144,0.432c0.08,0.112,0.2,0.168,0.36,0.168h0.264c0.063,0,0.12-0.003,0.168-0.012s0.08-0.012,0.096-0.012
					c0.128-0.016,0.292-0.044,0.492-0.084c0.2-0.04,0.484-0.18,0.853-0.42c0.495-0.336,0.915-0.672,1.26-1.008
					c0.344-0.336,0.604-0.6,0.78-0.792c0.144-0.176,0.216-0.255,0.216-0.24c0.08-0.08,0.151-0.16,0.216-0.24
					c0.063-0.08,0.12-0.144,0.168-0.192l0.024-0.024l0.096-0.096l0.096-0.048c0.063,0.016,0.088,0.072,0.072,0.168
					c-0.048,0.096-0.12,0.192-0.216,0.288c0.079-0.08,0.136-0.096,0.168-0.048v0.024c-0.017,0.08-0.024,0.124-0.024,0.132
					c0,0.008-0.016,0.036-0.048,0.084c0.032-0.016,0.056-0.024,0.072-0.024c0.031,0,0.039,0.024,0.023,0.072
					c-0.016,0.016-0.023,0.028-0.023,0.036c0,0.008-0.009,0.021-0.024,0.036v0.024l-0.023,0.024c0,0.016-0.017,0.057-0.049,0.12
					l-0.096,0.096v0.024c-0.016,0.016-0.052,0.056-0.107,0.12c-0.057,0.064-0.125,0.136-0.204,0.216
					c-0.129,0.144-0.297,0.316-0.504,0.516c-0.209,0.2-0.444,0.404-0.708,0.612c-0.265,0.208-0.549,0.408-0.853,0.6
					s-0.608,0.344-0.912,0.456c-0.16,0.064-0.396,0.112-0.708,0.144c-0.312,0.032-0.54,0.056-0.684,0.072h-0.024h-0.096h-0.048
					h-0.048c-0.064-0.016-0.181-0.04-0.349-0.072s-0.348-0.112-0.54-0.24c-0.079-0.063-0.164-0.132-0.252-0.204
					c-0.088-0.072-0.172-0.164-0.252-0.276c-0.111-0.176-0.164-0.404-0.156-0.684c0.009-0.28,0.101-0.7,0.276-1.26
					c0.032-0.128,0.076-0.276,0.132-0.444c0.057-0.168,0.124-0.348,0.204-0.54c0.305-0.72,0.704-1.392,1.2-2.016
					S212.209-72.207,212.881-72.399z M210.217-68.319c0-0.016-0.004-0.024-0.012-0.024s-0.013-0.008-0.013-0.024h-0.096h-0.023
					l-0.024,0.024v0.024v0.024v0.024v0.024c0,0.016,0.008,0.032,0.024,0.048h0.048h0.048l0.023-0.024v-0.024v-0.024h0.024V-68.319z
					 M210.289-68.463l-0.024-0.024c-0.016,0-0.031-0.008-0.048-0.024c0.017,0,0.024-0.008,0.024-0.024
					c0-0.032-0.024-0.048-0.072-0.048v-0.024c-0.016,0-0.024,0.008-0.024,0.024h-0.023v0.024v0.024v0.024
					c0,0.016,0.008,0.024,0.023,0.024l0.024,0.024v0.024c0,0.032,0.023,0.056,0.072,0.072c0.016,0,0.023-0.004,0.023-0.012
					c0-0.008,0.009-0.012,0.024-0.012v-0.024v-0.024V-68.463z M210.361-68.895v-0.024h-0.024c-0.032-0.016-0.056-0.016-0.072,0
					c-0.016,0-0.023,0.016-0.023,0.048v0.024c0,0.016,0.016,0.024,0.048,0.024h0.023h0.024c0.016,0,0.024-0.008,0.024-0.024v-0.024
					V-68.895z M210.457-69.135c0.016,0,0.016-0.008,0-0.024c0-0.016-0.008-0.024-0.024-0.024c0-0.016-0.008-0.024-0.023-0.024
					h-0.024c-0.016,0.016-0.023,0.032-0.023,0.048c-0.032,0.032-0.049,0.064-0.049,0.096c0.017,0,0.024,0.008,0.024,0.024
					c0,0.016,0.016,0.024,0.048,0.024h0.024l0.023-0.048v-0.024c0.017,0,0.024-0.008,0.024-0.024V-69.135z M210.432-69.327
					c0,0.016,0.009,0.032,0.024,0.048h0.023c0.049,0,0.084-0.028,0.108-0.084s0.036-0.1,0.036-0.132l-0.024-0.024
					c-0.063-0.032-0.111-0.008-0.144,0.072c-0.016,0-0.028,0.016-0.036,0.048C210.413-69.367,210.417-69.343,210.432-69.327z
					 M210.673-69.759v0.072h0.024c0.016,0,0.039-0.008,0.071-0.024v-0.024c0.016-0.016,0.024-0.028,0.024-0.036
					c0-0.008,0.008-0.02,0.023-0.036c0.017-0.016,0.024-0.027,0.024-0.036c0-0.008,0.008-0.02,0.024-0.036
					c0-0.016,0.008-0.032,0.023-0.048s0.024-0.032,0.024-0.048c0-0.016,0.008-0.024,0.023-0.024v-0.024h0.024l-0.024-0.024
					c0.016-0.016,0.048-0.064,0.097-0.144c0.063-0.032,0.111-0.08,0.144-0.144v-0.048c0.032-0.032,0.063-0.072,0.096-0.12
					s0.064-0.088,0.097-0.12l0.048-0.096c0.031-0.032,0.08-0.088,0.144-0.168c0.016-0.016,0.024-0.028,0.024-0.036
					c0-0.008,0.008-0.02,0.023-0.036l0.192-0.192c0.048-0.048,0.092-0.092,0.132-0.132s0.092-0.084,0.156-0.132
					c0.032-0.016,0.056-0.032,0.072-0.048c0.016-0.016,0.039-0.032,0.071-0.048l0.024-0.072c0-0.016-0.008-0.024-0.024-0.024
					c-0.032,0-0.067,0.012-0.107,0.036s-0.076,0.052-0.108,0.084c-0.016,0-0.08,0.044-0.191,0.132
					c-0.112,0.088-0.185,0.165-0.217,0.228c-0.016,0.016-0.027,0.024-0.035,0.024c-0.009,0-0.021,0.008-0.036,0.024
					c-0.097,0.048-0.168,0.12-0.216,0.216c-0.097,0.112-0.185,0.24-0.265,0.384l-0.023,0.024c-0.049,0.081-0.101,0.176-0.156,0.288
					c-0.057,0.112-0.108,0.208-0.156,0.288v0.024c-0.016,0-0.023,0.008-0.023,0.024v0.024L210.673-69.759z M210.793-69.063
					c0.063,0,0.151-0.144,0.264-0.432l0.048-0.096c0.016-0.032,0.052-0.096,0.108-0.192c0.056-0.096,0.12-0.196,0.192-0.3
					c0.071-0.104,0.136-0.204,0.191-0.3c0.056-0.096,0.092-0.152,0.108-0.168c0.016,0,0.023-0.008,0.023-0.024
					s-0.008-0.032-0.023-0.048h-0.024c-0.016,0-0.044,0.016-0.084,0.048s-0.1,0.112-0.18,0.24l-0.024,0.024
					c-0.048,0.081-0.1,0.16-0.155,0.24c-0.057,0.08-0.117,0.184-0.181,0.312c-0.016,0.016-0.04,0.052-0.072,0.108
					c-0.032,0.056-0.067,0.12-0.107,0.192c-0.04,0.072-0.072,0.14-0.096,0.204c-0.024,0.064-0.036,0.112-0.036,0.144
					c0,0.016,0.008,0.024,0.023,0.024L210.793-69.063z M213.337-71.175c0-0.224-0.048-0.336-0.145-0.336
					c-0.048,0-0.195,0.12-0.443,0.36c-0.248,0.24-0.517,0.576-0.804,1.008c-0.192,0.272-0.377,0.58-0.553,0.924
					s-0.328,0.724-0.456,1.14c0.097,0,0.168-0.008,0.217-0.024c0.079-0.032,0.22-0.096,0.42-0.192
					c0.199-0.096,0.388-0.2,0.563-0.312c0.272-0.224,0.488-0.464,0.648-0.72c0.159-0.256,0.279-0.496,0.359-0.72
					c0.097-0.256,0.16-0.504,0.192-0.744V-71.175z M211.896-70.791l-0.048-0.024l-0.023,0.024c-0.017,0-0.04,0.016-0.072,0.048
					v0.048c0.032,0.016,0.056,0.024,0.072,0.024h0.023c0-0.016,0.008-0.024,0.024-0.024l0.023-0.024
					c0.017-0.016,0.024-0.032,0.024-0.048L211.896-70.791z M212.089-70.935c0-0.016-0.008-0.024-0.024-0.024
					c-0.016-0.016-0.032-0.024-0.048-0.024c-0.032,0-0.048,0.016-0.048,0.048v0.024l0.048,0.048h0.024l0.023-0.024h0.024v-0.024
					V-70.935z M213.289-66.399h0.023c0,0.016,0.008,0.024,0.024,0.024c0.032,0,0.072-0.016,0.12-0.048
					c0.048-0.032,0.08-0.064,0.096-0.096v-0.048h-0.023c-0.032,0-0.076,0.016-0.133,0.048c-0.056,0.032-0.092,0.057-0.107,0.072
					V-66.399z M213.673-66.711v0.048v0.024h0.024c0.063,0,0.111-0.032,0.144-0.096v-0.048h-0.048l-0.048,0.024
					C213.728-66.759,213.705-66.743,213.673-66.711z M213.961-66.951c-0.032,0.032-0.04,0.056-0.024,0.072
					c0,0.016,0.008,0.024,0.024,0.024c0.048,0,0.072-0.016,0.072-0.048c0.016,0,0.023-0.016,0.023-0.048
					c-0.016,0-0.023-0.008-0.023-0.024h-0.024h-0.024C213.984-66.959,213.976-66.951,213.961-66.951z M214.297-67.215v0.024h0.024
					c0.031,0,0.075-0.02,0.132-0.06c0.056-0.04,0.092-0.076,0.107-0.108c0-0.016-0.004-0.024-0.012-0.024s-0.012-0.008-0.012-0.024
					h-0.024c-0.032,0-0.072,0.024-0.12,0.072s-0.08,0.08-0.096,0.096V-67.215z M214.657-67.575
					c-0.017,0.016-0.024,0.032-0.024,0.048c0,0.016,0.008,0.024,0.024,0.024c0.031,0,0.06-0.012,0.084-0.036
					c0.023-0.024,0.044-0.044,0.06-0.06v-0.048h-0.048l-0.048,0.024l-0.024,0.024L214.657-67.575z M214.896-67.815
					c-0.016,0.016-0.023,0.04-0.023,0.072l0.048,0.024c0.016,0,0.032-0.008,0.048-0.024c0-0.016,0.008-0.032,0.024-0.048v-0.024
					c0-0.016-0.017-0.024-0.048-0.024h-0.024v0.024H214.896z M215.209-68.103c-0.017,0.016-0.017,0.032,0,0.048l0.023,0.024h0.024
					l0.024-0.024l0.023-0.024v-0.048c0-0.016-0.023-0.016-0.072,0C215.217-68.127,215.209-68.119,215.209-68.103z M215.377-68.295
					l0.023,0.024c0,0.032,0.017,0.048,0.049,0.048c0.016,0,0.023-0.008,0.023-0.024h0.024c0-0.016,0.008-0.024,0.023-0.024v-0.024
					c0.016-0.016,0.024-0.04,0.024-0.072c-0.017-0.016-0.048-0.016-0.096,0L215.377-68.295z M215.688-68.583
					c0,0.016,0.008,0.032,0.024,0.048h0.024h0.023c0-0.016,0.008-0.024,0.024-0.024v-0.024l0.023-0.024v-0.024
					c-0.016-0.016-0.032-0.024-0.048-0.024c-0.032,0-0.048,0.016-0.048,0.048L215.688-68.583z"/>
				<path d="M214.704-67.167c0.017-0.032,0.024-0.072,0.024-0.12c0.176-0.672,0.364-1.332,0.563-1.98
					c0.2-0.648,0.412-1.299,0.637-1.956c0-0.016,0.004-0.028,0.012-0.036c0.008-0.008,0.012-0.028,0.012-0.06
					c0.064-0.16,0.124-0.336,0.181-0.528c0.056-0.192,0.115-0.352,0.18-0.48c0.032-0.032,0.048-0.064,0.048-0.096
					c0.016-0.016,0.024-0.028,0.024-0.036c0-0.008,0.008-0.02,0.023-0.036v-0.024c0.016-0.032,0.021-0.076,0.013-0.132
					c-0.009-0.056,0.02-0.084,0.084-0.084v-0.024c0.063,0,0.136-0.024,0.216-0.072c0.079-0.048,0.191-0.048,0.336,0
					c0.144,0.048,0.24,0.084,0.288,0.108c0.048,0.024,0.096,0.068,0.144,0.132s0.092,0.12,0.132,0.168s0.076,0.112,0.108,0.192
					c0,0.032,0.004,0.056,0.012,0.072s0.012,0.032,0.012,0.048c0.017,0.032,0.028,0.064,0.036,0.096
					c0.008,0.032,0.013,0.08,0.013,0.144c-0.017,0.081-0.032,0.132-0.049,0.156c-0.016,0.024-0.048,0.068-0.096,0.132
					c-0.063,0.064-0.104,0.128-0.12,0.192c-0.016,0.064-0.071,0.168-0.168,0.312c-0.032,0.081-0.084,0.176-0.155,0.288
					c-0.072,0.112-0.133,0.225-0.181,0.336c-0.032,0.064-0.056,0.128-0.072,0.192c-0.016,0.064-0.04,0.128-0.071,0.192
					c0.176-0.272,0.388-0.552,0.636-0.84c0.248-0.288,0.483-0.512,0.708-0.672c0.192-0.128,0.352-0.22,0.48-0.276
					c0.127-0.056,0.231-0.092,0.312-0.108c0.016,0,0.032-0.004,0.048-0.012c0.016-0.008,0.04-0.012,0.072-0.012h0.12
					c0.063,0,0.14,0.008,0.228,0.024c0.088,0.016,0.181,0.048,0.276,0.096c0.08,0,0.151,0.008,0.216,0.024
					c0.096,0.016,0.168,0.064,0.216,0.144c0.048,0.081,0.084,0.168,0.108,0.264c0.023,0.096,0.04,0.196,0.048,0.3
					s0.012,0.18,0.012,0.228c0.016,0.033,0.024,0.088,0.024,0.168c0.256-0.304,0.592-0.656,1.008-1.056s0.832-0.712,1.248-0.936
					c0.111-0.08,0.184-0.12,0.216-0.12c0.016-0.016,0.048-0.024,0.096-0.024c0.08-0.032,0.156-0.056,0.229-0.072
					s0.147-0.024,0.228-0.024c0.08-0.032,0.172-0.016,0.276,0.048c0.104,0.064,0.195,0.156,0.276,0.276
					c0.079,0.12,0.144,0.264,0.191,0.432s0.056,0.332,0.024,0.492c0.016,0.081,0.008,0.204-0.024,0.372s-0.071,0.356-0.12,0.564
					c-0.048,0.208-0.096,0.408-0.144,0.6s-0.08,0.352-0.096,0.48c0,0.064-0.017,0.144-0.049,0.24c0,0.032-0.008,0.048-0.023,0.048
					l-0.145,0.504c0,0.016-0.004,0.028-0.012,0.036c-0.008,0.008-0.012,0.02-0.012,0.036c-0.128,0.368-0.216,0.692-0.264,0.972
					c-0.049,0.28-0.081,0.5-0.097,0.66c-0.016,0.32,0.004,0.628,0.061,0.924c0.056,0.296,0.18,0.444,0.372,0.444
					c0.111,0,0.255-0.08,0.432-0.24c0.176-0.16,0.368-0.36,0.576-0.6c0.208-0.24,0.424-0.516,0.647-0.828
					c0.225-0.312,0.437-0.612,0.637-0.9c0.199-0.288,0.38-0.56,0.54-0.816c0.159-0.256,0.279-0.456,0.359-0.6l0.024-0.024
					c0.016-0.016,0.027-0.032,0.036-0.048c0.008-0.016,0.027-0.04,0.06-0.072c0.032-0.032,0.056-0.048,0.072-0.048
					c0.08,0,0.111,0.048,0.096,0.144c-0.016,0.112-0.064,0.216-0.144,0.312c-0.032,0.032-0.061,0.072-0.084,0.12
					c-0.024,0.048-0.053,0.088-0.084,0.12c-0.032,0.032-0.049,0.056-0.049,0.072c0,0.016,0.017,0,0.049-0.048
					c0.016-0.048,0.071-0.136,0.168-0.264c0.079-0.08,0.136-0.104,0.168-0.072v0.048v0.024h-0.024c-0.032,0-0.048,0.016-0.048,0.048
					v0.048h0.048h0.024v-0.024c0,0.033-0.009,0.064-0.024,0.096c0.016-0.032,0.032-0.048,0.048-0.048
					c0.032,0,0.048,0.032,0.048,0.096c0,0.016-0.004,0.028-0.012,0.036c-0.008,0.008-0.012,0.028-0.012,0.06v0.024
					c-0.032,0.064-0.048,0.104-0.048,0.12c-0.032,0.08-0.072,0.156-0.12,0.228c-0.048,0.072-0.072,0.124-0.072,0.156
					c-0.112,0.192-0.26,0.424-0.444,0.696c-0.184,0.272-0.376,0.548-0.575,0.828c-0.2,0.28-0.404,0.548-0.612,0.804
					c-0.208,0.256-0.393,0.464-0.552,0.624c-0.177,0.176-0.36,0.296-0.553,0.36c-0.191,0.064-0.368,0.096-0.527,0.096
					c-0.177,0-0.36-0.024-0.553-0.072c-0.096-0.048-0.2-0.104-0.312-0.168c-0.096-0.063-0.2-0.136-0.312-0.216
					c-0.112-0.08-0.217-0.184-0.313-0.312c-0.032-0.032-0.06-0.064-0.084-0.096c-0.024-0.032-0.044-0.063-0.06-0.096
					c-0.049-0.048-0.089-0.128-0.12-0.24v-0.024c-0.048-0.112-0.072-0.264-0.072-0.456c0-0.063,0.008-0.12,0.024-0.168
					c0-0.08,0.003-0.164,0.012-0.252c0.008-0.088,0.02-0.172,0.036-0.252c0.016-0.032,0.023-0.06,0.023-0.084
					s0.008-0.052,0.024-0.084v-0.024c0.031-0.128,0.056-0.232,0.072-0.312c0.016-0.08,0.031-0.144,0.048-0.192
					c0.016,0,0.023-0.016,0.023-0.048c0.064-0.255,0.132-0.543,0.204-0.864c0.072-0.32,0.136-0.624,0.192-0.912
					c0.056-0.288,0.1-0.54,0.132-0.756c0.032-0.216,0.04-0.348,0.024-0.396c-0.032-0.112-0.084-0.176-0.156-0.192
					s-0.132-0.016-0.181,0c-0.08,0.048-0.228,0.152-0.443,0.312c-0.216,0.16-0.437,0.376-0.66,0.648v0.024l-0.024,0.024
					c-0.032,0.048-0.14,0.16-0.323,0.336c-0.185,0.176-0.364,0.376-0.54,0.6c-0.032,0.128-0.072,0.256-0.12,0.384
					c-0.048,0.128-0.088,0.256-0.12,0.384l-0.024,0.024c-0.032,0.096-0.056,0.188-0.071,0.276c-0.017,0.088-0.032,0.165-0.049,0.228
					c-0.032,0.032-0.048,0.056-0.048,0.072c-0.032,0.112-0.084,0.244-0.155,0.396c-0.072,0.152-0.156,0.316-0.252,0.492
					c-0.081,0.128-0.177,0.256-0.288,0.384c-0.112,0.128-0.232,0.24-0.36,0.336c-0.017,0.016-0.032,0.024-0.048,0.024
					c-0.032,0.032-0.064,0.032-0.096,0c-0.017-0.032-0.024-0.068-0.024-0.108s-0.009-0.052-0.024-0.036
					c-0.032,0.016-0.068,0.04-0.107,0.072c-0.04,0.032-0.084,0.032-0.132,0v-0.024c0.016-0.032,0.048-0.284,0.096-0.756
					c0.048-0.472,0.136-1.004,0.264-1.596c0.016-0.048,0.024-0.092,0.024-0.132c0-0.04,0.008-0.076,0.023-0.108
					c0.064-0.368,0.104-0.696,0.12-0.984c0.016-0.288,0.008-0.472-0.023-0.552c-0.032-0.112-0.089-0.172-0.168-0.18
					c-0.081-0.008-0.137-0.012-0.168-0.012c-0.097,0.048-0.217,0.132-0.36,0.252s-0.316,0.292-0.516,0.516
					c-0.2,0.224-0.425,0.508-0.673,0.852s-0.516,0.764-0.804,1.26c-0.176,0.528-0.336,1.036-0.479,1.524
					c-0.145,0.488-0.192,0.836-0.145,1.044c0,0.096,0.009,0.184,0.024,0.264s0.023,0.156,0.023,0.228s0.017,0.124,0.049,0.156
					c0,0.016-0.009,0.032-0.024,0.048c-0.048,0.048-0.08,0.072-0.096,0.072c-0.064,0.016-0.141,0.016-0.229,0
					s-0.147-0.072-0.18-0.168h-0.024c-0.063,0.016-0.104,0-0.12-0.048c-0.016-0.048-0.031-0.088-0.048-0.12
					c0-0.016-0.008-0.008-0.023,0.024s-0.04,0.056-0.072,0.072c-0.016,0.016-0.04,0.008-0.072-0.024
					c-0.016-0.016-0.023-0.032-0.023-0.048c-0.08-0.144-0.133-0.296-0.156-0.456c-0.024-0.16-0.044-0.328-0.061-0.504
					c0-0.224,0.013-0.436,0.036-0.636C214.644-66.899,214.673-67.055,214.704-67.167z M214.944-65.847l0.024,0.024l0.048,0.048
					c0.016,0,0.032-0.008,0.048-0.024v-0.024c0-0.016,0.008-0.024,0.024-0.024c0-0.016-0.004-0.024-0.013-0.024
					c-0.008,0-0.012-0.008-0.012-0.024h-0.024h-0.048c-0.016,0-0.023,0.008-0.023,0.024
					C214.953-65.871,214.944-65.863,214.944-65.847h0.024H214.944z M214.944-65.655v0.024v0.024c0,0.016,0.009,0.024,0.024,0.024
					c0.016,0.016,0.04,0.024,0.071,0.024c0.017,0,0.032-0.008,0.049-0.024v-0.024l0.023-0.024h-0.023
					c0.016,0,0.023-0.008,0.023-0.024l-0.023-0.024c0-0.016-0.009-0.024-0.024-0.024h-0.072h-0.023
					c-0.016,0-0.024,0.008-0.024,0.024V-65.655z M214.992-66.351c-0.016,0-0.016,0.008,0,0.024c-0.031,0-0.031,0.016,0,0.048v0.024
					h0.048h0.024l0.024-0.024c0.016,0,0.023-0.004,0.023-0.012c0-0.008-0.008-0.012-0.023-0.012
					c0.016-0.016,0.023-0.032,0.023-0.048v-0.024h-0.023c0-0.016-0.009-0.024-0.024-0.024
					C215.016-66.399,214.992-66.383,214.992-66.351z M214.968-66.111c0,0.032,0.023,0.048,0.071,0.048l0.024-0.024h0.024v-0.024
					v-0.024v-0.024l-0.024-0.024h-0.024h-0.023c-0.016,0-0.024,0.008-0.024,0.024c-0.016,0-0.023,0.008-0.023,0.024V-66.111z
					 M215.089-65.391v-0.024l-0.024-0.024h-0.024h-0.048l-0.023,0.024v0.024v0.024c0.016,0.016,0.032,0.024,0.048,0.024h0.023
					l0.049-0.024V-65.391z M215.016-66.663c-0.016,0.016-0.024,0.057-0.024,0.12v0.024v0.024c0.017,0.016,0.04,0.024,0.072,0.024
					c0.048,0,0.072-0.024,0.072-0.072c0-0.016,0.004-0.04,0.012-0.072s-0.004-0.056-0.036-0.072
					C215.064-66.687,215.032-66.679,215.016-66.663z M215.064-66.951c0,0.032,0.032,0.048,0.096,0.048h0.024v-0.024v-0.024v-0.024
					l-0.024-0.024h-0.023h-0.048c-0.017,0-0.024,0.008-0.024,0.024V-66.951z M215.112-67.095c0.017,0,0.028,0.004,0.036,0.012
					c0.008,0.008,0.021,0.012,0.036,0.012h0.023v-0.024v-0.024c0.017,0,0.024-0.008,0.024-0.024v-0.024v-0.024h-0.024
					c-0.016-0.016-0.031-0.024-0.048-0.024l-0.023,0.048c-0.016,0-0.024,0.016-0.024,0.048V-67.095z M215.16-67.311l0.024,0.024
					l0.023,0.024c0.064,0,0.097-0.056,0.097-0.168v-0.024c-0.016-0.048-0.056-0.056-0.12-0.024c-0.016,0.016-0.024,0.04-0.024,0.072
					S215.16-67.343,215.16-67.311z M219.384-71.295c0,0.016,0.008,0.024,0.023,0.024v0.024c0,0.048,0.016,0.081,0.048,0.096h0.024
					l0.024-0.024v-0.072c-0.017-0.016-0.024-0.032-0.024-0.048l-0.048-0.048c-0.032,0-0.048,0.008-0.048,0.024V-71.295z
					 M219.384-69.855c0,0.016,0.008,0.032,0.023,0.048h0.024c0.016,0,0.031-0.008,0.048-0.024c0.032-0.032,0.032-0.063,0-0.096
					c0-0.016-0.017-0.024-0.048-0.024c-0.017,0-0.024,0.004-0.024,0.012c0,0.008-0.008,0.012-0.023,0.012v0.024v0.024V-69.855z
					 M219.48-70.143c-0.032,0.016-0.048,0.032-0.048,0.048c0,0.032,0.008,0.056,0.023,0.072h0.024h0.024
					c0.016,0,0.023-0.008,0.023-0.024v-0.024c0.016,0,0.024-0.008,0.024-0.024h-0.024c0.016-0.016,0.016-0.032,0-0.048h-0.023
					c0-0.016-0.009-0.024-0.024-0.024V-70.143z M219.576-70.599c0.032-0.032,0.044-0.08,0.036-0.144s-0.021-0.104-0.036-0.12
					c0-0.016-0.016-0.024-0.048-0.024s-0.048,0.032-0.048,0.096c-0.048,0.081-0.048,0.144,0,0.192
					c0.016,0.016,0.032,0.024,0.048,0.024C219.56-70.575,219.576-70.583,219.576-70.599z M219.456-70.287l0.024,0.024
					c0.016,0,0.024,0.004,0.024,0.012c0,0.008,0.008,0.012,0.023,0.012c0.032,0,0.048-0.024,0.048-0.072
					c0-0.063-0.008-0.096-0.023-0.096c0-0.016-0.009-0.024-0.024-0.024c-0.048,0-0.072,0.04-0.072,0.12V-70.287z M219.552-71.007
					l-0.024-0.024c-0.016,0-0.023,0.016-0.023,0.048c0,0.016-0.009,0.024-0.024,0.024v0.024c0,0.032,0.016,0.048,0.048,0.048
					c0.016,0,0.024-0.008,0.024-0.024c0.016,0,0.023-0.008,0.023-0.024v-0.024v-0.024L219.552-71.007z M219.72-71.487l0.023,0.024
					c0.032,0.064,0.048,0.132,0.048,0.204c0,0.072-0.008,0.14-0.023,0.204v0.024c0.016,0.08,0.027,0.152,0.036,0.216
					c0.008,0.064,0.004,0.136-0.013,0.216c0,0.128,0.008,0.201,0.024,0.216h0.024c0.031,0,0.048-0.024,0.048-0.072
					c0.016-0.016,0.023-0.063,0.023-0.144v-0.048c0-0.016,0.004-0.032,0.013-0.048c0.008-0.016,0.012-0.032,0.012-0.048
					c0.016-0.064,0.023-0.16,0.023-0.288c0-0.08-0.016-0.152-0.048-0.216c0-0.016-0.008-0.032-0.023-0.048v-0.024
					c-0.032-0.128-0.072-0.192-0.12-0.192h-0.024L219.72-71.487z M222.841-69.831c0.016,0,0.023-0.008,0.023-0.024
					c0-0.032-0.023-0.048-0.072-0.048c-0.016,0-0.023,0.008-0.023,0.024h-0.024v0.024v0.024l0.024,0.024
					c0.016,0,0.023,0.008,0.023,0.024l0.024-0.024h0.024V-69.831z M222.912-70.047c0-0.016,0.004-0.028,0.013-0.036
					c0.008-0.008,0.012-0.02,0.012-0.036c-0.017-0.016-0.04-0.024-0.072-0.024c0-0.016-0.008-0.016-0.023,0v0.024l-0.024,0.024
					v0.024c0,0.032,0.008,0.048,0.024,0.048l0.023,0.024L222.912-70.047z M222.936-70.239c0.048-0.032,0.08-0.092,0.096-0.18
					c0.016-0.088,0.032-0.196,0.048-0.324v-0.072c0.032-0.08,0.048-0.192,0.048-0.336c0-0.064,0.009-0.112,0.024-0.144
					c0.032-0.048,0.044-0.108,0.036-0.18c-0.009-0.072-0.021-0.14-0.036-0.204v-0.072c-0.032-0.063-0.057-0.096-0.072-0.096
					s-0.032,0.008-0.048,0.024s-0.023,0.04-0.023,0.072c0,0.032,0,0.056,0,0.072v0.024c0.016,0.128,0.027,0.248,0.035,0.36
					c0.009,0.112-0.004,0.232-0.035,0.36c-0.017,0.064-0.028,0.12-0.036,0.168c-0.009,0.048-0.021,0.104-0.036,0.168
					c-0.032,0.128-0.048,0.24-0.048,0.336v0.024h0.023H222.936z M223.2-69.711c0.016-0.048,0.032-0.096,0.048-0.144
					c0.017-0.048,0.032-0.104,0.049-0.168c0.031-0.063,0.048-0.112,0.048-0.144c0.016-0.016,0.023-0.04,0.023-0.072
					s0.008-0.048,0.024-0.048c0-0.016,0.008-0.024,0.023-0.024c0-0.016,0.008-0.024,0.024-0.024l0.024-0.024
					c0.016-0.016,0.023-0.04,0.023-0.072v-0.024c0-0.032,0.008-0.056,0.024-0.072c0-0.048,0.008-0.08,0.023-0.096v-0.072
					c0-0.032,0.004-0.056,0.013-0.072c0.008-0.016,0.012-0.032,0.012-0.048c0-0.08-0.009-0.144-0.024-0.192
					c0-0.128,0.008-0.216,0.024-0.264c0.032-0.032,0.044-0.084,0.036-0.156c-0.009-0.072-0.021-0.124-0.036-0.156
					c-0.017-0.032-0.04-0.048-0.072-0.048s-0.052,0.016-0.06,0.048c-0.009,0.032-0.013,0.056-0.013,0.072v0.144
					c0,0.032-0.004,0.068-0.012,0.108s-0.004,0.068,0.012,0.084v0.048v0.072c0,0.016-0.004,0.032-0.012,0.048
					c-0.008,0.016-0.012,0.032-0.012,0.048c-0.032,0.032-0.048,0.056-0.048,0.072c-0.017,0.032-0.024,0.068-0.024,0.108
					s-0.008,0.076-0.023,0.108c0,0.016-0.005,0.032-0.013,0.048c-0.008,0.016-0.012,0.04-0.012,0.072
					c-0.017,0.016-0.024,0.032-0.024,0.048l-0.071,0.432v0.024c0,0.016-0.005,0.024-0.013,0.024s-0.012,0.008-0.012,0.024v0.024
					v0.048c-0.016,0.032-0.032,0.076-0.048,0.132c-0.017,0.056-0.017,0.1,0,0.132c0,0.016,0.008,0.024,0.023,0.024
					c0.017,0,0.04-0.016,0.072-0.048V-69.711z M223.56-69.711c0.016-0.016,0.023-0.032,0.023-0.048c0-0.032-0.023-0.048-0.071-0.048
					h-0.024h-0.023v0.024v0.024v0.024l-0.024,0.024l0.048,0.048h0.024c0.016,0,0.031-0.008,0.048-0.024V-69.711z M223.656-70.023
					c0.016,0,0.016-0.008,0-0.024h-0.023c-0.017,0-0.024-0.008-0.024-0.024c-0.032,0-0.048,0.016-0.048,0.048
					c-0.017,0-0.024,0.016-0.024,0.048v0.024c0,0.016,0.016,0.024,0.048,0.024h0.024h0.024c0.016,0,0.023-0.008,0.023-0.024v-0.024
					v-0.024V-70.023z M223.728-70.311c0.016,0,0.023-0.016,0.023-0.048v-0.024h-0.023c0-0.016-0.009-0.024-0.024-0.024
					s-0.032,0.008-0.048,0.024l-0.023,0.024c0,0.016-0.005,0.032-0.013,0.048c-0.008,0.016-0.012,0.04-0.012,0.072v0.024
					c0.016,0.016,0.04,0.024,0.072,0.024h0.023l0.024-0.024v-0.048C223.744-70.279,223.744-70.295,223.728-70.311z M223.848-70.695
					c0.016-0.048,0.023-0.088,0.023-0.12c0-0.063-0.008-0.104-0.023-0.12h-0.024h-0.023c-0.049,0-0.076,0.028-0.084,0.084
					c-0.009,0.057-0.021,0.108-0.036,0.156v0.048v0.024c0.031,0.032,0.056,0.048,0.071,0.048
					C223.784-70.575,223.816-70.615,223.848-70.695z M223.872-71.055v-0.024v-0.024h-0.023h-0.024c-0.032,0-0.048,0.016-0.048,0.048
					h-0.024v0.024l0.024,0.048c0,0.016,0.016,0.024,0.048,0.024h0.024l0.023-0.024v-0.024v-0.024V-71.055z M223.801-71.415
					l-0.024,0.024c0,0.033,0.008,0.057,0.024,0.072c0,0.016,0.016,0.024,0.048,0.024h0.048v-0.048v-0.048
					c0.016-0.016,0.016-0.024,0-0.024v-0.048l-0.048-0.048C223.816-71.511,223.801-71.479,223.801-71.415z M225.192-66.903
					c-0.016,0.048-0.016,0.08,0,0.096l0.024,0.024c0.031,0,0.048-0.016,0.048-0.048c0.048-0.048,0.088-0.112,0.12-0.192v-0.024
					h-0.024c-0.032,0-0.068,0.016-0.108,0.048C225.212-66.967,225.192-66.935,225.192-66.903z M225.48-67.287
					c-0.017,0.016-0.024,0.032-0.024,0.048s-0.008,0.032-0.023,0.048c0.016,0.016,0.031,0.024,0.048,0.024
					c0.016,0,0.024-0.008,0.024-0.024l0.048-0.048l0.048-0.048l-0.024-0.024c0-0.016-0.008-0.024-0.023-0.024
					C225.505-67.335,225.48-67.319,225.48-67.287z M225.673-67.527c-0.032,0.032-0.032,0.056,0,0.072l0.023,0.024l0.048-0.048
					l0.024-0.024c0-0.016-0.009-0.032-0.024-0.048l-0.023-0.024c-0.017,0-0.024,0.008-0.024,0.024L225.673-67.527z M225.984-67.959
					l-0.048,0.048v0.024c0.032,0.032,0.056,0.048,0.072,0.048c0.031,0,0.048-0.016,0.048-0.048c0.048-0.048,0.088-0.112,0.12-0.192
					l-0.024-0.024l-0.024-0.024c-0.032,0-0.063,0.024-0.096,0.072C226-68.007,225.984-67.975,225.984-67.959z M226.224-68.295
					c-0.017,0-0.024,0.008-0.024,0.024c0,0.032,0.016,0.048,0.048,0.048h0.024c0.016-0.032,0.027-0.052,0.036-0.06
					c0.008-0.008,0.02-0.028,0.036-0.06c0.016,0,0.023-0.004,0.023-0.012c0-0.008-0.008-0.012-0.023-0.012
					c-0.032-0.016-0.057-0.016-0.072,0c-0.017,0-0.024,0.008-0.024,0.024c0,0.016-0.004,0.024-0.012,0.024
					S226.224-68.311,226.224-68.295z M226.416-68.535c0,0.016,0.008,0.024,0.024,0.024c0.016,0,0.032-0.008,0.048-0.024
					s0.024-0.032,0.024-0.048c0.016,0,0.016-0.008,0-0.024v-0.024h-0.048l-0.024,0.024l-0.024,0.024V-68.535z M226.752-69.015
					c-0.016,0-0.04,0.016-0.071,0.048c-0.017,0.016-0.024,0.032-0.024,0.048l0.024,0.024c0,0.016,0.016,0.024,0.048,0.024
					l0.023-0.024v-0.024h0.024v-0.048C226.776-68.983,226.768-68.999,226.752-69.015z M226.848-69.231
					c-0.017,0.016-0.024,0.032-0.024,0.048v0.024c0,0.032,0.016,0.048,0.048,0.048h0.024l0.024-0.024v-0.024h0.023v-0.024h0.024
					v-0.072v-0.024h-0.024C226.912-69.279,226.88-69.263,226.848-69.231z"/>
			</g>
		</g>
	</g>
	<g id="Sol" display="inline">
	</g>
</g>
<g id="Capa_4">
	<g>
		<circle fill="#EEDAEF" cx="195.955" cy="-93.089" r="26.4"/>
		<g>
			<path fill="#FEDB00" d="M195.873-100.675c-4.117,0.044-7.442,3.394-7.442,7.522c0,4.128,3.324,7.478,7.442,7.522V-100.675z"/>
			<path fill="#FEDB00" d="M195.873-84.234c-0.616,0.043-1.104,0.551-1.104,1.178v7.416c0,0.627,0.488,1.135,1.104,1.178V-84.234z"
				/>
			<path fill="#FEDB00" d="M195.873-111.724c-0.616,0.043-1.104,0.551-1.104,1.178v7.416c0,0.627,0.488,1.135,1.104,1.178V-111.724z
				"/>
			<path fill="#FEDB00" d="M177.316-93.093c0,0.655,0.531,1.186,1.186,1.186h7.416c0.655,0,1.186-0.531,1.186-1.186
				c0-0.655-0.531-1.186-1.186-1.186h-7.416C177.847-94.279,177.316-93.748,177.316-93.093z"/>
			<path fill="#FEDB00" d="M182.775-79.913c0.463,0.463,1.214,0.463,1.678,0l5.244-5.244c0.463-0.463,0.463-1.214,0-1.678
				c-0.463-0.463-1.214-0.463-1.678,0l-5.244,5.244C182.312-81.128,182.312-80.377,182.775-79.913z"/>
			<path fill="#FEDB00" d="M182.775-106.273c-0.463,0.463-0.463,1.214,0,1.677l5.244,5.244c0.463,0.463,1.214,0.463,1.678,0
				c0.463-0.463,0.463-1.214,0-1.678l-5.244-5.244C183.989-106.736,183.238-106.736,182.775-106.273z"/>
		</g>
		<g>
			<path fill="#FE9432" d="M195.835-100.675c4.117,0.044,7.442,3.394,7.442,7.522c0,4.128-3.324,7.478-7.442,7.522V-100.675z"/>
			<path fill="#FE9432" d="M195.835-84.234c0.616,0.043,1.104,0.551,1.104,1.178v7.416c0,0.627-0.488,1.135-1.104,1.178V-84.234z"/>
			<path fill="#FE9432" d="M195.835-111.724c0.616,0.043,1.104,0.551,1.104,1.178v7.416c0,0.627-0.488,1.135-1.104,1.178V-111.724z"
				/>
			<path fill="#FE9432" d="M214.391-93.093c0,0.655-0.531,1.186-1.186,1.186h-7.416c-0.655,0-1.186-0.531-1.186-1.186
				c0-0.655,0.531-1.186,1.186-1.186h7.416C213.86-94.279,214.391-93.748,214.391-93.093z"/>
			<path fill="#FE9432" d="M208.932-79.913c-0.463,0.463-1.214,0.463-1.677,0l-5.244-5.244c-0.463-0.463-0.463-1.214,0-1.678
				c0.463-0.463,1.214-0.463,1.677,0l5.244,5.244C209.395-81.128,209.395-80.377,208.932-79.913z"/>
			<path fill="#FE9432" d="M208.932-106.273c0.463,0.463,0.463,1.214,0,1.677l-5.244,5.244c-0.463,0.463-1.214,0.463-1.677,0
				c-0.463-0.463-0.463-1.214,0-1.678l5.244-5.244C207.718-106.736,208.469-106.736,208.932-106.273z"/>
		</g>
	</g>
</g>
</svg>
