<?xml version="1.0" encoding="utf-8"?>
<!-- Generator: Adobe Illustrator 17.0.0, SVG Export Plug-In . SVG Version: 6.00 Build 0)  -->
<!DOCTYPE svg PUBLIC "-//W3C//DTD SVG 1.1//EN" "http://www.w3.org/Graphics/SVG/1.1/DTD/svg11.dtd">
<svg version="1.1" xmlns="http://www.w3.org/2000/svg" xmlns:xlink="http://www.w3.org/1999/xlink" x="0px" y="0px"
	 width="53.372px" height="53.372px" viewBox="-29.988 34.402 53.372 53.372" enable-background="new -29.988 34.402 53.372 53.372"
	 xml:space="preserve">
<g id="fondo" display="none">
</g>
<g id="Capa_1" display="none">
	<path display="inline" fill="#EEDAEF" d="M33.884,32.896c-0.042-0.06-0.052-0.132-0.127-0.191
		c-0.642-0.519-1.897-0.738-3.154-0.812c-1.285-0.079-2.675-0.052-4.181-0.14c-2.128-0.258-4.535,0.277-6.669,0.561
		c2.559-0.132,5.146-0.399,7.645-0.388c1.243,0.01,2.467,0.088,3.589,0.306c1.091,0.218,2.155,0.616,2.583,1.138
		c-0.196,0.235-0.349,0.437-0.523,0.577c-0.212,0.151-0.388,0.222-0.61,0.198c-1.098-0.318-2.58-0.442-4.058-0.448
		c-0.014-0.226-0.042-0.669-0.056-0.892c-4.241,0.957-8.739-0.14-13.26,1.563c0.182,0.098,0.106,0.292,0.09,0.441l-0.033,0.005
		l0.033-0.005c-0.016,0.13,0.017,0.226,0.309,0.189c-0.292,0.037-0.325-0.059-0.309-0.189c4.56-0.797,8.82-1.255,13.055-1.112
		c-3.265,0.013-6.671,0.496-10.129,1.014c-1.736,0.262-3.499,0.54-5.33,0.78c-1.838,0.236-3.714,0.454-5.837,0.492
		c-0.358,0.008-1.098,0.01-1.501-0.013c-0.371-0.175-0.768-0.341-1.18-0.5c-0.49-0.173-0.907-0.321-1.274-0.451
		c-0.406-0.123-0.975-0.345-1.461-0.52c-0.546-0.237-1.294-0.563-1.668-0.859c0.507-0.337,0.63-1.269,1.034-1.777
		c0.198-0.261,0.426-0.42,0.768-0.41c0.187-0.004,0.401,0.032,0.658,0.119c0.257,0.083,0.532,0.154,0.886,0.313
		c0.049-0.219,0.146-0.659,0.195-0.878c-1.252-0.853-1.039-2.343-0.448-3.202c0.458-0.947,1.545-1.282,1.548-1.853
		c-0.098-0.279,0.217-0.269,0.738-0.294c0.611,0.01,1.22,0.02,1.862,0.03c1.447,0.011,3.131-0.034,4.723-0.441
		c2.334-0.493,4.729-1.057,7.271-0.94c3.495,0.229,7.292-0.51,11.11,0.32c0.689,0.102,1.646-0.007,2.591,0.01
		c0.468,0.006,0.921,0.031,1.328,0.133c0.395,0.092,0.702,0.221,0.892,0.444c0.546,0.455,0.427,0.922,0.215,1.42
		c-1.263-0.358-2.404-0.462-3.516-0.528c-1.117-0.072-2.182-0.06-3.242-0.062c-2.589-0.104-5.128-0.091-7.657-0.218
		c2.497,0.302,5.028,0.246,7.657,0.218c1.06,0.055,2.119,0.112,3.213,0.256c1.086,0.135,2.197,0.325,3.364,0.734
		c-0.198,0.425-0.375,0.876-0.352,1.337c0,0,0.16,0.038,0.36,0.085c0.199,0.069,0.438,0.151,0.597,0.206
		c0.432,0.797,0.193,1.475-0.163,2.033c-0.366,0.565-0.846,1.095-1.13,1.572C34.228,32.451,34.023,32.675,33.884,32.896z"/>
	<g id="Sol" display="inline">
	</g>
</g>
<g id="Capa_4">
	<g>
		<g>
			<defs>
				<circle id="SVGID_10_" cx="-3.068" cy="2.984" r="26.686"/>
			</defs>
			<clipPath id="SVGID_1_">
				<use xlink:href="#SVGID_10_"  overflow="visible"/>
			</clipPath>
			<g clip-path="url(#SVGID_1_)">
				<polygon fill="#6FFFDE" points="4.674,-2.078 5.699,-2.078 3.486,45.388 0.238,46.106 -4.294,46.106 -5.741,45.897 
					0.238,23.393 				"/>
				<g>
					<path fill="#000B37" d="M4.836,45.309c0.002-0.011,0.005-0.021,0.006-0.032c0.251-2.57,0.038-5.235-0.001-7.817
						c-0.036-2.352,0.044-4.762-0.322-7.092c0.053-0.094,0.088-0.206,0.096-0.342c0.318-5.362,0.357-10.741,0.661-16.105
						C5.578,8.606,6.11,3.298,6.305-2.022C6.472-2.254,6.494-2.599,6.3-2.85C6.007-3.232,5.454-3.353,4.998-3.408
						C4.548-3.463,4.093-3.38,3.693-3.166c-0.262,0.14-0.343,0.467-0.258,0.721c0,0.001,0,0.001,0,0.001
						C2.281,8.114,0.301,18.477-2.322,28.763c-0.039,0.154-0.033,0.295,0.001,0.423c-0.92,2.635-1.37,5.491-1.955,8.212
						c-0.571,2.653-1.226,5.304-1.678,7.98c-0.038,0.227,0.059,0.404,0.213,0.519c-0.024,0.145,0.02,0.305,0.153,0.412
						c2.557,2.065,7.54,1.729,10.268,0.176C5.121,46.234,5.132,45.608,4.836,45.309z M4.674-2.078
						C4.732-2.07,4.791-2.063,4.848-2.051c0.103,0.021,0.199,0.054,0.295,0.091c-0.8,5.215-1.104,10.517-1.42,15.779
						c-0.302,5.027-0.645,10.098-0.609,15.14c-0.576-0.152-1.209-0.199-1.736-0.254c-0.668-0.07-1.331-0.083-1.993-0.042
						C2.165,18.642,3.886,8.286,4.674-2.078z M-4.718,45.623c0.745-2.805,1.281-5.68,1.898-8.516
						c0.507-2.332,1.148-4.713,1.432-7.096c0.89,0.039,1.782,0.082,2.663,0.219c0.747,0.115,1.474,0.416,2.219,0.436
						c-0.312,2.461-0.168,5.003-0.161,7.477c0.006,2.391-0.127,4.846,0.147,7.222c0.001,0.009,0.004,0.016,0.005,0.025
						c-1.388,0.398-2.707,0.771-4.209,0.769C-2.088,46.155-3.384,45.784-4.718,45.623z"/>
					<path fill="#000B37" d="M2.58,44.683c-0.153-0.283-0.545-0.372-0.827-0.487c-0.308-0.126-0.573,0.373-0.27,0.532
						c0.264,0.138,0.598,0.398,0.908,0.334C2.553,45.029,2.664,44.837,2.58,44.683z"/>
					<path fill="#000B37" d="M2.518,43.38c-0.137-0.162-0.356-0.221-0.549-0.298c-0.255-0.101-0.444,0.278-0.218,0.429
						c0.175,0.117,0.346,0.257,0.561,0.278C2.528,43.811,2.653,43.54,2.518,43.38z"/>
					<path fill="#000B37" d="M2.554,42.178c-0.118-0.15-0.317-0.206-0.495-0.257c-0.27-0.078-0.497,0.299-0.234,0.461
						c0.187,0.116,0.364,0.219,0.587,0.204C2.612,42.573,2.658,42.309,2.554,42.178z"/>
					<path fill="#000B37" d="M2.464,41.112c0.012-0.314-0.294-0.537-0.574-0.605c-0.339-0.082-0.523,0.399-0.182,0.522
						c0.157,0.057,0.21,0.201,0.347,0.281C2.219,41.405,2.456,41.324,2.464,41.112z"/>
					<path fill="#000B37" d="M2.561,39.713c-0.081-0.222-0.371-0.357-0.562-0.479c-0.304-0.193-0.585,0.231-0.314,0.455
						c0.181,0.149,0.391,0.372,0.636,0.38C2.52,40.077,2.625,39.889,2.561,39.713z"/>
					<path fill="#000B37" d="M2.598,38.532c-0.082-0.246-0.314-0.388-0.519-0.535c-0.238-0.17-0.557,0.168-0.349,0.387
						c0.174,0.182,0.351,0.4,0.606,0.446C2.483,38.856,2.646,38.676,2.598,38.532z"/>
					<path fill="#000B37" d="M2.55,36.98c0.022-0.349-0.369-0.539-0.67-0.546c-0.285-0.006-0.417,0.457-0.106,0.522
						c0.183,0.038,0.26,0.195,0.43,0.253C2.364,37.263,2.539,37.151,2.55,36.98z"/>
					<path fill="#000B37" d="M2.388,35.039c-0.08-0.191-0.258-0.348-0.393-0.505c-0.229-0.267-0.632,0.08-0.413,0.353
						c0.13,0.162,0.25,0.363,0.425,0.478C2.23,35.512,2.487,35.276,2.388,35.039z"/>
				</g>
			</g>
		</g>
	</g>
	<g>
		<circle fill="#EEDAEF" cx="-3.302" cy="61.088" r="26.686"/>
		<g>
			<defs>
				<circle id="SVGID_12_" cx="-3.302" cy="61.088" r="26.686"/>
			</defs>
			<clipPath id="SVGID_3_">
				<use xlink:href="#SVGID_12_"  overflow="visible"/>
			</clipPath>
			<g clip-path="url(#SVGID_3_)">
				<polygon fill="#00A99D" points="2.058,80.487 9.485,73.267 12.009,75.35 4.053,82.481 				"/>
				<polygon fill="#41B35C" points="9.859,90.469 18.415,82.625 12.009,75.35 3.258,83.334 				"/>
				<path fill="#930C36" d="M-18.426,47.335l1.952,5.108l5.3,7.168l4.969-3.908l-6.646-6.234
					C-12.85,49.469-15.776,46.08-18.426,47.335z"/>
				<polygon fill="#41B35C" points="-12.315,61.527 -5.322,56.084 10.419,74.351 2.176,80.029 				"/>
				<path fill="#000B37" d="M13.549,74.434c-0.151-0.141-0.314-0.203-0.471-0.22c-0.183-0.098-0.398-0.126-0.604-0.013
					c-0.054,0.03-0.106,0.063-0.159,0.094c-0.129-0.267-0.312-0.5-0.527-0.731c-0.235-0.251-0.514-0.503-0.851-0.551
					c-0.039-0.036-0.078-0.072-0.117-0.107c-0.089-0.081-0.195-0.105-0.301-0.093c-0.063-0.037-0.131-0.061-0.199-0.078
					c-0.005-0.011-0.004-0.022-0.009-0.032c-1.554-3.257-4.765-6.132-7.071-8.9c-2.562-3.075-4.999-6.418-7.918-9.164
					c-0.176-0.165-0.368-0.222-0.547-0.212c-0.198-0.102-0.427-0.131-0.647-0.007c-0.238,0.134-0.468,0.283-0.695,0.436
					c-0.594-1.218-1.653-2.214-2.52-3.243c-0.776-0.921-1.526-2.026-2.504-2.763c0.017-0.181-0.038-0.368-0.199-0.53
					c-1.505-1.52-4.289-2.861-6.49-2.312c-0.451-0.117-1.027,0.198-0.961,0.813c0.236,2.217,1.016,4.521,2.352,6.345
					c-0.032,0.119-0.025,0.249,0.039,0.377c0.62,1.22,1.571,2.212,2.442,3.259c0.729,0.877,1.407,1.925,2.315,2.637
					c-0.317,0.325-0.609,0.669-0.847,1.048c-0.143,0.227-0.125,0.469-0.019,0.659c-0.038,0.202,0.006,0.422,0.175,0.629
					c2.539,3.102,5.078,6.204,7.618,9.306c2.26,2.761,4.398,5.947,7.042,8.362c-0.123,0.155-0.242,0.311-0.352,0.476
					c-0.144,0.216-0.122,0.454-0.012,0.639c0.007,0.027,0.007,0.052,0.017,0.079c0.172,0.469,0.596,0.821,0.926,1.185
					c0.126,0.139,0.253,0.273,0.381,0.405c-0.324,0.479-0.043,1.022,0.421,1.109c1.713,2.572,3.888,5.16,6.009,7.392
					c0.077,0.081,0.16,0.139,0.244,0.182c0.147,0.31,0.515,0.522,0.876,0.349c1.716-0.825,3.129-2.24,4.595-3.444
					c1.66-1.364,3.464-2.644,4.922-4.222c0.261-0.282,0.311-0.599,0.229-0.862c0.01-0.105,0-0.213-0.059-0.318
					c-0.792-1.415-1.909-2.619-2.938-3.867C15.981,77.141,14.882,75.673,13.549,74.434z M-13.207,55.804
					c-0.726-0.877-1.405-1.801-2.242-2.569c-0.005-0.011-0.003-0.021-0.009-0.032c-0.969-1.951-1.74-3.785-2.181-5.882
					c0.687,0.148,1.386,0.246,2.052,0.498c1.03,0.389,1.866,0.995,2.736,1.65c0.007,0.005,0.013,0.007,0.02,0.012
					c0.509,1.222,1.552,2.247,2.379,3.261c0.835,1.024,1.606,2.225,2.662,3.034c-0.602,0.497-1.184,1.023-1.777,1.52
					c-0.482,0.404-1.004,0.801-1.509,1.217C-11.609,57.512-12.493,56.667-13.207,55.804z M-3.909,70.036
					c-2.467-3.011-4.934-6.023-7.401-9.034c1.053-0.626,1.979-1.536,2.91-2.3c1.035-0.849,2.148-1.651,3.078-2.618
					c2.103,3.142,4.746,5.984,7.146,8.891c2.216,2.685,4.399,6.245,7.176,8.394c-1.218,0.855-2.328,1.859-3.472,2.816
					c-0.883,0.738-1.863,1.444-2.719,2.251C0.963,75.427-1.683,72.753-3.909,70.036z M3.629,80.847
					c-0.139-0.163-0.276-0.346-0.422-0.521c1.254-0.756,2.352-1.834,3.47-2.753c1.272-1.046,2.596-2.04,3.742-3.221
					c0.048,0.076,0.099,0.151,0.151,0.222c0.15,0.204,0.305,0.389,0.483,0.546c-1.112,0.816-2.136,1.773-3.184,2.656
					c-1.326,1.116-2.728,2.187-3.994,3.381C3.793,81.053,3.716,80.949,3.629,80.847z M13.798,86.386
					c-1.186,0.992-2.486,1.918-3.541,3.054c-1.683-2.31-3.645-4.699-5.678-6.723c1.548-1.08,2.974-2.376,4.431-3.565
					c1.287-1.051,2.667-2.036,3.812-3.242c0.904,1.31,1.983,2.501,3.001,3.722c0.845,1.012,1.65,2.072,2.591,2.993
					C16.78,83.726,15.306,85.124,13.798,86.386z"/>
				<path fill="#000B37" d="M-13.494,50.259c-0.191,0.38-0.297,0.738-0.624,1.037c-0.326,0.298-0.692,0.391-1.103,0.51
					c-0.33,0.095-0.357,0.579,0.022,0.626c1.101,0.137,2.396-0.996,2.339-2.113C-12.879,49.948-13.367,50.005-13.494,50.259z"/>
				<path fill="#000B37" d="M6.715,72.542c-0.279-0.136-0.665-0.121-0.97-0.155c-0.303-0.034-0.656-0.104-0.945,0.015
					c-0.198,0.082-0.241,0.397-0.048,0.511c0.05,0.025,0.095,0.056,0.135,0.094c0.049,0.04,0.108,0.051,0.166,0.043
					c0.203,0.059,0.428,0.081,0.62,0.109c0.309,0.045,0.667,0.152,0.976,0.09C7.03,73.171,7.035,72.699,6.715,72.542z"/>
				<path fill="#000B37" d="M5.239,71.049C5.015,70.952,4.741,70.95,4.5,70.924c-0.244-0.026-0.495-0.068-0.739-0.026
					c-0.34,0.058-0.346,0.499-0.059,0.63c0.223,0.102,0.486,0.122,0.727,0.158c0.244,0.037,0.5,0.099,0.745,0.061
					C5.55,71.691,5.559,71.188,5.239,71.049z"/>
				<path fill="#000B37" d="M3.837,69.596c-0.222-0.078-0.465-0.049-0.698-0.046c-0.235,0.003-0.469,0.01-0.702,0.035
					c-0.372,0.04-0.331,0.595,0.022,0.637c0.235,0.028,0.471,0.037,0.708,0.042c0.239,0.005,0.463,0.028,0.692-0.049
					C4.145,70.119,4.095,69.687,3.837,69.596z"/>
				<path fill="#000B37" d="M2.528,68.078c-0.356-0.022-0.741,0.114-1.073,0.232c-0.27,0.096-0.197,0.561,0.093,0.56
					c0.352-0.002,0.76-0.001,1.088-0.143C2.944,68.594,2.868,68.099,2.528,68.078z"/>
				<path fill="#000B37" d="M1.937,66.752c-0.247-0.091-0.536-0.084-0.797-0.103c-0.26-0.019-0.536-0.066-0.793-0.015
					c-0.289,0.057-0.316,0.442-0.052,0.554c0.241,0.102,0.524,0.112,0.781,0.147c0.261,0.035,0.539,0.1,0.801,0.061
					C2.211,67.348,2.247,66.866,1.937,66.752z"/>
				<path fill="#000B37" d="M0.554,65.201c-0.386-0.057-0.797-0.028-1.187-0.035c-0.39-0.007-0.455,0.581-0.057,0.61
					c0.418,0.031,0.848,0.092,1.267,0.07C0.961,65.825,0.901,65.252,0.554,65.201z"/>
				<path fill="#000B37" d="M-0.365,63.952c-0.336-0.183-0.829-0.132-1.205-0.131c-0.382,0.001-0.435,0.525-0.055,0.592
					c0.368,0.065,0.85,0.202,1.209,0.08C-0.201,64.42-0.163,64.061-0.365,63.952z"/>
				<path fill="#000B37" d="M-1.481,62.771c-0.324-0.119-0.749-0.052-1.091-0.052c-0.381,0-0.449,0.576-0.056,0.599
					c0.335,0.02,0.771,0.119,1.094,0.022C-1.27,63.26-1.178,62.883-1.481,62.771z"/>
				<path fill="#000B37" d="M-2.272,61.242c-0.223-0.068-0.454-0.041-0.685-0.034c-0.236,0.007-0.471,0.013-0.707,0.02
					c-0.382,0.011-0.456,0.598-0.057,0.607c0.25,0.005,0.501,0.011,0.751,0.016c0.246,0.005,0.483,0.025,0.719-0.048
					C-1.997,61.724-2.034,61.314-2.272,61.242z"/>
				<path fill="#000B37" d="M-3.35,59.904c-0.207-0.125-0.44-0.144-0.674-0.185c-0.239-0.041-0.477-0.076-0.717-0.106
					c-0.339-0.043-0.48,0.516-0.134,0.597c0.233,0.055,0.465,0.108,0.7,0.152c0.231,0.044,0.469,0.119,0.704,0.075
					C-3.234,60.393-3.12,60.043-3.35,59.904z"/>
				<path fill="#000B37" d="M-4.866,58.629c-0.29-0.136-0.692-0.103-1.007-0.11c-0.411-0.009-0.451,0.544-0.058,0.625
					c0.311,0.064,0.691,0.184,1.007,0.115C-4.592,59.187-4.572,58.767-4.866,58.629z"/>
				<path fill="#000B37" d="M16.68,82.578c-0.727-0.247-1.643,0.013-2.296,0.359c-0.335,0.178-0.106,0.705,0.244,0.542
					c0.317-0.148,0.644-0.248,0.992-0.289c0.336-0.04,0.667,0.011,1.002-0.004C16.949,83.173,16.962,82.673,16.68,82.578z"/>
				<path fill="#000B37" d="M15.154,80.843c-0.516,0.016-1.036,0.118-1.548,0.185c-0.406,0.053-0.299,0.666,0.103,0.623
					c0.483-0.052,0.992-0.067,1.468-0.167C15.516,81.413,15.538,80.832,15.154,80.843z"/>
				<path fill="#000B37" d="M13.69,79.603c-0.288,0.051-0.55,0.185-0.772,0.374c-0.296,0.252,0.066,0.659,0.377,0.455
					c0.158-0.104,0.351-0.163,0.54-0.175c0.201-0.013,0.389,0.076,0.577-0.026c0.179-0.097,0.215-0.288,0.105-0.452
					C14.351,79.529,13.952,79.556,13.69,79.603z"/>
				<path fill="#000B37" d="M13.716,78.421c-0.473-0.027-0.981,0.088-1.452,0.141c-0.406,0.046-0.295,0.65,0.102,0.62
					c0.442-0.034,0.943-0.012,1.372-0.119C14.076,78.978,14.105,78.443,13.716,78.421z"/>
			</g>
		</g>
	</g>
</g>
</svg>
