<?xml version="1.0" encoding="utf-8"?>
<!-- Generator: Adobe Illustrator 17.0.0, SVG Export Plug-In . SVG Version: 6.00 Build 0)  -->
<!DOCTYPE svg PUBLIC "-//W3C//DTD SVG 1.1//EN" "http://www.w3.org/Graphics/SVG/1.1/DTD/svg11.dtd">
<svg version="1.1" xmlns="http://www.w3.org/2000/svg" xmlns:xlink="http://www.w3.org/1999/xlink" x="0px" y="0px"
	 width="55.692px" height="55.692px" viewBox="40.979 149.45 55.692 55.692" enable-background="new 40.979 149.45 55.692 55.692"
	 xml:space="preserve">
<g id="fondo" display="none">
</g>
<g id="Capa_1" display="none">
	<g id="Sol" display="inline">
	</g>
</g>
<g id="Capa_4">
	<g>
		<g>
			<defs>
				<circle id="SVGID_4_" cx="122.197" cy="119.192" r="26.155"/>
			</defs>
			<clipPath id="SVGID_1_">
				<use xlink:href="#SVGID_4_"  overflow="visible"/>
			</clipPath>
			<g clip-path="url(#SVGID_1_)">
				<path fill="#000B37" d="M77.511,178.817c4.987-5.603,9.919-11.256,14.868-16.892c5.494-6.258,10.98-12.523,16.454-18.799
					c0.264,0.242,0.679,0.318,0.999-0.016c5.07-5.288,10.411-10.565,15.017-16.276c0.146,0.016,0.296-0.02,0.425-0.097
					c0.185,0.075,0.401,0.085,0.622-0.013c2.785-1.231,5.607-2.401,8.36-3.7c1.881-0.887,3.522-2.024,4.26-4.043
					c1.462-4.002-1.026-7.97-4.256-10.226c-3.171-2.215-8.075-4.388-11.536-1.609c-1.693,1.359-2.165,3.637-2.666,5.646
					c-0.67,2.684-1.198,5.406-1.506,8.16c-2.526,2.647-4.736,5.695-6.999,8.57c-2.285,2.904-4.595,5.792-6.824,8.741
					c-0.06,0.079-0.099,0.161-0.125,0.244c-0.111,0.02-0.222,0.08-0.322,0.195c-9.917,11.415-19.325,23.378-28.705,35.243
					c-1.084,1.371-3.841,3.845-2.434,5.852C74.463,181.682,76.488,179.967,77.511,178.817z M119.747,121.063
					c0.589-3.507,1.105-7.197,2.324-10.538c1.88-5.151,7.569-3.323,11.004-0.926c3.062,2.137,6.206,6.798,3.172,10.283
					c-1.354,1.555-3.715,2.243-5.541,3.054c-0.849,0.377-1.697,0.754-2.546,1.132c3.523-2.042,7.138-4.484,8.169-8.473
					c0.078-0.303-0.373-0.408-0.466-0.116c-1.542,4.846-6.833,7.067-10.745,9.731c-0.04-0.057-0.079-0.115-0.12-0.171
					c3.925-2.734,8.005-5.805,10.167-10.204c0.146-0.298-0.288-0.537-0.454-0.249c-2.473,4.289-6.164,7.092-10.059,9.995
					c-0.039-0.049-0.077-0.101-0.117-0.149c3.587-3.451,7.998-7.09,10.119-11.688c0.123-0.266-0.246-0.469-0.401-0.219
					c-2.745,4.421-6.454,7.814-10.055,11.503c0,0-0.001-0.001-0.001-0.001c3.218-3.971,6.169-8.272,9.08-12.474
					c0.184-0.265-0.267-0.599-0.464-0.339c-3.062,4.054-6.201,8.174-8.957,12.45c-0.069-0.07-0.136-0.142-0.206-0.21
					c3.021-4.131,5.731-8.554,8.512-12.852c0.198-0.306-0.298-0.571-0.497-0.272c-2.822,4.224-5.789,8.431-8.367,12.81
					c-0.098-0.086-0.193-0.177-0.294-0.259c1.498-1.893,2.809-3.95,4.07-6.008c1.437-2.346,2.597-4.924,4.325-7.071
					c0.234-0.291-0.191-0.7-0.428-0.405c-1.541,1.918-2.596,4.159-3.849,6.267c-1.41,2.372-2.997,4.61-4.518,6.907
					c-0.083-0.061-0.164-0.123-0.249-0.181c3.215-3.754,5.506-8.613,6.66-13.42c0.087-0.362-0.454-0.493-0.557-0.139
					c-1.44,4.939-3.623,9.088-6.548,13.269c-0.079-0.049-0.155-0.1-0.235-0.146c0.023-0.018,0.046-0.035,0.064-0.062
					c3.029-4.403,4.184-9.22,5.947-14.185c0.105-0.297-0.389-0.492-0.517-0.202c-0.967,2.193-1.393,4.579-2.187,6.836
					c-0.914,2.597-2.192,5.012-3.719,7.291c-0.019,0.028-0.027,0.055-0.034,0.082c-0.075-0.039-0.147-0.081-0.222-0.118
					c0.019-0.018,0.037-0.039,0.052-0.069c2.103-4.281,4.114-8.823,4.829-13.586c0.054-0.357-0.471-0.501-0.551-0.138
					c-1.062,4.768-2.921,8.985-4.681,13.503c-0.017,0.043-0.018,0.083-0.013,0.122c-0.078-0.035-0.154-0.074-0.233-0.107
					c0.052-0.033,0.098-0.08,0.123-0.153c1.41-4.146,2.811-8.486,3.728-12.774c0.05-0.235-0.317-0.405-0.41-0.161
					c-1.574,4.112-2.778,8.526-3.863,12.798c-0.011,0.045-0.013,0.086-0.007,0.123C119.901,121.124,119.826,121.09,119.747,121.063z
					 M112.875,130.253c2.108-2.714,4.36-5.402,6.244-8.284c2.073,0.804,3.786,2.206,4.976,4.069
					c-5.253,4.815-10.056,10.303-14.871,15.565c-0.121-0.101-0.269-0.162-0.422-0.16c-0.417-0.397-0.87-0.759-1.306-1.134
					c-0.505-0.434-0.993-0.873-1.529-1.256C108.312,136.155,110.589,133.197,112.875,130.253z M75.939,178.627
					c-0.261-0.128-0.522-0.255-0.784-0.383c-0.847-0.098-1.008-0.361-0.482-0.789c0.254-0.653,1.074-1.336,1.52-1.875
					c1.055-1.275,2.104-2.555,3.145-3.841c4.005-4.95,8.022-9.891,12.016-14.85c4.594-5.704,9.268-11.354,13.676-17.205
					c0.474,0.576,1.013,1.077,1.558,1.593c0.381,0.361,0.754,0.743,1.148,1.097c-8.239,9.338-16.465,18.689-24.649,28.075
					c-2.089,2.396-4.172,4.798-6.27,7.187C76.668,177.804,76.121,178.596,75.939,178.627z"/>
			</g>
		</g>
	</g>
	<g>
		<g>
			<path fill="#000B37" d="M73.609,160.96c-2.867-0.169-5.939-0.606-8.777-0.245c-0.268,0.034-0.394,0.284-0.383,0.526
				c-0.042,0.084-0.07,0.18-0.077,0.292c-0.173,2.685-0.352,5.371-0.52,8.056c-0.149,2.379-0.472,4.842-0.276,7.224
				c-1.124-0.019-2.248-0.035-3.372-0.041c-0.579-0.003-0.815,0.563-0.674,0.98c-0.403,1.502-0.413,3.153-0.569,4.684
				c-0.202,1.981-0.398,3.964-0.577,5.947c-0.152,1.685-0.064,3.91,1.594,4.336c0.074,0.113,0.193,0.203,0.367,0.23
				c3.266,0.504,6.62,0.592,9.915,0.82c2.143,0.148,4.915,0.738,6.782-0.675c1.563-1.183,1.779-3.233,1.881-5.048
				c0.179-3.18,0.292-6.371,0.394-9.554c0.01-0.309-0.144-0.519-0.353-0.63c0.006-0.257-0.172-0.547-0.464-0.591
				c-1.434-0.215-2.903-0.29-4.376-0.318c0.46-2.513,0.262-5.194,0.297-7.743c0.031-2.302,0.293-4.753,0.048-7.062
				c0.262-0.327,0.115-0.867-0.253-1.079C74.06,160.913,73.825,160.887,73.609,160.96z M77.885,178.428
				c-0.118,2.449-0.195,4.9-0.288,7.35c-0.086,2.235,0.354,6.019-2.442,6.738c-2.068,0.532-4.648-0.048-6.745-0.181
				c-2.237-0.142-4.493-0.349-6.74-0.38c-0.06-0.408-0.403-0.801-0.93-0.724c-1.561,0.229-0.478-6.368-0.404-7.241
				c0.158-1.859,0.529-3.887,0.422-5.791c2.971,0.072,5.945,0.092,8.917,0.136c2.716,0.04,5.509,0.231,8.225-0.008
				C77.895,178.36,77.887,178.392,77.885,178.428z M72.934,169.525c-0.009,2.43-0.246,4.987,0.156,7.389
				c0.002,0.01,0.008,0.017,0.01,0.026c-1.256-0.008-2.51,0.003-3.744-0.018c-1.564-0.027-3.128-0.061-4.693-0.091
				c0.497-2.33,0.49-4.809,0.649-7.177c0.174-2.581,0.338-5.163,0.506-7.745c2.319,0.401,4.802,0.378,7.156,0.47
				C72.709,164.708,72.942,167.211,72.934,169.525z"/>
			<path fill="#000B37" d="M72.02,174.596c-0.34,0.084-0.623,0.342-0.924,0.515c-0.32,0.185-0.65,0.35-0.99,0.495
				c-0.342,0.145-0.127,0.749,0.229,0.619c0.375-0.137,0.744-0.288,1.094-0.482c0.32-0.177,0.716-0.371,0.909-0.693
				C72.469,174.833,72.282,174.531,72.02,174.596z"/>
			<path fill="#000B37" d="M71.09,173.291l-0.871,0.393c-0.342,0.154-0.07,0.642,0.268,0.509c0.297-0.118,0.595-0.235,0.892-0.353
				c0.278-0.11,0.578-0.197,0.809-0.39c0.238-0.199,0.001-0.509-0.253-0.482C71.642,172.999,71.357,173.17,71.09,173.291z"/>
			<path fill="#000B37" d="M71.883,171.131c-0.24,0.077-0.444,0.239-0.655,0.374c-0.217,0.139-0.434,0.279-0.652,0.418
				c-0.309,0.198-0.053,0.706,0.269,0.512c0.221-0.133,0.441-0.266,0.662-0.399c0.21-0.126,0.462-0.238,0.633-0.415
				C72.32,171.434,72.176,171.037,71.883,171.131z"/>
			<path fill="#000B37" d="M71.248,169.891c-0.213,0.153-0.443,0.277-0.685,0.379c-0.293,0.123-0.11,0.636,0.196,0.529
				c0.296-0.103,0.583-0.228,0.845-0.402c0.251-0.167,0.549-0.356,0.596-0.671c0.027-0.182-0.17-0.292-0.322-0.269
				C71.632,169.495,71.444,169.75,71.248,169.891z"/>
			<path fill="#000B37" d="M70.981,168.283l-0.554,0.543c-0.268,0.263,0.119,0.69,0.394,0.431c0.188-0.177,0.377-0.354,0.565-0.532
				c0.168-0.158,0.448-0.336,0.493-0.571c0.039-0.2-0.095-0.366-0.306-0.334C71.33,167.856,71.149,168.118,70.981,168.283z"/>
			<path fill="#000B37" d="M71.653,166.376c-0.226,0.073-0.336,0.284-0.523,0.422c-0.178,0.132-0.38,0.21-0.596,0.252
				c-0.377,0.074-0.243,0.638,0.132,0.578c0.279-0.045,0.55-0.147,0.785-0.304c0.221-0.148,0.537-0.378,0.536-0.669
				C71.987,166.492,71.832,166.319,71.653,166.376z"/>
			<path fill="#000B37" d="M71.64,165.187c-0.162,0.091-0.278,0.24-0.439,0.33c-0.161,0.09-0.333,0.12-0.515,0.105
				c-0.368-0.029-0.38,0.516-0.025,0.565c0.525,0.072,1.255-0.18,1.357-0.762C72.051,165.23,71.795,165.1,71.64,165.187z"/>
			<path fill="#000B37" d="M71.055,164.199c-0.18,0.083-0.359,0.169-0.538,0.254c-0.285,0.135-0.11,0.642,0.196,0.529
				c0.185-0.069,0.37-0.137,0.556-0.206c0.191-0.071,0.392-0.117,0.503-0.299c0.085-0.138,0.033-0.367-0.145-0.407
				C71.408,164.02,71.252,164.108,71.055,164.199z"/>
			<path fill="#000B37" d="M76.48,180.545c-0.335,2.064-0.832,4.091-1.536,6.06c-0.181,0.505-0.374,1.434-0.764,1.827
				c-0.582,0.586-1.889,0.822-2.679,0.813c-1.006-0.011-2.086-0.274-3.081-0.406c-2.299-0.305-5.028-0.184-5.792-2.869
				c-0.547-1.924-0.623-4.058-1-6.027c-0.069-0.36-0.588-0.226-0.546,0.125c0.192,1.611,0.436,3.215,0.688,4.817
				c0.154,0.984,0.226,2.105,0.874,2.918c1.352,1.7,4.535,1.559,6.431,1.812c2.063,0.276,4.58,1.151,5.847-1.021
				c1.355-2.322,1.904-5.396,2.328-8.014C77.329,180.091,76.558,180.061,76.48,180.545z"/>
		</g>
		<circle fill="none" stroke="#000B37" stroke-width="2.2738" stroke-miterlimit="10" cx="68.825" cy="177.296" r="26.155"/>
	</g>
</g>
</svg>
