<?xml version="1.0" encoding="utf-8"?>
<!-- Generator: Adobe Illustrator 17.0.0, SVG Export Plug-In . SVG Version: 6.00 Build 0)  -->
<!DOCTYPE svg PUBLIC "-//W3C//DTD SVG 1.1//EN" "http://www.w3.org/Graphics/SVG/1.1/DTD/svg11.dtd">
<svg version="1.1" xmlns="http://www.w3.org/2000/svg" xmlns:xlink="http://www.w3.org/1999/xlink" x="0px" y="0px"
	 width="126.34px" height="126.34px" viewBox="176.378 144.277 126.34 126.34"
	 enable-background="new 176.378 144.277 126.34 126.34" xml:space="preserve">
<g id="fondo" display="none">
</g>
<g id="Capa_1">
	<g id="Sol">
	</g>
	<g>
		<rect x="176.378" y="144.277" fill="#77459D" width="126.34" height="126.34"/>
		<g>
			
				<polyline fill="none" stroke="#EEDAEF" stroke-width="3" stroke-linecap="round" stroke-linejoin="round" stroke-miterlimit="10" points="
				222.061,190.062 222.061,171.328 240.593,190.062 258.426,171.953 258.426,190.062 			"/>
			<path fill="none" stroke="#EEDAEF" stroke-width="3" stroke-linecap="round" stroke-linejoin="round" stroke-miterlimit="10" d="
				M239.548,218.051c0,0,0,8.129,0,9.762c0,1.902,0.041,8.392-8.327,8.392c-9.441,0-9.093-6.979-9.093-8.392
				c0-1.413,0-9.526,0-9.526"/>
			<g>
				
					<path fill="none" stroke="#EEDAEF" stroke-width="3" stroke-linecap="round" stroke-linejoin="round" stroke-miterlimit="10" d="
					M222.13,212.218v-9.762c0,0-0.35-8.392,9.091-8.392s9.091,7.664,9.091,9.077c0,1.413,0.002,8.841,0.002,8.841"/>
				
					<line fill="none" stroke="#EEDAEF" stroke-width="3" stroke-linecap="round" stroke-linejoin="round" stroke-miterlimit="10" x1="222.13" y1="205.886" x2="240.312" y2="205.886"/>
			</g>
			<path fill="none" stroke="#EEDAEF" stroke-width="3" stroke-linecap="round" stroke-linejoin="round" stroke-miterlimit="10" d="
				M245.81,235.139v-17.918h8.999c0,0,5.687,0,5.655,7.276c0,6.076-6.176,5.902-6.263,5.902c-0.087,0-7.813,0-7.813,0"/>
			<g>
				
					<line fill="none" stroke="#EEDAEF" stroke-width="3" stroke-linecap="round" stroke-linejoin="round" stroke-miterlimit="10" x1="245.81" y1="194.88" x2="245.81" y2="211.373"/>
				
					<line fill="none" stroke="#EEDAEF" stroke-width="3" stroke-linecap="round" stroke-linejoin="round" stroke-miterlimit="10" x1="245.81" y1="207.447" x2="258.398" y2="195.772"/>
				
					<line fill="none" stroke="#EEDAEF" stroke-width="3" stroke-linecap="round" stroke-linejoin="round" stroke-miterlimit="10" x1="251.236" y1="202.414" x2="259.594" y2="210.501"/>
			</g>
			
				<polyline fill="none" stroke="#EEDAEF" stroke-width="3" stroke-linecap="round" stroke-linejoin="round" stroke-miterlimit="10" points="
				251.204,170.516 240.38,182.043 229.283,170.516 			"/>
		</g>
		
			<rect x="192.972" y="155.069" fill="none" stroke="#EEDAEF" stroke-width="3" stroke-linecap="round" stroke-linejoin="round" stroke-miterlimit="10" width="96.582" height="96.582"/>
		
			<rect x="192.972" y="155.069" fill="none" stroke="#EEDAEF" stroke-width="3" stroke-linecap="round" stroke-linejoin="round" stroke-miterlimit="10" width="96.582" height="96.582"/>
		
			<line fill="none" stroke="#77459D" stroke-width="3" stroke-linecap="round" stroke-linejoin="round" stroke-miterlimit="10" x1="255.415" y1="169.345" x2="255.415" y2="182.043"/>
		
			<line fill="none" stroke="#77459D" stroke-width="3" stroke-linecap="round" stroke-linejoin="round" stroke-miterlimit="10" x1="224.985" y1="169.518" x2="224.985" y2="182.216"/>
	</g>
</g>
<g id="Capa_4">
</g>
</svg>
