<?xml version="1.0" encoding="utf-8"?>
<!-- Generator: Adobe Illustrator 17.0.0, SVG Export Plug-In . SVG Version: 6.00 Build 0)  -->
<!DOCTYPE svg PUBLIC "-//W3C//DTD SVG 1.1//EN" "http://www.w3.org/Graphics/SVG/1.1/DTD/svg11.dtd">
<svg version="1.1" xmlns="http://www.w3.org/2000/svg" xmlns:xlink="http://www.w3.org/1999/xlink" x="0px" y="0px"
	 width="62.922px" height="36.038px" viewBox="350.544 254.366 62.922 36.038"
	 enable-background="new 350.544 254.366 62.922 36.038" xml:space="preserve">
<g id="fondo" display="none">
</g>
<g id="Capa_1">
	<g id="Sol">
	</g>
	<g>
		<path fill="#EEDAEF" d="M355.217,256.954l-0.571-0.577c-0.684-0.693-1.722-0.901-2.616-0.532c-0.899,0.37-1.486,1.246-1.486,2.218
			v29.944c0,1.324,1.074,2.398,2.398,2.398c1.324,0,2.398-1.074,2.398-2.398v-11.824c-0.072-0.228-0.122-0.466-0.122-0.718V256.954z
			"/>
		<path fill="#EEDAEF" d="M411.977,256.844c-0.896-0.372-1.934-0.158-2.616,0.535l-0.709,0.72v6.834l0.019-0.019v23.093
			c0,1.324,1.074,2.398,2.398,2.398c1.324,0,2.398-1.074,2.398-2.398v-28.945C413.466,258.089,412.878,257.212,411.977,256.844z"/>
		<path fill="#EEDAEF" d="M382.561,284.593l-22.548-22.791v6.819l20.847,21.072c0.451,0.456,1.065,0.712,1.705,0.712
			c0.002,0,0.002,0,0.003,0c0.642,0,1.255-0.259,1.705-0.715l19.585-19.887v-6.834L382.561,284.593z"/>
		<path fill="#EEDAEF" d="M380.497,276.85c0.451,0.47,1.076,0.735,1.726,0.735c0.005,0,0.009,0,0.016,0
			c0.656-0.005,1.283-0.278,1.733-0.757l17.3-18.424c0.905-0.965,0.859-2.482-0.108-3.389c-0.963-0.905-2.479-0.859-3.389,0.108
			l-15.574,16.585l-15.99-16.607c-0.916-0.957-2.435-0.982-3.389-0.064c-0.954,0.918-0.983,2.435-0.066,3.389L380.497,276.85z"/>
	</g>
</g>
<g id="Capa_4" display="none">
</g>
</svg>
